M48
;Layer_Color=9474304
;FILE_FORMAT=4:3
METRIC,LZ
;TYPE=PLATED
T1F00S00C0.300
T2F00S00C0.690
T3F00S00C0.850
T4F00S00C0.900
T5F00S00C1.000
T6F00S00C1.100
T7F00S00C1.550
T9F00S00C3.200
T10F00S00C4.000
%
T01
X0012468Y0006015
X001Y001
X0016256Y0009652
X0022098Y0007666
X0024521Y0004215
X0021844Y0018288
X002286Y002466
X0014986Y002316
X0010414Y0020631
X0007874Y0025295
X0035Y002
X0045
X004699Y002145
X0049022Y0020066
X0055Y002
X0059182Y0017636
X0065Y002
X0066548Y001665
X005Y001
X0073216Y0010936
X0076416Y0011684
X0077216Y0010333
X0082296Y0012446
X0085007Y001665
X0081107Y001825
X0081216Y00199
Y002225
X008001Y002286
X0082232Y0024834
X0083057
X0083312Y0027391
X008636Y002159
X0088646Y0022352
X0091891Y002159
X0095Y002
X0101346Y0023114
X0105Y002
X0106426Y0012446
X01Y001
X0079248Y001905
X0076032Y0020828
X0075Y002
X0073216Y0023114
X0071516Y002413
X0073177Y0015825
X0071516Y0013934
X0107499Y0012446
X011049Y0018542
X0115Y002
X0114554Y0022606
X0125Y002
X0122682Y0017008
Y0014817
X0126854Y00127
X012Y001
X0135Y002
X0135636Y0024384
Y0025654
X0138684
X0137668Y0024384
X0145Y002
X0147828Y0039116
X0146812Y0045085
X014478Y0043815
Y0033274
X014Y003
X013
X0126746Y0037338
X0125Y004
X0131826Y0040896
X0135Y004
X013462Y0037338
X013Y005
X014
X0145Y006
X0115
X012Y005
X011
X0115Y004
X0108331Y0032258
X01Y003
X0085657Y0029528
X0085007Y0032608
X008001Y0029464
X0071916Y0028702
X0069865
X0069088Y0030988
X0075Y004
X0086868Y0039814
X0089662Y0042672
X009Y005
X01
X0105Y004
X0095
X0082232Y0046228
X007Y005
X0075Y006
X0095
X0065
X006Y005
X005
X004
X003
X0035Y006
Y004
X004Y003
X005
X0053594Y0030988
X0064516
X003Y003
X002
X001
X0015Y004
X0025
X002Y005
X001
X0015Y006
X0025
X002Y007
X001
X0015Y008
X0025
X0030226Y0081534
X0035Y008
X004Y007
X005
X006
X0065Y008
X0066294Y0083312
X0055Y008
X003Y007
X008
X009
X01
X0102616Y0074398
X0105Y008
X0095
X0085
X0075
X0115
X0125
X013Y007
X014
X0145Y008
X012Y007
X010725Y0068326
T02
X0039124Y0086386
X0041664Y0083846
X0044204Y0086386
T03
X0118364Y0032004
X0128524
X01143Y00381
X0113792Y0049784
Y005461
X0118364Y005842
X0128524
X0100838Y0058166
X0103632Y005461
Y0049784
X010414Y00381
X0100722Y003556
X0100584Y0028956
X0090424
X0090562Y003556
X0090678Y0058166
X0090994Y0077724
X0101154
X0103694Y0086868
X0113854
X0118618Y0077978
X0128778
T04
X0038862Y0009906
X0041402
X004191Y0024638
X003937
X0064516Y0016002
Y0013462
Y0010922
Y0008382
Y0005842
Y0003302
X0091948Y0002713
X0096774Y0002725
X0101346Y0002713
X010668Y0004076
Y0006616
X0101346Y0010333
Y0012873
X0091948Y0012873
Y0010333
X0110998Y0006616
Y0004076
X0115316
Y0006616
X0119888
Y0004076
T05
X0069342Y0034798
X0066802
X0064262
X0061722
X0059182
X0056642
X0054102
X0051562
X0049022
X0046482
X0043942
X0041402
X0038862
X0036322
X0033782
X0031242
T06
X0130142Y0003116
Y0005616
X0135142
Y0003116
X0132642
T07
X014986Y0051896
Y0056896
Y0064262
X006604Y0089916
X006104
X0073486Y0089916
X0078486
X014986Y0081708
Y0076708
Y0069262
T09
X00045Y00045
X01505
X00045Y00905
X01505
T10
X0075842Y0035798
X0005842
Y0075798
X0075842
M30
