%TF.GenerationSoftware,Altium Limited,Altium Designer,22.7.1 (60)*%
G04 Layer_Physical_Order=2*
G04 Layer_Color=16711680*
%FSLAX43Y43*%
%MOMM*%
%TF.SameCoordinates,2ABDD118-431D-4485-972F-9944B14BA474*%
%TF.FilePolarity,Positive*%
%TF.FileFunction,Copper,L2,Bot,Signal*%
%TF.Part,Single*%
G01*
G75*
%TA.AperFunction,Conductor*%
%ADD30C,0.254*%
%ADD31C,0.500*%
%TA.AperFunction,ComponentPad*%
%ADD32O,3.316X6.632*%
%ADD33C,1.650*%
%ADD34R,1.650X1.650*%
%ADD35C,1.120*%
%ADD36C,1.500*%
%ADD37C,6.000*%
%ADD38R,1.500X1.500*%
%ADD39C,2.325*%
%ADD40R,2.325X2.325*%
%ADD41R,2.325X2.325*%
%ADD42R,1.500X1.500*%
%ADD43C,1.400*%
%TA.AperFunction,ViaPad*%
%ADD44C,1.524*%
%ADD45C,0.650*%
G36*
X149710Y94729D02*
X149725Y94578D01*
X149423Y94518D01*
X148908Y94343D01*
X148420Y94103D01*
X147968Y93800D01*
X147559Y93441D01*
X147200Y93032D01*
X146897Y92580D01*
X146657Y92092D01*
X146482Y91577D01*
X146376Y91043D01*
X146340Y90500D01*
X146376Y89957D01*
X146482Y89423D01*
X146657Y88908D01*
X146897Y88420D01*
X147200Y87968D01*
X147559Y87559D01*
X147968Y87200D01*
X148420Y86897D01*
X148908Y86657D01*
X149423Y86482D01*
X149957Y86376D01*
X150500Y86340D01*
X151043Y86376D01*
X151577Y86482D01*
X152092Y86657D01*
X152580Y86897D01*
X153032Y87200D01*
X153441Y87559D01*
X153800Y87968D01*
X154103Y88420D01*
X154343Y88908D01*
X154518Y89423D01*
X154578Y89725D01*
X154729Y89710D01*
X154756Y5157D01*
X154605Y5142D01*
X154518Y5577D01*
X154343Y6092D01*
X154103Y6580D01*
X153800Y7032D01*
X153441Y7442D01*
X153032Y7800D01*
X152580Y8103D01*
X152092Y8343D01*
X151577Y8518D01*
X151043Y8624D01*
X150500Y8660D01*
X149957Y8624D01*
X149423Y8518D01*
X148908Y8343D01*
X148420Y8103D01*
X147968Y7800D01*
X147559Y7442D01*
X147200Y7032D01*
X146897Y6580D01*
X146657Y6092D01*
X146482Y5577D01*
X146376Y5043D01*
X146340Y4500D01*
X146376Y3957D01*
X146482Y3423D01*
X146657Y2908D01*
X146897Y2420D01*
X147200Y1968D01*
X147559Y1559D01*
X147968Y1200D01*
X148420Y897D01*
X148908Y657D01*
X149423Y482D01*
X149578Y451D01*
X149563Y300D01*
X5570Y326D01*
X5555Y477D01*
X5577Y482D01*
X6092Y657D01*
X6580Y897D01*
X7032Y1200D01*
X7442Y1559D01*
X7800Y1968D01*
X8103Y2420D01*
X8343Y2908D01*
X8518Y3423D01*
X8624Y3957D01*
X8660Y4500D01*
X8624Y5043D01*
X8518Y5577D01*
X8343Y6092D01*
X8103Y6580D01*
X7800Y7032D01*
X7442Y7442D01*
X7032Y7800D01*
X6580Y8103D01*
X6092Y8343D01*
X5577Y8518D01*
X5043Y8624D01*
X4500Y8660D01*
X3957Y8624D01*
X3423Y8518D01*
X2908Y8343D01*
X2420Y8103D01*
X1968Y7800D01*
X1559Y7442D01*
X1200Y7032D01*
X897Y6580D01*
X657Y6092D01*
X482Y5577D01*
X478Y5556D01*
X327Y5571D01*
X311Y89507D01*
X462Y89522D01*
X482Y89423D01*
X657Y88908D01*
X897Y88420D01*
X1200Y87968D01*
X1559Y87559D01*
X1968Y87200D01*
X2420Y86897D01*
X2908Y86657D01*
X3423Y86482D01*
X3957Y86376D01*
X4500Y86340D01*
X5043Y86376D01*
X5577Y86482D01*
X6092Y86657D01*
X6580Y86897D01*
X7032Y87200D01*
X7442Y87559D01*
X7800Y87968D01*
X8103Y88420D01*
X8343Y88908D01*
X8518Y89423D01*
X8624Y89957D01*
X8660Y90500D01*
X8624Y91043D01*
X8518Y91577D01*
X8343Y92092D01*
X8103Y92580D01*
X7800Y93032D01*
X7442Y93441D01*
X7032Y93800D01*
X6580Y94103D01*
X6092Y94343D01*
X5577Y94518D01*
X5173Y94598D01*
X5188Y94749D01*
X149710Y94729D01*
D02*
G37*
%LPC*%
G36*
X61213Y91230D02*
X60867D01*
X60533Y91140D01*
X60234Y90967D01*
X59989Y90723D01*
X59816Y90423D01*
X59727Y90089D01*
Y89743D01*
X59816Y89409D01*
X59989Y89109D01*
X60234Y88865D01*
X60533Y88692D01*
X60867Y88603D01*
X61213D01*
X61547Y88692D01*
X61847Y88865D01*
X62091Y89109D01*
X62264Y89409D01*
X62354Y89743D01*
Y90089D01*
X62264Y90423D01*
X62091Y90723D01*
X61847Y90967D01*
X61547Y91140D01*
X61213Y91230D01*
D02*
G37*
G36*
X73659Y91229D02*
X73313D01*
X72979Y91140D01*
X72679Y90967D01*
X72435Y90723D01*
X72262Y90423D01*
X72173Y90089D01*
Y89743D01*
X72262Y89409D01*
X72435Y89109D01*
X72679Y88865D01*
X72979Y88692D01*
X73313Y88603D01*
X73659D01*
X73993Y88692D01*
X74293Y88865D01*
X74537Y89109D01*
X74710Y89409D01*
X74800Y89743D01*
Y90089D01*
X74710Y90423D01*
X74537Y90723D01*
X74293Y90967D01*
X73993Y91140D01*
X73659Y91229D01*
D02*
G37*
G36*
X44304Y87146D02*
X44304D01*
Y86486D01*
X44964D01*
Y86486D01*
X44912Y86679D01*
X44812Y86853D01*
X44671Y86994D01*
X44498Y87094D01*
X44304Y87146D01*
D02*
G37*
G36*
X44104D02*
X44104D01*
X43911Y87094D01*
X43738Y86994D01*
X43596Y86853D01*
X43496Y86679D01*
X43444Y86486D01*
Y86486D01*
X44104D01*
Y87146D01*
D02*
G37*
G36*
X113966Y87719D02*
X113742D01*
X113526Y87661D01*
X113332Y87549D01*
X113173Y87391D01*
X113061Y87196D01*
X113003Y86980D01*
Y86756D01*
X113061Y86540D01*
X113173Y86345D01*
X113332Y86187D01*
X113526Y86075D01*
X113742Y86017D01*
X113966D01*
X114183Y86075D01*
X114377Y86187D01*
X114535Y86345D01*
X114647Y86540D01*
X114705Y86756D01*
Y86980D01*
X114647Y87196D01*
X114535Y87391D01*
X114377Y87549D01*
X114183Y87661D01*
X113966Y87719D01*
D02*
G37*
G36*
X103806D02*
X103582D01*
X103366Y87661D01*
X103172Y87549D01*
X103013Y87391D01*
X102901Y87196D01*
X102843Y86980D01*
Y86756D01*
X102901Y86540D01*
X103013Y86345D01*
X103172Y86187D01*
X103366Y86075D01*
X103582Y86017D01*
X103806D01*
X104023Y86075D01*
X104217Y86187D01*
X104375Y86345D01*
X104487Y86540D01*
X104545Y86756D01*
Y86980D01*
X104487Y87196D01*
X104375Y87391D01*
X104217Y87549D01*
X104023Y87661D01*
X103806Y87719D01*
D02*
G37*
G36*
X39218Y87097D02*
X39031D01*
X38850Y87049D01*
X38688Y86955D01*
X38555Y86823D01*
X38462Y86660D01*
X38413Y86480D01*
Y86292D01*
X38462Y86112D01*
X38555Y85949D01*
X38688Y85817D01*
X38850Y85723D01*
X39031Y85675D01*
X39218D01*
X39399Y85723D01*
X39561Y85817D01*
X39693Y85949D01*
X39787Y86112D01*
X39835Y86292D01*
Y86480D01*
X39787Y86660D01*
X39693Y86823D01*
X39561Y86955D01*
X39399Y87049D01*
X39218Y87097D01*
D02*
G37*
G36*
X44964Y86286D02*
X44304D01*
Y85626D01*
X44304D01*
X44498Y85678D01*
X44671Y85778D01*
X44812Y85919D01*
X44912Y86093D01*
X44964Y86286D01*
Y86286D01*
D02*
G37*
G36*
X44104D02*
X43444D01*
Y86286D01*
X43496Y86093D01*
X43596Y85919D01*
X43738Y85778D01*
X43911Y85678D01*
X44104Y85626D01*
X44104D01*
Y86286D01*
D02*
G37*
G36*
X41758Y84557D02*
X41571D01*
X41390Y84509D01*
X41228Y84415D01*
X41095Y84283D01*
X41002Y84120D01*
X40953Y83940D01*
Y83752D01*
X41002Y83572D01*
X41095Y83409D01*
X41228Y83277D01*
X41390Y83183D01*
X41571Y83135D01*
X41758D01*
X41939Y83183D01*
X42101Y83277D01*
X42233Y83409D01*
X42327Y83572D01*
X42375Y83752D01*
Y83940D01*
X42327Y84120D01*
X42233Y84283D01*
X42101Y84415D01*
X41939Y84509D01*
X41758Y84557D01*
D02*
G37*
G36*
X150033Y83021D02*
X149687D01*
X149353Y82932D01*
X149053Y82759D01*
X148809Y82515D01*
X148636Y82215D01*
X148547Y81881D01*
Y81535D01*
X148636Y81201D01*
X148752Y81001D01*
X136452Y68700D01*
X136390Y68608D01*
X136369Y68500D01*
Y24247D01*
X136180Y24059D01*
X136052Y24144D01*
X136112Y24289D01*
Y24479D01*
X136040Y24654D01*
X135906Y24788D01*
X135731Y24860D01*
X135541D01*
X135396Y24800D01*
X135311Y24928D01*
X135561Y25178D01*
X135731D01*
X135906Y25250D01*
X136040Y25384D01*
X136112Y25559D01*
Y25749D01*
X136040Y25924D01*
X135906Y26058D01*
X135731Y26130D01*
X135541D01*
X135366Y26058D01*
X135232Y25924D01*
X135160Y25749D01*
Y25579D01*
X125690Y16109D01*
X85336D01*
X85298Y16198D01*
X85290Y16260D01*
X85411Y16380D01*
X85483Y16555D01*
Y16725D01*
X122292D01*
X122412Y16604D01*
X122587Y16532D01*
X122777D01*
X122952Y16604D01*
X123086Y16738D01*
X123158Y16913D01*
Y17103D01*
X123086Y17278D01*
X122952Y17412D01*
X122777Y17484D01*
X122587D01*
X122412Y17412D01*
X122292Y17291D01*
X85365D01*
X85257Y17270D01*
X85165Y17208D01*
X85082Y17126D01*
X84912D01*
X84737Y17054D01*
X84603Y16920D01*
X84531Y16745D01*
Y16555D01*
X84603Y16380D01*
X84724Y16260D01*
X84716Y16198D01*
X84678Y16109D01*
X73566D01*
X73446Y16229D01*
X73271Y16301D01*
X73082D01*
X72907Y16229D01*
X72773Y16095D01*
X72701Y15920D01*
Y15731D01*
X72773Y15556D01*
X72907Y15422D01*
X72981Y15391D01*
X73016Y15213D01*
X72096Y14293D01*
X71830D01*
X71786Y14338D01*
X71611Y14410D01*
X71421D01*
X71246Y14338D01*
X71112Y14204D01*
X71040Y14029D01*
Y13839D01*
X71112Y13664D01*
X71246Y13530D01*
X71421Y13458D01*
X71611D01*
X71786Y13530D01*
X71920Y13664D01*
X71945Y13726D01*
X72214D01*
X72322Y13748D01*
X72414Y13809D01*
X73742Y15137D01*
X88122D01*
X88180Y14986D01*
X85162Y11967D01*
X82704D01*
X82642Y12118D01*
X82700Y12176D01*
X82772Y12351D01*
Y12541D01*
X82700Y12716D01*
X82566Y12850D01*
X82391Y12922D01*
X82201D01*
X82026Y12850D01*
X81906Y12729D01*
X70869D01*
X67024Y16575D01*
Y16745D01*
X66952Y16920D01*
X66818Y17054D01*
X66643Y17126D01*
X66453D01*
X66278Y17054D01*
X66144Y16920D01*
X66072Y16745D01*
Y16555D01*
X66144Y16380D01*
X66278Y16246D01*
X66453Y16174D01*
X66623D01*
X70552Y12246D01*
X70644Y12184D01*
X70752Y12163D01*
X76008D01*
X76070Y12012D01*
X76012Y11954D01*
X75940Y11779D01*
Y11589D01*
X76012Y11414D01*
X76056Y11370D01*
X75994Y11219D01*
X73606D01*
X73486Y11340D01*
X73311Y11412D01*
X73121D01*
X72946Y11340D01*
X72812Y11206D01*
X72740Y11031D01*
Y10841D01*
X72812Y10666D01*
X72946Y10532D01*
X73121Y10460D01*
X73311D01*
X73486Y10532D01*
X73606Y10653D01*
X76670D01*
X76771Y10502D01*
X76745Y10441D01*
X76194Y9889D01*
X68667D01*
X65374Y13182D01*
X65417Y13343D01*
Y13581D01*
X65356Y13810D01*
X65237Y14015D01*
X65069Y14183D01*
X64864Y14302D01*
X64635Y14363D01*
X64397D01*
X64168Y14302D01*
X63963Y14183D01*
X63795Y14015D01*
X63676Y13810D01*
X63615Y13581D01*
Y13343D01*
X63676Y13114D01*
X63795Y12909D01*
X63963Y12741D01*
X64168Y12622D01*
X64397Y12561D01*
X64635D01*
X64796Y12604D01*
X68209Y9191D01*
X68341Y9103D01*
X68498Y9071D01*
X76363D01*
X76520Y9103D01*
X76652Y9191D01*
X77324Y9862D01*
X77486Y9929D01*
X77620Y10063D01*
X77692Y10238D01*
Y10428D01*
X77661Y10502D01*
X77762Y10653D01*
X85104D01*
X85212Y10674D01*
X85304Y10736D01*
X88500Y13931D01*
X126736D01*
X126845Y13953D01*
X126937Y14014D01*
X136852Y23930D01*
X136914Y24022D01*
X136935Y24130D01*
Y68383D01*
X149153Y80600D01*
X149353Y80484D01*
X149687Y80395D01*
X150033D01*
X150367Y80484D01*
X150667Y80657D01*
X150911Y80901D01*
X151084Y81201D01*
X151174Y81535D01*
Y81881D01*
X151084Y82215D01*
X150911Y82515D01*
X150667Y82759D01*
X150367Y82932D01*
X150033Y83021D01*
D02*
G37*
G36*
X145104Y80525D02*
X145100D01*
Y80100D01*
X145525D01*
Y80104D01*
X145445Y80297D01*
X145297Y80445D01*
X145104Y80525D01*
D02*
G37*
G36*
X144900D02*
X144896D01*
X144703Y80445D01*
X144555Y80297D01*
X144475Y80104D01*
Y80100D01*
X144900D01*
Y80525D01*
D02*
G37*
G36*
X125104D02*
X125100D01*
Y80100D01*
X125525D01*
Y80104D01*
X125445Y80297D01*
X125297Y80445D01*
X125104Y80525D01*
D02*
G37*
G36*
X124900D02*
X124896D01*
X124703Y80445D01*
X124555Y80297D01*
X124475Y80104D01*
Y80100D01*
X124900D01*
Y80525D01*
D02*
G37*
G36*
X115104D02*
X115100D01*
Y80100D01*
X115525D01*
Y80104D01*
X115445Y80297D01*
X115297Y80445D01*
X115104Y80525D01*
D02*
G37*
G36*
X114900D02*
X114896D01*
X114703Y80445D01*
X114555Y80297D01*
X114475Y80104D01*
Y80100D01*
X114900D01*
Y80525D01*
D02*
G37*
G36*
X105104D02*
X105100D01*
Y80100D01*
X105525D01*
Y80104D01*
X105445Y80297D01*
X105297Y80445D01*
X105104Y80525D01*
D02*
G37*
G36*
X104900D02*
X104896D01*
X104703Y80445D01*
X104555Y80297D01*
X104475Y80104D01*
Y80100D01*
X104900D01*
Y80525D01*
D02*
G37*
G36*
X95104D02*
X95100D01*
Y80100D01*
X95525D01*
Y80104D01*
X95445Y80297D01*
X95297Y80445D01*
X95104Y80525D01*
D02*
G37*
G36*
X94900D02*
X94896D01*
X94703Y80445D01*
X94555Y80297D01*
X94475Y80104D01*
Y80100D01*
X94900D01*
Y80525D01*
D02*
G37*
G36*
X85104D02*
X85100D01*
Y80100D01*
X85525D01*
Y80104D01*
X85445Y80297D01*
X85297Y80445D01*
X85104Y80525D01*
D02*
G37*
G36*
X84900D02*
X84896D01*
X84703Y80445D01*
X84555Y80297D01*
X84475Y80104D01*
Y80100D01*
X84900D01*
Y80525D01*
D02*
G37*
G36*
X75104D02*
X75100D01*
Y80100D01*
X75525D01*
Y80104D01*
X75445Y80297D01*
X75297Y80445D01*
X75104Y80525D01*
D02*
G37*
G36*
X74900D02*
X74896D01*
X74703Y80445D01*
X74555Y80297D01*
X74475Y80104D01*
Y80100D01*
X74900D01*
Y80525D01*
D02*
G37*
G36*
X65104D02*
X65100D01*
Y80100D01*
X65525D01*
Y80104D01*
X65445Y80297D01*
X65297Y80445D01*
X65104Y80525D01*
D02*
G37*
G36*
X64900D02*
X64896D01*
X64703Y80445D01*
X64555Y80297D01*
X64475Y80104D01*
Y80100D01*
X64900D01*
Y80525D01*
D02*
G37*
G36*
X55104D02*
X55100D01*
Y80100D01*
X55525D01*
Y80104D01*
X55445Y80297D01*
X55297Y80445D01*
X55104Y80525D01*
D02*
G37*
G36*
X54900D02*
X54896D01*
X54703Y80445D01*
X54555Y80297D01*
X54475Y80104D01*
Y80100D01*
X54900D01*
Y80525D01*
D02*
G37*
G36*
X35104D02*
X35100D01*
Y80100D01*
X35525D01*
Y80104D01*
X35445Y80297D01*
X35297Y80445D01*
X35104Y80525D01*
D02*
G37*
G36*
X34900D02*
X34896D01*
X34703Y80445D01*
X34555Y80297D01*
X34475Y80104D01*
Y80100D01*
X34900D01*
Y80525D01*
D02*
G37*
G36*
X25104D02*
X25100D01*
Y80100D01*
X25525D01*
Y80104D01*
X25445Y80297D01*
X25297Y80445D01*
X25104Y80525D01*
D02*
G37*
G36*
X24900D02*
X24896D01*
X24703Y80445D01*
X24555Y80297D01*
X24475Y80104D01*
Y80100D01*
X24900D01*
Y80525D01*
D02*
G37*
G36*
X15104D02*
X15100D01*
Y80100D01*
X15525D01*
Y80104D01*
X15445Y80297D01*
X15297Y80445D01*
X15104Y80525D01*
D02*
G37*
G36*
X14900D02*
X14896D01*
X14703Y80445D01*
X14555Y80297D01*
X14475Y80104D01*
Y80100D01*
X14900D01*
Y80525D01*
D02*
G37*
G36*
X145525Y79900D02*
X145100D01*
Y79475D01*
X145104D01*
X145297Y79555D01*
X145445Y79703D01*
X145525Y79896D01*
Y79900D01*
D02*
G37*
G36*
X144900D02*
X144475D01*
Y79896D01*
X144555Y79703D01*
X144703Y79555D01*
X144896Y79475D01*
X144900D01*
Y79900D01*
D02*
G37*
G36*
X125525D02*
X125100D01*
Y79475D01*
X125104D01*
X125297Y79555D01*
X125445Y79703D01*
X125525Y79896D01*
Y79900D01*
D02*
G37*
G36*
X124900D02*
X124475D01*
Y79896D01*
X124555Y79703D01*
X124703Y79555D01*
X124896Y79475D01*
X124900D01*
Y79900D01*
D02*
G37*
G36*
X115525D02*
X115100D01*
Y79475D01*
X115104D01*
X115297Y79555D01*
X115445Y79703D01*
X115525Y79896D01*
Y79900D01*
D02*
G37*
G36*
X114900D02*
X114475D01*
Y79896D01*
X114555Y79703D01*
X114703Y79555D01*
X114896Y79475D01*
X114900D01*
Y79900D01*
D02*
G37*
G36*
X105525D02*
X105100D01*
Y79475D01*
X105104D01*
X105297Y79555D01*
X105445Y79703D01*
X105525Y79896D01*
Y79900D01*
D02*
G37*
G36*
X104900D02*
X104475D01*
Y79896D01*
X104555Y79703D01*
X104703Y79555D01*
X104896Y79475D01*
X104900D01*
Y79900D01*
D02*
G37*
G36*
X95525D02*
X95100D01*
Y79475D01*
X95104D01*
X95297Y79555D01*
X95445Y79703D01*
X95525Y79896D01*
Y79900D01*
D02*
G37*
G36*
X94900D02*
X94475D01*
Y79896D01*
X94555Y79703D01*
X94703Y79555D01*
X94896Y79475D01*
X94900D01*
Y79900D01*
D02*
G37*
G36*
X85525D02*
X85100D01*
Y79475D01*
X85104D01*
X85297Y79555D01*
X85445Y79703D01*
X85525Y79896D01*
Y79900D01*
D02*
G37*
G36*
X84900D02*
X84475D01*
Y79896D01*
X84555Y79703D01*
X84703Y79555D01*
X84896Y79475D01*
X84900D01*
Y79900D01*
D02*
G37*
G36*
X75525D02*
X75100D01*
Y79475D01*
X75104D01*
X75297Y79555D01*
X75445Y79703D01*
X75525Y79896D01*
Y79900D01*
D02*
G37*
G36*
X74900D02*
X74475D01*
Y79896D01*
X74555Y79703D01*
X74703Y79555D01*
X74896Y79475D01*
X74900D01*
Y79900D01*
D02*
G37*
G36*
X65525D02*
X65100D01*
Y79475D01*
X65104D01*
X65297Y79555D01*
X65445Y79703D01*
X65525Y79896D01*
Y79900D01*
D02*
G37*
G36*
X64900D02*
X64475D01*
Y79896D01*
X64555Y79703D01*
X64703Y79555D01*
X64896Y79475D01*
X64900D01*
Y79900D01*
D02*
G37*
G36*
X55525D02*
X55100D01*
Y79475D01*
X55104D01*
X55297Y79555D01*
X55445Y79703D01*
X55525Y79896D01*
Y79900D01*
D02*
G37*
G36*
X54900D02*
X54475D01*
Y79896D01*
X54555Y79703D01*
X54703Y79555D01*
X54896Y79475D01*
X54900D01*
Y79900D01*
D02*
G37*
G36*
X35525D02*
X35100D01*
Y79475D01*
X35104D01*
X35297Y79555D01*
X35445Y79703D01*
X35525Y79896D01*
Y79900D01*
D02*
G37*
G36*
X34900D02*
X34475D01*
Y79896D01*
X34555Y79703D01*
X34703Y79555D01*
X34896Y79475D01*
X34900D01*
Y79900D01*
D02*
G37*
G36*
X25525D02*
X25100D01*
Y79475D01*
X25104D01*
X25297Y79555D01*
X25445Y79703D01*
X25525Y79896D01*
Y79900D01*
D02*
G37*
G36*
X24900D02*
X24475D01*
Y79896D01*
X24555Y79703D01*
X24703Y79555D01*
X24896Y79475D01*
X24900D01*
Y79900D01*
D02*
G37*
G36*
X15525D02*
X15100D01*
Y79475D01*
X15104D01*
X15297Y79555D01*
X15445Y79703D01*
X15525Y79896D01*
Y79900D01*
D02*
G37*
G36*
X14900D02*
X14475D01*
Y79896D01*
X14555Y79703D01*
X14703Y79555D01*
X14896Y79475D01*
X14900D01*
Y79900D01*
D02*
G37*
G36*
X128890Y78829D02*
X128666D01*
X128450Y78771D01*
X128255Y78659D01*
X128097Y78501D01*
X127985Y78306D01*
X127927Y78090D01*
Y77866D01*
X127985Y77650D01*
X128097Y77455D01*
X128255Y77297D01*
X128450Y77185D01*
X128666Y77127D01*
X128890D01*
X129106Y77185D01*
X129301Y77297D01*
X129459Y77455D01*
X129571Y77650D01*
X129629Y77866D01*
Y78090D01*
X129571Y78306D01*
X129459Y78501D01*
X129301Y78659D01*
X129106Y78771D01*
X128890Y78829D01*
D02*
G37*
G36*
X118730D02*
X118506D01*
X118290Y78771D01*
X118095Y78659D01*
X117937Y78501D01*
X117825Y78306D01*
X117767Y78090D01*
Y77866D01*
X117825Y77650D01*
X117937Y77455D01*
X118095Y77297D01*
X118290Y77185D01*
X118506Y77127D01*
X118730D01*
X118946Y77185D01*
X119141Y77297D01*
X119299Y77455D01*
X119411Y77650D01*
X119469Y77866D01*
Y78090D01*
X119411Y78306D01*
X119299Y78501D01*
X119141Y78659D01*
X118946Y78771D01*
X118730Y78829D01*
D02*
G37*
G36*
X101266Y78575D02*
X101042D01*
X100826Y78517D01*
X100632Y78405D01*
X100473Y78247D01*
X100361Y78052D01*
X100303Y77836D01*
Y77612D01*
X100361Y77396D01*
X100473Y77201D01*
X100632Y77043D01*
X100826Y76931D01*
X101042Y76873D01*
X101266D01*
X101483Y76931D01*
X101677Y77043D01*
X101835Y77201D01*
X101947Y77396D01*
X102005Y77612D01*
Y77836D01*
X101947Y78052D01*
X101835Y78247D01*
X101677Y78405D01*
X101483Y78517D01*
X101266Y78575D01*
D02*
G37*
G36*
X91106D02*
X90882D01*
X90666Y78517D01*
X90472Y78405D01*
X90313Y78247D01*
X90201Y78052D01*
X90143Y77836D01*
Y77612D01*
X90201Y77396D01*
X90313Y77201D01*
X90472Y77043D01*
X90666Y76931D01*
X90882Y76873D01*
X91106D01*
X91323Y76931D01*
X91517Y77043D01*
X91675Y77201D01*
X91787Y77396D01*
X91845Y77612D01*
Y77836D01*
X91787Y78052D01*
X91675Y78247D01*
X91517Y78405D01*
X91323Y78517D01*
X91106Y78575D01*
D02*
G37*
G36*
X151174Y78022D02*
X148547D01*
Y75395D01*
X151174D01*
Y78022D01*
D02*
G37*
G36*
X76090Y78949D02*
X75594D01*
X75104Y78871D01*
X74632Y78718D01*
X74191Y78493D01*
X73789Y78201D01*
X73439Y77851D01*
X73147Y77449D01*
X72922Y77008D01*
X72769Y76536D01*
X72691Y76046D01*
Y75550D01*
X72769Y75060D01*
X72922Y74588D01*
X73147Y74146D01*
X73439Y73745D01*
X73789Y73395D01*
X74191Y73103D01*
X74632Y72878D01*
X75104Y72725D01*
X75594Y72647D01*
X76090D01*
X76580Y72725D01*
X77052Y72878D01*
X77493Y73103D01*
X77895Y73395D01*
X78245Y73745D01*
X78537Y74146D01*
X78762Y74588D01*
X78915Y75060D01*
X78993Y75550D01*
Y76046D01*
X78915Y76536D01*
X78762Y77008D01*
X78537Y77449D01*
X78245Y77851D01*
X77895Y78201D01*
X77493Y78493D01*
X77052Y78718D01*
X76580Y78871D01*
X76090Y78949D01*
D02*
G37*
G36*
X6090D02*
X5594D01*
X5104Y78871D01*
X4632Y78718D01*
X4191Y78493D01*
X3789Y78201D01*
X3439Y77851D01*
X3147Y77449D01*
X2922Y77008D01*
X2769Y76536D01*
X2691Y76046D01*
Y75550D01*
X2769Y75060D01*
X2922Y74588D01*
X3147Y74146D01*
X3439Y73745D01*
X3789Y73395D01*
X4191Y73103D01*
X4632Y72878D01*
X5104Y72725D01*
X5594Y72647D01*
X6090D01*
X6580Y72725D01*
X7052Y72878D01*
X7493Y73103D01*
X7895Y73395D01*
X8245Y73745D01*
X8537Y74146D01*
X8762Y74588D01*
X8915Y75060D01*
X8993Y75550D01*
Y76046D01*
X8915Y76536D01*
X8762Y77008D01*
X8537Y77449D01*
X8245Y77851D01*
X7895Y78201D01*
X7493Y78493D01*
X7052Y78718D01*
X6580Y78871D01*
X6090Y78949D01*
D02*
G37*
G36*
X140104Y70525D02*
X140100D01*
Y70100D01*
X140525D01*
Y70104D01*
X140445Y70297D01*
X140297Y70445D01*
X140104Y70525D01*
D02*
G37*
G36*
X139900D02*
X139896D01*
X139703Y70445D01*
X139555Y70297D01*
X139475Y70104D01*
Y70100D01*
X139900D01*
Y70525D01*
D02*
G37*
G36*
X130104D02*
X130100D01*
Y70100D01*
X130525D01*
Y70104D01*
X130445Y70297D01*
X130297Y70445D01*
X130104Y70525D01*
D02*
G37*
G36*
X129900D02*
X129896D01*
X129703Y70445D01*
X129555Y70297D01*
X129475Y70104D01*
Y70100D01*
X129900D01*
Y70525D01*
D02*
G37*
G36*
X120104D02*
X120100D01*
Y70100D01*
X120525D01*
Y70104D01*
X120445Y70297D01*
X120297Y70445D01*
X120104Y70525D01*
D02*
G37*
G36*
X119900D02*
X119896D01*
X119703Y70445D01*
X119555Y70297D01*
X119475Y70104D01*
Y70100D01*
X119900D01*
Y70525D01*
D02*
G37*
G36*
X100104D02*
X100100D01*
Y70100D01*
X100525D01*
Y70104D01*
X100445Y70297D01*
X100297Y70445D01*
X100104Y70525D01*
D02*
G37*
G36*
X99900D02*
X99896D01*
X99703Y70445D01*
X99555Y70297D01*
X99475Y70104D01*
Y70100D01*
X99900D01*
Y70525D01*
D02*
G37*
G36*
X90104D02*
X90100D01*
Y70100D01*
X90525D01*
Y70104D01*
X90445Y70297D01*
X90297Y70445D01*
X90104Y70525D01*
D02*
G37*
G36*
X89900D02*
X89896D01*
X89703Y70445D01*
X89555Y70297D01*
X89475Y70104D01*
Y70100D01*
X89900D01*
Y70525D01*
D02*
G37*
G36*
X80104D02*
X80100D01*
Y70100D01*
X80525D01*
Y70104D01*
X80445Y70297D01*
X80297Y70445D01*
X80104Y70525D01*
D02*
G37*
G36*
X79900D02*
X79896D01*
X79703Y70445D01*
X79555Y70297D01*
X79475Y70104D01*
Y70100D01*
X79900D01*
Y70525D01*
D02*
G37*
G36*
X60104D02*
X60100D01*
Y70100D01*
X60525D01*
Y70104D01*
X60445Y70297D01*
X60297Y70445D01*
X60104Y70525D01*
D02*
G37*
G36*
X59900D02*
X59896D01*
X59703Y70445D01*
X59555Y70297D01*
X59475Y70104D01*
Y70100D01*
X59900D01*
Y70525D01*
D02*
G37*
G36*
X50104D02*
X50100D01*
Y70100D01*
X50525D01*
Y70104D01*
X50445Y70297D01*
X50297Y70445D01*
X50104Y70525D01*
D02*
G37*
G36*
X49900D02*
X49896D01*
X49703Y70445D01*
X49555Y70297D01*
X49475Y70104D01*
Y70100D01*
X49900D01*
Y70525D01*
D02*
G37*
G36*
X40104D02*
X40100D01*
Y70100D01*
X40525D01*
Y70104D01*
X40445Y70297D01*
X40297Y70445D01*
X40104Y70525D01*
D02*
G37*
G36*
X39900D02*
X39896D01*
X39703Y70445D01*
X39555Y70297D01*
X39475Y70104D01*
Y70100D01*
X39900D01*
Y70525D01*
D02*
G37*
G36*
X30104D02*
X30100D01*
Y70100D01*
X30525D01*
Y70104D01*
X30445Y70297D01*
X30297Y70445D01*
X30104Y70525D01*
D02*
G37*
G36*
X29900D02*
X29896D01*
X29703Y70445D01*
X29555Y70297D01*
X29475Y70104D01*
Y70100D01*
X29900D01*
Y70525D01*
D02*
G37*
G36*
X20104D02*
X20100D01*
Y70100D01*
X20525D01*
Y70104D01*
X20445Y70297D01*
X20297Y70445D01*
X20104Y70525D01*
D02*
G37*
G36*
X19900D02*
X19896D01*
X19703Y70445D01*
X19555Y70297D01*
X19475Y70104D01*
Y70100D01*
X19900D01*
Y70525D01*
D02*
G37*
G36*
X10104D02*
X10100D01*
Y70100D01*
X10525D01*
Y70104D01*
X10445Y70297D01*
X10297Y70445D01*
X10104Y70525D01*
D02*
G37*
G36*
X9900D02*
X9896D01*
X9703Y70445D01*
X9555Y70297D01*
X9475Y70104D01*
Y70100D01*
X9900D01*
Y70525D01*
D02*
G37*
G36*
X140525Y69900D02*
X140100D01*
Y69475D01*
X140104D01*
X140297Y69555D01*
X140445Y69703D01*
X140525Y69896D01*
Y69900D01*
D02*
G37*
G36*
X139900D02*
X139475D01*
Y69896D01*
X139555Y69703D01*
X139703Y69555D01*
X139896Y69475D01*
X139900D01*
Y69900D01*
D02*
G37*
G36*
X130525D02*
X130100D01*
Y69475D01*
X130104D01*
X130297Y69555D01*
X130445Y69703D01*
X130525Y69896D01*
Y69900D01*
D02*
G37*
G36*
X129900D02*
X129475D01*
Y69896D01*
X129555Y69703D01*
X129703Y69555D01*
X129896Y69475D01*
X129900D01*
Y69900D01*
D02*
G37*
G36*
X120525D02*
X120100D01*
Y69475D01*
X120104D01*
X120297Y69555D01*
X120445Y69703D01*
X120525Y69896D01*
Y69900D01*
D02*
G37*
G36*
X119900D02*
X119475D01*
Y69896D01*
X119555Y69703D01*
X119703Y69555D01*
X119896Y69475D01*
X119900D01*
Y69900D01*
D02*
G37*
G36*
X100525D02*
X100100D01*
Y69475D01*
X100104D01*
X100297Y69555D01*
X100445Y69703D01*
X100525Y69896D01*
Y69900D01*
D02*
G37*
G36*
X99900D02*
X99475D01*
Y69896D01*
X99555Y69703D01*
X99703Y69555D01*
X99896Y69475D01*
X99900D01*
Y69900D01*
D02*
G37*
G36*
X90525D02*
X90100D01*
Y69475D01*
X90104D01*
X90297Y69555D01*
X90445Y69703D01*
X90525Y69896D01*
Y69900D01*
D02*
G37*
G36*
X89900D02*
X89475D01*
Y69896D01*
X89555Y69703D01*
X89703Y69555D01*
X89896Y69475D01*
X89900D01*
Y69900D01*
D02*
G37*
G36*
X80525D02*
X80100D01*
Y69475D01*
X80104D01*
X80297Y69555D01*
X80445Y69703D01*
X80525Y69896D01*
Y69900D01*
D02*
G37*
G36*
X79900D02*
X79475D01*
Y69896D01*
X79555Y69703D01*
X79703Y69555D01*
X79896Y69475D01*
X79900D01*
Y69900D01*
D02*
G37*
G36*
X60525D02*
X60100D01*
Y69475D01*
X60104D01*
X60297Y69555D01*
X60445Y69703D01*
X60525Y69896D01*
Y69900D01*
D02*
G37*
G36*
X59900D02*
X59475D01*
Y69896D01*
X59555Y69703D01*
X59703Y69555D01*
X59896Y69475D01*
X59900D01*
Y69900D01*
D02*
G37*
G36*
X50525D02*
X50100D01*
Y69475D01*
X50104D01*
X50297Y69555D01*
X50445Y69703D01*
X50525Y69896D01*
Y69900D01*
D02*
G37*
G36*
X49900D02*
X49475D01*
Y69896D01*
X49555Y69703D01*
X49703Y69555D01*
X49896Y69475D01*
X49900D01*
Y69900D01*
D02*
G37*
G36*
X40525D02*
X40100D01*
Y69475D01*
X40104D01*
X40297Y69555D01*
X40445Y69703D01*
X40525Y69896D01*
Y69900D01*
D02*
G37*
G36*
X39900D02*
X39475D01*
Y69896D01*
X39555Y69703D01*
X39703Y69555D01*
X39896Y69475D01*
X39900D01*
Y69900D01*
D02*
G37*
G36*
X30525D02*
X30100D01*
Y69475D01*
X30104D01*
X30297Y69555D01*
X30445Y69703D01*
X30525Y69896D01*
Y69900D01*
D02*
G37*
G36*
X29900D02*
X29475D01*
Y69896D01*
X29555Y69703D01*
X29703Y69555D01*
X29896Y69475D01*
X29900D01*
Y69900D01*
D02*
G37*
G36*
X20525D02*
X20100D01*
Y69475D01*
X20104D01*
X20297Y69555D01*
X20445Y69703D01*
X20525Y69896D01*
Y69900D01*
D02*
G37*
G36*
X19900D02*
X19475D01*
Y69896D01*
X19555Y69703D01*
X19703Y69555D01*
X19896Y69475D01*
X19900D01*
Y69900D01*
D02*
G37*
G36*
X10525D02*
X10100D01*
Y69475D01*
X10104D01*
X10297Y69555D01*
X10445Y69703D01*
X10525Y69896D01*
Y69900D01*
D02*
G37*
G36*
X9900D02*
X9475D01*
Y69896D01*
X9555Y69703D01*
X9703Y69555D01*
X9896Y69475D01*
X9900D01*
Y69900D01*
D02*
G37*
G36*
X107355Y68851D02*
X107350D01*
Y68426D01*
X107775D01*
Y68430D01*
X107695Y68623D01*
X107548Y68771D01*
X107355Y68851D01*
D02*
G37*
G36*
X150033Y70576D02*
X149687D01*
X149353Y70486D01*
X149053Y70313D01*
X148809Y70069D01*
X148636Y69769D01*
X148547Y69435D01*
Y69089D01*
X148636Y68755D01*
X148752Y68555D01*
X137468Y57270D01*
X137406Y57178D01*
X137385Y57070D01*
Y24774D01*
X137264Y24654D01*
X137192Y24479D01*
Y24289D01*
X137264Y24114D01*
X137398Y23980D01*
X137573Y23908D01*
X137763D01*
X137938Y23980D01*
X138072Y24114D01*
X138144Y24289D01*
Y24479D01*
X138072Y24654D01*
X137951Y24774D01*
Y56953D01*
X149153Y68154D01*
X149353Y68038D01*
X149687Y67949D01*
X150033D01*
X150367Y68038D01*
X150667Y68211D01*
X150911Y68455D01*
X151084Y68755D01*
X151174Y69089D01*
Y69435D01*
X151084Y69769D01*
X150911Y70069D01*
X150667Y70313D01*
X150367Y70486D01*
X150033Y70576D01*
D02*
G37*
G36*
X107775Y68226D02*
X107350D01*
Y67801D01*
X107355D01*
X107548Y67881D01*
X107695Y68029D01*
X107775Y68222D01*
Y68226D01*
D02*
G37*
G36*
X102711Y74874D02*
X102521D01*
X102346Y74802D01*
X102212Y74668D01*
X102140Y74493D01*
Y74303D01*
X102212Y74128D01*
X102346Y73994D01*
X102508Y73927D01*
X105763Y70673D01*
Y43403D01*
X105794Y43247D01*
X105883Y43114D01*
X108272Y40725D01*
Y32777D01*
X108223Y32729D01*
X108074Y32667D01*
X107250D01*
X107094Y32636D01*
X106961Y32547D01*
X101057Y26643D01*
X100968Y26510D01*
X100937Y26354D01*
Y23371D01*
X100870Y23209D01*
Y23019D01*
X100942Y22844D01*
X101076Y22710D01*
X101251Y22638D01*
X101441D01*
X101616Y22710D01*
X101750Y22844D01*
X101822Y23019D01*
Y23209D01*
X101755Y23371D01*
Y26184D01*
X107420Y31849D01*
X108074D01*
X108236Y31782D01*
X108426D01*
X108601Y31854D01*
X108735Y31988D01*
X108802Y32150D01*
X108970Y32319D01*
X109059Y32452D01*
X109090Y32608D01*
Y40485D01*
X114529D01*
X114592Y40334D01*
X114555Y40297D01*
X114475Y40104D01*
Y40100D01*
X115525D01*
Y40104D01*
X115445Y40297D01*
X115408Y40334D01*
X115471Y40485D01*
X124529D01*
X124592Y40334D01*
X124555Y40297D01*
X124475Y40104D01*
Y40100D01*
X125525D01*
Y40104D01*
X125445Y40297D01*
X125408Y40334D01*
X125471Y40485D01*
X131574D01*
X131731Y40420D01*
X131921D01*
X132096Y40492D01*
X132230Y40626D01*
X132302Y40801D01*
Y40991D01*
X132230Y41166D01*
X132096Y41300D01*
X131921Y41372D01*
X131731D01*
X131564Y41303D01*
X108850D01*
X106581Y43572D01*
Y68206D01*
X106725Y68222D01*
X106805Y68029D01*
X106953Y67881D01*
X107146Y67801D01*
X107150D01*
Y68326D01*
Y68851D01*
X107146D01*
X106953Y68771D01*
X106805Y68623D01*
X106725Y68430D01*
X106581Y68446D01*
Y70842D01*
X106550Y70998D01*
X106461Y71131D01*
X103087Y74506D01*
X103020Y74668D01*
X102886Y74802D01*
X102711Y74874D01*
D02*
G37*
G36*
X151174Y65576D02*
X148547D01*
Y62949D01*
X151174D01*
Y65576D01*
D02*
G37*
G36*
X145104Y60525D02*
X145100D01*
Y60100D01*
X145525D01*
Y60104D01*
X145445Y60297D01*
X145297Y60445D01*
X145104Y60525D01*
D02*
G37*
G36*
X144900D02*
X144896D01*
X144703Y60445D01*
X144555Y60297D01*
X144475Y60104D01*
Y60100D01*
X144900D01*
Y60525D01*
D02*
G37*
G36*
X115104D02*
X115100D01*
Y60100D01*
X115525D01*
Y60104D01*
X115445Y60297D01*
X115297Y60445D01*
X115104Y60525D01*
D02*
G37*
G36*
X114900D02*
X114896D01*
X114703Y60445D01*
X114555Y60297D01*
X114475Y60104D01*
Y60100D01*
X114900D01*
Y60525D01*
D02*
G37*
G36*
X95104D02*
X95100D01*
Y60100D01*
X95525D01*
Y60104D01*
X95445Y60297D01*
X95297Y60445D01*
X95104Y60525D01*
D02*
G37*
G36*
X94900D02*
X94896D01*
X94703Y60445D01*
X94555Y60297D01*
X94475Y60104D01*
Y60100D01*
X94900D01*
Y60525D01*
D02*
G37*
G36*
X75104D02*
X75100D01*
Y60100D01*
X75525D01*
Y60104D01*
X75445Y60297D01*
X75297Y60445D01*
X75104Y60525D01*
D02*
G37*
G36*
X74900D02*
X74896D01*
X74703Y60445D01*
X74555Y60297D01*
X74475Y60104D01*
Y60100D01*
X74900D01*
Y60525D01*
D02*
G37*
G36*
X65104D02*
X65100D01*
Y60100D01*
X65525D01*
Y60104D01*
X65445Y60297D01*
X65297Y60445D01*
X65104Y60525D01*
D02*
G37*
G36*
X64900D02*
X64896D01*
X64703Y60445D01*
X64555Y60297D01*
X64475Y60104D01*
Y60100D01*
X64900D01*
Y60525D01*
D02*
G37*
G36*
X35104D02*
X35100D01*
Y60100D01*
X35525D01*
Y60104D01*
X35445Y60297D01*
X35297Y60445D01*
X35104Y60525D01*
D02*
G37*
G36*
X34900D02*
X34896D01*
X34703Y60445D01*
X34555Y60297D01*
X34475Y60104D01*
Y60100D01*
X34900D01*
Y60525D01*
D02*
G37*
G36*
X25104D02*
X25100D01*
Y60100D01*
X25525D01*
Y60104D01*
X25445Y60297D01*
X25297Y60445D01*
X25104Y60525D01*
D02*
G37*
G36*
X24900D02*
X24896D01*
X24703Y60445D01*
X24555Y60297D01*
X24475Y60104D01*
Y60100D01*
X24900D01*
Y60525D01*
D02*
G37*
G36*
X15104D02*
X15100D01*
Y60100D01*
X15525D01*
Y60104D01*
X15445Y60297D01*
X15297Y60445D01*
X15104Y60525D01*
D02*
G37*
G36*
X14900D02*
X14896D01*
X14703Y60445D01*
X14555Y60297D01*
X14475Y60104D01*
Y60100D01*
X14900D01*
Y60525D01*
D02*
G37*
G36*
X145525Y59900D02*
X145100D01*
Y59475D01*
X145104D01*
X145297Y59555D01*
X145445Y59703D01*
X145525Y59896D01*
Y59900D01*
D02*
G37*
G36*
X144900D02*
X144475D01*
Y59896D01*
X144555Y59703D01*
X144703Y59555D01*
X144896Y59475D01*
X144900D01*
Y59900D01*
D02*
G37*
G36*
X115525D02*
X115100D01*
Y59475D01*
X115104D01*
X115297Y59555D01*
X115445Y59703D01*
X115525Y59896D01*
Y59900D01*
D02*
G37*
G36*
X114900D02*
X114475D01*
Y59896D01*
X114555Y59703D01*
X114703Y59555D01*
X114896Y59475D01*
X114900D01*
Y59900D01*
D02*
G37*
G36*
X95525D02*
X95100D01*
Y59475D01*
X95104D01*
X95297Y59555D01*
X95445Y59703D01*
X95525Y59896D01*
Y59900D01*
D02*
G37*
G36*
X94900D02*
X94475D01*
Y59896D01*
X94555Y59703D01*
X94703Y59555D01*
X94896Y59475D01*
X94900D01*
Y59900D01*
D02*
G37*
G36*
X75525D02*
X75100D01*
Y59475D01*
X75104D01*
X75297Y59555D01*
X75445Y59703D01*
X75525Y59896D01*
Y59900D01*
D02*
G37*
G36*
X74900D02*
X74475D01*
Y59896D01*
X74555Y59703D01*
X74703Y59555D01*
X74896Y59475D01*
X74900D01*
Y59900D01*
D02*
G37*
G36*
X65525D02*
X65100D01*
Y59475D01*
X65104D01*
X65297Y59555D01*
X65445Y59703D01*
X65525Y59896D01*
Y59900D01*
D02*
G37*
G36*
X64900D02*
X64475D01*
Y59896D01*
X64555Y59703D01*
X64703Y59555D01*
X64896Y59475D01*
X64900D01*
Y59900D01*
D02*
G37*
G36*
X35525D02*
X35100D01*
Y59475D01*
X35104D01*
X35297Y59555D01*
X35445Y59703D01*
X35525Y59896D01*
Y59900D01*
D02*
G37*
G36*
X34900D02*
X34475D01*
Y59896D01*
X34555Y59703D01*
X34703Y59555D01*
X34896Y59475D01*
X34900D01*
Y59900D01*
D02*
G37*
G36*
X25525D02*
X25100D01*
Y59475D01*
X25104D01*
X25297Y59555D01*
X25445Y59703D01*
X25525Y59896D01*
Y59900D01*
D02*
G37*
G36*
X24900D02*
X24475D01*
Y59896D01*
X24555Y59703D01*
X24703Y59555D01*
X24896Y59475D01*
X24900D01*
Y59900D01*
D02*
G37*
G36*
X15525D02*
X15100D01*
Y59475D01*
X15104D01*
X15297Y59555D01*
X15445Y59703D01*
X15525Y59896D01*
Y59900D01*
D02*
G37*
G36*
X14900D02*
X14475D01*
Y59896D01*
X14555Y59703D01*
X14703Y59555D01*
X14896Y59475D01*
X14900D01*
Y59900D01*
D02*
G37*
G36*
X128636Y59271D02*
X128412D01*
X128196Y59213D01*
X128001Y59101D01*
X127843Y58943D01*
X127731Y58748D01*
X127673Y58532D01*
Y58308D01*
X127731Y58092D01*
X127843Y57897D01*
X128001Y57739D01*
X128196Y57627D01*
X128412Y57569D01*
X128636D01*
X128852Y57627D01*
X129047Y57739D01*
X129205Y57897D01*
X129317Y58092D01*
X129375Y58308D01*
Y58532D01*
X129317Y58748D01*
X129205Y58943D01*
X129047Y59101D01*
X128852Y59213D01*
X128636Y59271D01*
D02*
G37*
G36*
X118476D02*
X118252D01*
X118036Y59213D01*
X117841Y59101D01*
X117683Y58943D01*
X117571Y58748D01*
X117513Y58532D01*
Y58308D01*
X117571Y58092D01*
X117683Y57897D01*
X117841Y57739D01*
X118036Y57627D01*
X118252Y57569D01*
X118476D01*
X118692Y57627D01*
X118887Y57739D01*
X119045Y57897D01*
X119157Y58092D01*
X119215Y58308D01*
Y58532D01*
X119157Y58748D01*
X119045Y58943D01*
X118887Y59101D01*
X118692Y59213D01*
X118476Y59271D01*
D02*
G37*
G36*
X100950Y59017D02*
X100726D01*
X100510Y58959D01*
X100315Y58847D01*
X100157Y58689D01*
X100045Y58494D01*
X99987Y58278D01*
Y58054D01*
X100045Y57838D01*
X100157Y57643D01*
X100315Y57485D01*
X100510Y57373D01*
X100726Y57315D01*
X100950D01*
X101166Y57373D01*
X101361Y57485D01*
X101519Y57643D01*
X101631Y57838D01*
X101689Y58054D01*
Y58278D01*
X101631Y58494D01*
X101519Y58689D01*
X101361Y58847D01*
X101166Y58959D01*
X100950Y59017D01*
D02*
G37*
G36*
X90790D02*
X90566D01*
X90350Y58959D01*
X90155Y58847D01*
X89997Y58689D01*
X89885Y58494D01*
X89827Y58278D01*
Y58054D01*
X89885Y57838D01*
X89997Y57643D01*
X90155Y57485D01*
X90350Y57373D01*
X90566Y57315D01*
X90790D01*
X91006Y57373D01*
X91201Y57485D01*
X91359Y57643D01*
X91471Y57838D01*
X91529Y58054D01*
Y58278D01*
X91471Y58494D01*
X91359Y58689D01*
X91201Y58847D01*
X91006Y58959D01*
X90790Y59017D01*
D02*
G37*
G36*
X150033Y58210D02*
X149687D01*
X149353Y58120D01*
X149053Y57947D01*
X148809Y57703D01*
X148636Y57403D01*
X148547Y57069D01*
Y56723D01*
X148636Y56389D01*
X148809Y56090D01*
X148858Y56041D01*
X138484Y45666D01*
X138422Y45574D01*
X138401Y45466D01*
Y26044D01*
X138280Y25924D01*
X138208Y25749D01*
Y25559D01*
X138280Y25384D01*
X138414Y25250D01*
X138589Y25178D01*
X138779D01*
X138954Y25250D01*
X139088Y25384D01*
X139160Y25559D01*
Y25749D01*
X139088Y25924D01*
X138967Y26044D01*
Y45349D01*
X149314Y55695D01*
X149353Y55672D01*
X149687Y55583D01*
X150033D01*
X150367Y55672D01*
X150667Y55845D01*
X150911Y56090D01*
X151084Y56389D01*
X151174Y56723D01*
Y57069D01*
X151084Y57403D01*
X150911Y57703D01*
X150667Y57947D01*
X150367Y58120D01*
X150033Y58210D01*
D02*
G37*
G36*
X113904Y55461D02*
X113680D01*
X113464Y55403D01*
X113269Y55291D01*
X113111Y55133D01*
X112999Y54938D01*
X112941Y54722D01*
Y54498D01*
X112999Y54282D01*
X113111Y54087D01*
X113269Y53929D01*
X113464Y53817D01*
X113680Y53759D01*
X113904D01*
X114120Y53817D01*
X114315Y53929D01*
X114473Y54087D01*
X114585Y54282D01*
X114643Y54498D01*
Y54722D01*
X114585Y54938D01*
X114473Y55133D01*
X114315Y55291D01*
X114120Y55403D01*
X113904Y55461D01*
D02*
G37*
G36*
X103744D02*
X103520D01*
X103304Y55403D01*
X103109Y55291D01*
X102951Y55133D01*
X102839Y54938D01*
X102781Y54722D01*
Y54498D01*
X102839Y54282D01*
X102951Y54087D01*
X103109Y53929D01*
X103304Y53817D01*
X103520Y53759D01*
X103744D01*
X103960Y53817D01*
X104155Y53929D01*
X104313Y54087D01*
X104425Y54282D01*
X104483Y54498D01*
Y54722D01*
X104425Y54938D01*
X104313Y55133D01*
X104155Y55291D01*
X103960Y55403D01*
X103744Y55461D01*
D02*
G37*
G36*
X151174Y53210D02*
X148547D01*
Y50583D01*
X151174D01*
Y53210D01*
D02*
G37*
G36*
X140104Y50525D02*
X140100D01*
Y50100D01*
X140525D01*
Y50104D01*
X140445Y50297D01*
X140297Y50445D01*
X140104Y50525D01*
D02*
G37*
G36*
X139900D02*
X139896D01*
X139703Y50445D01*
X139555Y50297D01*
X139475Y50104D01*
Y50100D01*
X139900D01*
Y50525D01*
D02*
G37*
G36*
X130104D02*
X130100D01*
Y50100D01*
X130525D01*
Y50104D01*
X130445Y50297D01*
X130297Y50445D01*
X130104Y50525D01*
D02*
G37*
G36*
X129900D02*
X129896D01*
X129703Y50445D01*
X129555Y50297D01*
X129475Y50104D01*
Y50100D01*
X129900D01*
Y50525D01*
D02*
G37*
G36*
X120104D02*
X120100D01*
Y50100D01*
X120525D01*
Y50104D01*
X120445Y50297D01*
X120297Y50445D01*
X120104Y50525D01*
D02*
G37*
G36*
X119900D02*
X119896D01*
X119703Y50445D01*
X119555Y50297D01*
X119475Y50104D01*
Y50100D01*
X119900D01*
Y50525D01*
D02*
G37*
G36*
X110104D02*
X110100D01*
Y50100D01*
X110525D01*
Y50104D01*
X110445Y50297D01*
X110297Y50445D01*
X110104Y50525D01*
D02*
G37*
G36*
X109900D02*
X109896D01*
X109703Y50445D01*
X109555Y50297D01*
X109475Y50104D01*
Y50100D01*
X109900D01*
Y50525D01*
D02*
G37*
G36*
X100104D02*
X100100D01*
Y50100D01*
X100525D01*
Y50104D01*
X100445Y50297D01*
X100297Y50445D01*
X100104Y50525D01*
D02*
G37*
G36*
X99900D02*
X99896D01*
X99703Y50445D01*
X99555Y50297D01*
X99475Y50104D01*
Y50100D01*
X99900D01*
Y50525D01*
D02*
G37*
G36*
X90104D02*
X90100D01*
Y50100D01*
X90525D01*
Y50104D01*
X90445Y50297D01*
X90297Y50445D01*
X90104Y50525D01*
D02*
G37*
G36*
X89900D02*
X89896D01*
X89703Y50445D01*
X89555Y50297D01*
X89475Y50104D01*
Y50100D01*
X89900D01*
Y50525D01*
D02*
G37*
G36*
X70104D02*
X70100D01*
Y50100D01*
X70525D01*
Y50104D01*
X70445Y50297D01*
X70297Y50445D01*
X70104Y50525D01*
D02*
G37*
G36*
X69900D02*
X69896D01*
X69703Y50445D01*
X69555Y50297D01*
X69475Y50104D01*
Y50100D01*
X69900D01*
Y50525D01*
D02*
G37*
G36*
X60104D02*
X60100D01*
Y50100D01*
X60525D01*
Y50104D01*
X60445Y50297D01*
X60297Y50445D01*
X60104Y50525D01*
D02*
G37*
G36*
X59900D02*
X59896D01*
X59703Y50445D01*
X59555Y50297D01*
X59475Y50104D01*
Y50100D01*
X59900D01*
Y50525D01*
D02*
G37*
G36*
X50104D02*
X50100D01*
Y50100D01*
X50525D01*
Y50104D01*
X50445Y50297D01*
X50297Y50445D01*
X50104Y50525D01*
D02*
G37*
G36*
X49900D02*
X49896D01*
X49703Y50445D01*
X49555Y50297D01*
X49475Y50104D01*
Y50100D01*
X49900D01*
Y50525D01*
D02*
G37*
G36*
X40104D02*
X40100D01*
Y50100D01*
X40525D01*
Y50104D01*
X40445Y50297D01*
X40297Y50445D01*
X40104Y50525D01*
D02*
G37*
G36*
X39900D02*
X39896D01*
X39703Y50445D01*
X39555Y50297D01*
X39475Y50104D01*
Y50100D01*
X39900D01*
Y50525D01*
D02*
G37*
G36*
X30104D02*
X30100D01*
Y50100D01*
X30525D01*
Y50104D01*
X30445Y50297D01*
X30297Y50445D01*
X30104Y50525D01*
D02*
G37*
G36*
X29900D02*
X29896D01*
X29703Y50445D01*
X29555Y50297D01*
X29475Y50104D01*
Y50100D01*
X29900D01*
Y50525D01*
D02*
G37*
G36*
X20104D02*
X20100D01*
Y50100D01*
X20525D01*
Y50104D01*
X20445Y50297D01*
X20297Y50445D01*
X20104Y50525D01*
D02*
G37*
G36*
X19900D02*
X19896D01*
X19703Y50445D01*
X19555Y50297D01*
X19475Y50104D01*
Y50100D01*
X19900D01*
Y50525D01*
D02*
G37*
G36*
X10104D02*
X10100D01*
Y50100D01*
X10525D01*
Y50104D01*
X10445Y50297D01*
X10297Y50445D01*
X10104Y50525D01*
D02*
G37*
G36*
X9900D02*
X9896D01*
X9703Y50445D01*
X9555Y50297D01*
X9475Y50104D01*
Y50100D01*
X9900D01*
Y50525D01*
D02*
G37*
G36*
X140525Y49900D02*
X140100D01*
Y49475D01*
X140104D01*
X140297Y49555D01*
X140445Y49703D01*
X140525Y49896D01*
Y49900D01*
D02*
G37*
G36*
X139900D02*
X139475D01*
Y49896D01*
X139555Y49703D01*
X139703Y49555D01*
X139896Y49475D01*
X139900D01*
Y49900D01*
D02*
G37*
G36*
X130525D02*
X130100D01*
Y49475D01*
X130104D01*
X130297Y49555D01*
X130445Y49703D01*
X130525Y49896D01*
Y49900D01*
D02*
G37*
G36*
X129900D02*
X129475D01*
Y49896D01*
X129555Y49703D01*
X129703Y49555D01*
X129896Y49475D01*
X129900D01*
Y49900D01*
D02*
G37*
G36*
X120525D02*
X120100D01*
Y49475D01*
X120104D01*
X120297Y49555D01*
X120445Y49703D01*
X120525Y49896D01*
Y49900D01*
D02*
G37*
G36*
X119900D02*
X119475D01*
Y49896D01*
X119555Y49703D01*
X119703Y49555D01*
X119896Y49475D01*
X119900D01*
Y49900D01*
D02*
G37*
G36*
X110525D02*
X110100D01*
Y49475D01*
X110104D01*
X110297Y49555D01*
X110445Y49703D01*
X110525Y49896D01*
Y49900D01*
D02*
G37*
G36*
X109900D02*
X109475D01*
Y49896D01*
X109555Y49703D01*
X109703Y49555D01*
X109896Y49475D01*
X109900D01*
Y49900D01*
D02*
G37*
G36*
X100525D02*
X100100D01*
Y49475D01*
X100104D01*
X100297Y49555D01*
X100445Y49703D01*
X100525Y49896D01*
Y49900D01*
D02*
G37*
G36*
X99900D02*
X99475D01*
Y49896D01*
X99555Y49703D01*
X99703Y49555D01*
X99896Y49475D01*
X99900D01*
Y49900D01*
D02*
G37*
G36*
X90525D02*
X90100D01*
Y49475D01*
X90104D01*
X90297Y49555D01*
X90445Y49703D01*
X90525Y49896D01*
Y49900D01*
D02*
G37*
G36*
X89900D02*
X89475D01*
Y49896D01*
X89555Y49703D01*
X89703Y49555D01*
X89896Y49475D01*
X89900D01*
Y49900D01*
D02*
G37*
G36*
X70525D02*
X70100D01*
Y49475D01*
X70104D01*
X70297Y49555D01*
X70445Y49703D01*
X70525Y49896D01*
Y49900D01*
D02*
G37*
G36*
X69900D02*
X69475D01*
Y49896D01*
X69555Y49703D01*
X69703Y49555D01*
X69896Y49475D01*
X69900D01*
Y49900D01*
D02*
G37*
G36*
X60525D02*
X60100D01*
Y49475D01*
X60104D01*
X60297Y49555D01*
X60445Y49703D01*
X60525Y49896D01*
Y49900D01*
D02*
G37*
G36*
X59900D02*
X59475D01*
Y49896D01*
X59555Y49703D01*
X59703Y49555D01*
X59896Y49475D01*
X59900D01*
Y49900D01*
D02*
G37*
G36*
X50525D02*
X50100D01*
Y49475D01*
X50104D01*
X50297Y49555D01*
X50445Y49703D01*
X50525Y49896D01*
Y49900D01*
D02*
G37*
G36*
X49900D02*
X49475D01*
Y49896D01*
X49555Y49703D01*
X49703Y49555D01*
X49896Y49475D01*
X49900D01*
Y49900D01*
D02*
G37*
G36*
X40525D02*
X40100D01*
Y49475D01*
X40104D01*
X40297Y49555D01*
X40445Y49703D01*
X40525Y49896D01*
Y49900D01*
D02*
G37*
G36*
X39900D02*
X39475D01*
Y49896D01*
X39555Y49703D01*
X39703Y49555D01*
X39896Y49475D01*
X39900D01*
Y49900D01*
D02*
G37*
G36*
X30525D02*
X30100D01*
Y49475D01*
X30104D01*
X30297Y49555D01*
X30445Y49703D01*
X30525Y49896D01*
Y49900D01*
D02*
G37*
G36*
X29900D02*
X29475D01*
Y49896D01*
X29555Y49703D01*
X29703Y49555D01*
X29896Y49475D01*
X29900D01*
Y49900D01*
D02*
G37*
G36*
X20525D02*
X20100D01*
Y49475D01*
X20104D01*
X20297Y49555D01*
X20445Y49703D01*
X20525Y49896D01*
Y49900D01*
D02*
G37*
G36*
X19900D02*
X19475D01*
Y49896D01*
X19555Y49703D01*
X19703Y49555D01*
X19896Y49475D01*
X19900D01*
Y49900D01*
D02*
G37*
G36*
X10525D02*
X10100D01*
Y49475D01*
X10104D01*
X10297Y49555D01*
X10445Y49703D01*
X10525Y49896D01*
Y49900D01*
D02*
G37*
G36*
X9900D02*
X9475D01*
Y49896D01*
X9555Y49703D01*
X9703Y49555D01*
X9896Y49475D01*
X9900D01*
Y49900D01*
D02*
G37*
G36*
X113904Y50635D02*
X113680D01*
X113464Y50577D01*
X113269Y50465D01*
X113111Y50307D01*
X112999Y50112D01*
X112941Y49896D01*
Y49672D01*
X112999Y49456D01*
X113111Y49261D01*
X113269Y49103D01*
X113464Y48991D01*
X113680Y48933D01*
X113904D01*
X114120Y48991D01*
X114315Y49103D01*
X114473Y49261D01*
X114585Y49456D01*
X114643Y49672D01*
Y49896D01*
X114585Y50112D01*
X114473Y50307D01*
X114315Y50465D01*
X114120Y50577D01*
X113904Y50635D01*
D02*
G37*
G36*
X103744D02*
X103520D01*
X103304Y50577D01*
X103109Y50465D01*
X102951Y50307D01*
X102839Y50112D01*
X102781Y49896D01*
Y49672D01*
X102839Y49456D01*
X102951Y49261D01*
X103109Y49103D01*
X103304Y48991D01*
X103520Y48933D01*
X103744D01*
X103960Y48991D01*
X104155Y49103D01*
X104313Y49261D01*
X104425Y49456D01*
X104483Y49672D01*
Y49896D01*
X104425Y50112D01*
X104313Y50307D01*
X104155Y50465D01*
X103960Y50577D01*
X103744Y50635D01*
D02*
G37*
G36*
X79799Y91229D02*
X77173D01*
Y88603D01*
X79221D01*
X86967Y80857D01*
Y44958D01*
X86998Y44802D01*
X87087Y44669D01*
X89191Y42564D01*
X89258Y42402D01*
X89392Y42268D01*
X89567Y42196D01*
X89757D01*
X89932Y42268D01*
X90066Y42402D01*
X90138Y42577D01*
Y42767D01*
X90066Y42942D01*
X89932Y43076D01*
X89770Y43143D01*
X87785Y45127D01*
Y81026D01*
X87754Y81182D01*
X87665Y81315D01*
X79799Y89181D01*
Y91229D01*
D02*
G37*
G36*
X135104Y40525D02*
X135100D01*
Y40100D01*
X135525D01*
Y40104D01*
X135445Y40297D01*
X135297Y40445D01*
X135104Y40525D01*
D02*
G37*
G36*
X134900D02*
X134896D01*
X134703Y40445D01*
X134555Y40297D01*
X134475Y40104D01*
Y40100D01*
X134900D01*
Y40525D01*
D02*
G37*
G36*
X105104D02*
X105100D01*
Y40100D01*
X105525D01*
Y40104D01*
X105445Y40297D01*
X105297Y40445D01*
X105104Y40525D01*
D02*
G37*
G36*
X104900D02*
X104896D01*
X104703Y40445D01*
X104555Y40297D01*
X104475Y40104D01*
Y40100D01*
X104900D01*
Y40525D01*
D02*
G37*
G36*
X95104D02*
X95100D01*
Y40100D01*
X95525D01*
Y40104D01*
X95445Y40297D01*
X95297Y40445D01*
X95104Y40525D01*
D02*
G37*
G36*
X94900D02*
X94896D01*
X94703Y40445D01*
X94555Y40297D01*
X94475Y40104D01*
Y40100D01*
X94900D01*
Y40525D01*
D02*
G37*
G36*
X75104D02*
X75100D01*
Y40100D01*
X75525D01*
Y40104D01*
X75445Y40297D01*
X75297Y40445D01*
X75104Y40525D01*
D02*
G37*
G36*
X74900D02*
X74896D01*
X74703Y40445D01*
X74555Y40297D01*
X74475Y40104D01*
Y40100D01*
X74900D01*
Y40525D01*
D02*
G37*
G36*
X35104D02*
X35100D01*
Y40100D01*
X35525D01*
Y40104D01*
X35445Y40297D01*
X35297Y40445D01*
X35104Y40525D01*
D02*
G37*
G36*
X34900D02*
X34896D01*
X34703Y40445D01*
X34555Y40297D01*
X34475Y40104D01*
Y40100D01*
X34900D01*
Y40525D01*
D02*
G37*
G36*
X25104D02*
X25100D01*
Y40100D01*
X25525D01*
Y40104D01*
X25445Y40297D01*
X25297Y40445D01*
X25104Y40525D01*
D02*
G37*
G36*
X24900D02*
X24896D01*
X24703Y40445D01*
X24555Y40297D01*
X24475Y40104D01*
Y40100D01*
X24900D01*
Y40525D01*
D02*
G37*
G36*
X15104D02*
X15100D01*
Y40100D01*
X15525D01*
Y40104D01*
X15445Y40297D01*
X15297Y40445D01*
X15104Y40525D01*
D02*
G37*
G36*
X14900D02*
X14896D01*
X14703Y40445D01*
X14555Y40297D01*
X14475Y40104D01*
Y40100D01*
X14900D01*
Y40525D01*
D02*
G37*
G36*
X135525Y39900D02*
X135100D01*
Y39475D01*
X135104D01*
X135297Y39555D01*
X135445Y39703D01*
X135525Y39896D01*
Y39900D01*
D02*
G37*
G36*
X134900D02*
X134475D01*
Y39896D01*
X134555Y39703D01*
X134703Y39555D01*
X134896Y39475D01*
X134900D01*
Y39900D01*
D02*
G37*
G36*
X125525D02*
X125100D01*
Y39475D01*
X125104D01*
X125297Y39555D01*
X125445Y39703D01*
X125525Y39896D01*
Y39900D01*
D02*
G37*
G36*
X124900D02*
X124475D01*
Y39896D01*
X124555Y39703D01*
X124703Y39555D01*
X124896Y39475D01*
X124900D01*
Y39900D01*
D02*
G37*
G36*
X115525D02*
X115100D01*
Y39475D01*
X115104D01*
X115297Y39555D01*
X115445Y39703D01*
X115525Y39896D01*
Y39900D01*
D02*
G37*
G36*
X114900D02*
X114475D01*
Y39896D01*
X114555Y39703D01*
X114703Y39555D01*
X114896Y39475D01*
X114900D01*
Y39900D01*
D02*
G37*
G36*
X105525D02*
X105100D01*
Y39475D01*
X105104D01*
X105297Y39555D01*
X105445Y39703D01*
X105525Y39896D01*
Y39900D01*
D02*
G37*
G36*
X104900D02*
X104475D01*
Y39896D01*
X104555Y39703D01*
X104703Y39555D01*
X104896Y39475D01*
X104900D01*
Y39900D01*
D02*
G37*
G36*
X95525D02*
X95100D01*
Y39475D01*
X95104D01*
X95297Y39555D01*
X95445Y39703D01*
X95525Y39896D01*
Y39900D01*
D02*
G37*
G36*
X94900D02*
X94475D01*
Y39896D01*
X94555Y39703D01*
X94703Y39555D01*
X94896Y39475D01*
X94900D01*
Y39900D01*
D02*
G37*
G36*
X75525D02*
X75100D01*
Y39475D01*
X75104D01*
X75297Y39555D01*
X75445Y39703D01*
X75525Y39896D01*
Y39900D01*
D02*
G37*
G36*
X74900D02*
X74475D01*
Y39896D01*
X74555Y39703D01*
X74703Y39555D01*
X74896Y39475D01*
X74900D01*
Y39900D01*
D02*
G37*
G36*
X35525D02*
X35100D01*
Y39475D01*
X35104D01*
X35297Y39555D01*
X35445Y39703D01*
X35525Y39896D01*
Y39900D01*
D02*
G37*
G36*
X34900D02*
X34475D01*
Y39896D01*
X34555Y39703D01*
X34703Y39555D01*
X34896Y39475D01*
X34900D01*
Y39900D01*
D02*
G37*
G36*
X25525D02*
X25100D01*
Y39475D01*
X25104D01*
X25297Y39555D01*
X25445Y39703D01*
X25525Y39896D01*
Y39900D01*
D02*
G37*
G36*
X24900D02*
X24475D01*
Y39896D01*
X24555Y39703D01*
X24703Y39555D01*
X24896Y39475D01*
X24900D01*
Y39900D01*
D02*
G37*
G36*
X15525D02*
X15100D01*
Y39475D01*
X15104D01*
X15297Y39555D01*
X15445Y39703D01*
X15525Y39896D01*
Y39900D01*
D02*
G37*
G36*
X14900D02*
X14475D01*
Y39896D01*
X14555Y39703D01*
X14703Y39555D01*
X14896Y39475D01*
X14900D01*
Y39900D01*
D02*
G37*
G36*
X146907Y45561D02*
X146717D01*
X146542Y45489D01*
X146408Y45355D01*
X146336Y45180D01*
Y44990D01*
X146403Y44828D01*
Y42672D01*
X146434Y42516D01*
X146523Y42383D01*
X147419Y41487D01*
Y39373D01*
X147352Y39211D01*
Y39021D01*
X147424Y38846D01*
X147558Y38712D01*
X147733Y38640D01*
X147923D01*
X148098Y38712D01*
X148232Y38846D01*
X148304Y39021D01*
Y39211D01*
X148237Y39373D01*
Y41656D01*
X148206Y41812D01*
X148117Y41945D01*
X147221Y42841D01*
Y44828D01*
X147288Y44990D01*
Y45180D01*
X147216Y45355D01*
X147082Y45489D01*
X146907Y45561D01*
D02*
G37*
G36*
X134715Y37814D02*
X134525D01*
X134363Y37747D01*
X127003D01*
X126841Y37814D01*
X126651D01*
X126476Y37742D01*
X126342Y37608D01*
X126270Y37433D01*
Y37243D01*
X126342Y37068D01*
X126476Y36934D01*
X126651Y36862D01*
X126841D01*
X127003Y36929D01*
X134363D01*
X134525Y36862D01*
X134715D01*
X134890Y36934D01*
X135024Y37068D01*
X135096Y37243D01*
Y37433D01*
X135024Y37608D01*
X134890Y37742D01*
X134715Y37814D01*
D02*
G37*
G36*
X114412Y38951D02*
X114188D01*
X113972Y38893D01*
X113777Y38781D01*
X113619Y38623D01*
X113507Y38428D01*
X113449Y38212D01*
Y37988D01*
X113507Y37772D01*
X113619Y37577D01*
X113777Y37419D01*
X113972Y37307D01*
X114188Y37249D01*
X114412D01*
X114628Y37307D01*
X114823Y37419D01*
X114981Y37577D01*
X115093Y37772D01*
X115151Y37988D01*
Y38212D01*
X115093Y38428D01*
X114981Y38623D01*
X114823Y38781D01*
X114628Y38893D01*
X114412Y38951D01*
D02*
G37*
G36*
X104252D02*
X104028D01*
X103812Y38893D01*
X103617Y38781D01*
X103459Y38623D01*
X103347Y38428D01*
X103289Y38212D01*
Y37988D01*
X103347Y37772D01*
X103459Y37577D01*
X103617Y37419D01*
X103812Y37307D01*
X104028Y37249D01*
X104252D01*
X104468Y37307D01*
X104663Y37419D01*
X104821Y37577D01*
X104933Y37772D01*
X104991Y37988D01*
Y38212D01*
X104933Y38428D01*
X104821Y38623D01*
X104663Y38781D01*
X104468Y38893D01*
X104252Y38951D01*
D02*
G37*
G36*
X67354Y91230D02*
X64727D01*
Y88603D01*
X67354D01*
Y89377D01*
X67505Y89397D01*
X69187Y87715D01*
Y60706D01*
X69218Y60550D01*
X69307Y60417D01*
X91482Y38242D01*
Y35970D01*
X91331Y35930D01*
X91243Y36083D01*
X91085Y36241D01*
X90890Y36353D01*
X90674Y36411D01*
X90450D01*
X90234Y36353D01*
X90039Y36241D01*
X89881Y36083D01*
X89769Y35888D01*
X89711Y35672D01*
Y35448D01*
X89769Y35232D01*
X89881Y35037D01*
X90039Y34879D01*
X90234Y34767D01*
X90450Y34709D01*
X90674D01*
X90890Y34767D01*
X91085Y34879D01*
X91243Y35037D01*
X91331Y35190D01*
X91482Y35150D01*
Y21847D01*
X91415Y21685D01*
Y21495D01*
X91487Y21320D01*
X91621Y21186D01*
X91796Y21114D01*
X91986D01*
X92148Y21181D01*
X113538D01*
X113694Y21212D01*
X113827Y21301D01*
X114662Y22135D01*
X114824Y22202D01*
X114958Y22336D01*
X115030Y22511D01*
Y22701D01*
X114958Y22876D01*
X114824Y23010D01*
X114649Y23082D01*
X114459D01*
X114284Y23010D01*
X114150Y22876D01*
X114083Y22714D01*
X113369Y21999D01*
X92300D01*
Y38411D01*
X92269Y38567D01*
X92180Y38700D01*
X70005Y60875D01*
Y87884D01*
X69974Y88040D01*
X69885Y88173D01*
X67949Y90109D01*
X67816Y90198D01*
X67660Y90229D01*
X67354D01*
Y91230D01*
D02*
G37*
G36*
X66389Y83788D02*
X66199D01*
X66024Y83716D01*
X65890Y83582D01*
X65818Y83407D01*
Y83217D01*
X65890Y83042D01*
X66024Y82908D01*
X66199Y82836D01*
X66369D01*
X68362Y80843D01*
Y61143D01*
X65332Y58112D01*
X65270Y58020D01*
X65249Y57912D01*
Y35181D01*
X65102Y35146D01*
X64983Y35351D01*
X64815Y35519D01*
X64610Y35638D01*
X64381Y35699D01*
X64143D01*
X63914Y35638D01*
X63709Y35519D01*
X63541Y35351D01*
X63422Y35146D01*
X63361Y34917D01*
Y34679D01*
X63422Y34450D01*
X63541Y34245D01*
X63709Y34077D01*
X63914Y33958D01*
X64143Y33897D01*
X64381D01*
X64610Y33958D01*
X64815Y34077D01*
X64983Y34245D01*
X65102Y34450D01*
X65249Y34415D01*
Y29261D01*
X65270Y29153D01*
X65332Y29061D01*
X71479Y22914D01*
X71571Y22852D01*
X71679Y22831D01*
X72826D01*
X72929Y22727D01*
X72917Y22648D01*
X72883Y22576D01*
X56564D01*
X49782Y29358D01*
X49868Y29486D01*
X49896Y29475D01*
X49900D01*
Y29900D01*
X49475D01*
Y29896D01*
X49486Y29868D01*
X49358Y29782D01*
X44748Y34393D01*
X44782Y34450D01*
X44843Y34679D01*
Y34917D01*
X44782Y35146D01*
X44663Y35351D01*
X44495Y35519D01*
X44290Y35638D01*
X44061Y35699D01*
X43823D01*
X43594Y35638D01*
X43389Y35519D01*
X43221Y35351D01*
X43102Y35146D01*
X43041Y34917D01*
Y34679D01*
X43102Y34450D01*
X43221Y34245D01*
X43389Y34077D01*
X43594Y33958D01*
X43823Y33897D01*
X44061D01*
X44290Y33958D01*
X44347Y33992D01*
X56072Y22267D01*
X56014Y22127D01*
X54219D01*
X42113Y34234D01*
X42123Y34245D01*
X42242Y34450D01*
X42303Y34679D01*
Y34917D01*
X42242Y35146D01*
X42123Y35351D01*
X41955Y35519D01*
X41750Y35638D01*
X41521Y35699D01*
X41283D01*
X41054Y35638D01*
X40849Y35519D01*
X40681Y35351D01*
X40562Y35146D01*
X40501Y34917D01*
Y34679D01*
X40562Y34450D01*
X40681Y34245D01*
X40849Y34077D01*
X41054Y33958D01*
X41283Y33897D01*
X41521D01*
X41621Y33924D01*
X53902Y21644D01*
X53994Y21582D01*
X54102Y21561D01*
X74016D01*
X74124Y21582D01*
X74216Y21644D01*
X74539Y21967D01*
X80826D01*
X80946Y21846D01*
X81121Y21774D01*
X81311D01*
X81486Y21846D01*
X81620Y21980D01*
X81692Y22155D01*
Y22345D01*
X81620Y22520D01*
X81486Y22654D01*
X81311Y22726D01*
X81121D01*
X80946Y22654D01*
X80826Y22533D01*
X80553D01*
X80452Y22684D01*
X80486Y22765D01*
Y22955D01*
X80414Y23130D01*
X80280Y23264D01*
X80105Y23336D01*
X79915D01*
X79740Y23264D01*
X79620Y23143D01*
X74422D01*
X74314Y23122D01*
X74222Y23060D01*
X73738Y22576D01*
X73549D01*
X73515Y22648D01*
X73503Y22727D01*
X73620Y22844D01*
X73692Y23019D01*
Y23209D01*
X73620Y23384D01*
X73486Y23518D01*
X73311Y23590D01*
X73121D01*
X72946Y23518D01*
X72826Y23397D01*
X71797D01*
X71676Y23518D01*
X71712Y23696D01*
X71786Y23726D01*
X71920Y23860D01*
X71992Y24035D01*
Y24205D01*
X77031Y29244D01*
X79586D01*
X79606Y29194D01*
X79740Y29060D01*
X79915Y28988D01*
X80105D01*
X80280Y29060D01*
X80414Y29194D01*
X80486Y29369D01*
Y29559D01*
X80414Y29734D01*
X80280Y29868D01*
X80105Y29940D01*
X79915D01*
X79740Y29868D01*
X79684Y29811D01*
X76913D01*
X76805Y29789D01*
X76713Y29728D01*
X71591Y24606D01*
X71421D01*
X71246Y24534D01*
X71112Y24400D01*
X71082Y24326D01*
X70904Y24290D01*
X65815Y29379D01*
Y34415D01*
X65962Y34450D01*
X66081Y34245D01*
X66249Y34077D01*
X66393Y33994D01*
Y30480D01*
X66424Y30324D01*
X66513Y30191D01*
X68291Y28413D01*
X68424Y28324D01*
X68580Y28293D01*
X69608D01*
X69770Y28226D01*
X69960D01*
X70122Y28293D01*
X71660D01*
X71822Y28226D01*
X72011D01*
X72186Y28298D01*
X72320Y28432D01*
X72392Y28607D01*
Y28797D01*
X72320Y28972D01*
X72186Y29106D01*
X72011Y29178D01*
X71822D01*
X71660Y29111D01*
X70122D01*
X69960Y29178D01*
X69770D01*
X69608Y29111D01*
X68749D01*
X67211Y30649D01*
Y33994D01*
X67355Y34077D01*
X67523Y34245D01*
X67642Y34450D01*
X67703Y34679D01*
Y34917D01*
X67642Y35146D01*
X67523Y35351D01*
X67355Y35519D01*
X67150Y35638D01*
X66921Y35699D01*
X66683D01*
X66454Y35638D01*
X66249Y35519D01*
X66081Y35351D01*
X65962Y35146D01*
X65815Y35181D01*
Y57795D01*
X68846Y60825D01*
X68907Y60917D01*
X68929Y61025D01*
Y80961D01*
X68907Y81069D01*
X68846Y81161D01*
X66770Y83237D01*
Y83407D01*
X66698Y83582D01*
X66564Y83716D01*
X66389Y83788D01*
D02*
G37*
G36*
X69467Y35748D02*
X69442D01*
Y34898D01*
X70292D01*
Y34923D01*
X70227Y35165D01*
X70102Y35381D01*
X69925Y35558D01*
X69709Y35683D01*
X69467Y35748D01*
D02*
G37*
G36*
X69242D02*
X69217D01*
X68975Y35683D01*
X68759Y35558D01*
X68582Y35381D01*
X68457Y35165D01*
X68392Y34923D01*
Y34898D01*
X69242D01*
Y35748D01*
D02*
G37*
G36*
X100834Y36411D02*
X100610D01*
X100394Y36353D01*
X100199Y36241D01*
X100041Y36083D01*
X99929Y35888D01*
X99871Y35672D01*
Y35448D01*
X99929Y35232D01*
X100041Y35037D01*
X100199Y34879D01*
X100394Y34767D01*
X100610Y34709D01*
X100834D01*
X101050Y34767D01*
X101245Y34879D01*
X101403Y35037D01*
X101515Y35232D01*
X101573Y35448D01*
Y35672D01*
X101515Y35888D01*
X101403Y36083D01*
X101245Y36241D01*
X101050Y36353D01*
X100834Y36411D01*
D02*
G37*
G36*
X61841Y35699D02*
X61603D01*
X61374Y35638D01*
X61169Y35519D01*
X61001Y35351D01*
X60882Y35146D01*
X60821Y34917D01*
Y34679D01*
X60882Y34450D01*
X61001Y34245D01*
X61169Y34077D01*
X61374Y33958D01*
X61603Y33897D01*
X61841D01*
X62070Y33958D01*
X62275Y34077D01*
X62443Y34245D01*
X62562Y34450D01*
X62623Y34679D01*
Y34917D01*
X62562Y35146D01*
X62443Y35351D01*
X62275Y35519D01*
X62070Y35638D01*
X61841Y35699D01*
D02*
G37*
G36*
X59301D02*
X59063D01*
X58834Y35638D01*
X58629Y35519D01*
X58461Y35351D01*
X58342Y35146D01*
X58281Y34917D01*
Y34679D01*
X58342Y34450D01*
X58461Y34245D01*
X58629Y34077D01*
X58834Y33958D01*
X59063Y33897D01*
X59301D01*
X59530Y33958D01*
X59735Y34077D01*
X59903Y34245D01*
X60022Y34450D01*
X60083Y34679D01*
Y34917D01*
X60022Y35146D01*
X59903Y35351D01*
X59735Y35519D01*
X59530Y35638D01*
X59301Y35699D01*
D02*
G37*
G36*
X56761D02*
X56523D01*
X56294Y35638D01*
X56089Y35519D01*
X55921Y35351D01*
X55802Y35146D01*
X55741Y34917D01*
Y34679D01*
X55802Y34450D01*
X55921Y34245D01*
X56089Y34077D01*
X56294Y33958D01*
X56523Y33897D01*
X56761D01*
X56990Y33958D01*
X57195Y34077D01*
X57363Y34245D01*
X57482Y34450D01*
X57543Y34679D01*
Y34917D01*
X57482Y35146D01*
X57363Y35351D01*
X57195Y35519D01*
X56990Y35638D01*
X56761Y35699D01*
D02*
G37*
G36*
X54221D02*
X53983D01*
X53754Y35638D01*
X53549Y35519D01*
X53381Y35351D01*
X53262Y35146D01*
X53201Y34917D01*
Y34679D01*
X53262Y34450D01*
X53381Y34245D01*
X53549Y34077D01*
X53754Y33958D01*
X53983Y33897D01*
X54221D01*
X54450Y33958D01*
X54655Y34077D01*
X54823Y34245D01*
X54942Y34450D01*
X55003Y34679D01*
Y34917D01*
X54942Y35146D01*
X54823Y35351D01*
X54655Y35519D01*
X54450Y35638D01*
X54221Y35699D01*
D02*
G37*
G36*
X51681D02*
X51443D01*
X51214Y35638D01*
X51009Y35519D01*
X50841Y35351D01*
X50722Y35146D01*
X50661Y34917D01*
Y34679D01*
X50722Y34450D01*
X50841Y34245D01*
X51009Y34077D01*
X51214Y33958D01*
X51443Y33897D01*
X51681D01*
X51910Y33958D01*
X52115Y34077D01*
X52283Y34245D01*
X52402Y34450D01*
X52463Y34679D01*
Y34917D01*
X52402Y35146D01*
X52283Y35351D01*
X52115Y35519D01*
X51910Y35638D01*
X51681Y35699D01*
D02*
G37*
G36*
X49141D02*
X48903D01*
X48674Y35638D01*
X48469Y35519D01*
X48301Y35351D01*
X48182Y35146D01*
X48121Y34917D01*
Y34679D01*
X48182Y34450D01*
X48301Y34245D01*
X48469Y34077D01*
X48674Y33958D01*
X48903Y33897D01*
X49141D01*
X49370Y33958D01*
X49575Y34077D01*
X49743Y34245D01*
X49862Y34450D01*
X49923Y34679D01*
Y34917D01*
X49862Y35146D01*
X49743Y35351D01*
X49575Y35519D01*
X49370Y35638D01*
X49141Y35699D01*
D02*
G37*
G36*
X46601D02*
X46363D01*
X46134Y35638D01*
X45929Y35519D01*
X45761Y35351D01*
X45642Y35146D01*
X45581Y34917D01*
Y34679D01*
X45642Y34450D01*
X45761Y34245D01*
X45929Y34077D01*
X46134Y33958D01*
X46363Y33897D01*
X46601D01*
X46830Y33958D01*
X47035Y34077D01*
X47203Y34245D01*
X47322Y34450D01*
X47383Y34679D01*
Y34917D01*
X47322Y35146D01*
X47203Y35351D01*
X47035Y35519D01*
X46830Y35638D01*
X46601Y35699D01*
D02*
G37*
G36*
X33901D02*
X33663D01*
X33434Y35638D01*
X33229Y35519D01*
X33061Y35351D01*
X32942Y35146D01*
X32881Y34917D01*
Y34679D01*
X32942Y34450D01*
X33061Y34245D01*
X33229Y34077D01*
X33434Y33958D01*
X33663Y33897D01*
X33901D01*
X34130Y33958D01*
X34335Y34077D01*
X34503Y34245D01*
X34622Y34450D01*
X34683Y34679D01*
Y34917D01*
X34622Y35146D01*
X34503Y35351D01*
X34335Y35519D01*
X34130Y35638D01*
X33901Y35699D01*
D02*
G37*
G36*
X30321Y82010D02*
X30131D01*
X29956Y81938D01*
X29822Y81804D01*
X29750Y81629D01*
Y81439D01*
X29822Y81264D01*
X29956Y81130D01*
X30131Y81058D01*
X30301D01*
X30959Y80401D01*
Y35655D01*
X30894Y35638D01*
X30689Y35519D01*
X30521Y35351D01*
X30402Y35146D01*
X30341Y34917D01*
Y34679D01*
X30402Y34450D01*
X30521Y34245D01*
X30689Y34077D01*
X30894Y33958D01*
X31123Y33897D01*
X31361D01*
X31590Y33958D01*
X31795Y34077D01*
X31963Y34245D01*
X32082Y34450D01*
X32143Y34679D01*
Y34917D01*
X32082Y35146D01*
X31963Y35351D01*
X31795Y35519D01*
X31590Y35638D01*
X31525Y35655D01*
Y80518D01*
X31504Y80626D01*
X31442Y80718D01*
X30702Y81459D01*
Y81629D01*
X30630Y81804D01*
X30496Y81938D01*
X30321Y82010D01*
D02*
G37*
G36*
X70292Y34698D02*
X69442D01*
Y33848D01*
X69467D01*
X69709Y33913D01*
X69925Y34038D01*
X70102Y34215D01*
X70227Y34431D01*
X70292Y34673D01*
Y34698D01*
D02*
G37*
G36*
X69242D02*
X68392D01*
Y34673D01*
X68457Y34431D01*
X68582Y34215D01*
X68759Y34038D01*
X68975Y33913D01*
X69217Y33848D01*
X69242D01*
Y34698D01*
D02*
G37*
G36*
X144875Y44291D02*
X144685D01*
X144510Y44219D01*
X144376Y44085D01*
X144304Y43910D01*
Y43720D01*
X144376Y43545D01*
X144497Y43425D01*
Y33664D01*
X144376Y33544D01*
X144304Y33369D01*
Y33179D01*
X144376Y33004D01*
X144510Y32870D01*
X144685Y32798D01*
X144875D01*
X145050Y32870D01*
X145184Y33004D01*
X145256Y33179D01*
Y33369D01*
X145184Y33544D01*
X145063Y33664D01*
Y43425D01*
X145184Y43545D01*
X145256Y43720D01*
Y43910D01*
X145184Y44085D01*
X145050Y44219D01*
X144875Y44291D01*
D02*
G37*
G36*
X76090Y38949D02*
X75594D01*
X75104Y38871D01*
X74632Y38718D01*
X74191Y38493D01*
X73789Y38201D01*
X73439Y37851D01*
X73147Y37449D01*
X72922Y37008D01*
X72769Y36536D01*
X72691Y36046D01*
Y35550D01*
X72769Y35060D01*
X72922Y34588D01*
X73147Y34147D01*
X73439Y33745D01*
X73789Y33395D01*
X74191Y33103D01*
X74632Y32878D01*
X75104Y32725D01*
X75594Y32647D01*
X76090D01*
X76580Y32725D01*
X77052Y32878D01*
X77493Y33103D01*
X77895Y33395D01*
X78245Y33745D01*
X78537Y34147D01*
X78762Y34588D01*
X78915Y35060D01*
X78993Y35550D01*
Y36046D01*
X78915Y36536D01*
X78762Y37008D01*
X78537Y37449D01*
X78245Y37851D01*
X77895Y38201D01*
X77493Y38493D01*
X77052Y38718D01*
X76580Y38871D01*
X76090Y38949D01*
D02*
G37*
G36*
X6090D02*
X5594D01*
X5104Y38871D01*
X4632Y38718D01*
X4191Y38493D01*
X3789Y38201D01*
X3439Y37851D01*
X3147Y37449D01*
X2922Y37008D01*
X2769Y36536D01*
X2691Y36046D01*
Y35550D01*
X2769Y35060D01*
X2922Y34588D01*
X3147Y34147D01*
X3439Y33745D01*
X3789Y33395D01*
X4191Y33103D01*
X4632Y32878D01*
X5104Y32725D01*
X5594Y32647D01*
X6090D01*
X6580Y32725D01*
X7052Y32878D01*
X7493Y33103D01*
X7895Y33395D01*
X8245Y33745D01*
X8537Y34147D01*
X8762Y34588D01*
X8915Y35060D01*
X8993Y35550D01*
Y36046D01*
X8915Y36536D01*
X8762Y37008D01*
X8537Y37449D01*
X8245Y37851D01*
X7895Y38201D01*
X7493Y38493D01*
X7052Y38718D01*
X6580Y38871D01*
X6090Y38949D01*
D02*
G37*
G36*
X86963Y40290D02*
X86773D01*
X86598Y40218D01*
X86464Y40084D01*
X86392Y39909D01*
Y39719D01*
X86459Y39557D01*
Y37507D01*
X80349Y31397D01*
X69345D01*
X69183Y31464D01*
X68993D01*
X68818Y31392D01*
X68684Y31258D01*
X68612Y31083D01*
Y30893D01*
X68684Y30718D01*
X68818Y30584D01*
X68993Y30512D01*
X69183D01*
X69345Y30579D01*
X80518D01*
X80674Y30610D01*
X80807Y30699D01*
X87157Y37049D01*
X87246Y37182D01*
X87277Y37338D01*
Y39557D01*
X87344Y39719D01*
Y39909D01*
X87272Y40084D01*
X87138Y40218D01*
X86963Y40290D01*
D02*
G37*
G36*
X64611Y31464D02*
X64421D01*
X64259Y31397D01*
X53851D01*
X53689Y31464D01*
X53499D01*
X53324Y31392D01*
X53190Y31258D01*
X53118Y31083D01*
Y30893D01*
X53190Y30718D01*
X53324Y30584D01*
X53499Y30512D01*
X53689D01*
X53851Y30579D01*
X64259D01*
X64421Y30512D01*
X64611D01*
X64786Y30584D01*
X64920Y30718D01*
X64992Y30893D01*
Y31083D01*
X64920Y31258D01*
X64786Y31392D01*
X64611Y31464D01*
D02*
G37*
G36*
X128636Y32855D02*
X128412D01*
X128196Y32797D01*
X128001Y32685D01*
X127843Y32527D01*
X127731Y32332D01*
X127673Y32116D01*
Y31892D01*
X127731Y31676D01*
X127843Y31481D01*
X128001Y31323D01*
X128196Y31211D01*
X128412Y31153D01*
X128636D01*
X128852Y31211D01*
X129047Y31323D01*
X129205Y31481D01*
X129317Y31676D01*
X129375Y31892D01*
Y32116D01*
X129317Y32332D01*
X129205Y32527D01*
X129047Y32685D01*
X128852Y32797D01*
X128636Y32855D01*
D02*
G37*
G36*
X118476D02*
X118252D01*
X118036Y32797D01*
X117841Y32685D01*
X117683Y32527D01*
X117571Y32332D01*
X117513Y32116D01*
Y31892D01*
X117571Y31676D01*
X117683Y31481D01*
X117841Y31323D01*
X118036Y31211D01*
X118252Y31153D01*
X118476D01*
X118692Y31211D01*
X118887Y31323D01*
X119045Y31481D01*
X119157Y31676D01*
X119215Y31892D01*
Y32116D01*
X119157Y32332D01*
X119045Y32527D01*
X118887Y32685D01*
X118692Y32797D01*
X118476Y32855D01*
D02*
G37*
G36*
X140104Y30525D02*
X140100D01*
Y30100D01*
X140525D01*
Y30104D01*
X140445Y30297D01*
X140297Y30445D01*
X140104Y30525D01*
D02*
G37*
G36*
X139900D02*
X139896D01*
X139703Y30445D01*
X139555Y30297D01*
X139475Y30104D01*
Y30100D01*
X139900D01*
Y30525D01*
D02*
G37*
G36*
X130104D02*
X130100D01*
Y30100D01*
X130525D01*
Y30104D01*
X130445Y30297D01*
X130297Y30445D01*
X130104Y30525D01*
D02*
G37*
G36*
X129900D02*
X129896D01*
X129703Y30445D01*
X129555Y30297D01*
X129475Y30104D01*
Y30100D01*
X129900D01*
Y30525D01*
D02*
G37*
G36*
X100104D02*
X100100D01*
Y30100D01*
X100525D01*
Y30104D01*
X100445Y30297D01*
X100297Y30445D01*
X100104Y30525D01*
D02*
G37*
G36*
X99900D02*
X99896D01*
X99703Y30445D01*
X99555Y30297D01*
X99475Y30104D01*
Y30100D01*
X99900D01*
Y30525D01*
D02*
G37*
G36*
X50104D02*
X50100D01*
Y30100D01*
X50525D01*
Y30104D01*
X50445Y30297D01*
X50297Y30445D01*
X50104Y30525D01*
D02*
G37*
G36*
X49900D02*
X49896D01*
X49703Y30445D01*
X49555Y30297D01*
X49475Y30104D01*
Y30100D01*
X49900D01*
Y30525D01*
D02*
G37*
G36*
X30104D02*
X30100D01*
Y30100D01*
X30525D01*
Y30104D01*
X30445Y30297D01*
X30297Y30445D01*
X30104Y30525D01*
D02*
G37*
G36*
X29900D02*
X29896D01*
X29703Y30445D01*
X29555Y30297D01*
X29475Y30104D01*
Y30100D01*
X29900D01*
Y30525D01*
D02*
G37*
G36*
X20104D02*
X20100D01*
Y30100D01*
X20525D01*
Y30104D01*
X20445Y30297D01*
X20297Y30445D01*
X20104Y30525D01*
D02*
G37*
G36*
X19900D02*
X19896D01*
X19703Y30445D01*
X19555Y30297D01*
X19475Y30104D01*
Y30100D01*
X19900D01*
Y30525D01*
D02*
G37*
G36*
X10104D02*
X10100D01*
Y30100D01*
X10525D01*
Y30104D01*
X10445Y30297D01*
X10297Y30445D01*
X10104Y30525D01*
D02*
G37*
G36*
X9900D02*
X9896D01*
X9703Y30445D01*
X9555Y30297D01*
X9475Y30104D01*
Y30100D01*
X9900D01*
Y30525D01*
D02*
G37*
G36*
X140525Y29900D02*
X140100D01*
Y29475D01*
X140104D01*
X140297Y29555D01*
X140445Y29703D01*
X140525Y29896D01*
Y29900D01*
D02*
G37*
G36*
X139900D02*
X139475D01*
Y29896D01*
X139555Y29703D01*
X139703Y29555D01*
X139896Y29475D01*
X139900D01*
Y29900D01*
D02*
G37*
G36*
X130525D02*
X130100D01*
Y29475D01*
X130104D01*
X130297Y29555D01*
X130445Y29703D01*
X130525Y29896D01*
Y29900D01*
D02*
G37*
G36*
X129900D02*
X129475D01*
Y29896D01*
X129555Y29703D01*
X129703Y29555D01*
X129896Y29475D01*
X129900D01*
Y29900D01*
D02*
G37*
G36*
X50525D02*
X50100D01*
Y29475D01*
X50104D01*
X50297Y29555D01*
X50445Y29703D01*
X50525Y29896D01*
Y29900D01*
D02*
G37*
G36*
X39900D02*
X39475D01*
Y29896D01*
X39555Y29703D01*
X39703Y29555D01*
X39896Y29475D01*
X39900D01*
Y29900D01*
D02*
G37*
G36*
X30525D02*
X30100D01*
Y29475D01*
X30104D01*
X30297Y29555D01*
X30445Y29703D01*
X30525Y29896D01*
Y29900D01*
D02*
G37*
G36*
X29900D02*
X29475D01*
Y29896D01*
X29555Y29703D01*
X29703Y29555D01*
X29896Y29475D01*
X29900D01*
Y29900D01*
D02*
G37*
G36*
X20525D02*
X20100D01*
Y29475D01*
X20104D01*
X20297Y29555D01*
X20445Y29703D01*
X20525Y29896D01*
Y29900D01*
D02*
G37*
G36*
X19900D02*
X19475D01*
Y29896D01*
X19555Y29703D01*
X19703Y29555D01*
X19896Y29475D01*
X19900D01*
Y29900D01*
D02*
G37*
G36*
X10525D02*
X10100D01*
Y29475D01*
X10104D01*
X10297Y29555D01*
X10445Y29703D01*
X10525Y29896D01*
Y29900D01*
D02*
G37*
G36*
X9900D02*
X9475D01*
Y29896D01*
X9555Y29703D01*
X9703Y29555D01*
X9896Y29475D01*
X9900D01*
Y29900D01*
D02*
G37*
G36*
X100525D02*
X99475D01*
Y29896D01*
X99555Y29703D01*
X99703Y29555D01*
X99759Y29531D01*
X99824Y29341D01*
X99791Y29284D01*
X99733Y29068D01*
Y28844D01*
X99791Y28628D01*
X99903Y28433D01*
X100061Y28275D01*
X100256Y28163D01*
X100472Y28105D01*
X100696D01*
X100912Y28163D01*
X101107Y28275D01*
X101265Y28433D01*
X101377Y28628D01*
X101435Y28844D01*
Y29068D01*
X101377Y29284D01*
X101265Y29479D01*
X101107Y29637D01*
X100912Y29749D01*
X100696Y29807D01*
X100584D01*
X100525Y29896D01*
Y29900D01*
D02*
G37*
G36*
X90536Y29807D02*
X90312D01*
X90096Y29749D01*
X89901Y29637D01*
X89743Y29479D01*
X89631Y29284D01*
X89573Y29068D01*
Y28844D01*
X89631Y28628D01*
X89743Y28433D01*
X89901Y28275D01*
X90096Y28163D01*
X90312Y28105D01*
X90536D01*
X90752Y28163D01*
X90947Y28275D01*
X91105Y28433D01*
X91217Y28628D01*
X91275Y28844D01*
Y29068D01*
X91217Y29284D01*
X91105Y29479D01*
X90947Y29637D01*
X90752Y29749D01*
X90536Y29807D01*
D02*
G37*
G36*
X42811Y25539D02*
X41009D01*
Y23737D01*
X42811D01*
Y25539D01*
D02*
G37*
G36*
X39489D02*
X39251D01*
X39022Y25478D01*
X38817Y25359D01*
X38649Y25191D01*
X38530Y24986D01*
X38469Y24757D01*
Y24519D01*
X38530Y24290D01*
X38649Y24085D01*
X38817Y23917D01*
X39022Y23798D01*
X39251Y23737D01*
X39489D01*
X39718Y23798D01*
X39923Y23917D01*
X40091Y24085D01*
X40210Y24290D01*
X40271Y24519D01*
Y24757D01*
X40210Y24986D01*
X40091Y25191D01*
X39923Y25359D01*
X39718Y25478D01*
X39489Y25539D01*
D02*
G37*
G36*
X22955Y25136D02*
X22765D01*
X22590Y25063D01*
X22456Y24930D01*
X22384Y24755D01*
Y24585D01*
X21243Y23443D01*
X15376D01*
X15256Y23564D01*
X15081Y23636D01*
X14891D01*
X14716Y23564D01*
X14582Y23430D01*
X14510Y23255D01*
Y23065D01*
X14582Y22890D01*
X14716Y22756D01*
X14891Y22684D01*
X15081D01*
X15256Y22756D01*
X15376Y22877D01*
X21360D01*
X21469Y22898D01*
X21560Y22960D01*
X22785Y24184D01*
X22955D01*
X23130Y24256D01*
X23264Y24390D01*
X23336Y24565D01*
Y24755D01*
X23264Y24930D01*
X23130Y25063D01*
X22955Y25136D01*
D02*
G37*
G36*
X82327Y46704D02*
X82137D01*
X81962Y46632D01*
X81828Y46498D01*
X81756Y46323D01*
Y46133D01*
X81828Y45958D01*
X81962Y45824D01*
X82137Y45752D01*
X82307D01*
X88363Y39697D01*
Y22742D01*
X88242Y22622D01*
X88170Y22447D01*
Y22257D01*
X88242Y22082D01*
X88376Y21948D01*
X88551Y21876D01*
X88741D01*
X88916Y21948D01*
X89050Y22082D01*
X89122Y22257D01*
Y22447D01*
X89050Y22622D01*
X88929Y22742D01*
Y39814D01*
X88908Y39922D01*
X88846Y40014D01*
X82708Y46153D01*
Y46323D01*
X82636Y46498D01*
X82502Y46632D01*
X82327Y46704D01*
D02*
G37*
G36*
X145104Y20525D02*
X145100D01*
Y20100D01*
X145525D01*
Y20104D01*
X145445Y20297D01*
X145297Y20445D01*
X145104Y20525D01*
D02*
G37*
G36*
X144900D02*
X144896D01*
X144703Y20445D01*
X144555Y20297D01*
X144475Y20104D01*
Y20100D01*
X144900D01*
Y20525D01*
D02*
G37*
G36*
X135104D02*
X135100D01*
Y20100D01*
X135525D01*
Y20104D01*
X135445Y20297D01*
X135297Y20445D01*
X135104Y20525D01*
D02*
G37*
G36*
X134900D02*
X134896D01*
X134703Y20445D01*
X134555Y20297D01*
X134475Y20104D01*
Y20100D01*
X134900D01*
Y20525D01*
D02*
G37*
G36*
X125104D02*
X125100D01*
Y20100D01*
X125525D01*
Y20104D01*
X125445Y20297D01*
X125297Y20445D01*
X125104Y20525D01*
D02*
G37*
G36*
X124900D02*
X124896D01*
X124703Y20445D01*
X124555Y20297D01*
X124475Y20104D01*
Y20100D01*
X124900D01*
Y20525D01*
D02*
G37*
G36*
X115104D02*
X115100D01*
Y20100D01*
X115525D01*
Y20104D01*
X115445Y20297D01*
X115297Y20445D01*
X115104Y20525D01*
D02*
G37*
G36*
X114900D02*
X114896D01*
X114703Y20445D01*
X114555Y20297D01*
X114475Y20104D01*
Y20100D01*
X114900D01*
Y20525D01*
D02*
G37*
G36*
X105104D02*
X105100D01*
Y20100D01*
X105525D01*
Y20104D01*
X105445Y20297D01*
X105297Y20445D01*
X105104Y20525D01*
D02*
G37*
G36*
X104900D02*
X104896D01*
X104703Y20445D01*
X104555Y20297D01*
X104475Y20104D01*
Y20100D01*
X104900D01*
Y20525D01*
D02*
G37*
G36*
X95104D02*
X95100D01*
Y20100D01*
X95525D01*
Y20104D01*
X95445Y20297D01*
X95297Y20445D01*
X95104Y20525D01*
D02*
G37*
G36*
X94900D02*
X94896D01*
X94703Y20445D01*
X94555Y20297D01*
X94475Y20104D01*
Y20100D01*
X94900D01*
Y20525D01*
D02*
G37*
G36*
X75104D02*
X75100D01*
Y20100D01*
X75525D01*
Y20104D01*
X75445Y20297D01*
X75297Y20445D01*
X75104Y20525D01*
D02*
G37*
G36*
X74900D02*
X74896D01*
X74703Y20445D01*
X74555Y20297D01*
X74475Y20104D01*
Y20100D01*
X74900D01*
Y20525D01*
D02*
G37*
G36*
X65104D02*
X65100D01*
Y20100D01*
X65525D01*
Y20104D01*
X65445Y20297D01*
X65297Y20445D01*
X65104Y20525D01*
D02*
G37*
G36*
X64900D02*
X64896D01*
X64703Y20445D01*
X64555Y20297D01*
X64475Y20104D01*
Y20100D01*
X64900D01*
Y20525D01*
D02*
G37*
G36*
X55104D02*
X55100D01*
Y20100D01*
X55525D01*
Y20104D01*
X55445Y20297D01*
X55297Y20445D01*
X55104Y20525D01*
D02*
G37*
G36*
X54900D02*
X54896D01*
X54703Y20445D01*
X54555Y20297D01*
X54475Y20104D01*
Y20100D01*
X54900D01*
Y20525D01*
D02*
G37*
G36*
X45104D02*
X45100D01*
Y20100D01*
X45525D01*
Y20104D01*
X45445Y20297D01*
X45297Y20445D01*
X45104Y20525D01*
D02*
G37*
G36*
X44900D02*
X44896D01*
X44703Y20445D01*
X44555Y20297D01*
X44475Y20104D01*
Y20100D01*
X44900D01*
Y20525D01*
D02*
G37*
G36*
X35104D02*
X35100D01*
Y20100D01*
X35525D01*
Y20104D01*
X35445Y20297D01*
X35297Y20445D01*
X35104Y20525D01*
D02*
G37*
G36*
X34900D02*
X34896D01*
X34703Y20445D01*
X34555Y20297D01*
X34475Y20104D01*
Y20100D01*
X34900D01*
Y20525D01*
D02*
G37*
G36*
X145525Y19900D02*
X145100D01*
Y19475D01*
X145104D01*
X145297Y19555D01*
X145445Y19703D01*
X145525Y19896D01*
Y19900D01*
D02*
G37*
G36*
X144900D02*
X144475D01*
Y19896D01*
X144555Y19703D01*
X144703Y19555D01*
X144896Y19475D01*
X144900D01*
Y19900D01*
D02*
G37*
G36*
X135525D02*
X135100D01*
Y19475D01*
X135104D01*
X135297Y19555D01*
X135445Y19703D01*
X135525Y19896D01*
Y19900D01*
D02*
G37*
G36*
X134900D02*
X134475D01*
Y19896D01*
X134555Y19703D01*
X134703Y19555D01*
X134896Y19475D01*
X134900D01*
Y19900D01*
D02*
G37*
G36*
X125525D02*
X125100D01*
Y19475D01*
X125104D01*
X125297Y19555D01*
X125445Y19703D01*
X125525Y19896D01*
Y19900D01*
D02*
G37*
G36*
X124900D02*
X124475D01*
Y19896D01*
X124555Y19703D01*
X124703Y19555D01*
X124896Y19475D01*
X124900D01*
Y19900D01*
D02*
G37*
G36*
X115525D02*
X115100D01*
Y19475D01*
X115104D01*
X115297Y19555D01*
X115445Y19703D01*
X115525Y19896D01*
Y19900D01*
D02*
G37*
G36*
X114900D02*
X114475D01*
Y19896D01*
X114555Y19703D01*
X114703Y19555D01*
X114896Y19475D01*
X114900D01*
Y19900D01*
D02*
G37*
G36*
X105525D02*
X105100D01*
Y19475D01*
X105104D01*
X105297Y19555D01*
X105445Y19703D01*
X105525Y19896D01*
Y19900D01*
D02*
G37*
G36*
X104900D02*
X104475D01*
Y19896D01*
X104555Y19703D01*
X104703Y19555D01*
X104896Y19475D01*
X104900D01*
Y19900D01*
D02*
G37*
G36*
X95525D02*
X95100D01*
Y19475D01*
X95104D01*
X95297Y19555D01*
X95445Y19703D01*
X95525Y19896D01*
Y19900D01*
D02*
G37*
G36*
X94900D02*
X94475D01*
Y19896D01*
X94555Y19703D01*
X94703Y19555D01*
X94896Y19475D01*
X94900D01*
Y19900D01*
D02*
G37*
G36*
X45525D02*
X45100D01*
Y19475D01*
X45104D01*
X45297Y19555D01*
X45445Y19703D01*
X45525Y19896D01*
Y19900D01*
D02*
G37*
G36*
X44900D02*
X44475D01*
Y19896D01*
X44555Y19703D01*
X44703Y19555D01*
X44896Y19475D01*
X44900D01*
Y19900D01*
D02*
G37*
G36*
X35525D02*
X35100D01*
Y19475D01*
X35104D01*
X35297Y19555D01*
X35445Y19703D01*
X35525Y19896D01*
Y19900D01*
D02*
G37*
G36*
X34900D02*
X34475D01*
Y19896D01*
X34555Y19703D01*
X34703Y19555D01*
X34896Y19475D01*
X34900D01*
Y19900D01*
D02*
G37*
G36*
X76127Y21304D02*
X75938D01*
X75763Y21232D01*
X75629Y21098D01*
X75556Y20923D01*
Y20733D01*
X75629Y20558D01*
X75763Y20424D01*
X75938Y20352D01*
X76127D01*
X76289Y20419D01*
X80119D01*
X80745Y19792D01*
X80812Y19630D01*
X80946Y19496D01*
X81121Y19424D01*
X81311D01*
X81486Y19496D01*
X81620Y19630D01*
X81692Y19805D01*
Y19995D01*
X81620Y20170D01*
X81486Y20304D01*
X81324Y20371D01*
X80577Y21117D01*
X80444Y21206D01*
X80288Y21237D01*
X76289D01*
X76127Y21304D01*
D02*
G37*
G36*
X38981Y35699D02*
X38743D01*
X38514Y35638D01*
X38309Y35519D01*
X38141Y35351D01*
X38022Y35146D01*
X37961Y34917D01*
Y34679D01*
X38022Y34450D01*
X38141Y34245D01*
X38309Y34077D01*
X38514Y33958D01*
X38743Y33897D01*
X38981D01*
X39210Y33958D01*
X39267Y33992D01*
X54410Y18850D01*
X54502Y18788D01*
X54610Y18767D01*
X78827D01*
X78896Y18681D01*
X78836Y18533D01*
X78005D01*
X77949Y18522D01*
X52998D01*
X37128Y34393D01*
X37162Y34450D01*
X37223Y34679D01*
Y34917D01*
X37162Y35146D01*
X37043Y35351D01*
X36875Y35519D01*
X36670Y35638D01*
X36441Y35699D01*
X36203D01*
X35974Y35638D01*
X35769Y35519D01*
X35601Y35351D01*
X35482Y35146D01*
X35421Y34917D01*
Y34679D01*
X35482Y34450D01*
X35601Y34245D01*
X35769Y34077D01*
X35974Y33958D01*
X36203Y33897D01*
X36441D01*
X36670Y33958D01*
X36727Y33992D01*
X40043Y30676D01*
X39981Y30525D01*
X39896D01*
X39703Y30445D01*
X39555Y30297D01*
X39475Y30104D01*
Y30100D01*
X40000D01*
Y30000D01*
X40100D01*
Y29475D01*
X40104D01*
X40297Y29555D01*
X40445Y29703D01*
X40525Y29896D01*
Y29981D01*
X40676Y30043D01*
X52535Y18184D01*
X52477Y18045D01*
X51621D01*
X49493Y20174D01*
X49426Y20336D01*
X49292Y20470D01*
X49117Y20542D01*
X48927D01*
X48752Y20470D01*
X48618Y20336D01*
X48546Y20161D01*
Y19971D01*
X48618Y19796D01*
X48752Y19662D01*
X48914Y19595D01*
X51163Y17347D01*
X51296Y17258D01*
X51452Y17227D01*
X58925D01*
X59087Y17160D01*
X59277D01*
X59452Y17232D01*
X59586Y17366D01*
X59658Y17541D01*
Y17731D01*
X59627Y17805D01*
X59728Y17956D01*
X77994D01*
X78049Y17967D01*
X80717D01*
X80837Y17846D01*
X81012Y17774D01*
X81202D01*
X81377Y17846D01*
X81511Y17980D01*
X81583Y18155D01*
Y18345D01*
X81511Y18520D01*
X81377Y18654D01*
X81202Y18726D01*
X81012D01*
X80837Y18654D01*
X80717Y18533D01*
X79609D01*
X79556Y18684D01*
X79652Y18780D01*
X79724Y18955D01*
Y19145D01*
X79652Y19320D01*
X79518Y19454D01*
X79343Y19526D01*
X79153D01*
X78978Y19454D01*
X78858Y19333D01*
X75127D01*
X75104Y19475D01*
X75297Y19555D01*
X75445Y19703D01*
X75525Y19896D01*
Y19900D01*
X74475D01*
Y19896D01*
X74555Y19703D01*
X74703Y19555D01*
X74896Y19475D01*
X74873Y19333D01*
X65127D01*
X65104Y19475D01*
X65297Y19555D01*
X65445Y19703D01*
X65525Y19896D01*
Y19900D01*
X64475D01*
Y19896D01*
X64555Y19703D01*
X64703Y19555D01*
X64896Y19475D01*
X64873Y19333D01*
X55127D01*
X55104Y19475D01*
X55297Y19555D01*
X55445Y19703D01*
X55525Y19896D01*
Y19900D01*
X54475D01*
Y19896D01*
X54543Y19731D01*
X54415Y19646D01*
X39668Y34393D01*
X39702Y34450D01*
X39763Y34679D01*
Y34917D01*
X39702Y35146D01*
X39583Y35351D01*
X39415Y35519D01*
X39210Y35638D01*
X38981Y35699D01*
D02*
G37*
G36*
X85102Y33084D02*
X84912D01*
X84737Y33012D01*
X84603Y32878D01*
X84531Y32703D01*
Y32513D01*
X84603Y32338D01*
X84724Y32218D01*
Y30169D01*
X82096Y27541D01*
X82034Y27449D01*
X82013Y27341D01*
Y25258D01*
X81962Y25238D01*
X81828Y25104D01*
X81756Y24929D01*
Y24739D01*
X81828Y24564D01*
X81962Y24430D01*
X82137Y24358D01*
X82327D01*
X82502Y24430D01*
X82546Y24475D01*
X82645Y24557D01*
X82743Y24475D01*
X82787Y24430D01*
X82962Y24358D01*
X83152D01*
X83327Y24430D01*
X83461Y24564D01*
X83533Y24739D01*
Y24929D01*
X83461Y25104D01*
X83340Y25224D01*
Y26915D01*
X83407D01*
X83582Y26987D01*
X83716Y27121D01*
X83788Y27296D01*
Y27486D01*
X83716Y27661D01*
X83582Y27795D01*
X83428Y27858D01*
X83362Y28007D01*
X84393Y29037D01*
X84510Y28941D01*
X84458Y28863D01*
X84427Y28706D01*
Y23114D01*
X84458Y22958D01*
X84547Y22825D01*
X85889Y21482D01*
X85956Y21320D01*
X86090Y21186D01*
X86265Y21114D01*
X86455D01*
X86617Y21181D01*
X87207D01*
X90135Y18253D01*
X90268Y18164D01*
X90424Y18133D01*
X110233D01*
X110395Y18066D01*
X110585D01*
X110760Y18138D01*
X110894Y18272D01*
X110966Y18447D01*
Y18637D01*
X110894Y18812D01*
X110760Y18946D01*
X110585Y19018D01*
X110395D01*
X110233Y18951D01*
X90593D01*
X87665Y21879D01*
X87532Y21968D01*
X87376Y21999D01*
X86617D01*
X86468Y22061D01*
X85245Y23283D01*
Y28537D01*
X85765Y29057D01*
X85927Y29124D01*
X86061Y29258D01*
X86133Y29433D01*
Y29622D01*
X86061Y29797D01*
X85927Y29931D01*
X85752Y30004D01*
X85562D01*
X85423Y29946D01*
X85319Y30006D01*
X85288Y30041D01*
X85290Y30052D01*
Y32218D01*
X85411Y32338D01*
X85483Y32513D01*
Y32703D01*
X85411Y32878D01*
X85277Y33012D01*
X85102Y33084D01*
D02*
G37*
G36*
X10509Y21107D02*
X10319D01*
X10144Y21035D01*
X10010Y20901D01*
X9938Y20726D01*
Y20536D01*
X10010Y20361D01*
X10144Y20227D01*
X10319Y20155D01*
X10489D01*
X12557Y18088D01*
X12649Y18026D01*
X12757Y18005D01*
X21454D01*
X21574Y17884D01*
X21749Y17812D01*
X21939D01*
X22114Y17884D01*
X22248Y18018D01*
X22320Y18193D01*
Y18383D01*
X22248Y18558D01*
X22114Y18692D01*
X21939Y18764D01*
X21749D01*
X21574Y18692D01*
X21454Y18571D01*
X12874D01*
X10890Y20556D01*
Y20726D01*
X10818Y20901D01*
X10684Y21035D01*
X10509Y21107D01*
D02*
G37*
G36*
X65417Y16903D02*
X63615D01*
Y15101D01*
X65417D01*
Y16903D01*
D02*
G37*
G36*
X107594Y12922D02*
X107405D01*
X107230Y12850D01*
X107096Y12716D01*
X107042Y12585D01*
X106884D01*
X106830Y12716D01*
X106696Y12850D01*
X106521Y12922D01*
X106331D01*
X106156Y12850D01*
X106022Y12716D01*
X105950Y12541D01*
Y12351D01*
X106022Y12176D01*
X106156Y12042D01*
X106331Y11970D01*
X106501D01*
X110715Y7757D01*
Y7473D01*
X110650Y7456D01*
X110445Y7337D01*
X110277Y7169D01*
X110158Y6964D01*
X110097Y6735D01*
Y6497D01*
X110158Y6268D01*
X110277Y6063D01*
X110445Y5895D01*
X110650Y5776D01*
X110879Y5715D01*
X111117D01*
X111346Y5776D01*
X111551Y5895D01*
X111719Y6063D01*
X111838Y6268D01*
X111899Y6497D01*
Y6735D01*
X111838Y6964D01*
X111719Y7169D01*
X111551Y7337D01*
X111346Y7456D01*
X111281Y7473D01*
Y7874D01*
X111260Y7982D01*
X111198Y8074D01*
X107551Y11722D01*
X107601Y11886D01*
X107649Y11895D01*
X113129Y6416D01*
X113221Y6354D01*
X113329Y6332D01*
X114459D01*
X114476Y6268D01*
X114595Y6063D01*
X114763Y5895D01*
X114968Y5776D01*
X115197Y5715D01*
X115435D01*
X115664Y5776D01*
X115869Y5895D01*
X116037Y6063D01*
X116156Y6268D01*
X116217Y6497D01*
Y6735D01*
X116156Y6964D01*
X116037Y7169D01*
X115869Y7337D01*
X115664Y7456D01*
X115435Y7517D01*
X115197D01*
X114968Y7456D01*
X114763Y7337D01*
X114595Y7169D01*
X114476Y6964D01*
X114459Y6899D01*
X113447D01*
X107975Y12371D01*
Y12541D01*
X107903Y12716D01*
X107769Y12850D01*
X107594Y12922D01*
D02*
G37*
G36*
X102247Y13774D02*
X100445D01*
Y11972D01*
X102247D01*
Y13774D01*
D02*
G37*
G36*
X64641Y11872D02*
X64616D01*
Y11022D01*
X65466D01*
Y11047D01*
X65401Y11289D01*
X65276Y11505D01*
X65099Y11682D01*
X64883Y11807D01*
X64641Y11872D01*
D02*
G37*
G36*
X64416D02*
X64391D01*
X64149Y11807D01*
X63933Y11682D01*
X63756Y11505D01*
X63631Y11289D01*
X63566Y11047D01*
Y11022D01*
X64416D01*
Y11872D01*
D02*
G37*
G36*
X101465Y11234D02*
X101227D01*
X100998Y11173D01*
X100793Y11054D01*
X100625Y10886D01*
X100506Y10681D01*
X100458Y10498D01*
X100306Y10436D01*
X100297Y10445D01*
X100104Y10525D01*
X100100D01*
Y10000D01*
Y9475D01*
X100104D01*
X100297Y9555D01*
X100445Y9703D01*
X100466Y9753D01*
X100576Y9772D01*
X100636Y9769D01*
X100793Y9612D01*
X100998Y9493D01*
X101227Y9432D01*
X101465D01*
X101694Y9493D01*
X101899Y9612D01*
X102067Y9780D01*
X102186Y9985D01*
X102247Y10214D01*
Y10452D01*
X102186Y10681D01*
X102067Y10886D01*
X101899Y11054D01*
X101694Y11173D01*
X101465Y11234D01*
D02*
G37*
G36*
X47085Y21926D02*
X46895D01*
X46720Y21854D01*
X46586Y21720D01*
X46514Y21545D01*
Y21355D01*
X46581Y21193D01*
Y13403D01*
X43493Y10315D01*
X42303D01*
Y10807D01*
X40501D01*
Y9005D01*
X42303D01*
Y9497D01*
X43663D01*
X43819Y9528D01*
X43952Y9617D01*
X47279Y12944D01*
X47368Y13077D01*
X47399Y13233D01*
Y21193D01*
X47466Y21355D01*
Y21545D01*
X47394Y21720D01*
X47260Y21854D01*
X47085Y21926D01*
D02*
G37*
G36*
X120104Y10525D02*
X120100D01*
Y10100D01*
X120525D01*
Y10104D01*
X120445Y10297D01*
X120297Y10445D01*
X120104Y10525D01*
D02*
G37*
G36*
X119900D02*
X119896D01*
X119703Y10445D01*
X119555Y10297D01*
X119475Y10104D01*
Y10100D01*
X119900D01*
Y10525D01*
D02*
G37*
G36*
X99900D02*
X99896D01*
X99703Y10445D01*
X99555Y10297D01*
X99475Y10104D01*
Y10100D01*
X99900D01*
Y10525D01*
D02*
G37*
G36*
X50104D02*
X50100D01*
Y10100D01*
X50525D01*
Y10104D01*
X50445Y10297D01*
X50297Y10445D01*
X50104Y10525D01*
D02*
G37*
G36*
X49900D02*
X49896D01*
X49703Y10445D01*
X49555Y10297D01*
X49475Y10104D01*
Y10100D01*
X49900D01*
Y10525D01*
D02*
G37*
G36*
X10104D02*
X10100D01*
Y10100D01*
X10525D01*
Y10104D01*
X10445Y10297D01*
X10297Y10445D01*
X10104Y10525D01*
D02*
G37*
G36*
X9900D02*
X9896D01*
X9703Y10445D01*
X9555Y10297D01*
X9475Y10104D01*
Y10100D01*
X9900D01*
Y10525D01*
D02*
G37*
G36*
X65466Y10822D02*
X64616D01*
Y9972D01*
X64641D01*
X64883Y10037D01*
X65099Y10162D01*
X65276Y10339D01*
X65401Y10555D01*
X65466Y10797D01*
Y10822D01*
D02*
G37*
G36*
X64416D02*
X63566D01*
Y10797D01*
X63631Y10555D01*
X63756Y10339D01*
X63933Y10162D01*
X64149Y10037D01*
X64391Y9972D01*
X64416D01*
Y10822D01*
D02*
G37*
G36*
X120525Y9900D02*
X120100D01*
Y9475D01*
X120104D01*
X120297Y9555D01*
X120445Y9703D01*
X120525Y9896D01*
Y9900D01*
D02*
G37*
G36*
X119900D02*
X119475D01*
Y9896D01*
X119555Y9703D01*
X119703Y9555D01*
X119896Y9475D01*
X119900D01*
Y9900D01*
D02*
G37*
G36*
X99900D02*
X99475D01*
Y9896D01*
X99555Y9703D01*
X99703Y9555D01*
X99896Y9475D01*
X99900D01*
Y9900D01*
D02*
G37*
G36*
X50525D02*
X50100D01*
Y9475D01*
X50104D01*
X50297Y9555D01*
X50445Y9703D01*
X50525Y9896D01*
Y9900D01*
D02*
G37*
G36*
X49900D02*
X49475D01*
Y9896D01*
X49555Y9703D01*
X49703Y9555D01*
X49896Y9475D01*
X49900D01*
Y9900D01*
D02*
G37*
G36*
X10525D02*
X10100D01*
Y9475D01*
X10104D01*
X10297Y9555D01*
X10445Y9703D01*
X10525Y9896D01*
Y9900D01*
D02*
G37*
G36*
X9900D02*
X9475D01*
Y9896D01*
X9555Y9703D01*
X9703Y9555D01*
X9896Y9475D01*
X9900D01*
Y9900D01*
D02*
G37*
G36*
X92067Y11234D02*
X91829D01*
X91600Y11173D01*
X91395Y11054D01*
X91227Y10886D01*
X91108Y10681D01*
X91047Y10452D01*
Y10214D01*
X91108Y9985D01*
X91227Y9780D01*
X91395Y9612D01*
X91600Y9493D01*
X91829Y9432D01*
X92067D01*
X92296Y9493D01*
X92501Y9612D01*
X92669Y9780D01*
X92788Y9985D01*
X92849Y10214D01*
Y10452D01*
X92788Y10681D01*
X92669Y10886D01*
X92501Y11054D01*
X92296Y11173D01*
X92067Y11234D01*
D02*
G37*
G36*
X38981Y10807D02*
X38743D01*
X38514Y10746D01*
X38309Y10627D01*
X38141Y10459D01*
X38022Y10254D01*
X37961Y10025D01*
Y9787D01*
X38022Y9558D01*
X38141Y9353D01*
X38309Y9185D01*
X38514Y9066D01*
X38743Y9005D01*
X38981D01*
X39210Y9066D01*
X39415Y9185D01*
X39583Y9353D01*
X39702Y9558D01*
X39763Y9787D01*
Y10025D01*
X39702Y10254D01*
X39583Y10459D01*
X39415Y10627D01*
X39210Y10746D01*
X38981Y10807D01*
D02*
G37*
G36*
X64635Y9283D02*
X64397D01*
X64168Y9222D01*
X63963Y9103D01*
X63795Y8935D01*
X63676Y8730D01*
X63615Y8501D01*
Y8263D01*
X63676Y8034D01*
X63795Y7829D01*
X63963Y7661D01*
X64168Y7542D01*
X64397Y7481D01*
X64635D01*
X64864Y7542D01*
X65069Y7661D01*
X65237Y7829D01*
X65356Y8034D01*
X65417Y8263D01*
Y8501D01*
X65356Y8730D01*
X65237Y8935D01*
X65069Y9103D01*
X64864Y9222D01*
X64635Y9283D01*
D02*
G37*
G36*
X7969Y25771D02*
X7779D01*
X7604Y25699D01*
X7470Y25565D01*
X7398Y25390D01*
Y25200D01*
X7465Y25038D01*
Y16510D01*
X7496Y16354D01*
X7585Y16221D01*
X14443Y9363D01*
X14576Y9274D01*
X14732Y9243D01*
X15999D01*
X16161Y9176D01*
X16351D01*
X16513Y9243D01*
X19943D01*
X21627Y7558D01*
X21694Y7396D01*
X21828Y7262D01*
X21990Y7195D01*
X22741Y6445D01*
X22738Y6421D01*
X22674Y6298D01*
X12858D01*
X12738Y6419D01*
X12563Y6491D01*
X12373D01*
X12198Y6419D01*
X12064Y6285D01*
X11992Y6110D01*
Y5920D01*
X12064Y5745D01*
X12198Y5611D01*
X12373Y5539D01*
X12563D01*
X12738Y5611D01*
X12858Y5732D01*
X22604D01*
X24045Y4290D01*
Y4120D01*
X24117Y3945D01*
X24251Y3811D01*
X24426Y3739D01*
X24616D01*
X24791Y3811D01*
X24925Y3945D01*
X24955Y4018D01*
X25133Y4053D01*
X27443Y1743D01*
X27576Y1654D01*
X27732Y1623D01*
X86360D01*
X86516Y1654D01*
X86649Y1743D01*
X89697Y4791D01*
X89786Y4924D01*
X89817Y5080D01*
Y10164D01*
X91625Y11972D01*
X92849D01*
Y13774D01*
X91047D01*
Y12550D01*
X89119Y10622D01*
X89030Y10489D01*
X88999Y10333D01*
Y5249D01*
X86191Y2441D01*
X65128D01*
X65085Y2544D01*
X65080Y2592D01*
X65237Y2749D01*
X65356Y2954D01*
X65417Y3183D01*
Y3421D01*
X65356Y3650D01*
X65237Y3855D01*
X65069Y4023D01*
X64864Y4142D01*
X64635Y4203D01*
X64397D01*
X64168Y4142D01*
X63963Y4023D01*
X63795Y3855D01*
X63676Y3650D01*
X63615Y3421D01*
Y3183D01*
X63676Y2954D01*
X63795Y2749D01*
X63952Y2592D01*
X63947Y2544D01*
X63904Y2441D01*
X27901D01*
X22569Y7774D01*
X22502Y7936D01*
X22368Y8070D01*
X22206Y8137D01*
X20401Y9941D01*
X20268Y10030D01*
X20112Y10061D01*
X16513D01*
X16351Y10128D01*
X16161D01*
X15999Y10061D01*
X14901D01*
X8283Y16679D01*
Y25038D01*
X8350Y25200D01*
Y25390D01*
X8278Y25565D01*
X8144Y25699D01*
X7969Y25771D01*
D02*
G37*
G36*
X135277Y6641D02*
X135242D01*
Y5716D01*
X136167D01*
Y5751D01*
X136097Y6012D01*
X135962Y6245D01*
X135771Y6436D01*
X135538Y6571D01*
X135277Y6641D01*
D02*
G37*
G36*
X135042D02*
X135007D01*
X134746Y6571D01*
X134513Y6436D01*
X134322Y6245D01*
X134187Y6012D01*
X134117Y5751D01*
Y5716D01*
X135042D01*
Y6641D01*
D02*
G37*
G36*
X120007Y7517D02*
X119769D01*
X119540Y7456D01*
X119335Y7337D01*
X119167Y7169D01*
X119048Y6964D01*
X118987Y6735D01*
Y6497D01*
X119048Y6268D01*
X119167Y6063D01*
X119335Y5895D01*
X119540Y5776D01*
X119769Y5715D01*
X120007D01*
X120236Y5776D01*
X120441Y5895D01*
X120609Y6063D01*
X120728Y6268D01*
X120789Y6497D01*
Y6735D01*
X120728Y6964D01*
X120609Y7169D01*
X120441Y7337D01*
X120236Y7456D01*
X120007Y7517D01*
D02*
G37*
G36*
X106799D02*
X106561D01*
X106332Y7456D01*
X106127Y7337D01*
X105959Y7169D01*
X105840Y6964D01*
X105779Y6735D01*
Y6497D01*
X105840Y6268D01*
X105959Y6063D01*
X106127Y5895D01*
X106332Y5776D01*
X106561Y5715D01*
X106799D01*
X107028Y5776D01*
X107233Y5895D01*
X107401Y6063D01*
X107520Y6268D01*
X107581Y6497D01*
Y6735D01*
X107520Y6964D01*
X107401Y7169D01*
X107233Y7337D01*
X107028Y7456D01*
X106799Y7517D01*
D02*
G37*
G36*
X64635Y6743D02*
X64397D01*
X64168Y6682D01*
X63963Y6563D01*
X63795Y6395D01*
X63676Y6190D01*
X63615Y5961D01*
Y5723D01*
X63676Y5494D01*
X63795Y5289D01*
X63963Y5121D01*
X64168Y5002D01*
X64397Y4941D01*
X64635D01*
X64864Y5002D01*
X65069Y5121D01*
X65237Y5289D01*
X65356Y5494D01*
X65417Y5723D01*
Y5961D01*
X65356Y6190D01*
X65237Y6395D01*
X65069Y6563D01*
X64864Y6682D01*
X64635Y6743D01*
D02*
G37*
G36*
X131118Y6592D02*
X129166D01*
Y4640D01*
X131118D01*
Y6592D01*
D02*
G37*
G36*
X136167Y5516D02*
X135242D01*
Y4591D01*
X135277D01*
X135538Y4661D01*
X135771Y4796D01*
X135962Y4987D01*
X136097Y5220D01*
X136167Y5481D01*
Y5516D01*
D02*
G37*
G36*
X135042D02*
X134117D01*
Y5481D01*
X134187Y5220D01*
X134322Y4987D01*
X134513Y4796D01*
X134746Y4661D01*
X135007Y4591D01*
X135042D01*
Y5516D01*
D02*
G37*
G36*
X120838Y5026D02*
X119988D01*
Y4176D01*
X120838D01*
Y5026D01*
D02*
G37*
G36*
X116266D02*
X115416D01*
Y4176D01*
X116266D01*
Y5026D01*
D02*
G37*
G36*
X111948D02*
X111098D01*
Y4176D01*
X111948D01*
Y5026D01*
D02*
G37*
G36*
X107630D02*
X106780D01*
Y4176D01*
X107630D01*
Y5026D01*
D02*
G37*
G36*
X119788D02*
X118938D01*
Y4176D01*
X119788D01*
Y5026D01*
D02*
G37*
G36*
X115216D02*
X114366D01*
Y4176D01*
X115216D01*
Y5026D01*
D02*
G37*
G36*
X110898D02*
X110048D01*
Y4176D01*
X110898D01*
Y5026D01*
D02*
G37*
G36*
X106580D02*
X105730D01*
Y4176D01*
X106580D01*
Y5026D01*
D02*
G37*
G36*
X126949Y13176D02*
X126759D01*
X126584Y13104D01*
X126450Y12970D01*
X126378Y12795D01*
Y12605D01*
X126450Y12430D01*
X126584Y12296D01*
X126759Y12224D01*
X126929D01*
X130005Y9148D01*
X130097Y9087D01*
X130205Y9065D01*
X134552D01*
X136369Y7249D01*
Y4743D01*
X135602Y3977D01*
X135519Y4025D01*
X135270Y4092D01*
X135014D01*
X134765Y4025D01*
X134543Y3897D01*
X134361Y3715D01*
X134233Y3493D01*
X134166Y3244D01*
Y2987D01*
X134233Y2739D01*
X134361Y2517D01*
X134543Y2335D01*
X134765Y2206D01*
X135014Y2140D01*
X135270D01*
X135519Y2206D01*
X135741Y2335D01*
X135923Y2517D01*
X136051Y2739D01*
X136118Y2987D01*
Y3244D01*
X136051Y3493D01*
X136003Y3576D01*
X136852Y4426D01*
X136914Y4517D01*
X136935Y4626D01*
Y7366D01*
X136914Y7474D01*
X136852Y7566D01*
X134870Y9549D01*
X134778Y9610D01*
X134669Y9632D01*
X130323D01*
X127330Y12625D01*
Y12795D01*
X127258Y12970D01*
X127124Y13104D01*
X126949Y13176D01*
D02*
G37*
G36*
X132777Y4141D02*
X132742D01*
Y3216D01*
X133667D01*
Y3251D01*
X133597Y3512D01*
X133462Y3745D01*
X133271Y3936D01*
X133038Y4071D01*
X132777Y4141D01*
D02*
G37*
G36*
X132542D02*
X132507D01*
X132246Y4071D01*
X132013Y3936D01*
X131822Y3745D01*
X131687Y3512D01*
X131617Y3251D01*
Y3216D01*
X132542D01*
Y4141D01*
D02*
G37*
G36*
X139192Y10092D02*
X138837Y10057D01*
X138496Y9953D01*
X138182Y9785D01*
X137907Y9559D01*
X137681Y9284D01*
X137513Y8970D01*
X137409Y8629D01*
X137374Y8274D01*
Y4958D01*
X137409Y4603D01*
X137513Y4262D01*
X137681Y3948D01*
X137907Y3673D01*
X138182Y3447D01*
X138496Y3279D01*
X138837Y3175D01*
X139192Y3140D01*
X139547Y3175D01*
X139888Y3279D01*
X140202Y3447D01*
X140477Y3673D01*
X140703Y3948D01*
X140871Y4262D01*
X140975Y4603D01*
X141010Y4958D01*
Y8274D01*
X140975Y8629D01*
X140871Y8970D01*
X140703Y9284D01*
X140477Y9559D01*
X140202Y9785D01*
X139888Y9953D01*
X139547Y10057D01*
X139192Y10092D01*
D02*
G37*
G36*
X126092D02*
X125737Y10057D01*
X125396Y9953D01*
X125082Y9785D01*
X124807Y9559D01*
X124581Y9284D01*
X124413Y8970D01*
X124309Y8629D01*
X124274Y8274D01*
Y4958D01*
X124309Y4603D01*
X124413Y4262D01*
X124581Y3948D01*
X124807Y3673D01*
X125082Y3447D01*
X125396Y3279D01*
X125737Y3175D01*
X126092Y3140D01*
X126447Y3175D01*
X126788Y3279D01*
X127102Y3447D01*
X127377Y3673D01*
X127603Y3948D01*
X127771Y4262D01*
X127875Y4603D01*
X127910Y4958D01*
Y8274D01*
X127875Y8629D01*
X127771Y8970D01*
X127603Y9284D01*
X127377Y9559D01*
X127102Y9785D01*
X126788Y9953D01*
X126447Y10057D01*
X126092Y10092D01*
D02*
G37*
G36*
X120838Y3976D02*
X119988D01*
Y3126D01*
X120838D01*
Y3976D01*
D02*
G37*
G36*
X119788D02*
X118938D01*
Y3126D01*
X119788D01*
Y3976D01*
D02*
G37*
G36*
X116266D02*
X115416D01*
Y3126D01*
X116266D01*
Y3976D01*
D02*
G37*
G36*
X115216D02*
X114366D01*
Y3126D01*
X115216D01*
Y3976D01*
D02*
G37*
G36*
X111948D02*
X111098D01*
Y3126D01*
X111948D01*
Y3976D01*
D02*
G37*
G36*
X110898D02*
X110048D01*
Y3126D01*
X110898D01*
Y3976D01*
D02*
G37*
G36*
X107630D02*
X106780D01*
Y3126D01*
X107630D01*
Y3976D01*
D02*
G37*
G36*
X106580D02*
X105730D01*
Y3126D01*
X106580D01*
Y3976D01*
D02*
G37*
G36*
X97724Y3675D02*
X96874D01*
Y2825D01*
X97724D01*
Y3675D01*
D02*
G37*
G36*
X96674D02*
X95824D01*
Y2825D01*
X96674D01*
Y3675D01*
D02*
G37*
G36*
X130270Y4092D02*
X130014D01*
X129765Y4025D01*
X129543Y3897D01*
X129361Y3715D01*
X129233Y3493D01*
X129166Y3244D01*
Y2987D01*
X129233Y2739D01*
X129361Y2517D01*
X129543Y2335D01*
X129765Y2206D01*
X130014Y2140D01*
X130270D01*
X130519Y2206D01*
X130741Y2335D01*
X130923Y2517D01*
X131051Y2739D01*
X131118Y2987D01*
Y3244D01*
X131051Y3493D01*
X130923Y3715D01*
X130741Y3897D01*
X130519Y4025D01*
X130270Y4092D01*
D02*
G37*
G36*
X133667Y3016D02*
X132742D01*
Y2091D01*
X132777D01*
X133038Y2161D01*
X133271Y2296D01*
X133462Y2487D01*
X133597Y2720D01*
X133667Y2981D01*
Y3016D01*
D02*
G37*
G36*
X132542D02*
X131617D01*
Y2981D01*
X131687Y2720D01*
X131822Y2487D01*
X132013Y2296D01*
X132246Y2161D01*
X132507Y2091D01*
X132542D01*
Y3016D01*
D02*
G37*
G36*
X102247Y3614D02*
X100445D01*
Y1812D01*
X102247D01*
Y3614D01*
D02*
G37*
G36*
X92849D02*
X91047D01*
Y1812D01*
X92849D01*
Y3614D01*
D02*
G37*
G36*
X97724Y2625D02*
X96874D01*
Y1775D01*
X97724D01*
Y2625D01*
D02*
G37*
G36*
X96674D02*
X95824D01*
Y1775D01*
X96674D01*
Y2625D01*
D02*
G37*
%LPD*%
G36*
X135220Y24624D02*
X135160Y24479D01*
Y24309D01*
X126555Y15704D01*
X126284D01*
X126226Y15843D01*
X135092Y24709D01*
X135220Y24624D01*
D02*
G37*
G36*
X135961Y23840D02*
X126619Y14498D01*
X123228D01*
X123127Y14649D01*
X123158Y14723D01*
Y14912D01*
X123127Y14986D01*
X123228Y15137D01*
X126672D01*
X126781Y15159D01*
X126873Y15220D01*
X135561Y23908D01*
X135731D01*
X135876Y23968D01*
X135961Y23840D01*
D02*
G37*
D30*
X65532Y57912D02*
X68645Y61025D01*
Y80961D01*
X66294Y83312D02*
X68645Y80961D01*
X83057Y27044D02*
X83312Y27299D01*
X83057Y24834D02*
Y27044D01*
X83312Y27299D02*
Y27391D01*
X31242Y34798D02*
Y80518D01*
X30226Y81534D02*
X31242Y80518D01*
X73406Y89836D02*
X73486Y89916D01*
X85279Y11684D02*
X88422Y14827D01*
X88382Y14214D02*
X126736D01*
X88422Y14827D02*
X122672D01*
X125807Y15825D02*
X135636Y25654D01*
X122672Y14827D02*
X122682Y14817D01*
X126736Y14214D02*
X136652Y24130D01*
X73177Y15825D02*
X125807D01*
X85104Y10936D02*
X88382Y14214D01*
X126672Y15420D02*
X135636Y24384D01*
X73624Y15420D02*
X126672D01*
X72214Y14010D02*
X73624Y15420D01*
X52881Y18239D02*
X77994D01*
X36322Y34798D02*
X52881Y18239D01*
X54102Y21844D02*
X74016D01*
X41402Y34544D02*
X54102Y21844D01*
X41402Y34544D02*
Y34798D01*
X22721Y6015D02*
X24521Y4215D01*
X85365Y17008D02*
X122682D01*
X85007Y16650D02*
X85365Y17008D01*
X136652Y4626D02*
Y7366D01*
X134669Y9349D02*
X136652Y7366D01*
X130205Y9349D02*
X134669D01*
X126854Y12700D02*
X130205Y9349D01*
X136652Y24130D02*
Y68500D01*
X135142Y3116D02*
X136652Y4626D01*
X74016Y21844D02*
X74422Y22250D01*
X81216D01*
X73855Y22293D02*
X74422Y22860D01*
X56447Y22293D02*
X73855D01*
X74422Y22860D02*
X80010D01*
X88646Y22352D02*
Y39814D01*
X82232Y46228D02*
X88646Y39814D01*
X65532Y29261D02*
Y57912D01*
Y29261D02*
X71679Y23114D01*
X43942Y34798D02*
X56447Y22293D01*
X71679Y23114D02*
X73216D01*
X71516Y24130D02*
X76913Y29528D01*
X79947D01*
X54610Y19050D02*
X79248D01*
X78005Y18250D02*
X81107D01*
X77994Y18239D02*
X78005Y18250D01*
X82232Y24834D02*
X82296Y24898D01*
Y27341D01*
X85007Y30052D02*
Y32608D01*
X82296Y27341D02*
X85007Y30052D01*
X79947Y29528D02*
X80010Y29464D01*
X66548Y16650D02*
X70752Y12446D01*
X82296D01*
X76416Y11684D02*
X85279D01*
X38862Y34798D02*
X54610Y19050D01*
X107499Y12446D02*
X113329Y6616D01*
X115316D01*
X110998D02*
Y7874D01*
X106426Y12446D02*
X110998Y7874D01*
X136652Y68500D02*
X149860Y81708D01*
X137668Y57070D02*
X149860Y69262D01*
X138684Y45466D02*
X149860Y56642D01*
X138684Y25654D02*
Y45466D01*
X137668Y24384D02*
Y57070D01*
X73216Y10936D02*
X85104D01*
X71592Y14010D02*
X72214D01*
X71516Y13934D02*
X71592Y14010D01*
X144780Y33274D02*
Y43815D01*
X149860Y56642D02*
Y56896D01*
X14986Y23160D02*
X21360D01*
X22860Y24660D01*
X10414Y20631D02*
X12757Y18288D01*
X21844D01*
X12468Y6015D02*
X22721D01*
X31242Y34798D02*
X31369Y34925D01*
D31*
X84836Y28706D02*
X85657Y29528D01*
X84836Y23114D02*
X86360Y21590D01*
X84836Y23114D02*
Y28706D01*
X46990Y13233D02*
Y21450D01*
X43663Y9906D02*
X46990Y13233D01*
X51452Y17636D02*
X59182D01*
X49022Y20066D02*
X51452Y17636D01*
X66136Y89820D02*
X67660D01*
X69596Y60706D02*
Y87884D01*
X66040Y89916D02*
X66136Y89820D01*
X67660D02*
X69596Y87884D01*
X78486Y89916D02*
X87376Y81026D01*
Y44958D02*
Y81026D01*
Y44958D02*
X89662Y42672D01*
X68498Y9480D02*
X76363D01*
X77216Y10333D01*
X64516Y13462D02*
X68498Y9480D01*
X41402Y9906D02*
X43663D01*
X113538Y21590D02*
X114554Y22606D01*
X91891Y21590D02*
X113538D01*
X101346Y23114D02*
Y26354D01*
X27732Y2032D02*
X86360D01*
X89408Y5080D02*
Y10333D01*
X86360Y2032D02*
X89408Y5080D01*
X22098Y7666D02*
X27732Y2032D01*
X89408Y10333D02*
X91948Y12873D01*
X20112Y9652D02*
X22098Y7666D01*
X69865Y28702D02*
X71916D01*
X68580D02*
X69865D01*
X7874Y16510D02*
Y25295D01*
Y16510D02*
X14732Y9652D01*
X16256D01*
X20112D01*
X76032Y20828D02*
X80288D01*
X81216Y19900D01*
X86868Y37338D02*
Y39814D01*
X69088Y30988D02*
X80518D01*
X86868Y37338D01*
X53594Y30988D02*
X64516D01*
X91891Y21590D02*
Y38411D01*
X69596Y60706D02*
X91891Y38411D01*
X66802Y30480D02*
Y34798D01*
Y30480D02*
X68580Y28702D01*
X90424Y18542D02*
X110490D01*
X86360Y21590D02*
X87376D01*
X90424Y18542D01*
X107250Y32258D02*
X108331D01*
X101346Y26354D02*
X107250Y32258D01*
X108331D02*
X108681Y32608D01*
Y40894D01*
X106172Y43403D02*
X108681Y40894D01*
X106172Y43403D02*
Y70842D01*
X108681Y40894D02*
X131824D01*
X102616Y74398D02*
X106172Y70842D01*
X131824Y40894D02*
X131826Y40896D01*
X146812Y42672D02*
Y45085D01*
X147828Y39116D02*
Y41656D01*
X146812Y42672D02*
X147828Y41656D01*
X126746Y37338D02*
X134620D01*
D32*
X139192Y6616D02*
D03*
X126092D02*
D03*
D33*
X135142Y5616D02*
D03*
X132642Y3116D02*
D03*
X135142D02*
D03*
X130142D02*
D03*
D34*
Y5616D02*
D03*
D35*
X39124Y86386D02*
D03*
X41664Y83846D02*
D03*
X44204Y86386D02*
D03*
D36*
X69342Y34798D02*
D03*
X66802D02*
D03*
X64262D02*
D03*
X61722D02*
D03*
X59182D02*
D03*
X56642D02*
D03*
X54102D02*
D03*
X51562D02*
D03*
X49022D02*
D03*
X46482D02*
D03*
X43942D02*
D03*
X41402D02*
D03*
X38862D02*
D03*
X36322D02*
D03*
X33782D02*
D03*
X31242D02*
D03*
X101346Y10333D02*
D03*
X91948Y10333D02*
D03*
X38862Y9906D02*
D03*
X39370Y24638D02*
D03*
X64516Y3302D02*
D03*
Y5842D02*
D03*
Y8382D02*
D03*
Y10922D02*
D03*
Y13462D02*
D03*
X119888Y6616D02*
D03*
X115316D02*
D03*
X110998D02*
D03*
X106680D02*
D03*
D37*
X75842Y35798D02*
D03*
Y75798D02*
D03*
X5842D02*
D03*
Y35798D02*
D03*
D38*
X91948Y2713D02*
D03*
X41402Y9906D02*
D03*
X41910Y24638D02*
D03*
X101346Y2713D02*
D03*
X96774Y2725D02*
D03*
D39*
X149860Y56896D02*
D03*
Y69262D02*
D03*
Y81708D02*
D03*
X73486Y89916D02*
D03*
X61040Y89916D02*
D03*
D40*
X149860Y51896D02*
D03*
Y64262D02*
D03*
Y76708D02*
D03*
D41*
X78486Y89916D02*
D03*
X66040Y89916D02*
D03*
D42*
X101346Y12873D02*
D03*
X91948Y12873D02*
D03*
X64516Y16002D02*
D03*
X119888Y4076D02*
D03*
X115316D02*
D03*
X110998D02*
D03*
X106680D02*
D03*
D43*
X128778Y77978D02*
D03*
X118618D02*
D03*
X113854Y86868D02*
D03*
X103694D02*
D03*
X101154Y77724D02*
D03*
X90994D02*
D03*
X118364Y32004D02*
D03*
X128524D02*
D03*
X104140Y38100D02*
D03*
X114300D02*
D03*
X100722Y35560D02*
D03*
X90562D02*
D03*
X90424Y28956D02*
D03*
X100584D02*
D03*
X128524Y58420D02*
D03*
X118364D02*
D03*
X100838Y58166D02*
D03*
X90678D02*
D03*
X113792Y54610D02*
D03*
X103632D02*
D03*
Y49784D02*
D03*
X113792D02*
D03*
D44*
X4500Y4500D02*
D03*
X150500D02*
D03*
Y90500D02*
D03*
X4500D02*
D03*
D45*
X66294Y83312D02*
D03*
X83057Y24834D02*
D03*
X83312Y27391D02*
D03*
X30226Y81534D02*
D03*
X49022Y20066D02*
D03*
X145000Y80000D02*
D03*
X140000Y70000D02*
D03*
X145000Y60000D02*
D03*
X140000Y50000D02*
D03*
Y30000D02*
D03*
X145000Y20000D02*
D03*
X130000Y70000D02*
D03*
Y50000D02*
D03*
X135000Y40000D02*
D03*
X130000Y30000D02*
D03*
X135000Y20000D02*
D03*
X125000Y80000D02*
D03*
X120000Y70000D02*
D03*
Y50000D02*
D03*
X125000Y40000D02*
D03*
Y20000D02*
D03*
X120000Y10000D02*
D03*
X115000Y80000D02*
D03*
Y60000D02*
D03*
X110000Y50000D02*
D03*
X115000Y40000D02*
D03*
Y20000D02*
D03*
X105000Y80000D02*
D03*
X100000Y70000D02*
D03*
Y50000D02*
D03*
X105000Y40000D02*
D03*
X100000Y30000D02*
D03*
X105000Y20000D02*
D03*
X100000Y10000D02*
D03*
X95000Y80000D02*
D03*
X90000Y70000D02*
D03*
X95000Y60000D02*
D03*
X90000Y50000D02*
D03*
X95000Y40000D02*
D03*
Y20000D02*
D03*
X85000Y80000D02*
D03*
X80000Y70000D02*
D03*
X75000Y80000D02*
D03*
Y60000D02*
D03*
X70000Y50000D02*
D03*
X75000Y40000D02*
D03*
Y20000D02*
D03*
X65000Y80000D02*
D03*
X60000Y70000D02*
D03*
X65000Y60000D02*
D03*
X60000Y50000D02*
D03*
X65000Y20000D02*
D03*
X55000Y80000D02*
D03*
X50000Y70000D02*
D03*
Y50000D02*
D03*
Y30000D02*
D03*
X55000Y20000D02*
D03*
X50000Y10000D02*
D03*
X40000Y70000D02*
D03*
Y50000D02*
D03*
Y30000D02*
D03*
X45000Y20000D02*
D03*
X35000Y80000D02*
D03*
X30000Y70000D02*
D03*
X35000Y60000D02*
D03*
X30000Y50000D02*
D03*
X35000Y40000D02*
D03*
X30000Y30000D02*
D03*
X35000Y20000D02*
D03*
X25000Y80000D02*
D03*
X20000Y70000D02*
D03*
X25000Y60000D02*
D03*
X20000Y50000D02*
D03*
X25000Y40000D02*
D03*
X20000Y30000D02*
D03*
X15000Y80000D02*
D03*
X10000Y70000D02*
D03*
X15000Y60000D02*
D03*
X10000Y50000D02*
D03*
X15000Y40000D02*
D03*
X10000Y30000D02*
D03*
Y10000D02*
D03*
X46990Y21450D02*
D03*
X122682Y14817D02*
D03*
X101346Y23114D02*
D03*
X24521Y4215D02*
D03*
X126854Y12700D02*
D03*
X122682Y17008D02*
D03*
X76032Y20828D02*
D03*
X53594Y30988D02*
D03*
X86868Y39814D02*
D03*
X89662Y42672D02*
D03*
X69088Y30988D02*
D03*
X64516D02*
D03*
X73216Y23114D02*
D03*
X82232Y46228D02*
D03*
X88646Y22352D02*
D03*
X59182Y17636D02*
D03*
X79248Y19050D02*
D03*
X82232Y24834D02*
D03*
X85007Y32608D02*
D03*
X85657Y29528D02*
D03*
X80010Y29464D02*
D03*
X71516Y24130D02*
D03*
X82296Y12446D02*
D03*
X76416Y11684D02*
D03*
X81216Y19900D02*
D03*
X81107Y18250D02*
D03*
X85007Y16650D02*
D03*
X114554Y22606D02*
D03*
X91891Y21590D02*
D03*
X110490Y18542D02*
D03*
X71916Y28702D02*
D03*
X69865D02*
D03*
X86360Y21590D02*
D03*
X107499Y12446D02*
D03*
X106426D02*
D03*
X102616Y74398D02*
D03*
X131826Y40896D02*
D03*
X108331Y32258D02*
D03*
X107250Y68326D02*
D03*
X73216Y10936D02*
D03*
X71516Y13934D02*
D03*
X73177Y15825D02*
D03*
X77216Y10333D02*
D03*
X66548Y16650D02*
D03*
X146812Y45085D02*
D03*
X147828Y39116D02*
D03*
X144780Y43815D02*
D03*
Y33274D02*
D03*
X126746Y37338D02*
D03*
X134620D02*
D03*
X138684Y25654D02*
D03*
X137668Y24384D02*
D03*
X135636Y25654D02*
D03*
Y24384D02*
D03*
X80010Y22860D02*
D03*
X81216Y22250D02*
D03*
X7874Y25295D02*
D03*
X21844Y18288D02*
D03*
X10414Y20631D02*
D03*
X22860Y24660D02*
D03*
X14986Y23160D02*
D03*
X12468Y6015D02*
D03*
X16256Y9652D02*
D03*
X22098Y7666D02*
D03*
%TF.MD5,ac0d324cf77f21b8527cc23f52d39f8d*%
M02*
