%TF.GenerationSoftware,Altium Limited,Altium Designer,22.7.1 (60)*%
G04 Layer_Color=65535*
%FSLAX43Y43*%
%MOMM*%
%TF.SameCoordinates,2ABDD118-431D-4485-972F-9944B14BA474*%
%TF.FilePolarity,Positive*%
%TF.FileFunction,Legend,Top*%
%TF.Part,Single*%
G01*
G75*
%TA.AperFunction,NonConductor*%
%ADD46C,0.250*%
%ADD47C,0.200*%
%ADD48C,0.600*%
%ADD49C,0.400*%
%ADD50C,0.127*%
%ADD51C,0.254*%
%ADD52C,0.100*%
D46*
X29501Y85997D02*
G03*
X29501Y85997I-125J0D01*
G01*
X66644Y85178D02*
G03*
X66644Y85178I-125J0D01*
G01*
X76550Y84924D02*
G03*
X76550Y84924I-125J0D01*
G01*
X85782Y38130D02*
G03*
X85782Y38130I-125J0D01*
G01*
X92073Y4763D02*
G03*
X92073Y4763I-125J0D01*
G01*
X143196Y45935D02*
G03*
X143196Y45935I-125J0D01*
G01*
X26817Y85707D02*
G03*
X26817Y85707I-125J0D01*
G01*
X22499Y89009D02*
G03*
X22499Y89009I-125J0D01*
G01*
X112035Y76200D02*
G03*
X112035Y76200I-125J0D01*
G01*
X113116Y30665D02*
G03*
X113116Y30665I-125J0D01*
G01*
X82191Y24750D02*
G03*
X82191Y24750I-125J0D01*
G01*
X19823Y9786D02*
G03*
X19823Y9786I-125J0D01*
G01*
X17029Y24010D02*
G03*
X17029Y24010I-125J0D01*
G01*
X101471Y4763D02*
G03*
X101471Y4763I-125J0D01*
G01*
X96899Y4775D02*
G03*
X96899Y4775I-125J0D01*
G01*
D47*
X123784Y5616D02*
G03*
X123784Y5616I-100J0D01*
G01*
X45658Y86360D02*
G03*
X45658Y86360I-57J0D01*
G01*
X69242Y31698D02*
G03*
X69442Y31698I100J0D01*
G01*
D02*
G03*
X69242Y31698I-100J0D01*
G01*
X30926Y85347D02*
X31726D01*
Y84447D02*
Y85347D01*
X28726D02*
X29526D01*
X28726Y84447D02*
Y85347D01*
X65869Y82828D02*
Y83628D01*
X64969Y82828D02*
X65869D01*
Y85028D02*
Y85828D01*
X64969D02*
X65869D01*
X75775Y82574D02*
Y83374D01*
X74875Y82574D02*
X75775D01*
Y84774D02*
Y85574D01*
X74875D02*
X75775D01*
X38108Y82926D02*
X44964D01*
X38108D02*
Y89916D01*
X44964D01*
X45091Y82926D02*
Y89916D01*
X38110Y84674D02*
Y88169D01*
X27332Y3983D02*
X29802D01*
X27267Y5507D02*
X29167D01*
X25216Y18461D02*
X27686D01*
X25151Y19985D02*
X27051D01*
X71950Y5450D02*
X83650D01*
X71950Y10450D02*
X83650D01*
Y5450D02*
Y6550D01*
X71950Y5450D02*
Y6550D01*
X83650Y9350D02*
Y10450D01*
X71950Y9350D02*
Y10450D01*
X85932Y32155D02*
Y35755D01*
X80832Y32155D02*
Y35755D01*
X90548Y1313D02*
Y4113D01*
Y1313D02*
X93348D01*
Y4113D01*
X90548D02*
X93348D01*
X102616Y9063D02*
Y14143D01*
X100076D02*
X102616D01*
X100076Y9063D02*
Y14143D01*
Y9063D02*
X102616D01*
X93218Y9063D02*
Y14143D01*
X90678D02*
X93218D01*
X90678Y9063D02*
Y14143D01*
Y9063D02*
X93218D01*
X32674Y17018D02*
X33874D01*
X30388Y17018D02*
X31588D01*
X33984Y2932D02*
X35184D01*
X31952Y2932D02*
X33152D01*
X37592Y8636D02*
X42672D01*
Y11176D01*
X37592D02*
X42672D01*
X37592Y8636D02*
Y11176D01*
X13370Y8671D02*
X14570D01*
X144196Y40680D02*
X147396D01*
X144196Y45680D02*
X147396D01*
Y40680D02*
Y45680D01*
X144196Y40680D02*
Y45680D01*
X150276Y43296D02*
X151476D01*
X145658Y34198D02*
Y35398D01*
X139862Y45085D02*
X141062D01*
X138846Y17908D02*
X140046D01*
X132496D02*
X133696D01*
X126146D02*
X127346D01*
X115986Y12204D02*
X117186D01*
X113954D02*
X115154D01*
X109890D02*
X111090D01*
X35676Y83474D02*
Y84674D01*
X34198Y88138D02*
X35398D01*
X29326Y88808D02*
Y90008D01*
X23392Y83882D02*
X24192D01*
X23392D02*
Y84782D01*
X25592Y83882D02*
X26392D01*
Y84782D01*
X19974Y83450D02*
X21174D01*
X19074Y87184D02*
X19874D01*
X19074D02*
Y88084D01*
X21274Y87184D02*
X22074D01*
Y88084D01*
X126746Y77978D02*
X127762D01*
X119634D02*
X120650D01*
Y76962D02*
X126746D01*
Y78994D01*
X120650D02*
X126746D01*
X120650Y76962D02*
Y78994D01*
X111822Y86868D02*
X112838D01*
X104710D02*
X105726D01*
Y85852D02*
X111822D01*
Y87884D01*
X105726D02*
X111822D01*
X105726Y85852D02*
Y87884D01*
X99122Y77724D02*
X100138D01*
X92010D02*
X93026D01*
Y76708D02*
X99122D01*
Y78740D01*
X93026D02*
X99122D01*
X93026Y76708D02*
Y78740D01*
X106655Y71875D02*
Y75075D01*
X111655Y71875D02*
Y75075D01*
X106655Y71875D02*
X111655D01*
X106655Y75075D02*
X111655D01*
X120396Y30988D02*
Y33020D01*
X126492D01*
Y30988D02*
Y33020D01*
X120396Y30988D02*
X126492D01*
X119380Y32004D02*
X120396D01*
X126492D02*
X127508D01*
X107736Y26340D02*
Y29540D01*
X112736Y26340D02*
Y29540D01*
X107736Y26340D02*
X112736D01*
X107736Y29540D02*
X112736D01*
X106172Y37084D02*
Y39116D01*
X112268D01*
Y37084D02*
Y39116D01*
X106172Y37084D02*
X112268D01*
X105156Y38100D02*
X106172D01*
X112268D02*
X113284D01*
X98690Y34544D02*
Y36576D01*
X92594Y34544D02*
X98690D01*
X92594D02*
Y36576D01*
X98690D01*
Y35560D02*
X99706D01*
X91578D02*
X92594D01*
X92456Y27940D02*
Y29972D01*
X98552D01*
Y27940D02*
Y29972D01*
X92456Y27940D02*
X98552D01*
X91440Y28956D02*
X92456D01*
X98552D02*
X99568D01*
X72866Y23400D02*
X81566D01*
X72866Y14700D02*
X81566D01*
Y23400D01*
X72866Y14700D02*
Y23400D01*
X56054Y26212D02*
Y27412D01*
X56018Y28102D02*
Y29302D01*
X50938Y26212D02*
Y27412D01*
Y28102D02*
Y29302D01*
X56042Y16764D02*
X57242D01*
X54010D02*
X55210D01*
X13370Y5115D02*
X14570D01*
X38100Y23368D02*
X43180D01*
Y25908D01*
X38100D02*
X43180D01*
X38100Y23368D02*
Y25908D01*
X11084Y19731D02*
X12284D01*
X11084Y24441D02*
X12284D01*
X126492Y58420D02*
X127508D01*
X119380D02*
X120396D01*
Y57404D02*
X126492D01*
Y59436D01*
X120396D02*
X126492D01*
X120396Y57404D02*
Y59436D01*
X98806Y58166D02*
X99822D01*
X91694D02*
X92710D01*
Y57150D02*
X98806D01*
Y59182D01*
X92710D02*
X98806D01*
X92710Y57150D02*
Y59182D01*
X70670Y84212D02*
X71870D01*
X59852Y84328D02*
X61052D01*
X111760Y53594D02*
Y55626D01*
X105664Y53594D02*
X111760D01*
X105664D02*
Y55626D01*
X111760D01*
Y54610D02*
X112776D01*
X104648D02*
X105664D01*
X21198Y4531D02*
Y9531D01*
X22998Y4531D02*
Y9531D01*
X21198D02*
X22998D01*
X21198Y4531D02*
X22998D01*
X73698Y3006D02*
Y4106D01*
X81496Y3006D02*
Y4106D01*
X84466Y39278D02*
Y40478D01*
X18404Y18755D02*
X20204D01*
X18404Y23755D02*
X20204D01*
Y18755D02*
Y23755D01*
X18404Y18755D02*
Y23755D01*
X99946Y4113D02*
X102746D01*
Y1313D02*
Y4113D01*
X99946Y1313D02*
X102746D01*
X99946D02*
Y4113D01*
X95374Y4125D02*
X98174D01*
Y1325D02*
Y4125D01*
X95374Y1325D02*
X98174D01*
X95374D02*
Y4125D01*
X63246Y2032D02*
Y17272D01*
X65786Y2032D02*
Y17272D01*
X63246D02*
X65786D01*
X63246Y2032D02*
X65786D01*
X105664Y48768D02*
Y50800D01*
X111760D01*
Y48768D02*
Y50800D01*
X105664Y48768D02*
X111760D01*
X104648Y49784D02*
X105664D01*
X111760D02*
X112776D01*
X111922Y12204D02*
X113122D01*
X118618Y2806D02*
Y7886D01*
Y2806D02*
X121158D01*
Y7886D01*
X118618D02*
X121158D01*
X114046Y2806D02*
Y7886D01*
Y2806D02*
X116586D01*
Y7886D01*
X114046D02*
X116586D01*
X109728Y2806D02*
Y7886D01*
Y2806D02*
X112268D01*
Y7886D01*
X109728D02*
X112268D01*
X105410Y2806D02*
Y7886D01*
Y2806D02*
X107950D01*
Y7886D01*
X105410D02*
X107950D01*
D48*
X145496Y44680D02*
G03*
X145496Y44680I-300J0D01*
G01*
X110955Y74075D02*
G03*
X110955Y74075I-300J0D01*
G01*
X112036Y28540D02*
G03*
X112036Y28540I-300J0D01*
G01*
X80866Y22400D02*
G03*
X80866Y22400I-300J0D01*
G01*
D49*
X22198Y8731D02*
G03*
X22198Y8731I-200J0D01*
G01*
X19404Y22955D02*
G03*
X19404Y22955I-200J0D01*
G01*
D50*
X59154Y6604D02*
G03*
X59154Y6604I-1750J0D01*
G01*
X129142Y616D02*
X136142D01*
X138896D01*
X138896D02*
Y2704D01*
X128070Y9016D02*
X137214D01*
X129142Y616D02*
X136142D01*
X138896D01*
X138896D02*
Y2769D01*
X128170Y9016D02*
X137114D01*
X128120D02*
X137164D01*
X126392Y616D02*
X129142D01*
X126392D02*
Y2735D01*
Y616D02*
X129142D01*
X126392D02*
Y2735D01*
X126391Y2731D02*
X126392Y616D01*
X138892D02*
Y2777D01*
X138896Y2769D02*
X138901Y2774D01*
X56164Y3504D02*
X58644D01*
X60504Y3814D02*
Y9394D01*
X54304Y3814D02*
Y9394D01*
X56164Y9704D02*
X58644D01*
D51*
X87376Y22352D02*
X138430D01*
X87376Y42672D02*
X138430D01*
Y22352D02*
Y42672D01*
X87376Y22352D02*
Y42672D01*
Y45720D02*
X138430D01*
X87376Y65786D02*
X138430D01*
Y45720D02*
Y65786D01*
X87376Y45720D02*
Y65786D01*
X87438Y69088D02*
X138430D01*
X87438Y91694D02*
X138430D01*
Y69088D02*
Y91694D01*
X87438Y69088D02*
Y91694D01*
X87884Y43596D02*
Y44795D01*
X88484D01*
X88684Y44595D01*
Y44195D01*
X88484Y43995D01*
X87884D01*
X88284D02*
X88684Y43596D01*
X89683D02*
X89284D01*
X89084Y43795D01*
Y44195D01*
X89284Y44395D01*
X89683D01*
X89883Y44195D01*
Y43995D01*
X89084D01*
X90683Y43196D02*
X90883D01*
X91083Y43396D01*
Y44395D01*
X90483D01*
X90283Y44195D01*
Y43795D01*
X90483Y43596D01*
X91083D01*
X91483Y44395D02*
Y43795D01*
X91683Y43596D01*
X92283D01*
Y44395D01*
X92682Y43596D02*
X93082D01*
X92882D01*
Y44795D01*
X92682D01*
X93882Y44395D02*
X94282D01*
X94482Y44195D01*
Y43596D01*
X93882D01*
X93682Y43795D01*
X93882Y43995D01*
X94482D01*
X95082Y44595D02*
Y44395D01*
X94882D01*
X95282D01*
X95082D01*
Y43795D01*
X95282Y43596D01*
X95881D02*
X96281D01*
X96081D01*
Y44395D01*
X95881D01*
X97081Y43596D02*
X97481D01*
X97681Y43795D01*
Y44195D01*
X97481Y44395D01*
X97081D01*
X96881Y44195D01*
Y43795D01*
X97081Y43596D01*
X98081D02*
Y44395D01*
X98681D01*
X98880Y44195D01*
Y43596D01*
X101280Y44795D02*
Y43596D01*
X100680D01*
X100480Y43795D01*
Y44195D01*
X100680Y44395D01*
X101280D01*
X102279Y43596D02*
X101879D01*
X101680Y43795D01*
Y44195D01*
X101879Y44395D01*
X102279D01*
X102479Y44195D01*
Y43995D01*
X101680D01*
X102879Y44395D02*
Y43596D01*
Y43995D01*
X103079Y44195D01*
X103279Y44395D01*
X103479D01*
X104079Y43596D02*
X104479D01*
X104279D01*
Y44395D01*
X104079D01*
X105078D02*
X105478Y43596D01*
X105878Y44395D01*
X106878Y43596D02*
X106478D01*
X106278Y43795D01*
Y44195D01*
X106478Y44395D01*
X106878D01*
X107078Y44195D01*
Y43995D01*
X106278D01*
X108077Y43596D02*
X107678D01*
X107478Y43795D01*
Y44195D01*
X107678Y44395D01*
X108077D01*
X108277Y44195D01*
Y43995D01*
X107478D01*
X87884Y66694D02*
Y67893D01*
X88484D01*
X88684Y67694D01*
Y67294D01*
X88484Y67094D01*
X87884D01*
X88284D02*
X88684Y66694D01*
X89683D02*
X89284D01*
X89084Y66894D01*
Y67294D01*
X89284Y67494D01*
X89683D01*
X89883Y67294D01*
Y67094D01*
X89084D01*
X90683Y66294D02*
X90883D01*
X91083Y66494D01*
Y67494D01*
X90483D01*
X90283Y67294D01*
Y66894D01*
X90483Y66694D01*
X91083D01*
X91483Y67494D02*
Y66894D01*
X91683Y66694D01*
X92283D01*
Y67494D01*
X92682Y66694D02*
X93082D01*
X92882D01*
Y67893D01*
X92682D01*
X93882Y67494D02*
X94282D01*
X94482Y67294D01*
Y66694D01*
X93882D01*
X93682Y66894D01*
X93882Y67094D01*
X94482D01*
X95082Y67694D02*
Y67494D01*
X94882D01*
X95282D01*
X95082D01*
Y66894D01*
X95282Y66694D01*
X95881D02*
X96281D01*
X96081D01*
Y67494D01*
X95881D01*
X97081Y66694D02*
X97481D01*
X97681Y66894D01*
Y67294D01*
X97481Y67494D01*
X97081D01*
X96881Y67294D01*
Y66894D01*
X97081Y66694D01*
X98081D02*
Y67494D01*
X98681D01*
X98880Y67294D01*
Y66694D01*
X100480D02*
X100880D01*
X100680D01*
Y67494D01*
X100480D01*
X101480Y66694D02*
Y67494D01*
X102079D01*
X102279Y67294D01*
Y66694D01*
X102879Y67694D02*
Y67494D01*
X102679D01*
X103079D01*
X102879D01*
Y66894D01*
X103079Y66694D01*
X104279D02*
X103879D01*
X103679Y66894D01*
Y67294D01*
X103879Y67494D01*
X104279D01*
X104479Y67294D01*
Y67094D01*
X103679D01*
X105278Y66294D02*
X105478D01*
X105678Y66494D01*
Y67494D01*
X105078D01*
X104879Y67294D01*
Y66894D01*
X105078Y66694D01*
X105678D01*
X106078Y67494D02*
Y66694D01*
Y67094D01*
X106278Y67294D01*
X106478Y67494D01*
X106678D01*
X107478D02*
X107878D01*
X108077Y67294D01*
Y66694D01*
X107478D01*
X107278Y66894D01*
X107478Y67094D01*
X108077D01*
X108477Y66694D02*
X108877D01*
X108677D01*
Y67893D01*
X108477D01*
X110077Y66694D02*
X109677D01*
X109477Y66894D01*
Y67294D01*
X109677Y67494D01*
X110077D01*
X110277Y67294D01*
Y67094D01*
X109477D01*
X87630Y92602D02*
Y93801D01*
X88230D01*
X88430Y93602D01*
Y93202D01*
X88230Y93002D01*
X87630D01*
X88030D02*
X88430Y92602D01*
X89429D02*
X89030D01*
X88830Y92802D01*
Y93202D01*
X89030Y93402D01*
X89429D01*
X89629Y93202D01*
Y93002D01*
X88830D01*
X90429Y92202D02*
X90629D01*
X90829Y92402D01*
Y93402D01*
X90229D01*
X90029Y93202D01*
Y92802D01*
X90229Y92602D01*
X90829D01*
X91229Y93402D02*
Y92802D01*
X91429Y92602D01*
X92029D01*
Y93402D01*
X92428Y92602D02*
X92828D01*
X92628D01*
Y93801D01*
X92428D01*
X93628Y93402D02*
X94028D01*
X94228Y93202D01*
Y92602D01*
X93628D01*
X93428Y92802D01*
X93628Y93002D01*
X94228D01*
X94828Y93602D02*
Y93402D01*
X94628D01*
X95028D01*
X94828D01*
Y92802D01*
X95028Y92602D01*
X95627D02*
X96027D01*
X95827D01*
Y93402D01*
X95627D01*
X96827Y92602D02*
X97227D01*
X97427Y92802D01*
Y93202D01*
X97227Y93402D01*
X96827D01*
X96627Y93202D01*
Y92802D01*
X96827Y92602D01*
X97827D02*
Y93402D01*
X98427D01*
X98626Y93202D01*
Y92602D01*
X100226Y92202D02*
Y93402D01*
X100826D01*
X101026Y93202D01*
Y92802D01*
X100826Y92602D01*
X100226D01*
X101426Y93402D02*
Y92602D01*
Y93002D01*
X101625Y93202D01*
X101825Y93402D01*
X102025D01*
X102825Y92602D02*
X103225D01*
X103425Y92802D01*
Y93202D01*
X103225Y93402D01*
X102825D01*
X102625Y93202D01*
Y92802D01*
X102825Y92602D01*
X103825Y92202D02*
Y93402D01*
X104425D01*
X104624Y93202D01*
Y92802D01*
X104425Y92602D01*
X103825D01*
X105224D02*
X105624D01*
X105824Y92802D01*
Y93202D01*
X105624Y93402D01*
X105224D01*
X105024Y93202D01*
Y92802D01*
X105224Y92602D01*
X106224Y93402D02*
Y92602D01*
Y93002D01*
X106424Y93202D01*
X106624Y93402D01*
X106824D01*
X107624Y93602D02*
Y93402D01*
X107424D01*
X107823D01*
X107624D01*
Y92802D01*
X107823Y92602D01*
X108423D02*
X108823D01*
X108623D01*
Y93402D01*
X108423D01*
X109623Y92602D02*
X110023D01*
X110223Y92802D01*
Y93202D01*
X110023Y93402D01*
X109623D01*
X109423Y93202D01*
Y92802D01*
X109623Y92602D01*
X110623D02*
Y93402D01*
X111222D01*
X111422Y93202D01*
Y92602D01*
X111822D02*
Y93402D01*
X112422D01*
X112622Y93202D01*
Y92602D01*
X113622D02*
X113222D01*
X113022Y92802D01*
Y93202D01*
X113222Y93402D01*
X113622D01*
X113822Y93202D01*
Y93002D01*
X113022D01*
X114221Y92602D02*
X114621D01*
X114421D01*
Y93801D01*
X114221D01*
X115221Y92602D02*
X115621D01*
X115421D01*
Y93801D01*
X115221D01*
X116821Y92602D02*
X116421D01*
X116221Y92802D01*
Y93202D01*
X116421Y93402D01*
X116821D01*
X117020Y93202D01*
Y93002D01*
X116221D01*
X27740Y81134D02*
Y81934D01*
X27540Y82134D01*
X27140D01*
X26940Y81934D01*
Y81134D01*
X27140Y80934D01*
X27540D01*
X27340Y81334D02*
X27740Y80934D01*
X27540D02*
X27740Y81134D01*
X28740Y80934D02*
Y82134D01*
X28140Y81534D01*
X28940D01*
X123698Y2475D02*
X123444Y2729D01*
X122936D01*
X122682Y2475D01*
Y2222D01*
X122936Y1968D01*
X123444D01*
X123698Y1714D01*
Y1460D01*
X123444Y1206D01*
X122936D01*
X122682Y1460D01*
X124206Y1206D02*
X124714D01*
X124460D01*
Y2729D01*
X124206Y2475D01*
X38265Y90766D02*
Y92290D01*
X39026D01*
X39280Y92036D01*
Y91528D01*
X39026Y91274D01*
X38265D01*
X38772D02*
X39280Y90766D01*
X39788D02*
X40296D01*
X40042D01*
Y92290D01*
X39788Y92036D01*
X42073Y90766D02*
X41058D01*
X42073Y91782D01*
Y92036D01*
X41819Y92290D01*
X41312D01*
X41058Y92036D01*
X24892Y17880D02*
Y16356D01*
X25654D01*
X25908Y16610D01*
Y17626D01*
X25654Y17880D01*
X24892D01*
X27432D02*
X26924Y17626D01*
X26416Y17118D01*
Y16610D01*
X26670Y16356D01*
X27178D01*
X27432Y16610D01*
Y16864D01*
X27178Y17118D01*
X26416D01*
X27331Y3182D02*
Y1658D01*
X28092D01*
X28346Y1912D01*
Y2928D01*
X28092Y3182D01*
X27331D01*
X29870D02*
X28854D01*
Y2420D01*
X29362Y2674D01*
X29616D01*
X29870Y2420D01*
Y1912D01*
X29616Y1658D01*
X29108D01*
X28854Y1912D01*
X26940Y29810D02*
Y28610D01*
X27740D01*
X28940D02*
X28140D01*
X28940Y29410D01*
Y29610D01*
X28740Y29810D01*
X28340D01*
X28140Y29610D01*
X28156Y15586D02*
Y14386D01*
X28956D01*
X29356D02*
X29756D01*
X29556D01*
Y15586D01*
X29356Y15386D01*
X98406Y17450D02*
X98206Y17250D01*
Y16850D01*
X98406Y16651D01*
X99206D01*
X99406Y16850D01*
Y17250D01*
X99206Y17450D01*
X98806D01*
Y17050D01*
X99406Y17850D02*
X98206D01*
X99406Y18650D01*
X98206D01*
Y19050D02*
X99406D01*
Y19650D01*
X99206Y19849D01*
X98406D01*
X98206Y19650D01*
Y19050D01*
X82204Y83582D02*
X83404D01*
Y84182D01*
X83204Y84382D01*
X82404D01*
X82204Y84182D01*
Y83582D01*
X83404Y85382D02*
X82204D01*
X82804Y84782D01*
Y85582D01*
X49488Y7766D02*
X49687Y7966D01*
X50087D01*
X50287Y7766D01*
Y7566D01*
X50087Y7366D01*
X49887D01*
X50087D01*
X50287Y7166D01*
Y6966D01*
X50087Y6766D01*
X49687D01*
X49488Y6966D01*
X50687Y7966D02*
Y7166D01*
X51087Y6766D01*
X51487Y7166D01*
Y7966D01*
X51887Y7766D02*
X52087Y7966D01*
X52487D01*
X52686Y7766D01*
Y7566D01*
X52487Y7366D01*
X52287D01*
X52487D01*
X52686Y7166D01*
Y6966D01*
X52487Y6766D01*
X52087D01*
X51887Y6966D01*
X103632Y15809D02*
Y16608D01*
X104232Y17008D02*
Y17408D01*
Y17208D01*
X103032D01*
X103232Y17008D01*
X103032Y18808D02*
Y18008D01*
X103632D01*
X103432Y18408D01*
Y18608D01*
X103632Y18808D01*
X104032D01*
X104232Y18608D01*
Y18208D01*
X104032Y18008D01*
X103032Y19208D02*
X103832D01*
X104232Y19607D01*
X103832Y20007D01*
X103032D01*
X50209Y11911D02*
X50009Y12111D01*
X49609D01*
X49409Y11911D01*
Y11111D01*
X49609Y10911D01*
X50009D01*
X50209Y11111D01*
Y11511D01*
X49809D01*
X50609Y10911D02*
Y12111D01*
X51409Y10911D01*
Y12111D01*
X51809D02*
Y10911D01*
X52408D01*
X52608Y11111D01*
Y11911D01*
X52408Y12111D01*
X51809D01*
X50245Y4156D02*
X49445D01*
Y3556D01*
X49845Y3756D01*
X50045D01*
X50245Y3556D01*
Y3156D01*
X50045Y2956D01*
X49645D01*
X49445Y3156D01*
X50645Y4156D02*
Y3356D01*
X51045Y2956D01*
X51445Y3356D01*
Y4156D01*
X94234Y15681D02*
Y16480D01*
X93834Y16081D02*
X94634D01*
X94834Y16880D02*
Y17280D01*
Y17080D01*
X93634D01*
X93834Y16880D01*
X93634Y18680D02*
Y17880D01*
X94234D01*
X94034Y18280D01*
Y18480D01*
X94234Y18680D01*
X94634D01*
X94834Y18480D01*
Y18080D01*
X94634Y17880D01*
X93634Y19080D02*
X94434D01*
X94834Y19479D01*
X94434Y19879D01*
X93634D01*
X43955Y30213D02*
Y29013D01*
X44555D01*
X44755Y29213D01*
Y30013D01*
X44555Y30213D01*
X43955D01*
X45955Y29013D02*
X45155D01*
X45955Y29813D01*
Y30013D01*
X45755Y30213D01*
X45355D01*
X45155Y30013D01*
X44412Y27851D02*
Y26651D01*
X45012D01*
X45212Y26851D01*
Y27651D01*
X45012Y27851D01*
X44412D01*
X45612Y26651D02*
X46012D01*
X45812D01*
Y27851D01*
X45612Y27651D01*
X59714Y13141D02*
X59514Y13341D01*
X59114D01*
X58914Y13141D01*
Y12941D01*
X59114Y12741D01*
X59514D01*
X59714Y12541D01*
Y12341D01*
X59514Y12141D01*
X59114D01*
X58914Y12341D01*
X60114Y13341D02*
Y12141D01*
X60514Y12541D01*
X60914Y12141D01*
Y13341D01*
X61314Y12141D02*
X61714D01*
X61514D01*
Y13341D01*
X61314Y13141D01*
X100088Y6978D02*
X100888Y5778D01*
Y6978D02*
X100088Y5778D01*
X101288Y6778D02*
X101488Y6978D01*
X101888D01*
X102088Y6778D01*
Y6578D01*
X101888Y6378D01*
X101688D01*
X101888D01*
X102088Y6178D01*
Y5978D01*
X101888Y5778D01*
X101488D01*
X101288Y5978D01*
X95516Y6978D02*
X96316Y5778D01*
Y6978D02*
X95516Y5778D01*
X97516D02*
X96716D01*
X97516Y6578D01*
Y6778D01*
X97316Y6978D01*
X96916D01*
X96716Y6778D01*
X91091Y6978D02*
X91891Y5778D01*
Y6978D02*
X91091Y5778D01*
X92291D02*
X92691D01*
X92491D01*
Y6978D01*
X92291Y6778D01*
X70727Y3956D02*
X70527Y4156D01*
X70127D01*
X69927Y3956D01*
Y3156D01*
X70127Y2956D01*
X70527D01*
X70727Y3156D01*
X71127Y2956D02*
X71527D01*
X71327D01*
Y4156D01*
X71127Y3956D01*
X131918Y16608D02*
X130718D01*
Y17208D01*
X130918Y17408D01*
X131318D01*
X131518Y17208D01*
Y16608D01*
Y17008D02*
X131918Y17408D01*
Y17808D02*
Y18208D01*
Y18008D01*
X130718D01*
X130918Y17808D01*
X131918Y18808D02*
Y19208D01*
Y19008D01*
X130718D01*
X130918Y18808D01*
X125492Y16534D02*
X124293D01*
Y17134D01*
X124493Y17334D01*
X124893D01*
X125092Y17134D01*
Y16534D01*
Y16934D02*
X125492Y17334D01*
Y17734D02*
Y18134D01*
Y17934D01*
X124293D01*
X124493Y17734D01*
Y18734D02*
X124293Y18934D01*
Y19334D01*
X124493Y19534D01*
X125292D01*
X125492Y19334D01*
Y18934D01*
X125292Y18734D01*
X124493D01*
X138014Y16780D02*
X136814D01*
Y17380D01*
X137014Y17580D01*
X137414D01*
X137614Y17380D01*
Y16780D01*
Y17180D02*
X138014Y17580D01*
X137014Y17980D02*
X136814Y18180D01*
Y18580D01*
X137014Y18780D01*
X137214D01*
X137414Y18580D01*
X137614Y18780D01*
X137814D01*
X138014Y18580D01*
Y18180D01*
X137814Y17980D01*
X137614D01*
X137414Y18180D01*
X137214Y17980D01*
X137014D01*
X137414Y18180D02*
Y18580D01*
X64210Y19322D02*
X63810D01*
X64010D01*
Y18322D01*
X63810Y18122D01*
X63611D01*
X63411Y18322D01*
X64610Y18122D02*
X65010D01*
X64810D01*
Y19322D01*
X64610Y19122D01*
X69927Y12284D02*
Y12084D01*
X70327Y11684D01*
X70727Y12084D01*
Y12284D01*
X70327Y11684D02*
Y11084D01*
X71127D02*
X71527D01*
X71327D01*
Y12284D01*
X71127Y12084D01*
X97952Y10184D02*
X99152Y10984D01*
X97952D02*
X99152Y10184D01*
Y11384D02*
Y11784D01*
Y11584D01*
X97952D01*
X98152Y11384D01*
Y12384D02*
X97952Y12584D01*
Y12984D01*
X98152Y13184D01*
X98952D01*
X99152Y12984D01*
Y12584D01*
X98952Y12384D01*
X98152D01*
X39390Y22640D02*
X40390Y21140D01*
Y22640D02*
X39390Y21140D01*
X40890Y21390D02*
X41140Y21140D01*
X41640D01*
X41890Y21390D01*
Y22390D01*
X41640Y22640D01*
X41140D01*
X40890Y22390D01*
Y22140D01*
X41140Y21890D01*
X41890D01*
X38882Y13277D02*
X39882Y11777D01*
Y13277D02*
X38882Y11777D01*
X40382Y13027D02*
X40632Y13277D01*
X41132D01*
X41382Y13027D01*
Y12777D01*
X41132Y12527D01*
X41382Y12277D01*
Y12027D01*
X41132Y11777D01*
X40632D01*
X40382Y12027D01*
Y12277D01*
X40632Y12527D01*
X40382Y12777D01*
Y13027D01*
X40632Y12527D02*
X41132D01*
X88554Y10430D02*
X89754Y11230D01*
X88554D02*
X89754Y10430D01*
Y12230D02*
X88554D01*
X89154Y11630D01*
Y12430D01*
X80507Y38632D02*
X81507D01*
X81707Y38832D01*
Y39232D01*
X81507Y39432D01*
X80507D01*
X81707Y39832D02*
Y40232D01*
Y40032D01*
X80507D01*
X80707Y39832D01*
Y40832D02*
X80507Y41032D01*
Y41432D01*
X80707Y41632D01*
X81507D01*
X81707Y41432D01*
Y41032D01*
X81507Y40832D01*
X80707D01*
X15786Y26231D02*
Y25231D01*
X15986Y25031D01*
X16385D01*
X16585Y25231D01*
Y26231D01*
X16985Y25231D02*
X17185Y25031D01*
X17585D01*
X17785Y25231D01*
Y26031D01*
X17585Y26231D01*
X17185D01*
X16985Y26031D01*
Y25831D01*
X17185Y25631D01*
X17785D01*
X18580Y12007D02*
Y11007D01*
X18780Y10807D01*
X19179D01*
X19379Y11007D01*
Y12007D01*
X19779Y11807D02*
X19979Y12007D01*
X20379D01*
X20579Y11807D01*
Y11607D01*
X20379Y11407D01*
X20579Y11207D01*
Y11007D01*
X20379Y10807D01*
X19979D01*
X19779Y11007D01*
Y11207D01*
X19979Y11407D01*
X19779Y11607D01*
Y11807D01*
X19979Y11407D02*
X20379D01*
X105680Y33208D02*
Y32208D01*
X105880Y32008D01*
X106280D01*
X106480Y32208D01*
Y33208D01*
X106880D02*
X107680D01*
Y33008D01*
X106880Y32208D01*
Y32008D01*
X142764Y48352D02*
Y47352D01*
X142964Y47152D01*
X143364D01*
X143564Y47352D01*
Y48352D01*
X144764D02*
X144364Y48152D01*
X143964Y47752D01*
Y47352D01*
X144164Y47152D01*
X144564D01*
X144764Y47352D01*
Y47552D01*
X144564Y47752D01*
X143964D01*
X104918Y79086D02*
Y78086D01*
X105118Y77886D01*
X105518D01*
X105718Y78086D01*
Y79086D01*
X106918D02*
X106118D01*
Y78486D01*
X106518Y78686D01*
X106718D01*
X106918Y78486D01*
Y78086D01*
X106718Y77886D01*
X106318D01*
X106118Y78086D01*
X71866Y27851D02*
Y26851D01*
X72066Y26651D01*
X72466D01*
X72666Y26851D01*
Y27851D01*
X73666Y26651D02*
Y27851D01*
X73066Y27251D01*
X73866D01*
X124893Y12538D02*
X125692D01*
X125292D01*
Y11338D01*
X126092D02*
Y12538D01*
X126692D01*
X126892Y12338D01*
Y11938D01*
X126692Y11738D01*
X126092D01*
X127292Y12338D02*
X127492Y12538D01*
X127892D01*
X128091Y12338D01*
Y12138D01*
X127892Y11938D01*
X127692D01*
X127892D01*
X128091Y11738D01*
Y11538D01*
X127892Y11338D01*
X127492D01*
X127292Y11538D01*
X131497Y12538D02*
X132296D01*
X131896D01*
Y11338D01*
X132696D02*
Y12538D01*
X133296D01*
X133496Y12338D01*
Y11938D01*
X133296Y11738D01*
X132696D01*
X134695Y11338D02*
X133896D01*
X134695Y12138D01*
Y12338D01*
X134496Y12538D01*
X134096D01*
X133896Y12338D01*
X138300Y12538D02*
X139100D01*
X138700D01*
Y11338D01*
X139500D02*
Y12538D01*
X140100D01*
X140300Y12338D01*
Y11938D01*
X140100Y11738D01*
X139500D01*
X140700Y11338D02*
X141100D01*
X140900D01*
Y12538D01*
X140700Y12338D01*
X134374Y81038D02*
Y82538D01*
X135124D01*
X135374Y82288D01*
Y81788D01*
X135124Y81538D01*
X134374D01*
X134370Y62980D02*
X134870D01*
X134620D01*
Y61480D01*
X134370D01*
X134870D01*
X134120Y36818D02*
Y35318D01*
X134870D01*
X135120Y35568D01*
Y36568D01*
X134870Y36818D01*
X134120D01*
X83074Y62726D02*
X82075D01*
Y61226D01*
X83074D01*
X82075Y61976D02*
X82574D01*
X83574Y61226D02*
Y62726D01*
X84324D01*
X84574Y62476D01*
Y61976D01*
X84324Y61726D01*
X83574D01*
X84074D02*
X84574Y61226D01*
X85074D02*
Y62726D01*
X85823D01*
X86073Y62476D01*
Y61976D01*
X85823Y61726D01*
X85074D01*
X85574D02*
X86073Y61226D01*
X141253Y58666D02*
X141003Y58916D01*
X140503D01*
X140253Y58666D01*
Y57666D01*
X140503Y57416D01*
X141003D01*
X141253Y57666D01*
X142502Y58916D02*
X142002D01*
X141752Y58666D01*
Y57666D01*
X142002Y57416D01*
X142502D01*
X142752Y57666D01*
Y58666D01*
X142502Y58916D01*
X143252Y57416D02*
Y58916D01*
X143752Y58416D01*
X144252Y58916D01*
Y57416D01*
X144751D02*
Y58916D01*
X145251Y58416D01*
X145751Y58916D01*
Y57416D01*
X82918Y41643D02*
Y42842D01*
X83518D01*
X83718Y42642D01*
Y42243D01*
X83518Y42043D01*
X82918D01*
X83318D02*
X83718Y41643D01*
X84717D02*
Y42842D01*
X84117Y42243D01*
X84917D01*
X85317Y41643D02*
X85717D01*
X85517D01*
Y42842D01*
X85317Y42642D01*
X36160Y15419D02*
X34960D01*
Y16018D01*
X35160Y16218D01*
X35560D01*
X35760Y16018D01*
Y15419D01*
Y15818D02*
X36160Y16218D01*
X35160Y16618D02*
X34960Y16818D01*
Y17218D01*
X35160Y17418D01*
X35360D01*
X35560Y17218D01*
Y17018D01*
Y17218D01*
X35760Y17418D01*
X35960D01*
X36160Y17218D01*
Y16818D01*
X35960Y16618D01*
Y17818D02*
X36160Y18018D01*
Y18418D01*
X35960Y18617D01*
X35160D01*
X34960Y18418D01*
Y18018D01*
X35160Y17818D01*
X35360D01*
X35560Y18018D01*
Y18617D01*
X37430Y1195D02*
X36230D01*
Y1794D01*
X36430Y1994D01*
X36830D01*
X37030Y1794D01*
Y1195D01*
Y1594D02*
X37430Y1994D01*
X36430Y2394D02*
X36230Y2594D01*
Y2994D01*
X36430Y3194D01*
X36630D01*
X36830Y2994D01*
Y2794D01*
Y2994D01*
X37030Y3194D01*
X37230D01*
X37430Y2994D01*
Y2594D01*
X37230Y2394D01*
X36430Y3594D02*
X36230Y3794D01*
Y4194D01*
X36430Y4393D01*
X36630D01*
X36830Y4194D01*
X37030Y4393D01*
X37230D01*
X37430Y4194D01*
Y3794D01*
X37230Y3594D01*
X37030D01*
X36830Y3794D01*
X36630Y3594D01*
X36430D01*
X36830Y3794D02*
Y4194D01*
X8058Y18213D02*
X6858D01*
Y18812D01*
X7058Y19012D01*
X7458D01*
X7658Y18812D01*
Y18213D01*
Y18612D02*
X8058Y19012D01*
X7058Y19412D02*
X6858Y19612D01*
Y20012D01*
X7058Y20212D01*
X7258D01*
X7458Y20012D01*
Y19812D01*
Y20012D01*
X7658Y20212D01*
X7858D01*
X8058Y20012D01*
Y19612D01*
X7858Y19412D01*
X6858Y20612D02*
Y21411D01*
X7058D01*
X7858Y20612D01*
X8058D01*
X12284Y3401D02*
X11084D01*
Y4000D01*
X11284Y4200D01*
X11684D01*
X11884Y4000D01*
Y3401D01*
Y3800D02*
X12284Y4200D01*
X11284Y4600D02*
X11084Y4800D01*
Y5200D01*
X11284Y5400D01*
X11484D01*
X11684Y5200D01*
Y5000D01*
Y5200D01*
X11884Y5400D01*
X12084D01*
X12284Y5200D01*
Y4800D01*
X12084Y4600D01*
X11084Y6599D02*
X11284Y6200D01*
X11684Y5800D01*
X12084D01*
X12284Y6000D01*
Y6400D01*
X12084Y6599D01*
X11884D01*
X11684Y6400D01*
Y5800D01*
X38030Y15418D02*
X36830D01*
Y16018D01*
X37030Y16218D01*
X37430D01*
X37630Y16018D01*
Y15418D01*
Y15818D02*
X38030Y16218D01*
X37030Y16618D02*
X36830Y16818D01*
Y17218D01*
X37030Y17418D01*
X37230D01*
X37430Y17218D01*
Y17018D01*
Y17218D01*
X37630Y17418D01*
X37830D01*
X38030Y17218D01*
Y16818D01*
X37830Y16618D01*
X36830Y18617D02*
Y17818D01*
X37430D01*
X37230Y18218D01*
Y18417D01*
X37430Y18617D01*
X37830D01*
X38030Y18417D01*
Y18018D01*
X37830Y17818D01*
X39462Y1195D02*
X38262D01*
Y1794D01*
X38462Y1994D01*
X38862D01*
X39062Y1794D01*
Y1195D01*
Y1594D02*
X39462Y1994D01*
X38462Y2394D02*
X38262Y2594D01*
Y2994D01*
X38462Y3194D01*
X38662D01*
X38862Y2994D01*
Y2794D01*
Y2994D01*
X39062Y3194D01*
X39262D01*
X39462Y2994D01*
Y2594D01*
X39262Y2394D01*
X39462Y4194D02*
X38262D01*
X38862Y3594D01*
Y4393D01*
X12284Y26849D02*
X11084D01*
Y27448D01*
X11284Y27648D01*
X11684D01*
X11884Y27448D01*
Y26849D01*
Y27248D02*
X12284Y27648D01*
X11284Y28048D02*
X11084Y28248D01*
Y28648D01*
X11284Y28848D01*
X11484D01*
X11684Y28648D01*
Y28448D01*
Y28648D01*
X11884Y28848D01*
X12084D01*
X12284Y28648D01*
Y28248D01*
X12084Y28048D01*
X11284Y29248D02*
X11084Y29448D01*
Y29848D01*
X11284Y30047D01*
X11484D01*
X11684Y29848D01*
Y29648D01*
Y29848D01*
X11884Y30047D01*
X12084D01*
X12284Y29848D01*
Y29448D01*
X12084Y29248D01*
X14570Y11101D02*
X13370D01*
Y11700D01*
X13570Y11900D01*
X13970D01*
X14170Y11700D01*
Y11101D01*
Y11500D02*
X14570Y11900D01*
X13570Y12300D02*
X13370Y12500D01*
Y12900D01*
X13570Y13100D01*
X13770D01*
X13970Y12900D01*
Y12700D01*
Y12900D01*
X14170Y13100D01*
X14370D01*
X14570Y12900D01*
Y12500D01*
X14370Y12300D01*
X14570Y14299D02*
Y13500D01*
X13770Y14299D01*
X13570D01*
X13370Y14100D01*
Y13700D01*
X13570Y13500D01*
X122044Y33944D02*
Y35144D01*
X122644D01*
X122844Y34944D01*
Y34544D01*
X122644Y34344D01*
X122044D01*
X122444D02*
X122844Y33944D01*
X123244Y34944D02*
X123444Y35144D01*
X123844D01*
X124044Y34944D01*
Y34744D01*
X123844Y34544D01*
X123644D01*
X123844D01*
X124044Y34344D01*
Y34144D01*
X123844Y33944D01*
X123444D01*
X123244Y34144D01*
X124444Y33944D02*
X124844D01*
X124644D01*
Y35144D01*
X124444Y34944D01*
X93651Y30896D02*
Y32096D01*
X94250D01*
X94450Y31896D01*
Y31496D01*
X94250Y31296D01*
X93651D01*
X94050D02*
X94450Y30896D01*
X94850Y31896D02*
X95050Y32096D01*
X95450D01*
X95650Y31896D01*
Y31696D01*
X95450Y31496D01*
X95250D01*
X95450D01*
X95650Y31296D01*
Y31096D01*
X95450Y30896D01*
X95050D01*
X94850Y31096D01*
X96050Y31896D02*
X96250Y32096D01*
X96650D01*
X96849Y31896D01*
Y31096D01*
X96650Y30896D01*
X96250D01*
X96050Y31096D01*
Y31896D01*
X107621Y40040D02*
Y41240D01*
X108220D01*
X108420Y41040D01*
Y40640D01*
X108220Y40440D01*
X107621D01*
X108020D02*
X108420Y40040D01*
X109620D02*
X108820D01*
X109620Y40840D01*
Y41040D01*
X109420Y41240D01*
X109020D01*
X108820Y41040D01*
X110020Y40240D02*
X110220Y40040D01*
X110620D01*
X110819Y40240D01*
Y41040D01*
X110620Y41240D01*
X110220D01*
X110020Y41040D01*
Y40840D01*
X110220Y40640D01*
X110819D01*
X143897Y32166D02*
Y33366D01*
X144496D01*
X144696Y33166D01*
Y32766D01*
X144496Y32566D01*
X143897D01*
X144296D02*
X144696Y32166D01*
X145896D02*
X145096D01*
X145896Y32966D01*
Y33166D01*
X145696Y33366D01*
X145296D01*
X145096Y33166D01*
X146296D02*
X146496Y33366D01*
X146896D01*
X147095Y33166D01*
Y32966D01*
X146896Y32766D01*
X147095Y32566D01*
Y32366D01*
X146896Y32166D01*
X146496D01*
X146296Y32366D01*
Y32566D01*
X146496Y32766D01*
X146296Y32966D01*
Y33166D01*
X146496Y32766D02*
X146896D01*
X122099Y60360D02*
Y61560D01*
X122698D01*
X122898Y61360D01*
Y60960D01*
X122698Y60760D01*
X122099D01*
X122498D02*
X122898Y60360D01*
X124098D02*
X123298D01*
X124098Y61160D01*
Y61360D01*
X123898Y61560D01*
X123498D01*
X123298Y61360D01*
X124498Y61560D02*
X125297D01*
Y61360D01*
X124498Y60560D01*
Y60360D01*
X94159Y60614D02*
Y61814D01*
X94758D01*
X94958Y61614D01*
Y61214D01*
X94758Y61014D01*
X94159D01*
X94558D02*
X94958Y60614D01*
X96158D02*
X95358D01*
X96158Y61414D01*
Y61614D01*
X95958Y61814D01*
X95558D01*
X95358Y61614D01*
X97357Y61814D02*
X96958Y61614D01*
X96558Y61214D01*
Y60814D01*
X96758Y60614D01*
X97158D01*
X97357Y60814D01*
Y61014D01*
X97158Y61214D01*
X96558D01*
X141062Y47423D02*
X139862D01*
Y48022D01*
X140062Y48222D01*
X140462D01*
X140662Y48022D01*
Y47423D01*
Y47822D02*
X141062Y48222D01*
Y49422D02*
Y48622D01*
X140262Y49422D01*
X140062D01*
X139862Y49222D01*
Y48822D01*
X140062Y48622D01*
X139862Y50621D02*
Y49822D01*
X140462D01*
X140262Y50222D01*
Y50422D01*
X140462Y50621D01*
X140862D01*
X141062Y50422D01*
Y50022D01*
X140862Y49822D01*
X153254Y41696D02*
X152054D01*
Y42296D01*
X152254Y42496D01*
X152654D01*
X152854Y42296D01*
Y41696D01*
Y42096D02*
X153254Y42496D01*
Y43696D02*
Y42896D01*
X152454Y43696D01*
X152254D01*
X152054Y43496D01*
Y43096D01*
X152254Y42896D01*
X153254Y44696D02*
X152054D01*
X152654Y44096D01*
Y44895D01*
X107113Y51470D02*
Y52670D01*
X107712D01*
X107912Y52470D01*
Y52070D01*
X107712Y51870D01*
X107113D01*
X107512D02*
X107912Y51470D01*
X109112D02*
X108312D01*
X109112Y52270D01*
Y52470D01*
X108912Y52670D01*
X108512D01*
X108312Y52470D01*
X109512D02*
X109712Y52670D01*
X110112D01*
X110311Y52470D01*
Y52270D01*
X110112Y52070D01*
X109912D01*
X110112D01*
X110311Y51870D01*
Y51670D01*
X110112Y51470D01*
X109712D01*
X109512Y51670D01*
X122099Y79918D02*
Y81118D01*
X122698D01*
X122898Y80918D01*
Y80518D01*
X122698Y80318D01*
X122099D01*
X122498D02*
X122898Y79918D01*
X124098D02*
X123298D01*
X124098Y80718D01*
Y80918D01*
X123898Y81118D01*
X123498D01*
X123298Y80918D01*
X125297Y79918D02*
X124498D01*
X125297Y80718D01*
Y80918D01*
X125098Y81118D01*
X124698D01*
X124498Y80918D01*
X94612Y79664D02*
Y80864D01*
X95212D01*
X95412Y80664D01*
Y80264D01*
X95212Y80064D01*
X94612D01*
X95012D02*
X95412Y79664D01*
X96612D02*
X95812D01*
X96612Y80464D01*
Y80664D01*
X96412Y80864D01*
X96012D01*
X95812Y80664D01*
X97012Y79664D02*
X97412D01*
X97212D01*
Y80864D01*
X97012Y80664D01*
X107113Y89062D02*
Y90262D01*
X107712D01*
X107912Y90062D01*
Y89662D01*
X107712Y89462D01*
X107113D01*
X107512D02*
X107912Y89062D01*
X109112D02*
X108312D01*
X109112Y89862D01*
Y90062D01*
X108912Y90262D01*
X108512D01*
X108312Y90062D01*
X109512D02*
X109712Y90262D01*
X110112D01*
X110311Y90062D01*
Y89262D01*
X110112Y89062D01*
X109712D01*
X109512Y89262D01*
Y90062D01*
X35398Y90448D02*
X34198D01*
Y91048D01*
X34398Y91248D01*
X34798D01*
X34998Y91048D01*
Y90448D01*
Y90848D02*
X35398Y91248D01*
Y91648D02*
Y92048D01*
Y91848D01*
X34198D01*
X34398Y91648D01*
X35198Y92648D02*
X35398Y92848D01*
Y93248D01*
X35198Y93448D01*
X34398D01*
X34198Y93248D01*
Y92848D01*
X34398Y92648D01*
X34598D01*
X34798Y92848D01*
Y93448D01*
X58512Y83082D02*
X57312D01*
Y83682D01*
X57512Y83882D01*
X57912D01*
X58112Y83682D01*
Y83082D01*
Y83482D02*
X58512Y83882D01*
Y84282D02*
Y84682D01*
Y84482D01*
X57312D01*
X57512Y84282D01*
Y85282D02*
X57312Y85482D01*
Y85882D01*
X57512Y86082D01*
X57712D01*
X57912Y85882D01*
X58112Y86082D01*
X58312D01*
X58512Y85882D01*
Y85482D01*
X58312Y85282D01*
X58112D01*
X57912Y85482D01*
X57712Y85282D01*
X57512D01*
X57912Y85482D02*
Y85882D01*
X69688Y83082D02*
X68488D01*
Y83682D01*
X68688Y83882D01*
X69088D01*
X69288Y83682D01*
Y83082D01*
Y83482D02*
X69688Y83882D01*
Y84282D02*
Y84682D01*
Y84482D01*
X68488D01*
X68688Y84282D01*
X68488Y85282D02*
Y86082D01*
X68688D01*
X69488Y85282D01*
X69688D01*
X29926Y90956D02*
X28726D01*
Y91556D01*
X28926Y91756D01*
X29326D01*
X29526Y91556D01*
Y90956D01*
Y91356D02*
X29926Y91756D01*
Y92156D02*
Y92556D01*
Y92356D01*
X28726D01*
X28926Y92156D01*
X28726Y93956D02*
X28926Y93556D01*
X29326Y93156D01*
X29726D01*
X29926Y93356D01*
Y93756D01*
X29726Y93956D01*
X29526D01*
X29326Y93756D01*
Y93156D01*
X34060Y81442D02*
Y82642D01*
X34660D01*
X34860Y82442D01*
Y82042D01*
X34660Y81842D01*
X34060D01*
X34460D02*
X34860Y81442D01*
X35260D02*
X35660D01*
X35460D01*
Y82642D01*
X35260Y82442D01*
X37060Y82642D02*
X36260D01*
Y82042D01*
X36660Y82242D01*
X36860D01*
X37060Y82042D01*
Y81642D01*
X36860Y81442D01*
X36460D01*
X36260Y81642D01*
X117440Y15010D02*
X116240D01*
Y15610D01*
X116440Y15810D01*
X116840D01*
X117040Y15610D01*
Y15010D01*
Y15410D02*
X117440Y15810D01*
Y16210D02*
Y16610D01*
Y16410D01*
X116240D01*
X116440Y16210D01*
X117440Y17810D02*
X116240D01*
X116840Y17210D01*
Y18010D01*
X115154Y15010D02*
X113954D01*
Y15610D01*
X114154Y15810D01*
X114554D01*
X114754Y15610D01*
Y15010D01*
Y15410D02*
X115154Y15810D01*
Y16210D02*
Y16610D01*
Y16410D01*
X113954D01*
X114154Y16210D01*
Y17210D02*
X113954Y17410D01*
Y17810D01*
X114154Y18010D01*
X114354D01*
X114554Y17810D01*
Y17610D01*
Y17810D01*
X114754Y18010D01*
X114954D01*
X115154Y17810D01*
Y17410D01*
X114954Y17210D01*
X18634Y82566D02*
X17434D01*
Y83166D01*
X17634Y83366D01*
X18034D01*
X18234Y83166D01*
Y82566D01*
Y82966D02*
X18634Y83366D01*
X18434Y83766D02*
X18634Y83966D01*
Y84366D01*
X18434Y84566D01*
X17634D01*
X17434Y84366D01*
Y83966D01*
X17634Y83766D01*
X17834D01*
X18034Y83966D01*
Y84566D01*
X113122Y15002D02*
X111922D01*
Y15602D01*
X112122Y15802D01*
X112522D01*
X112722Y15602D01*
Y15002D01*
Y15402D02*
X113122Y15802D01*
X111922Y16202D02*
Y17002D01*
X112122D01*
X112922Y16202D01*
X113122D01*
X111090Y15002D02*
X109890D01*
Y15602D01*
X110090Y15802D01*
X110490D01*
X110690Y15602D01*
Y15002D01*
Y15402D02*
X111090Y15802D01*
X109890Y17002D02*
X110090Y16602D01*
X110490Y16202D01*
X110890D01*
X111090Y16402D01*
Y16802D01*
X110890Y17002D01*
X110690D01*
X110490Y16802D01*
Y16202D01*
X55210Y19320D02*
X54010D01*
Y19920D01*
X54210Y20120D01*
X54610D01*
X54810Y19920D01*
Y19320D01*
Y19720D02*
X55210Y20120D01*
Y21120D02*
X54010D01*
X54610Y20520D01*
Y21320D01*
X57242Y19320D02*
X56042D01*
Y19920D01*
X56242Y20120D01*
X56642D01*
X56842Y19920D01*
Y19320D01*
Y19720D02*
X57242Y20120D01*
X56242Y20520D02*
X56042Y20720D01*
Y21120D01*
X56242Y21320D01*
X56442D01*
X56642Y21120D01*
Y20920D01*
Y21120D01*
X56842Y21320D01*
X57042D01*
X57242Y21120D01*
Y20720D01*
X57042Y20520D01*
X58690Y28102D02*
Y29302D01*
X59290D01*
X59490Y29102D01*
Y28702D01*
X59290Y28502D01*
X58690D01*
X59090D02*
X59490Y28102D01*
X60690D02*
X59890D01*
X60690Y28902D01*
Y29102D01*
X60490Y29302D01*
X60090D01*
X59890Y29102D01*
X58636Y26070D02*
Y27270D01*
X59236D01*
X59436Y27070D01*
Y26670D01*
X59236Y26470D01*
X58636D01*
X59036D02*
X59436Y26070D01*
X59836D02*
X60236D01*
X60036D01*
Y27270D01*
X59836Y27070D01*
X64570Y81134D02*
Y81934D01*
X64370Y82134D01*
X63970D01*
X63770Y81934D01*
Y81134D01*
X63970Y80934D01*
X64370D01*
X64170Y81334D02*
X64570Y80934D01*
X64370D02*
X64570Y81134D01*
X65770Y82134D02*
X64970D01*
Y81534D01*
X65370Y81734D01*
X65570D01*
X65770Y81534D01*
Y81134D01*
X65570Y80934D01*
X65170D01*
X64970Y81134D01*
X74698Y80880D02*
Y81680D01*
X74498Y81880D01*
X74098D01*
X73898Y81680D01*
Y80880D01*
X74098Y80680D01*
X74498D01*
X74298Y81080D02*
X74698Y80680D01*
X74498D02*
X74698Y80880D01*
X75098Y81680D02*
X75297Y81880D01*
X75697D01*
X75897Y81680D01*
Y81480D01*
X75697Y81280D01*
X75497D01*
X75697D01*
X75897Y81080D01*
Y80880D01*
X75697Y80680D01*
X75297D01*
X75098Y80880D01*
X25292Y88446D02*
X24492D01*
X24292Y88246D01*
Y87846D01*
X24492Y87646D01*
X25292D01*
X25492Y87846D01*
Y88246D01*
X25092Y88046D02*
X25492Y88446D01*
Y88246D02*
X25292Y88446D01*
X25492Y89646D02*
Y88846D01*
X24692Y89646D01*
X24492D01*
X24292Y89446D01*
Y89046D01*
X24492Y88846D01*
X20974Y91440D02*
X20174D01*
X19974Y91240D01*
Y90840D01*
X20174Y90640D01*
X20974D01*
X21174Y90840D01*
Y91240D01*
X20774Y91040D02*
X21174Y91440D01*
Y91240D02*
X20974Y91440D01*
X21174Y91840D02*
Y92240D01*
Y92040D01*
X19974D01*
X20174Y91840D01*
X118783Y8750D02*
Y9949D01*
X119382D01*
X119582Y9749D01*
Y9350D01*
X119382Y9150D01*
X118783D01*
X120782Y9949D02*
X120382Y9749D01*
X119982Y9350D01*
Y8950D01*
X120182Y8750D01*
X120582D01*
X120782Y8950D01*
Y9150D01*
X120582Y9350D01*
X119982D01*
X114211Y8750D02*
Y9949D01*
X114810D01*
X115010Y9749D01*
Y9350D01*
X114810Y9150D01*
X114211D01*
X116210Y9949D02*
X115410D01*
Y9350D01*
X115810Y9550D01*
X116010D01*
X116210Y9350D01*
Y8950D01*
X116010Y8750D01*
X115610D01*
X115410Y8950D01*
X109893Y8750D02*
Y9949D01*
X110492D01*
X110692Y9749D01*
Y9350D01*
X110492Y9150D01*
X109893D01*
X111092Y9749D02*
X111292Y9949D01*
X111692D01*
X111892Y9749D01*
Y9550D01*
X111692Y9350D01*
X111492D01*
X111692D01*
X111892Y9150D01*
Y8950D01*
X111692Y8750D01*
X111292D01*
X111092Y8950D01*
X105575Y8750D02*
Y9949D01*
X106174D01*
X106374Y9749D01*
Y9350D01*
X106174Y9150D01*
X105575D01*
X107574Y8750D02*
X106774D01*
X107574Y9550D01*
Y9749D01*
X107374Y9949D01*
X106974D01*
X106774Y9749D01*
X52827Y24200D02*
Y23000D01*
X53427D01*
X53627Y23200D01*
Y24000D01*
X53427Y24200D01*
X52827D01*
X54626Y23000D02*
X54226D01*
X54027Y23200D01*
Y23600D01*
X54226Y23800D01*
X54626D01*
X54826Y23600D01*
Y23400D01*
X54027D01*
X55226Y24200D02*
Y23000D01*
X55826D01*
X56026Y23200D01*
Y23400D01*
Y23600D01*
X55826Y23800D01*
X55226D01*
X56426D02*
Y23200D01*
X56626Y23000D01*
X57225D01*
Y23800D01*
X58025Y22600D02*
X58225D01*
X58425Y22800D01*
Y23800D01*
X57825D01*
X57625Y23600D01*
Y23200D01*
X57825Y23000D01*
X58425D01*
X81347Y28245D02*
X81148Y28445D01*
X80748D01*
X80548Y28245D01*
Y27445D01*
X80748Y27245D01*
X81148D01*
X81347Y27445D01*
X81747Y28245D02*
X81947Y28445D01*
X82347D01*
X82547Y28245D01*
Y28045D01*
X82347Y27845D01*
X82147D01*
X82347D01*
X82547Y27645D01*
Y27445D01*
X82347Y27245D01*
X81947D01*
X81747Y27445D01*
X82947Y28245D02*
X83147Y28445D01*
X83547D01*
X83747Y28245D01*
Y28045D01*
X83547Y27845D01*
X83347D01*
X83547D01*
X83747Y27645D01*
Y27445D01*
X83547Y27245D01*
X83147D01*
X82947Y27445D01*
X8998Y19012D02*
X8798Y18812D01*
Y18412D01*
X8998Y18213D01*
X9798D01*
X9998Y18412D01*
Y18812D01*
X9798Y19012D01*
X8998Y19412D02*
X8798Y19612D01*
Y20012D01*
X8998Y20212D01*
X9198D01*
X9398Y20012D01*
Y19812D01*
Y20012D01*
X9598Y20212D01*
X9798D01*
X9998Y20012D01*
Y19612D01*
X9798Y19412D01*
X9998Y21411D02*
Y20612D01*
X9198Y21411D01*
X8998D01*
X8798Y21212D01*
Y20812D01*
X8998Y20612D01*
X15856Y8071D02*
X15656Y7871D01*
Y7471D01*
X15856Y7271D01*
X16656D01*
X16856Y7471D01*
Y7871D01*
X16656Y8071D01*
X15856Y8471D02*
X15656Y8671D01*
Y9071D01*
X15856Y9271D01*
X16056D01*
X16256Y9071D01*
Y8871D01*
Y9071D01*
X16456Y9271D01*
X16656D01*
X16856Y9071D01*
Y8671D01*
X16656Y8471D01*
X16856Y9671D02*
Y10071D01*
Y9871D01*
X15656D01*
X15856Y9671D01*
X35522Y20466D02*
X35322Y20666D01*
X34922D01*
X34723Y20466D01*
Y19666D01*
X34922Y19466D01*
X35322D01*
X35522Y19666D01*
X35922Y20466D02*
X36122Y20666D01*
X36522D01*
X36722Y20466D01*
Y20266D01*
X36522Y20066D01*
X36322D01*
X36522D01*
X36722Y19866D01*
Y19666D01*
X36522Y19466D01*
X36122D01*
X35922Y19666D01*
X37122Y20466D02*
X37322Y20666D01*
X37722D01*
X37921Y20466D01*
Y19666D01*
X37722Y19466D01*
X37322D01*
X37122Y19666D01*
Y20466D01*
X37046Y6242D02*
X36846Y6442D01*
X36446D01*
X36247Y6242D01*
Y5442D01*
X36446Y5242D01*
X36846D01*
X37046Y5442D01*
X38246Y5242D02*
X37446D01*
X38246Y6042D01*
Y6242D01*
X38046Y6442D01*
X37646D01*
X37446Y6242D01*
X38646Y5442D02*
X38846Y5242D01*
X39246D01*
X39445Y5442D01*
Y6242D01*
X39246Y6442D01*
X38846D01*
X38646Y6242D01*
Y6042D01*
X38846Y5842D01*
X39445D01*
X24238Y26692D02*
X24038Y26492D01*
Y26092D01*
X24238Y25893D01*
X25038D01*
X25238Y26092D01*
Y26492D01*
X25038Y26692D01*
X25238Y27892D02*
Y27092D01*
X24438Y27892D01*
X24238D01*
X24038Y27692D01*
Y27292D01*
X24238Y27092D01*
Y28292D02*
X24038Y28492D01*
Y28892D01*
X24238Y29091D01*
X24438D01*
X24638Y28892D01*
X24838Y29091D01*
X25038D01*
X25238Y28892D01*
Y28492D01*
X25038Y28292D01*
X24838D01*
X24638Y28492D01*
X24438Y28292D01*
X24238D01*
X24638Y28492D02*
Y28892D01*
X24838Y11727D02*
X24638Y11527D01*
Y11127D01*
X24838Y10928D01*
X25638D01*
X25838Y11127D01*
Y11527D01*
X25638Y11727D01*
X25838Y12927D02*
Y12127D01*
X25038Y12927D01*
X24838D01*
X24638Y12727D01*
Y12327D01*
X24838Y12127D01*
X24638Y13327D02*
Y14127D01*
X24838D01*
X25638Y13327D01*
X25838D01*
X8998Y27648D02*
X8798Y27448D01*
Y27048D01*
X8998Y26849D01*
X9798D01*
X9998Y27048D01*
Y27448D01*
X9798Y27648D01*
X9998Y28848D02*
Y28048D01*
X9198Y28848D01*
X8998D01*
X8798Y28648D01*
Y28248D01*
X8998Y28048D01*
X8798Y30047D02*
X8998Y29648D01*
X9398Y29248D01*
X9798D01*
X9998Y29448D01*
Y29848D01*
X9798Y30047D01*
X9598D01*
X9398Y29848D01*
Y29248D01*
X11284Y11900D02*
X11084Y11700D01*
Y11300D01*
X11284Y11101D01*
X12084D01*
X12284Y11300D01*
Y11700D01*
X12084Y11900D01*
X12284Y13100D02*
Y12300D01*
X11484Y13100D01*
X11284D01*
X11084Y12900D01*
Y12500D01*
X11284Y12300D01*
X11084Y14299D02*
Y13500D01*
X11684D01*
X11484Y13900D01*
Y14100D01*
X11684Y14299D01*
X12084D01*
X12284Y14100D01*
Y13700D01*
X12084Y13500D01*
X103232Y26886D02*
X103032Y26686D01*
Y26286D01*
X103232Y26087D01*
X104032D01*
X104232Y26286D01*
Y26686D01*
X104032Y26886D01*
X104232Y28086D02*
Y27286D01*
X103432Y28086D01*
X103232D01*
X103032Y27886D01*
Y27486D01*
X103232Y27286D01*
X104232Y29086D02*
X103032D01*
X103632Y28486D01*
Y29285D01*
X94704Y38500D02*
X94504Y38700D01*
X94104D01*
X93905Y38500D01*
Y37700D01*
X94104Y37500D01*
X94504D01*
X94704Y37700D01*
X95904Y37500D02*
X95104D01*
X95904Y38300D01*
Y38500D01*
X95704Y38700D01*
X95304D01*
X95104Y38500D01*
X96304D02*
X96504Y38700D01*
X96904D01*
X97103Y38500D01*
Y38300D01*
X96904Y38100D01*
X96704D01*
X96904D01*
X97103Y37900D01*
Y37700D01*
X96904Y37500D01*
X96504D01*
X96304Y37700D01*
X116440Y26886D02*
X116240Y26686D01*
Y26286D01*
X116440Y26087D01*
X117240D01*
X117440Y26286D01*
Y26686D01*
X117240Y26886D01*
X117440Y28086D02*
Y27286D01*
X116640Y28086D01*
X116440D01*
X116240Y27886D01*
Y27486D01*
X116440Y27286D01*
X117440Y29285D02*
Y28486D01*
X116640Y29285D01*
X116440D01*
X116240Y29086D01*
Y28686D01*
X116440Y28486D01*
X140062Y37754D02*
X139862Y37554D01*
Y37154D01*
X140062Y36954D01*
X140862D01*
X141062Y37154D01*
Y37554D01*
X140862Y37754D01*
X141062Y38954D02*
Y38154D01*
X140262Y38954D01*
X140062D01*
X139862Y38754D01*
Y38354D01*
X140062Y38154D01*
X141062Y39354D02*
Y39754D01*
Y39554D01*
X139862D01*
X140062Y39354D01*
X144958Y37738D02*
X144758Y37938D01*
X144358D01*
X144159Y37738D01*
Y36938D01*
X144358Y36738D01*
X144758D01*
X144958Y36938D01*
X145358Y36738D02*
X145758D01*
X145558D01*
Y37938D01*
X145358Y37738D01*
X146358Y36938D02*
X146558Y36738D01*
X146958D01*
X147158Y36938D01*
Y37738D01*
X146958Y37938D01*
X146558D01*
X146358Y37738D01*
Y37538D01*
X146558Y37338D01*
X147158D01*
X108012Y57804D02*
X107812Y58004D01*
X107412D01*
X107212Y57804D01*
Y57004D01*
X107412Y56804D01*
X107812D01*
X108012Y57004D01*
X108412Y56804D02*
X108812D01*
X108612D01*
Y58004D01*
X108412Y57804D01*
X109412Y58004D02*
X110212D01*
Y57804D01*
X109412Y57004D01*
Y56804D01*
X102216Y72960D02*
X102016Y72760D01*
Y72360D01*
X102216Y72160D01*
X103016D01*
X103216Y72360D01*
Y72760D01*
X103016Y72960D01*
X103216Y73360D02*
Y73760D01*
Y73560D01*
X102016D01*
X102216Y73360D01*
X102016Y75160D02*
X102216Y74760D01*
X102616Y74360D01*
X103016D01*
X103216Y74560D01*
Y74960D01*
X103016Y75160D01*
X102816D01*
X102616Y74960D01*
Y74360D01*
X115424Y72960D02*
X115224Y72760D01*
Y72360D01*
X115424Y72160D01*
X116224D01*
X116424Y72360D01*
Y72760D01*
X116224Y72960D01*
X116424Y73360D02*
Y73760D01*
Y73560D01*
X115224D01*
X115424Y73360D01*
X115224Y75160D02*
Y74360D01*
X115824D01*
X115624Y74760D01*
Y74960D01*
X115824Y75160D01*
X116224D01*
X116424Y74960D01*
Y74560D01*
X116224Y74360D01*
X64578Y27651D02*
X64378Y27851D01*
X63978D01*
X63778Y27651D01*
Y26851D01*
X63978Y26651D01*
X64378D01*
X64578Y26851D01*
X64978Y26651D02*
X65378D01*
X65178D01*
Y27851D01*
X64978Y27651D01*
X65978D02*
X66178Y27851D01*
X66578D01*
X66778Y27651D01*
Y27451D01*
X66578Y27251D01*
X66378D01*
X66578D01*
X66778Y27051D01*
Y26851D01*
X66578Y26651D01*
X66178D01*
X65978Y26851D01*
X85960Y15109D02*
X85760Y14909D01*
Y14509D01*
X85960Y14309D01*
X86760D01*
X86960Y14509D01*
Y14909D01*
X86760Y15109D01*
X86960Y15509D02*
Y15909D01*
Y15709D01*
X85760D01*
X85960Y15509D01*
X86960Y17308D02*
Y16508D01*
X86160Y17308D01*
X85960D01*
X85760Y17108D01*
Y16708D01*
X85960Y16508D01*
X64778Y25800D02*
X64578Y26000D01*
X64178D01*
X63978Y25800D01*
Y25000D01*
X64178Y24800D01*
X64578D01*
X64778Y25000D01*
X65178Y24800D02*
X65578D01*
X65378D01*
Y26000D01*
X65178Y25800D01*
X66178Y24800D02*
X66578D01*
X66378D01*
Y26000D01*
X66178Y25800D01*
X66910Y14032D02*
X66710Y13832D01*
Y13432D01*
X66910Y13232D01*
X67710D01*
X67910Y13432D01*
Y13832D01*
X67710Y14032D01*
X67910Y14432D02*
Y14832D01*
Y14632D01*
X66710D01*
X66910Y14432D01*
Y15432D02*
X66710Y15632D01*
Y16032D01*
X66910Y16232D01*
X67710D01*
X67910Y16032D01*
Y15632D01*
X67710Y15432D01*
X66910D01*
X52632Y13912D02*
X52432Y14112D01*
X52032D01*
X51832Y13912D01*
Y13113D01*
X52032Y12913D01*
X52432D01*
X52632Y13113D01*
X53032Y13912D02*
X53232Y14112D01*
X53632D01*
X53832Y13912D01*
Y13712D01*
X53632Y13512D01*
X53832Y13312D01*
Y13113D01*
X53632Y12913D01*
X53232D01*
X53032Y13113D01*
Y13312D01*
X53232Y13512D01*
X53032Y13712D01*
Y13912D01*
X53232Y13512D02*
X53632D01*
X76762Y30372D02*
X76562Y30572D01*
X76162D01*
X75962Y30372D01*
Y29572D01*
X76162Y29372D01*
X76562D01*
X76762Y29572D01*
X77962Y30572D02*
X77562Y30372D01*
X77162Y29972D01*
Y29572D01*
X77362Y29372D01*
X77762D01*
X77962Y29572D01*
Y29772D01*
X77762Y29972D01*
X77162D01*
X78286Y3904D02*
X78086Y4104D01*
X77686D01*
X77486Y3904D01*
Y3104D01*
X77686Y2904D01*
X78086D01*
X78286Y3104D01*
X79286Y2904D02*
Y4104D01*
X78686Y3504D01*
X79486D01*
X2248Y82388D02*
Y81188D01*
X2848D01*
X3048Y81388D01*
Y81588D01*
X2848Y81788D01*
X2248D01*
X2848D01*
X3048Y81988D01*
Y82188D01*
X2848Y82388D01*
X2248D01*
X3448Y81188D02*
X3848D01*
X3648D01*
Y82388D01*
X3448Y82188D01*
D52*
X78906Y83782D02*
Y85382D01*
X80906Y83782D02*
Y85382D01*
X2342Y32298D02*
X79342D01*
X2342D02*
Y79298D01*
X79342D01*
Y32298D02*
Y79298D01*
X31865Y8241D02*
X32865D01*
X31865Y13441D02*
X32865D01*
X30381Y27492D02*
X31381D01*
X30381Y22292D02*
X31381D01*
%TF.MD5,eca7a6ab5af67c2e882c6d49263ab8c8*%
M02*
