%TF.GenerationSoftware,Altium Limited,Altium Designer,22.7.1 (60)*%
G04 Layer_Color=16711935*
%FSLAX43Y43*%
%MOMM*%
%TF.SameCoordinates,2ABDD118-431D-4485-972F-9944B14BA474*%
%TF.FilePolarity,Negative*%
%TF.FileFunction,Soldermask,Bot*%
%TF.Part,Single*%
G01*
G75*
%TA.AperFunction,ComponentPad*%
%ADD32O,3.316X6.632*%
%ADD33C,1.650*%
%ADD34R,1.650X1.650*%
%ADD35C,1.120*%
%ADD36C,1.500*%
%ADD37C,6.000*%
%ADD38R,1.500X1.500*%
%ADD39C,2.325*%
%ADD40R,2.325X2.325*%
%ADD41R,2.325X2.325*%
%ADD42R,1.500X1.500*%
%ADD43C,1.400*%
%TA.AperFunction,ViaPad*%
%ADD44C,1.524*%
%ADD45C,0.650*%
D32*
X139192Y6616D02*
D03*
X126092D02*
D03*
D33*
X135142Y5616D02*
D03*
X132642Y3116D02*
D03*
X135142D02*
D03*
X130142D02*
D03*
D34*
Y5616D02*
D03*
D35*
X39124Y86386D02*
D03*
X41664Y83846D02*
D03*
X44204Y86386D02*
D03*
D36*
X69342Y34798D02*
D03*
X66802D02*
D03*
X64262D02*
D03*
X61722D02*
D03*
X59182D02*
D03*
X56642D02*
D03*
X54102D02*
D03*
X51562D02*
D03*
X49022D02*
D03*
X46482D02*
D03*
X43942D02*
D03*
X41402D02*
D03*
X38862D02*
D03*
X36322D02*
D03*
X33782D02*
D03*
X31242D02*
D03*
X101346Y10333D02*
D03*
X91948Y10333D02*
D03*
X38862Y9906D02*
D03*
X39370Y24638D02*
D03*
X64516Y3302D02*
D03*
Y5842D02*
D03*
Y8382D02*
D03*
Y10922D02*
D03*
Y13462D02*
D03*
X119888Y6616D02*
D03*
X115316D02*
D03*
X110998D02*
D03*
X106680D02*
D03*
D37*
X75842Y35798D02*
D03*
Y75798D02*
D03*
X5842D02*
D03*
Y35798D02*
D03*
D38*
X91948Y2713D02*
D03*
X41402Y9906D02*
D03*
X41910Y24638D02*
D03*
X101346Y2713D02*
D03*
X96774Y2725D02*
D03*
D39*
X149860Y56896D02*
D03*
Y69262D02*
D03*
Y81708D02*
D03*
X73486Y89916D02*
D03*
X61040Y89916D02*
D03*
D40*
X149860Y51896D02*
D03*
Y64262D02*
D03*
Y76708D02*
D03*
D41*
X78486Y89916D02*
D03*
X66040Y89916D02*
D03*
D42*
X101346Y12873D02*
D03*
X91948Y12873D02*
D03*
X64516Y16002D02*
D03*
X119888Y4076D02*
D03*
X115316D02*
D03*
X110998D02*
D03*
X106680D02*
D03*
D43*
X128778Y77978D02*
D03*
X118618D02*
D03*
X113854Y86868D02*
D03*
X103694D02*
D03*
X101154Y77724D02*
D03*
X90994D02*
D03*
X118364Y32004D02*
D03*
X128524D02*
D03*
X104140Y38100D02*
D03*
X114300D02*
D03*
X100722Y35560D02*
D03*
X90562D02*
D03*
X90424Y28956D02*
D03*
X100584D02*
D03*
X128524Y58420D02*
D03*
X118364D02*
D03*
X100838Y58166D02*
D03*
X90678D02*
D03*
X113792Y54610D02*
D03*
X103632D02*
D03*
Y49784D02*
D03*
X113792D02*
D03*
D44*
X4500Y4500D02*
D03*
X150500D02*
D03*
Y90500D02*
D03*
X4500D02*
D03*
D45*
X66294Y83312D02*
D03*
X83057Y24834D02*
D03*
X83312Y27391D02*
D03*
X30226Y81534D02*
D03*
X49022Y20066D02*
D03*
X145000Y80000D02*
D03*
X140000Y70000D02*
D03*
X145000Y60000D02*
D03*
X140000Y50000D02*
D03*
Y30000D02*
D03*
X145000Y20000D02*
D03*
X130000Y70000D02*
D03*
Y50000D02*
D03*
X135000Y40000D02*
D03*
X130000Y30000D02*
D03*
X135000Y20000D02*
D03*
X125000Y80000D02*
D03*
X120000Y70000D02*
D03*
Y50000D02*
D03*
X125000Y40000D02*
D03*
Y20000D02*
D03*
X120000Y10000D02*
D03*
X115000Y80000D02*
D03*
Y60000D02*
D03*
X110000Y50000D02*
D03*
X115000Y40000D02*
D03*
Y20000D02*
D03*
X105000Y80000D02*
D03*
X100000Y70000D02*
D03*
Y50000D02*
D03*
X105000Y40000D02*
D03*
X100000Y30000D02*
D03*
X105000Y20000D02*
D03*
X100000Y10000D02*
D03*
X95000Y80000D02*
D03*
X90000Y70000D02*
D03*
X95000Y60000D02*
D03*
X90000Y50000D02*
D03*
X95000Y40000D02*
D03*
Y20000D02*
D03*
X85000Y80000D02*
D03*
X80000Y70000D02*
D03*
X75000Y80000D02*
D03*
Y60000D02*
D03*
X70000Y50000D02*
D03*
X75000Y40000D02*
D03*
Y20000D02*
D03*
X65000Y80000D02*
D03*
X60000Y70000D02*
D03*
X65000Y60000D02*
D03*
X60000Y50000D02*
D03*
X65000Y20000D02*
D03*
X55000Y80000D02*
D03*
X50000Y70000D02*
D03*
Y50000D02*
D03*
Y30000D02*
D03*
X55000Y20000D02*
D03*
X50000Y10000D02*
D03*
X40000Y70000D02*
D03*
Y50000D02*
D03*
Y30000D02*
D03*
X45000Y20000D02*
D03*
X35000Y80000D02*
D03*
X30000Y70000D02*
D03*
X35000Y60000D02*
D03*
X30000Y50000D02*
D03*
X35000Y40000D02*
D03*
X30000Y30000D02*
D03*
X35000Y20000D02*
D03*
X25000Y80000D02*
D03*
X20000Y70000D02*
D03*
X25000Y60000D02*
D03*
X20000Y50000D02*
D03*
X25000Y40000D02*
D03*
X20000Y30000D02*
D03*
X15000Y80000D02*
D03*
X10000Y70000D02*
D03*
X15000Y60000D02*
D03*
X10000Y50000D02*
D03*
X15000Y40000D02*
D03*
X10000Y30000D02*
D03*
Y10000D02*
D03*
X46990Y21450D02*
D03*
X122682Y14817D02*
D03*
X101346Y23114D02*
D03*
X24521Y4215D02*
D03*
X126854Y12700D02*
D03*
X122682Y17008D02*
D03*
X76032Y20828D02*
D03*
X53594Y30988D02*
D03*
X86868Y39814D02*
D03*
X89662Y42672D02*
D03*
X69088Y30988D02*
D03*
X64516D02*
D03*
X73216Y23114D02*
D03*
X82232Y46228D02*
D03*
X88646Y22352D02*
D03*
X59182Y17636D02*
D03*
X79248Y19050D02*
D03*
X82232Y24834D02*
D03*
X85007Y32608D02*
D03*
X85657Y29528D02*
D03*
X80010Y29464D02*
D03*
X71516Y24130D02*
D03*
X82296Y12446D02*
D03*
X76416Y11684D02*
D03*
X81216Y19900D02*
D03*
X81107Y18250D02*
D03*
X85007Y16650D02*
D03*
X114554Y22606D02*
D03*
X91891Y21590D02*
D03*
X110490Y18542D02*
D03*
X71916Y28702D02*
D03*
X69865D02*
D03*
X86360Y21590D02*
D03*
X107499Y12446D02*
D03*
X106426D02*
D03*
X102616Y74398D02*
D03*
X131826Y40896D02*
D03*
X108331Y32258D02*
D03*
X107250Y68326D02*
D03*
X73216Y10936D02*
D03*
X71516Y13934D02*
D03*
X73177Y15825D02*
D03*
X77216Y10333D02*
D03*
X66548Y16650D02*
D03*
X146812Y45085D02*
D03*
X147828Y39116D02*
D03*
X144780Y43815D02*
D03*
Y33274D02*
D03*
X126746Y37338D02*
D03*
X134620D02*
D03*
X138684Y25654D02*
D03*
X137668Y24384D02*
D03*
X135636Y25654D02*
D03*
Y24384D02*
D03*
X80010Y22860D02*
D03*
X81216Y22250D02*
D03*
X7874Y25295D02*
D03*
X21844Y18288D02*
D03*
X10414Y20631D02*
D03*
X22860Y24660D02*
D03*
X14986Y23160D02*
D03*
X12468Y6015D02*
D03*
X16256Y9652D02*
D03*
X22098Y7666D02*
D03*
%TF.MD5,4497a6989c0dec53447fb5d9f8ce1a65*%
M02*
