%TF.GenerationSoftware,Altium Limited,Altium Designer,22.7.1 (60)*%
G04 Layer_Physical_Order=1*
G04 Layer_Color=255*
%FSLAX43Y43*%
%MOMM*%
%TF.SameCoordinates,2ABDD118-431D-4485-972F-9944B14BA474*%
%TF.FilePolarity,Positive*%
%TF.FileFunction,Copper,L1,Top,Signal*%
%TF.Part,Single*%
G01*
G75*
%TA.AperFunction,SMDPad,CuDef*%
%ADD10R,0.600X1.150*%
%ADD11R,3.800X2.030*%
%ADD12R,1.150X0.600*%
%ADD13R,0.840X0.740*%
%ADD14R,2.030X1.400*%
%ADD15R,5.500X2.000*%
%ADD16R,0.350X1.400*%
%ADD17R,1.400X1.100*%
%ADD18R,2.030X3.800*%
%ADD19R,1.400X1.200*%
%ADD20R,1.100X1.400*%
G04:AMPARAMS|DCode=21|XSize=0.6mm|YSize=1.45mm|CornerRadius=0.051mm|HoleSize=0mm|Usage=FLASHONLY|Rotation=90.000|XOffset=0mm|YOffset=0mm|HoleType=Round|Shape=RoundedRectangle|*
%AMROUNDEDRECTD21*
21,1,0.600,1.348,0,0,90.0*
21,1,0.498,1.450,0,0,90.0*
1,1,0.102,0.674,0.249*
1,1,0.102,0.674,-0.249*
1,1,0.102,-0.674,-0.249*
1,1,0.102,-0.674,0.249*
%
%ADD21ROUNDEDRECTD21*%
%ADD22R,1.200X1.400*%
G04:AMPARAMS|DCode=23|XSize=0.6mm|YSize=1.45mm|CornerRadius=0.051mm|HoleSize=0mm|Usage=FLASHONLY|Rotation=0.000|XOffset=0mm|YOffset=0mm|HoleType=Round|Shape=RoundedRectangle|*
%AMROUNDEDRECTD23*
21,1,0.600,1.348,0,0,0.0*
21,1,0.498,1.450,0,0,0.0*
1,1,0.102,0.249,-0.674*
1,1,0.102,-0.249,-0.674*
1,1,0.102,-0.249,0.674*
1,1,0.102,0.249,0.674*
%
%ADD23ROUNDEDRECTD23*%
%ADD24O,0.600X1.900*%
%ADD25O,1.900X0.600*%
%ADD26O,2.200X0.600*%
%ADD27R,2.150X5.500*%
%ADD28R,1.000X1.300*%
%ADD29R,1.300X1.550*%
%TA.AperFunction,Conductor*%
%ADD30C,0.254*%
%ADD31C,0.500*%
%TA.AperFunction,ComponentPad*%
%ADD32O,3.316X6.632*%
%ADD33C,1.650*%
%ADD34R,1.650X1.650*%
%ADD35C,1.120*%
%ADD36C,1.500*%
%ADD37C,6.000*%
%ADD38R,1.500X1.500*%
%ADD39C,2.325*%
%ADD40R,2.325X2.325*%
%ADD41R,2.325X2.325*%
%ADD42R,1.500X1.500*%
%ADD43C,1.400*%
%TA.AperFunction,ViaPad*%
%ADD44C,1.524*%
%ADD45C,0.650*%
G36*
X149710Y94729D02*
X149725Y94578D01*
X149423Y94518D01*
X148908Y94343D01*
X148420Y94103D01*
X147968Y93800D01*
X147559Y93441D01*
X147200Y93032D01*
X146897Y92580D01*
X146657Y92092D01*
X146482Y91577D01*
X146376Y91043D01*
X146340Y90500D01*
X146376Y89957D01*
X146482Y89423D01*
X146657Y88908D01*
X146897Y88420D01*
X147200Y87968D01*
X147559Y87559D01*
X147968Y87200D01*
X148420Y86897D01*
X148908Y86657D01*
X149423Y86482D01*
X149957Y86376D01*
X150500Y86340D01*
X151043Y86376D01*
X151577Y86482D01*
X152092Y86657D01*
X152580Y86897D01*
X153032Y87200D01*
X153441Y87559D01*
X153800Y87968D01*
X154103Y88420D01*
X154343Y88908D01*
X154518Y89423D01*
X154578Y89725D01*
X154729Y89710D01*
X154756Y5157D01*
X154605Y5142D01*
X154518Y5577D01*
X154343Y6092D01*
X154103Y6580D01*
X153800Y7032D01*
X153441Y7442D01*
X153032Y7800D01*
X152580Y8103D01*
X152092Y8343D01*
X151577Y8518D01*
X151043Y8624D01*
X150500Y8660D01*
X149957Y8624D01*
X149423Y8518D01*
X148908Y8343D01*
X148420Y8103D01*
X147968Y7800D01*
X147559Y7442D01*
X147200Y7032D01*
X146897Y6580D01*
X146657Y6092D01*
X146482Y5577D01*
X146376Y5043D01*
X146340Y4500D01*
X146376Y3957D01*
X146482Y3423D01*
X146657Y2908D01*
X146897Y2420D01*
X147200Y1968D01*
X147559Y1559D01*
X147968Y1200D01*
X148420Y897D01*
X148908Y657D01*
X149423Y482D01*
X149578Y451D01*
X149563Y300D01*
X5570Y326D01*
X5555Y477D01*
X5577Y482D01*
X6092Y657D01*
X6580Y897D01*
X7032Y1200D01*
X7442Y1559D01*
X7800Y1968D01*
X8103Y2420D01*
X8343Y2908D01*
X8518Y3423D01*
X8624Y3957D01*
X8660Y4500D01*
X8624Y5043D01*
X8518Y5577D01*
X8343Y6092D01*
X8103Y6580D01*
X7800Y7032D01*
X7442Y7442D01*
X7032Y7800D01*
X6580Y8103D01*
X6092Y8343D01*
X5577Y8518D01*
X5043Y8624D01*
X4500Y8660D01*
X3957Y8624D01*
X3423Y8518D01*
X2908Y8343D01*
X2420Y8103D01*
X1968Y7800D01*
X1559Y7442D01*
X1200Y7032D01*
X897Y6580D01*
X657Y6092D01*
X482Y5577D01*
X478Y5556D01*
X327Y5571D01*
X311Y89507D01*
X462Y89522D01*
X482Y89423D01*
X657Y88908D01*
X897Y88420D01*
X1200Y87968D01*
X1559Y87559D01*
X1968Y87200D01*
X2420Y86897D01*
X2908Y86657D01*
X3423Y86482D01*
X3957Y86376D01*
X4500Y86340D01*
X5043Y86376D01*
X5577Y86482D01*
X6092Y86657D01*
X6580Y86897D01*
X7032Y87200D01*
X7442Y87559D01*
X7800Y87968D01*
X8103Y88420D01*
X8343Y88908D01*
X8518Y89423D01*
X8624Y89957D01*
X8660Y90500D01*
X8624Y91043D01*
X8518Y91577D01*
X8343Y92092D01*
X8103Y92580D01*
X7800Y93032D01*
X7442Y93441D01*
X7032Y93800D01*
X6580Y94103D01*
X6092Y94343D01*
X5577Y94518D01*
X5173Y94598D01*
X5188Y94749D01*
X149710Y94729D01*
D02*
G37*
%LPC*%
G36*
X31026Y90308D02*
X30326D01*
Y89508D01*
X31026D01*
Y90308D01*
D02*
G37*
G36*
X30126D02*
X29426D01*
Y89508D01*
X30126D01*
Y90308D01*
D02*
G37*
G36*
X35698Y89838D02*
X34898D01*
Y89138D01*
X35698D01*
Y89838D01*
D02*
G37*
G36*
X34698D02*
X33898D01*
Y89138D01*
X34698D01*
Y89838D01*
D02*
G37*
G36*
X67354Y91230D02*
X64727D01*
Y88603D01*
X67354D01*
Y91230D01*
D02*
G37*
G36*
X31026Y89308D02*
X30326D01*
Y88508D01*
X31026D01*
Y89308D01*
D02*
G37*
G36*
X30126D02*
X29426D01*
Y88508D01*
X30126D01*
Y89308D01*
D02*
G37*
G36*
X35698Y88938D02*
X34898D01*
Y88238D01*
X35698D01*
Y88938D01*
D02*
G37*
G36*
X34698D02*
X33898D01*
Y88238D01*
X34698D01*
Y88938D01*
D02*
G37*
G36*
X44304Y87146D02*
X44304D01*
Y86486D01*
X44964D01*
Y86486D01*
X44912Y86679D01*
X44812Y86853D01*
X44671Y86994D01*
X44498Y87094D01*
X44304Y87146D01*
D02*
G37*
G36*
X44104D02*
X44104D01*
X43911Y87094D01*
X43738Y86994D01*
X43596Y86853D01*
X43496Y86679D01*
X43444Y86486D01*
Y86486D01*
X44104D01*
Y87146D01*
D02*
G37*
G36*
X44964Y86286D02*
X44304D01*
Y85626D01*
X44304D01*
X44498Y85678D01*
X44671Y85778D01*
X44812Y85919D01*
X44912Y86093D01*
X44964Y86286D01*
Y86286D01*
D02*
G37*
G36*
X44104D02*
X43444D01*
Y86286D01*
X43496Y86093D01*
X43596Y85919D01*
X43738Y85778D01*
X43911Y85678D01*
X44104Y85626D01*
X44104D01*
Y86286D01*
D02*
G37*
G36*
X75438Y93373D02*
X23114D01*
X22958Y93342D01*
X22825Y93253D01*
X20285Y90713D01*
X20196Y90580D01*
X20165Y90424D01*
Y89849D01*
X20075Y89735D01*
X20014Y89735D01*
X19173D01*
Y88283D01*
X19341D01*
Y86849D01*
X18342Y85850D01*
X18280Y85758D01*
X18259Y85650D01*
Y83058D01*
X18280Y82950D01*
X18342Y82858D01*
X18850Y82350D01*
X18942Y82288D01*
X19050Y82267D01*
X19723D01*
Y81799D01*
X21425D01*
Y82267D01*
X24260D01*
X24368Y82288D01*
X24460Y82350D01*
X24842Y82731D01*
X25343D01*
Y84183D01*
X24441D01*
Y83132D01*
X24143Y82833D01*
X21425D01*
Y83301D01*
X19723D01*
Y82833D01*
X19167D01*
X18825Y83175D01*
Y85532D01*
X19824Y86531D01*
X19886Y86623D01*
X19907Y86732D01*
Y88176D01*
X19949Y88217D01*
X20134Y88208D01*
X20165Y88169D01*
Y87485D01*
X20123D01*
Y86033D01*
X20165D01*
Y85101D01*
X19723D01*
Y83599D01*
X21425D01*
Y85101D01*
X20983D01*
Y86033D01*
X21025D01*
Y87485D01*
X20983D01*
Y88169D01*
X21073Y88283D01*
X21134Y88283D01*
X21975D01*
Y88726D01*
X22207D01*
X22316Y88747D01*
X22407Y88809D01*
X22723Y89125D01*
X23659D01*
Y86433D01*
X23491D01*
Y84981D01*
X24393D01*
Y86433D01*
X24225D01*
Y89125D01*
X27675D01*
Y88557D01*
X29177D01*
Y90259D01*
X27675D01*
Y89691D01*
X22606D01*
X22498Y89670D01*
X22406Y89608D01*
X22126Y89329D01*
X21975Y89380D01*
Y89735D01*
X21134D01*
X21073Y89735D01*
X20983Y89849D01*
Y90255D01*
X23283Y92555D01*
X75269D01*
X77173Y90651D01*
Y88603D01*
X79221D01*
X79497Y88327D01*
Y87273D01*
X78740D01*
Y85571D01*
X81072D01*
Y87273D01*
X80315D01*
Y88496D01*
X80284Y88652D01*
X80195Y88785D01*
X79799Y89181D01*
Y91229D01*
X77751D01*
X75727Y93253D01*
X75594Y93342D01*
X75438Y93373D01*
D02*
G37*
G36*
X64819Y85778D02*
X64144D01*
Y85378D01*
X64819D01*
Y85778D01*
D02*
G37*
G36*
X63944D02*
X63269D01*
Y85378D01*
X63944D01*
Y85778D01*
D02*
G37*
G36*
X61352Y86028D02*
X60552D01*
Y85328D01*
X61352D01*
Y86028D01*
D02*
G37*
G36*
X60352D02*
X59552D01*
Y85328D01*
X60352D01*
Y86028D01*
D02*
G37*
G36*
X72170Y85912D02*
X71370D01*
Y85212D01*
X72170D01*
Y85912D01*
D02*
G37*
G36*
X71170D02*
X70370D01*
Y85212D01*
X71170D01*
Y85912D01*
D02*
G37*
G36*
X74725Y85524D02*
X74050D01*
Y85124D01*
X74725D01*
Y85524D01*
D02*
G37*
G36*
X73850D02*
X73175D01*
Y85124D01*
X73850D01*
Y85524D01*
D02*
G37*
G36*
X64819Y85178D02*
X64144D01*
Y84778D01*
X64819D01*
Y85178D01*
D02*
G37*
G36*
X63944D02*
X63269D01*
Y84778D01*
X63944D01*
Y85178D01*
D02*
G37*
G36*
X41910Y85373D02*
X37592D01*
X37484Y85352D01*
X37392Y85290D01*
X37027Y84926D01*
X37022Y84925D01*
X35825D01*
Y83223D01*
X37327D01*
Y84432D01*
X37349Y84447D01*
X37709Y84807D01*
X41793D01*
X41933Y84666D01*
X41854Y84531D01*
X41758Y84557D01*
X41571D01*
X41390Y84509D01*
X41228Y84415D01*
X41095Y84283D01*
X41002Y84120D01*
X40953Y83940D01*
Y83752D01*
X41002Y83572D01*
X41095Y83409D01*
X41228Y83277D01*
X41390Y83183D01*
X41571Y83135D01*
X41758D01*
X41762Y83136D01*
X44684Y80214D01*
Y35544D01*
X44533Y35481D01*
X44495Y35519D01*
X44290Y35638D01*
X44061Y35699D01*
X43823D01*
X43594Y35638D01*
X43389Y35519D01*
X43221Y35351D01*
X43102Y35146D01*
X43041Y34917D01*
Y34679D01*
X43102Y34450D01*
X43221Y34245D01*
X43389Y34077D01*
X43594Y33958D01*
X43823Y33897D01*
X43942D01*
X43948Y33894D01*
X44055Y33746D01*
X44041Y33678D01*
Y25047D01*
X42811D01*
Y25539D01*
X41009D01*
Y24029D01*
X40869Y23971D01*
X40271Y24569D01*
Y24757D01*
X40210Y24986D01*
X40091Y25191D01*
X39923Y25359D01*
X39718Y25478D01*
X39489Y25539D01*
X39251D01*
X39022Y25478D01*
X38817Y25359D01*
X38649Y25191D01*
X38566Y25047D01*
X34032D01*
Y27793D01*
X31580D01*
Y21991D01*
X32865D01*
Y21024D01*
X32758Y20917D01*
X32655D01*
X32524Y20966D01*
X32442Y20966D01*
X31874D01*
Y20066D01*
Y19166D01*
X32442D01*
X32524Y19166D01*
X32655Y19215D01*
X32758D01*
X32865Y19108D01*
Y18669D01*
X32423D01*
Y17167D01*
X34125D01*
Y18669D01*
X33683D01*
Y19215D01*
X33975D01*
Y20917D01*
X33683D01*
Y21991D01*
X34032D01*
Y24229D01*
X38566D01*
X38649Y24085D01*
X38817Y23917D01*
X39022Y23798D01*
X39251Y23737D01*
X39489D01*
X39718Y23798D01*
X39824Y23860D01*
X43025Y20659D01*
Y9783D01*
X43056Y9627D01*
X43145Y9494D01*
X44685Y7954D01*
Y6200D01*
X48787D01*
Y8532D01*
X45263D01*
X43843Y9952D01*
Y20828D01*
X43812Y20984D01*
X43723Y21117D01*
X41243Y23598D01*
X41300Y23737D01*
X42811D01*
Y24229D01*
X44041D01*
Y22098D01*
X44072Y21942D01*
X44161Y21809D01*
X46193Y19777D01*
X46326Y19688D01*
X46482Y19657D01*
X46482Y19657D01*
X48765D01*
X48927Y19590D01*
X49117D01*
X49292Y19662D01*
X49426Y19796D01*
X49498Y19971D01*
Y20161D01*
X49426Y20336D01*
X49292Y20470D01*
X49117Y20542D01*
X48927D01*
X48765Y20475D01*
X46651D01*
X44859Y22267D01*
Y24638D01*
Y33509D01*
X45382Y34032D01*
X45471Y34165D01*
X45502Y34321D01*
Y34335D01*
X45525Y34351D01*
X45725Y34308D01*
X45761Y34245D01*
X45929Y34077D01*
X46134Y33958D01*
X46363Y33897D01*
X46601D01*
X46830Y33958D01*
X47035Y34077D01*
X47203Y34245D01*
X47322Y34450D01*
X47383Y34679D01*
Y34917D01*
X47322Y35146D01*
X47203Y35351D01*
X47035Y35519D01*
X46830Y35638D01*
X46601Y35699D01*
X46363D01*
X46134Y35638D01*
X45929Y35519D01*
X45761Y35351D01*
X45725Y35288D01*
X45525Y35245D01*
X45502Y35262D01*
Y80383D01*
X45471Y80539D01*
X45382Y80672D01*
X42360Y83694D01*
X42375Y83752D01*
Y83940D01*
X42349Y84036D01*
X42485Y84114D01*
X47626Y78973D01*
X47626Y78973D01*
X47700Y78899D01*
X47700Y78899D01*
X55089Y71511D01*
Y35181D01*
X54942Y35146D01*
X54823Y35351D01*
X54655Y35519D01*
X54450Y35638D01*
X54221Y35699D01*
X53983D01*
X53754Y35638D01*
X53549Y35519D01*
X53381Y35351D01*
X53262Y35146D01*
X53201Y34917D01*
Y34679D01*
X53262Y34450D01*
X53381Y34245D01*
X53549Y34077D01*
X53754Y33958D01*
X53983Y33897D01*
X54221D01*
X54450Y33958D01*
X54655Y34077D01*
X54823Y34245D01*
X54942Y34450D01*
X55089Y34415D01*
Y34024D01*
X55110Y33916D01*
X55172Y33824D01*
X59868Y29127D01*
X59816Y29008D01*
X59796Y28985D01*
X57669D01*
Y29553D01*
X56167D01*
Y27851D01*
X57669D01*
Y28419D01*
X59689D01*
X67658Y20450D01*
X67679Y20435D01*
X67634Y20284D01*
X67410D01*
Y19634D01*
X68210D01*
Y20216D01*
X68210Y20284D01*
X68327Y20367D01*
X70438D01*
X70505Y20231D01*
X70485Y20180D01*
X70395Y20045D01*
X70376Y19950D01*
X71516D01*
X72656D01*
X72637Y20045D01*
X72547Y20180D01*
X72491Y20325D01*
X72591Y20474D01*
X72626Y20650D01*
X72591Y20826D01*
X72506Y20953D01*
X72491Y21031D01*
Y21069D01*
X72506Y21147D01*
X72591Y21274D01*
X72626Y21450D01*
X72591Y21626D01*
X72506Y21753D01*
X72491Y21831D01*
Y21869D01*
X72506Y21947D01*
X72591Y22074D01*
X72626Y22250D01*
X72591Y22426D01*
X72506Y22553D01*
X72491Y22631D01*
Y22669D01*
X72506Y22747D01*
X72591Y22874D01*
X72606Y22949D01*
X72763Y22964D01*
X72812Y22844D01*
X72933Y22724D01*
Y21602D01*
X72954Y21494D01*
X73016Y21402D01*
X73733Y20685D01*
Y16122D01*
X73582Y16092D01*
X73580Y16095D01*
X73446Y16229D01*
X73271Y16301D01*
X73082D01*
X72907Y16229D01*
X72799Y16121D01*
X72527D01*
X72506Y16153D01*
X72491Y16231D01*
Y16269D01*
X72506Y16347D01*
X72591Y16474D01*
X72626Y16650D01*
X72591Y16826D01*
X72506Y16953D01*
X72491Y17031D01*
Y17069D01*
X72506Y17147D01*
X72591Y17274D01*
X72626Y17450D01*
X72591Y17626D01*
X72506Y17753D01*
X72491Y17831D01*
Y17869D01*
X72506Y17947D01*
X72591Y18074D01*
X72626Y18250D01*
X72591Y18426D01*
X72506Y18553D01*
X72491Y18631D01*
Y18669D01*
X72506Y18747D01*
X72591Y18874D01*
X72626Y19050D01*
X72591Y19226D01*
X72491Y19375D01*
X72547Y19520D01*
X72637Y19655D01*
X72656Y19750D01*
X71516D01*
X70376D01*
X70395Y19655D01*
X70485Y19520D01*
X70505Y19469D01*
X70438Y19333D01*
X69836D01*
X69727Y19312D01*
X69635Y19250D01*
X68702Y18317D01*
X68161D01*
Y18653D01*
X68210Y18784D01*
X68210Y18866D01*
Y19434D01*
X66410D01*
Y18866D01*
X66410Y18784D01*
X66459Y18653D01*
Y17483D01*
X66459Y17448D01*
X66322Y17319D01*
X66279Y17320D01*
X63864Y19734D01*
X63772Y19796D01*
X63664Y19817D01*
X62193D01*
X60845Y21166D01*
X60907Y21317D01*
X61618D01*
Y25419D01*
X59286D01*
Y23651D01*
X58537D01*
X57237Y24951D01*
Y25961D01*
X57705D01*
Y27663D01*
X56203D01*
Y25961D01*
X56671D01*
Y24834D01*
X56692Y24726D01*
X56754Y24634D01*
X58220Y23168D01*
X58312Y23106D01*
X58420Y23085D01*
X59286D01*
Y21317D01*
X60169D01*
Y21158D01*
X60190Y21050D01*
X60252Y20958D01*
X61876Y19334D01*
X61968Y19272D01*
X62076Y19251D01*
X63547D01*
X66072Y16725D01*
Y16555D01*
X66121Y16436D01*
X66042Y16285D01*
X65417D01*
Y16903D01*
X64016D01*
X61668Y19250D01*
X61576Y19312D01*
X61468Y19333D01*
X55127D01*
X55104Y19475D01*
X55297Y19555D01*
X55445Y19703D01*
X55525Y19896D01*
Y19900D01*
X54475D01*
Y19896D01*
X54555Y19703D01*
X54703Y19555D01*
X54896Y19475D01*
X54909Y19324D01*
X54848Y19312D01*
X54756Y19250D01*
X54410Y18904D01*
X54348Y18812D01*
X54327Y18704D01*
Y18415D01*
X53759D01*
Y16913D01*
X55461D01*
Y18415D01*
X54893D01*
Y18587D01*
X55073Y18767D01*
X61351D01*
X63615Y16502D01*
Y15240D01*
X63615Y15155D01*
X63470Y15086D01*
X60603Y17953D01*
X60471Y18042D01*
X60314Y18073D01*
X59371D01*
X59277Y18112D01*
X59087D01*
X58925Y18045D01*
X57493D01*
Y18415D01*
X55791D01*
Y16913D01*
X57493D01*
Y17227D01*
X58925D01*
X59087Y17160D01*
X59277D01*
X59452Y17232D01*
X59474Y17255D01*
X60145D01*
X63658Y13742D01*
X63615Y13581D01*
Y13343D01*
X63676Y13114D01*
X63795Y12909D01*
X63963Y12741D01*
X64168Y12622D01*
X64397Y12561D01*
X64635D01*
X64864Y12622D01*
X65069Y12741D01*
X65237Y12909D01*
X65356Y13114D01*
X65417Y13343D01*
Y13581D01*
X65356Y13810D01*
X65237Y14015D01*
X65069Y14183D01*
X64864Y14302D01*
X64635Y14363D01*
X64397D01*
X64236Y14320D01*
X63600Y14956D01*
X63669Y15101D01*
X63744Y15101D01*
X65417D01*
Y15719D01*
X67796D01*
X67859Y15568D01*
X67364Y15072D01*
X67302Y14980D01*
X67281Y14872D01*
Y11547D01*
X64921Y9188D01*
X64864Y9222D01*
X64635Y9283D01*
X64397D01*
X64168Y9222D01*
X63963Y9103D01*
X63795Y8935D01*
X63676Y8730D01*
X63615Y8501D01*
Y8263D01*
X63676Y8034D01*
X63795Y7829D01*
X63963Y7661D01*
X64168Y7542D01*
X64397Y7481D01*
X64635D01*
X64864Y7542D01*
X65069Y7661D01*
X65237Y7829D01*
X65356Y8034D01*
X65417Y8263D01*
Y8501D01*
X65356Y8730D01*
X65322Y8787D01*
X67720Y11185D01*
X67871Y11123D01*
Y9598D01*
X64921Y6648D01*
X64864Y6682D01*
X64635Y6743D01*
X64397D01*
X64168Y6682D01*
X63963Y6563D01*
X63795Y6395D01*
X63676Y6190D01*
X63615Y5961D01*
Y5723D01*
X63676Y5494D01*
X63795Y5289D01*
X63963Y5121D01*
X64168Y5002D01*
X64397Y4941D01*
X64635D01*
X64864Y5002D01*
X65069Y5121D01*
X65237Y5289D01*
X65356Y5494D01*
X65417Y5723D01*
Y5961D01*
X65356Y6190D01*
X65322Y6247D01*
X68355Y9280D01*
X68416Y9372D01*
X68438Y9480D01*
Y14443D01*
X70361Y16367D01*
X70509D01*
X70540Y16227D01*
X70526Y16153D01*
X70441Y16026D01*
X70406Y15850D01*
X70441Y15674D01*
X70526Y15547D01*
X70541Y15469D01*
Y15431D01*
X70526Y15353D01*
X70441Y15226D01*
X70406Y15050D01*
X70441Y14874D01*
X70541Y14725D01*
X70690Y14625D01*
X70866Y14590D01*
X71233D01*
Y14324D01*
X71112Y14204D01*
X71040Y14029D01*
Y13839D01*
X71112Y13664D01*
X71246Y13530D01*
X71421Y13458D01*
X71611D01*
X71786Y13530D01*
X71920Y13664D01*
X71992Y13839D01*
Y14029D01*
X71920Y14204D01*
X71799Y14324D01*
Y14590D01*
X72166D01*
X72342Y14625D01*
X72491Y14725D01*
X72591Y14874D01*
X72626Y15050D01*
X72591Y15226D01*
X72506Y15353D01*
X72495Y15410D01*
X72531Y15473D01*
X72607Y15554D01*
X72775D01*
X72907Y15422D01*
X73082Y15349D01*
X73271D01*
X73446Y15422D01*
X73580Y15556D01*
X73582Y15559D01*
X73733Y15529D01*
Y14357D01*
X73593Y14326D01*
X73519Y14340D01*
X73392Y14425D01*
X73216Y14460D01*
X73040Y14425D01*
X72891Y14325D01*
X72791Y14176D01*
X72756Y14000D01*
Y12700D01*
X72791Y12524D01*
X72891Y12375D01*
X72933Y12347D01*
Y11326D01*
X72812Y11206D01*
X72740Y11031D01*
Y10841D01*
X72812Y10666D01*
X72946Y10532D01*
X73121Y10460D01*
X73311D01*
X73486Y10532D01*
X73620Y10666D01*
X73692Y10841D01*
Y11031D01*
X73620Y11206D01*
X73499Y11326D01*
Y12343D01*
X73639Y12374D01*
X73713Y12360D01*
X73840Y12275D01*
X74016Y12240D01*
X74192Y12275D01*
X74319Y12360D01*
X74397Y12375D01*
X74435D01*
X74513Y12360D01*
X74640Y12275D01*
X74816Y12240D01*
X74992Y12275D01*
X75119Y12360D01*
X75197Y12375D01*
X75235D01*
X75313Y12360D01*
X75440Y12275D01*
X75616Y12240D01*
X75792Y12275D01*
X75919Y12360D01*
X75993Y12374D01*
X75999Y12373D01*
X76133Y12241D01*
Y12074D01*
X76012Y11954D01*
X75940Y11779D01*
Y11589D01*
X76012Y11414D01*
X76146Y11280D01*
X76321Y11208D01*
X76511D01*
X76656Y11268D01*
X76807Y11205D01*
Y10590D01*
X76740Y10428D01*
Y10238D01*
X76812Y10063D01*
X76946Y9929D01*
X77121Y9857D01*
X77311D01*
X77486Y9929D01*
X77620Y10063D01*
X77692Y10238D01*
Y10428D01*
X77625Y10590D01*
Y12178D01*
X77776Y12259D01*
X77821Y12229D01*
X77916Y12210D01*
Y13350D01*
Y14490D01*
X77821Y14471D01*
X77776Y14441D01*
X77625Y14522D01*
Y19644D01*
X77594Y19801D01*
X77505Y19933D01*
X76503Y20936D01*
X76436Y21098D01*
X76302Y21232D01*
X76140Y21299D01*
X74425Y23014D01*
Y23637D01*
X74576Y23718D01*
X74640Y23675D01*
X74816Y23640D01*
X74992Y23675D01*
X75119Y23760D01*
X75197Y23775D01*
X75235D01*
X75313Y23760D01*
X75440Y23675D01*
X75616Y23640D01*
X75792Y23675D01*
X75919Y23760D01*
X75997Y23775D01*
X76035D01*
X76113Y23760D01*
X76240Y23675D01*
X76416Y23640D01*
X76592Y23675D01*
X76741Y23775D01*
X76886Y23719D01*
X77021Y23629D01*
X77116Y23610D01*
Y24750D01*
Y25890D01*
X77021Y25871D01*
X76886Y25781D01*
X76835Y25761D01*
X76699Y25828D01*
Y27177D01*
X76782Y27294D01*
X76864Y27294D01*
X77432D01*
Y28194D01*
X77532D01*
D01*
X77432D01*
Y29094D01*
X76864D01*
X76782Y29094D01*
X76652Y29045D01*
X75331D01*
Y27778D01*
X75192Y27720D01*
X69945Y32966D01*
X69853Y33028D01*
X69745Y33049D01*
X63871D01*
X62528Y34393D01*
X62562Y34450D01*
X62623Y34679D01*
Y34917D01*
X62562Y35146D01*
X62443Y35351D01*
X62275Y35519D01*
X62070Y35638D01*
X61841Y35699D01*
X61603D01*
X61374Y35638D01*
X61169Y35519D01*
X61001Y35351D01*
X60882Y35146D01*
X60821Y34917D01*
Y34679D01*
X60882Y34450D01*
X61001Y34245D01*
X61169Y34077D01*
X61374Y33958D01*
X61603Y33897D01*
X61841D01*
X62070Y33958D01*
X62127Y33992D01*
X63427Y32692D01*
X63364Y32541D01*
X61839D01*
X59988Y34393D01*
X60022Y34450D01*
X60083Y34679D01*
Y34917D01*
X60022Y35146D01*
X59903Y35351D01*
X59735Y35519D01*
X59530Y35638D01*
X59301Y35699D01*
X59063D01*
X58834Y35638D01*
X58629Y35519D01*
X58461Y35351D01*
X58342Y35146D01*
X58281Y34917D01*
Y34679D01*
X58342Y34450D01*
X58461Y34245D01*
X58629Y34077D01*
X58834Y33958D01*
X59063Y33897D01*
X59301D01*
X59530Y33958D01*
X59587Y33992D01*
X61522Y32058D01*
X61614Y31996D01*
X61722Y31975D01*
X69479D01*
X72183Y29270D01*
X72097Y29142D01*
X72011Y29178D01*
X71822D01*
X71647Y29106D01*
X71513Y28972D01*
X71440Y28797D01*
Y28647D01*
X71324Y28578D01*
X71301Y28573D01*
X70060Y29813D01*
X69968Y29875D01*
X69860Y29896D01*
X61945D01*
X57448Y34393D01*
X57482Y34450D01*
X57543Y34679D01*
Y34917D01*
X57482Y35146D01*
X57363Y35351D01*
X57195Y35519D01*
X56990Y35638D01*
X56761Y35699D01*
X56523D01*
X56294Y35638D01*
X56089Y35519D01*
X55921Y35351D01*
X55802Y35146D01*
X55655Y35181D01*
Y71628D01*
X55634Y71736D01*
X55572Y71828D01*
X48101Y79300D01*
X48027Y79374D01*
X48027Y79374D01*
X42110Y85290D01*
X42018Y85352D01*
X41910Y85373D01*
D02*
G37*
G36*
X74725Y84924D02*
X74050D01*
Y84524D01*
X74725D01*
Y84924D01*
D02*
G37*
G36*
X73850D02*
X73175D01*
Y84524D01*
X73850D01*
Y84924D01*
D02*
G37*
G36*
X61352Y85128D02*
X60552D01*
Y84428D01*
X61352D01*
Y85128D01*
D02*
G37*
G36*
X60352D02*
X59552D01*
Y84428D01*
X60352D01*
Y85128D01*
D02*
G37*
G36*
X72170Y85012D02*
X71370D01*
Y84312D01*
X72170D01*
Y85012D01*
D02*
G37*
G36*
X71170D02*
X70370D01*
Y84312D01*
X71170D01*
Y85012D01*
D02*
G37*
G36*
X35649Y87989D02*
X33947D01*
Y86487D01*
X34493D01*
Y84925D01*
X34025D01*
Y84129D01*
X31627D01*
Y84248D01*
X30725D01*
Y82796D01*
X31627D01*
Y83563D01*
X34025D01*
Y83223D01*
X35527D01*
Y84925D01*
X35059D01*
Y86487D01*
X35649D01*
Y87989D01*
D02*
G37*
G36*
X61213Y91230D02*
X60867D01*
X60533Y91140D01*
X60234Y90967D01*
X59989Y90723D01*
X59816Y90423D01*
X59727Y90089D01*
Y89743D01*
X59816Y89409D01*
X59989Y89109D01*
X60234Y88865D01*
X60533Y88692D01*
X60867Y88603D01*
X61213D01*
X61547Y88692D01*
X61847Y88865D01*
X61982Y89001D01*
X66011Y84973D01*
Y84779D01*
X65568D01*
Y83877D01*
X66020D01*
X66050Y83726D01*
X66024Y83716D01*
X65937Y83628D01*
X64770D01*
Y83829D01*
X63318D01*
Y83661D01*
X61303D01*
Y84179D01*
X59601D01*
Y82677D01*
X61303D01*
Y83095D01*
X63318D01*
Y82927D01*
X64770D01*
Y83062D01*
X65883D01*
X65890Y83042D01*
X66024Y82908D01*
X66199Y82836D01*
X66389D01*
X66564Y82908D01*
X66698Y83042D01*
X66770Y83217D01*
Y83407D01*
X66698Y83582D01*
X66564Y83716D01*
X66538Y83726D01*
X66568Y83877D01*
X67020D01*
Y84779D01*
X66577D01*
Y85090D01*
X66556Y85198D01*
X66494Y85290D01*
X62288Y89497D01*
X62354Y89743D01*
Y90089D01*
X62264Y90423D01*
X62091Y90723D01*
X61847Y90967D01*
X61547Y91140D01*
X61213Y91230D01*
D02*
G37*
G36*
X29776Y84297D02*
X29376D01*
Y83622D01*
X29776D01*
Y84297D01*
D02*
G37*
G36*
X29176D02*
X28776D01*
Y83622D01*
X29176D01*
Y84297D01*
D02*
G37*
G36*
X29776Y83422D02*
X29376D01*
Y82747D01*
X29776D01*
Y83422D01*
D02*
G37*
G36*
X29176D02*
X28776D01*
Y82747D01*
X29176D01*
Y83422D01*
D02*
G37*
G36*
X73659Y91229D02*
X73313D01*
X72979Y91140D01*
X72679Y90967D01*
X72435Y90723D01*
X72262Y90423D01*
X72173Y90089D01*
Y89743D01*
X72262Y89409D01*
X72435Y89109D01*
X72679Y88865D01*
X72979Y88692D01*
X73247Y88620D01*
Y88521D01*
X73269Y88413D01*
X73330Y88321D01*
X75917Y85735D01*
Y84525D01*
X75474D01*
Y83623D01*
X76926D01*
Y83791D01*
X78142D01*
X78740Y83192D01*
Y81891D01*
X81072D01*
Y83593D01*
X79141D01*
X78459Y84274D01*
X78367Y84336D01*
X78259Y84357D01*
X76926D01*
Y84525D01*
X76483D01*
Y85852D01*
X76462Y85960D01*
X76400Y86052D01*
X73933Y88520D01*
X73978Y88688D01*
X73993Y88692D01*
X74293Y88865D01*
X74537Y89109D01*
X74710Y89409D01*
X74800Y89743D01*
Y90089D01*
X74710Y90423D01*
X74537Y90723D01*
X74293Y90967D01*
X73993Y91140D01*
X73659Y91229D01*
D02*
G37*
G36*
X30677Y86498D02*
X29775D01*
Y85046D01*
X29943D01*
Y81924D01*
X29822Y81804D01*
X29750Y81629D01*
Y81439D01*
X29822Y81264D01*
X29956Y81130D01*
X30131Y81058D01*
X30321D01*
X30496Y81130D01*
X30630Y81264D01*
X30702Y81439D01*
Y81629D01*
X30630Y81804D01*
X30509Y81924D01*
Y85046D01*
X30677D01*
Y86498D01*
D02*
G37*
G36*
X150033Y83021D02*
X149687D01*
X149353Y82932D01*
X149053Y82759D01*
X148809Y82515D01*
X148636Y82215D01*
X148547Y81881D01*
Y81535D01*
X148636Y81201D01*
X148809Y80901D01*
X149053Y80657D01*
X149353Y80484D01*
X149687Y80395D01*
X150033D01*
X150367Y80484D01*
X150667Y80657D01*
X150911Y80901D01*
X151084Y81201D01*
X151174Y81535D01*
Y81881D01*
X151084Y82215D01*
X150911Y82515D01*
X150667Y82759D01*
X150367Y82932D01*
X150033Y83021D01*
D02*
G37*
G36*
X26293Y86433D02*
X25391D01*
Y84981D01*
X25559D01*
Y80388D01*
X25408Y80335D01*
X25297Y80445D01*
X25104Y80525D01*
X25100D01*
Y80000D01*
Y79475D01*
X25104D01*
X25297Y79555D01*
X25408Y79665D01*
X25559Y79612D01*
Y60388D01*
X25408Y60335D01*
X25297Y60445D01*
X25104Y60525D01*
X25100D01*
Y60000D01*
Y59475D01*
X25104D01*
X25297Y59555D01*
X25408Y59665D01*
X25559Y59612D01*
Y42738D01*
X25580Y42630D01*
X25642Y42538D01*
X32976Y35203D01*
X32942Y35146D01*
X32881Y34917D01*
Y34679D01*
X32942Y34450D01*
X33061Y34245D01*
X33229Y34077D01*
X33434Y33958D01*
X33663Y33897D01*
X33901D01*
X34130Y33958D01*
X34335Y34077D01*
X34503Y34245D01*
X34622Y34450D01*
X34683Y34679D01*
Y34917D01*
X34622Y35146D01*
X34503Y35351D01*
X34335Y35519D01*
X34130Y35638D01*
X33901Y35699D01*
X33663D01*
X33434Y35638D01*
X33377Y35604D01*
X26125Y42855D01*
Y84981D01*
X26293D01*
Y86433D01*
D02*
G37*
G36*
X145104Y80525D02*
X145100D01*
Y80100D01*
X145525D01*
Y80104D01*
X145445Y80297D01*
X145297Y80445D01*
X145104Y80525D01*
D02*
G37*
G36*
X144900D02*
X144896D01*
X144703Y80445D01*
X144555Y80297D01*
X144475Y80104D01*
Y80100D01*
X144900D01*
Y80525D01*
D02*
G37*
G36*
X125104D02*
X125100D01*
Y80100D01*
X125525D01*
Y80104D01*
X125445Y80297D01*
X125297Y80445D01*
X125104Y80525D01*
D02*
G37*
G36*
X124900D02*
X124896D01*
X124703Y80445D01*
X124555Y80297D01*
X124475Y80104D01*
Y80100D01*
X124900D01*
Y80525D01*
D02*
G37*
G36*
X115104D02*
X115100D01*
Y80100D01*
X115525D01*
Y80104D01*
X115445Y80297D01*
X115297Y80445D01*
X115104Y80525D01*
D02*
G37*
G36*
X114900D02*
X114896D01*
X114703Y80445D01*
X114555Y80297D01*
X114475Y80104D01*
Y80100D01*
X114900D01*
Y80525D01*
D02*
G37*
G36*
X105104D02*
X105100D01*
Y80100D01*
X105525D01*
Y80104D01*
X105445Y80297D01*
X105297Y80445D01*
X105104Y80525D01*
D02*
G37*
G36*
X104900D02*
X104896D01*
X104703Y80445D01*
X104555Y80297D01*
X104475Y80104D01*
Y80100D01*
X104900D01*
Y80525D01*
D02*
G37*
G36*
X95104D02*
X95100D01*
Y80100D01*
X95525D01*
Y80104D01*
X95445Y80297D01*
X95297Y80445D01*
X95104Y80525D01*
D02*
G37*
G36*
X94900D02*
X94896D01*
X94703Y80445D01*
X94555Y80297D01*
X94475Y80104D01*
Y80100D01*
X94900D01*
Y80525D01*
D02*
G37*
G36*
X85104D02*
X85100D01*
Y80100D01*
X85525D01*
Y80104D01*
X85445Y80297D01*
X85297Y80445D01*
X85104Y80525D01*
D02*
G37*
G36*
X84900D02*
X84896D01*
X84703Y80445D01*
X84555Y80297D01*
X84475Y80104D01*
Y80100D01*
X84900D01*
Y80525D01*
D02*
G37*
G36*
X65104D02*
X65100D01*
Y80100D01*
X65525D01*
Y80104D01*
X65445Y80297D01*
X65297Y80445D01*
X65104Y80525D01*
D02*
G37*
G36*
X64900D02*
X64896D01*
X64703Y80445D01*
X64555Y80297D01*
X64475Y80104D01*
Y80100D01*
X64900D01*
Y80525D01*
D02*
G37*
G36*
X55104D02*
X55100D01*
Y80100D01*
X55525D01*
Y80104D01*
X55445Y80297D01*
X55297Y80445D01*
X55104Y80525D01*
D02*
G37*
G36*
X54900D02*
X54896D01*
X54703Y80445D01*
X54555Y80297D01*
X54475Y80104D01*
Y80100D01*
X54900D01*
Y80525D01*
D02*
G37*
G36*
X35104D02*
X35100D01*
Y80100D01*
X35525D01*
Y80104D01*
X35445Y80297D01*
X35297Y80445D01*
X35104Y80525D01*
D02*
G37*
G36*
X34900D02*
X34896D01*
X34703Y80445D01*
X34555Y80297D01*
X34475Y80104D01*
Y80100D01*
X34900D01*
Y80525D01*
D02*
G37*
G36*
X24900D02*
X24896D01*
X24703Y80445D01*
X24555Y80297D01*
X24475Y80104D01*
Y80100D01*
X24900D01*
Y80525D01*
D02*
G37*
G36*
X15104D02*
X15100D01*
Y80100D01*
X15525D01*
Y80104D01*
X15445Y80297D01*
X15297Y80445D01*
X15104Y80525D01*
D02*
G37*
G36*
X14900D02*
X14896D01*
X14703Y80445D01*
X14555Y80297D01*
X14475Y80104D01*
Y80100D01*
X14900D01*
Y80525D01*
D02*
G37*
G36*
X145525Y79900D02*
X145100D01*
Y79475D01*
X145104D01*
X145297Y79555D01*
X145445Y79703D01*
X145525Y79896D01*
Y79900D01*
D02*
G37*
G36*
X144900D02*
X144475D01*
Y79896D01*
X144555Y79703D01*
X144703Y79555D01*
X144896Y79475D01*
X144900D01*
Y79900D01*
D02*
G37*
G36*
X125525D02*
X125100D01*
Y79475D01*
X125104D01*
X125297Y79555D01*
X125445Y79703D01*
X125525Y79896D01*
Y79900D01*
D02*
G37*
G36*
X124900D02*
X124475D01*
Y79896D01*
X124555Y79703D01*
X124703Y79555D01*
X124896Y79475D01*
X124900D01*
Y79900D01*
D02*
G37*
G36*
X115525D02*
X115100D01*
Y79475D01*
X115104D01*
X115297Y79555D01*
X115445Y79703D01*
X115525Y79896D01*
Y79900D01*
D02*
G37*
G36*
X114900D02*
X114475D01*
Y79896D01*
X114555Y79703D01*
X114703Y79555D01*
X114896Y79475D01*
X114900D01*
Y79900D01*
D02*
G37*
G36*
X105525D02*
X105100D01*
Y79475D01*
X105104D01*
X105297Y79555D01*
X105445Y79703D01*
X105525Y79896D01*
Y79900D01*
D02*
G37*
G36*
X104900D02*
X104475D01*
Y79896D01*
X104555Y79703D01*
X104703Y79555D01*
X104896Y79475D01*
X104900D01*
Y79900D01*
D02*
G37*
G36*
X95525D02*
X95100D01*
Y79475D01*
X95104D01*
X95297Y79555D01*
X95445Y79703D01*
X95525Y79896D01*
Y79900D01*
D02*
G37*
G36*
X94900D02*
X94475D01*
Y79896D01*
X94555Y79703D01*
X94703Y79555D01*
X94896Y79475D01*
X94900D01*
Y79900D01*
D02*
G37*
G36*
X85525D02*
X85100D01*
Y79475D01*
X85104D01*
X85297Y79555D01*
X85445Y79703D01*
X85525Y79896D01*
Y79900D01*
D02*
G37*
G36*
X84900D02*
X84475D01*
Y79896D01*
X84555Y79703D01*
X84703Y79555D01*
X84896Y79475D01*
X84900D01*
Y79900D01*
D02*
G37*
G36*
X75525D02*
X75100D01*
Y79475D01*
X75104D01*
X75297Y79555D01*
X75445Y79703D01*
X75525Y79896D01*
Y79900D01*
D02*
G37*
G36*
X74900D02*
X74475D01*
Y79896D01*
X74555Y79703D01*
X74703Y79555D01*
X74896Y79475D01*
X74900D01*
Y79900D01*
D02*
G37*
G36*
X65525D02*
X65100D01*
Y79475D01*
X65104D01*
X65297Y79555D01*
X65445Y79703D01*
X65525Y79896D01*
Y79900D01*
D02*
G37*
G36*
X64900D02*
X64475D01*
Y79896D01*
X64555Y79703D01*
X64703Y79555D01*
X64896Y79475D01*
X64900D01*
Y79900D01*
D02*
G37*
G36*
X55525D02*
X55100D01*
Y79475D01*
X55104D01*
X55297Y79555D01*
X55445Y79703D01*
X55525Y79896D01*
Y79900D01*
D02*
G37*
G36*
X54900D02*
X54475D01*
Y79896D01*
X54555Y79703D01*
X54703Y79555D01*
X54896Y79475D01*
X54900D01*
Y79900D01*
D02*
G37*
G36*
X35525D02*
X35100D01*
Y79475D01*
X35104D01*
X35297Y79555D01*
X35445Y79703D01*
X35525Y79896D01*
Y79900D01*
D02*
G37*
G36*
X34900D02*
X34475D01*
Y79896D01*
X34555Y79703D01*
X34703Y79555D01*
X34896Y79475D01*
X34900D01*
Y79900D01*
D02*
G37*
G36*
X24900D02*
X24475D01*
Y79896D01*
X24555Y79703D01*
X24703Y79555D01*
X24896Y79475D01*
X24900D01*
Y79900D01*
D02*
G37*
G36*
X15525D02*
X15100D01*
Y79475D01*
X15104D01*
X15297Y79555D01*
X15445Y79703D01*
X15525Y79896D01*
Y79900D01*
D02*
G37*
G36*
X14900D02*
X14475D01*
Y79896D01*
X14555Y79703D01*
X14703Y79555D01*
X14896Y79475D01*
X14900D01*
Y79900D01*
D02*
G37*
G36*
X136040Y80029D02*
X133708D01*
Y78261D01*
X129583D01*
X129571Y78306D01*
X129459Y78501D01*
X129301Y78659D01*
X129106Y78771D01*
X128890Y78829D01*
X128666D01*
X128450Y78771D01*
X128255Y78659D01*
X128097Y78501D01*
X127985Y78306D01*
X127927Y78090D01*
Y77866D01*
X127985Y77650D01*
X128097Y77455D01*
X128250Y77303D01*
X128241Y77256D01*
X128241Y77256D01*
X128241Y77256D01*
Y59225D01*
X128196Y59213D01*
X128001Y59101D01*
X127843Y58943D01*
X127731Y58748D01*
X127673Y58532D01*
Y58308D01*
X127731Y58092D01*
X127843Y57897D01*
X128001Y57739D01*
X128196Y57627D01*
X128241Y57615D01*
Y32809D01*
X128196Y32797D01*
X128001Y32685D01*
X127843Y32527D01*
X127731Y32332D01*
X127673Y32116D01*
Y31892D01*
X127731Y31676D01*
X127843Y31481D01*
X128001Y31323D01*
X128196Y31211D01*
X128412Y31153D01*
X128636D01*
X128852Y31211D01*
X129047Y31323D01*
X129205Y31481D01*
X129317Y31676D01*
X129329Y31721D01*
X133454D01*
Y29953D01*
X135786D01*
Y31721D01*
X138938D01*
X139046Y31742D01*
X139138Y31804D01*
X143373Y36039D01*
X148602D01*
X148710Y36060D01*
X148769Y36100D01*
X148866Y35982D01*
X147965Y35081D01*
X147309D01*
Y35649D01*
X145807D01*
Y33947D01*
X147309D01*
Y34515D01*
X148082D01*
X148190Y34536D01*
X148282Y34598D01*
X152600Y38916D01*
X152601Y38917D01*
X152736Y38874D01*
X152751Y38732D01*
X139157Y25138D01*
X139068Y25005D01*
X139037Y24849D01*
Y19559D01*
X138595D01*
Y19217D01*
X133947D01*
Y19559D01*
X132245D01*
Y19217D01*
X127597D01*
Y19559D01*
X125895D01*
Y19217D01*
X122290D01*
X122134Y19186D01*
X122001Y19097D01*
X116870Y13966D01*
X116796Y13855D01*
X115735D01*
Y13513D01*
X115405D01*
Y13855D01*
X113703D01*
Y13513D01*
X113373D01*
Y13855D01*
X111671D01*
Y13513D01*
X111341D01*
Y13855D01*
X110899D01*
Y18285D01*
X110966Y18447D01*
Y18637D01*
X110894Y18812D01*
X110760Y18946D01*
X110585Y19018D01*
X110395D01*
X110220Y18946D01*
X110086Y18812D01*
X110014Y18637D01*
Y18447D01*
X110081Y18285D01*
Y13855D01*
X109639D01*
Y12353D01*
X111341D01*
Y12695D01*
X111671D01*
Y12353D01*
X113373D01*
Y12695D01*
X113703D01*
Y12353D01*
X115405D01*
Y12695D01*
X115735D01*
Y12353D01*
X117437D01*
Y13277D01*
X117448Y13288D01*
X117537Y13421D01*
X117551Y13490D01*
X122459Y18399D01*
X125895D01*
Y18057D01*
X127597D01*
Y18399D01*
X132245D01*
Y18057D01*
X133947D01*
Y18399D01*
X138595D01*
Y18057D01*
X140297D01*
Y19559D01*
X139855D01*
Y24679D01*
X153451Y38276D01*
X153540Y38408D01*
X153571Y38565D01*
Y45466D01*
X153540Y45622D01*
X153451Y45755D01*
X150269Y48937D01*
Y50583D01*
X151174D01*
Y52631D01*
X152435Y53893D01*
X152524Y54026D01*
X152555Y54182D01*
Y64262D01*
Y74422D01*
X152524Y74578D01*
X152435Y74711D01*
X151174Y75973D01*
Y78022D01*
X148547D01*
Y75395D01*
X150595D01*
X151737Y74253D01*
Y64671D01*
X151174D01*
Y65576D01*
X148547D01*
Y62949D01*
X151174D01*
Y63853D01*
X151737D01*
Y54351D01*
X150595Y53210D01*
X148547D01*
Y50583D01*
X149451D01*
Y48768D01*
X149482Y48612D01*
X149571Y48479D01*
X152753Y45297D01*
Y43805D01*
X152602Y43759D01*
X152600Y43761D01*
X152009Y44353D01*
X151917Y44415D01*
X151808Y44436D01*
X151727D01*
Y44947D01*
X150025D01*
Y44098D01*
X149394D01*
X149385Y44143D01*
X149341Y44210D01*
X149274Y44254D01*
X149195Y44270D01*
X147847D01*
X147768Y44254D01*
X147701Y44210D01*
X147657Y44143D01*
X147641Y44064D01*
Y43566D01*
X147657Y43487D01*
X147701Y43420D01*
X147768Y43376D01*
X147847Y43360D01*
X149195D01*
X149274Y43376D01*
X149341Y43420D01*
X149385Y43487D01*
X149394Y43532D01*
X150025D01*
Y43445D01*
X151727D01*
Y43636D01*
X151867Y43694D01*
X152117Y43444D01*
Y39233D01*
X151216Y38332D01*
X151098Y38429D01*
X151138Y38488D01*
X151159Y38596D01*
Y41645D01*
X151727D01*
Y43147D01*
X150025D01*
Y42828D01*
X149394D01*
X149385Y42873D01*
X149341Y42940D01*
X149274Y42984D01*
X149195Y43000D01*
X147847D01*
X147768Y42984D01*
X147701Y42940D01*
X147657Y42873D01*
X147641Y42794D01*
Y42296D01*
X147657Y42217D01*
X147701Y42150D01*
X147768Y42106D01*
X147847Y42090D01*
X149195D01*
X149274Y42106D01*
X149341Y42150D01*
X149385Y42217D01*
X149394Y42262D01*
X150025D01*
Y41645D01*
X150593D01*
Y38714D01*
X148484Y36605D01*
X143256D01*
X143148Y36584D01*
X143056Y36522D01*
X138821Y32287D01*
X135786D01*
Y34055D01*
X133454D01*
Y32287D01*
X129329D01*
X129317Y32332D01*
X129205Y32527D01*
X129047Y32685D01*
X128852Y32797D01*
X128807Y32809D01*
Y57615D01*
X128852Y57627D01*
X129047Y57739D01*
X129205Y57897D01*
X129317Y58092D01*
X129329Y58137D01*
X133454D01*
Y56369D01*
X135786D01*
Y60471D01*
X133454D01*
Y58703D01*
X129329D01*
X129317Y58748D01*
X129205Y58943D01*
X129047Y59101D01*
X128852Y59213D01*
X128807Y59225D01*
Y77127D01*
X128890D01*
X129106Y77185D01*
X129301Y77297D01*
X129459Y77455D01*
X129571Y77650D01*
X129583Y77695D01*
X133708D01*
Y75927D01*
X136040D01*
Y80029D01*
D02*
G37*
G36*
X103806Y87719D02*
X103582D01*
X103366Y87661D01*
X103172Y87549D01*
X103013Y87391D01*
X102901Y87196D01*
X102843Y86980D01*
Y86756D01*
X102901Y86540D01*
X103013Y86345D01*
X103172Y86187D01*
X103366Y86075D01*
X103411Y86063D01*
Y78007D01*
X101959D01*
X101947Y78052D01*
X101835Y78247D01*
X101677Y78405D01*
X101483Y78517D01*
X101266Y78575D01*
X101042D01*
X100826Y78517D01*
X100632Y78405D01*
X100473Y78247D01*
X100361Y78052D01*
X100303Y77836D01*
Y77612D01*
X100361Y77396D01*
X100473Y77201D01*
X100632Y77043D01*
X100826Y76931D01*
X101042Y76873D01*
X101266D01*
X101483Y76931D01*
X101677Y77043D01*
X101835Y77201D01*
X101947Y77396D01*
X101959Y77441D01*
X108574D01*
X108734Y77281D01*
X108671Y77130D01*
X108620D01*
Y76300D01*
X109025D01*
Y76776D01*
X109176Y76838D01*
X109335Y76679D01*
Y75526D01*
X109351Y75447D01*
X109396Y75380D01*
X109463Y75336D01*
X109541Y75320D01*
X110039D01*
X110118Y75336D01*
X110185Y75380D01*
X110230Y75447D01*
X110245Y75526D01*
Y76874D01*
X110230Y76953D01*
X110185Y77020D01*
X110118Y77064D01*
X110039Y77080D01*
X109736D01*
X108892Y77924D01*
X108800Y77986D01*
X108691Y78007D01*
X103978D01*
Y86063D01*
X104023Y86075D01*
X104217Y86187D01*
X104375Y86345D01*
X104487Y86540D01*
X104545Y86756D01*
Y86980D01*
X104487Y87196D01*
X104375Y87391D01*
X104217Y87549D01*
X104023Y87661D01*
X103806Y87719D01*
D02*
G37*
G36*
X113966D02*
X113742D01*
X113526Y87661D01*
X113332Y87549D01*
X113173Y87391D01*
X113061Y87196D01*
X113003Y86980D01*
Y86756D01*
X113061Y86540D01*
X113173Y86345D01*
X113332Y86187D01*
X113526Y86075D01*
X113571Y86063D01*
Y78095D01*
X111959Y76483D01*
X111515D01*
Y76874D01*
X111500Y76953D01*
X111455Y77020D01*
X111388Y77064D01*
X111309Y77080D01*
X110811D01*
X110733Y77064D01*
X110666Y77020D01*
X110621Y76953D01*
X110605Y76874D01*
Y75526D01*
X110621Y75447D01*
X110666Y75380D01*
X110733Y75336D01*
X110811Y75320D01*
X111309D01*
X111388Y75336D01*
X111455Y75380D01*
X111500Y75447D01*
X111515Y75526D01*
Y75917D01*
X112076D01*
X112185Y75938D01*
X112277Y76000D01*
X113972Y77695D01*
X117813D01*
X117825Y77650D01*
X117937Y77455D01*
X118095Y77297D01*
X118290Y77185D01*
X118506Y77127D01*
X118730D01*
X118946Y77185D01*
X119141Y77297D01*
X119299Y77455D01*
X119411Y77650D01*
X119469Y77866D01*
Y78090D01*
X119411Y78306D01*
X119299Y78501D01*
X119141Y78659D01*
X118946Y78771D01*
X118730Y78829D01*
X118506D01*
X118290Y78771D01*
X118095Y78659D01*
X117937Y78501D01*
X117825Y78306D01*
X117813Y78261D01*
X114138D01*
Y86063D01*
X114183Y86075D01*
X114377Y86187D01*
X114535Y86345D01*
X114647Y86540D01*
X114705Y86756D01*
Y86980D01*
X114647Y87196D01*
X114535Y87391D01*
X114377Y87549D01*
X114183Y87661D01*
X113966Y87719D01*
D02*
G37*
G36*
X108420Y77130D02*
X108271D01*
X108173Y77110D01*
X108090Y77055D01*
X108035Y76972D01*
X108015Y76874D01*
Y76300D01*
X108420D01*
Y77130D01*
D02*
G37*
G36*
X109025Y76100D02*
X108620D01*
Y75270D01*
X108769D01*
X108867Y75290D01*
X108950Y75345D01*
X109006Y75428D01*
X109025Y75526D01*
Y76100D01*
D02*
G37*
G36*
X108420D02*
X108015D01*
Y75526D01*
X108035Y75428D01*
X108090Y75345D01*
X108173Y75290D01*
X108271Y75270D01*
X108420D01*
Y76100D01*
D02*
G37*
G36*
X107499Y77080D02*
X107001D01*
X106923Y77064D01*
X106856Y77020D01*
X106811Y76953D01*
X106795Y76874D01*
Y75526D01*
X106811Y75447D01*
X106841Y75402D01*
Y75162D01*
X106487Y74807D01*
X105307D01*
Y75099D01*
X103605D01*
Y74807D01*
X102873D01*
X102711Y74874D01*
X102521D01*
X102346Y74802D01*
X102212Y74668D01*
X102140Y74493D01*
Y74303D01*
X102212Y74128D01*
X102346Y73994D01*
X102521Y73922D01*
X102711D01*
X102873Y73989D01*
X103499D01*
X103605Y73882D01*
Y73779D01*
X103556Y73648D01*
X103556Y73566D01*
Y72998D01*
X104456D01*
X105356D01*
Y73566D01*
X105356Y73648D01*
X105307Y73779D01*
Y73882D01*
X105414Y73989D01*
X106656D01*
X106812Y74020D01*
X106945Y74109D01*
X107539Y74703D01*
X107628Y74836D01*
X107659Y74992D01*
Y75402D01*
X107690Y75447D01*
X107705Y75526D01*
Y76874D01*
X107690Y76953D01*
X107645Y77020D01*
X107578Y77064D01*
X107499Y77080D01*
D02*
G37*
G36*
X114754Y75160D02*
X113954D01*
Y74510D01*
X114754D01*
Y75160D01*
D02*
G37*
G36*
X113754D02*
X112954D01*
Y74510D01*
X113754D01*
Y75160D01*
D02*
G37*
G36*
X76090Y78949D02*
X75594D01*
X75104Y78871D01*
X74632Y78718D01*
X74191Y78493D01*
X73789Y78201D01*
X73439Y77851D01*
X73147Y77449D01*
X72922Y77008D01*
X72769Y76536D01*
X72691Y76046D01*
Y75550D01*
X72769Y75060D01*
X72922Y74588D01*
X73147Y74146D01*
X73439Y73745D01*
X73789Y73395D01*
X74191Y73103D01*
X74632Y72878D01*
X75104Y72725D01*
X75594Y72647D01*
X76090D01*
X76580Y72725D01*
X77052Y72878D01*
X77493Y73103D01*
X77895Y73395D01*
X78245Y73745D01*
X78537Y74146D01*
X78762Y74588D01*
X78915Y75060D01*
X78993Y75550D01*
Y76046D01*
X78915Y76536D01*
X78762Y77008D01*
X78537Y77449D01*
X78245Y77851D01*
X77895Y78201D01*
X77493Y78493D01*
X77052Y78718D01*
X76580Y78871D01*
X76090Y78949D01*
D02*
G37*
G36*
X6090D02*
X5594D01*
X5104Y78871D01*
X4632Y78718D01*
X4191Y78493D01*
X3789Y78201D01*
X3439Y77851D01*
X3147Y77449D01*
X2922Y77008D01*
X2769Y76536D01*
X2691Y76046D01*
Y75550D01*
X2769Y75060D01*
X2922Y74588D01*
X3147Y74146D01*
X3439Y73745D01*
X3789Y73395D01*
X4191Y73103D01*
X4632Y72878D01*
X5104Y72725D01*
X5594Y72647D01*
X6090D01*
X6580Y72725D01*
X7052Y72878D01*
X7493Y73103D01*
X7895Y73395D01*
X8245Y73745D01*
X8537Y74146D01*
X8762Y74588D01*
X8915Y75060D01*
X8993Y75550D01*
Y76046D01*
X8915Y76536D01*
X8762Y77008D01*
X8537Y77449D01*
X8245Y77851D01*
X7895Y78201D01*
X7493Y78493D01*
X7052Y78718D01*
X6580Y78871D01*
X6090Y78949D01*
D02*
G37*
G36*
X105356Y72798D02*
X104556D01*
Y72148D01*
X105356D01*
Y72798D01*
D02*
G37*
G36*
X104356D02*
X103556D01*
Y72148D01*
X104356D01*
Y72798D01*
D02*
G37*
G36*
X114754Y74310D02*
X112954D01*
Y73742D01*
X112954Y73660D01*
X113003Y73529D01*
Y72209D01*
X113445D01*
Y71159D01*
X111515D01*
Y71424D01*
X111500Y71503D01*
X111455Y71570D01*
X111388Y71614D01*
X111309Y71630D01*
X110811D01*
X110733Y71614D01*
X110666Y71570D01*
X110621Y71503D01*
X110605Y71424D01*
Y70076D01*
X110621Y69997D01*
X110666Y69930D01*
X110733Y69886D01*
X110811Y69870D01*
X111309D01*
X111388Y69886D01*
X111455Y69930D01*
X111500Y69997D01*
X111515Y70076D01*
Y70341D01*
X113623D01*
X126337Y57627D01*
Y37595D01*
X126275Y37446D01*
X116175Y27345D01*
X115512D01*
X115405Y27452D01*
Y27555D01*
X115454Y27686D01*
X115454Y27768D01*
Y28336D01*
X113654D01*
Y27768D01*
X113654Y27686D01*
X113703Y27555D01*
Y26235D01*
X114145D01*
Y25624D01*
X112596D01*
Y25889D01*
X112580Y25968D01*
X112536Y26035D01*
X112469Y26079D01*
X112390Y26095D01*
X111892D01*
X111813Y26079D01*
X111746Y26035D01*
X111702Y25968D01*
X111686Y25889D01*
Y24541D01*
X111702Y24462D01*
X111746Y24395D01*
X111813Y24351D01*
X111892Y24335D01*
X112390D01*
X112469Y24351D01*
X112536Y24395D01*
X112580Y24462D01*
X112596Y24541D01*
Y24806D01*
X114145D01*
Y22863D01*
X114078Y22701D01*
Y22511D01*
X114150Y22336D01*
X114284Y22202D01*
X114459Y22130D01*
X114649D01*
X114824Y22202D01*
X114958Y22336D01*
X115030Y22511D01*
Y22701D01*
X114963Y22863D01*
Y25215D01*
Y26235D01*
X115405D01*
Y26527D01*
X116344D01*
X116500Y26558D01*
X116633Y26647D01*
X126854Y36867D01*
X127016Y36934D01*
X127150Y37068D01*
X127222Y37243D01*
Y37433D01*
X127155Y37595D01*
Y57796D01*
X127124Y57952D01*
X127035Y58085D01*
X114263Y70857D01*
Y72209D01*
X114705D01*
Y73529D01*
X114754Y73660D01*
X114754Y73742D01*
Y74310D01*
D02*
G37*
G36*
X107499Y71680D02*
X107350D01*
Y70850D01*
X107755D01*
Y71424D01*
X107736Y71522D01*
X107680Y71605D01*
X107597Y71660D01*
X107499Y71680D01*
D02*
G37*
G36*
X107150D02*
X107001D01*
X106903Y71660D01*
X106820Y71605D01*
X106765Y71522D01*
X106745Y71424D01*
Y70850D01*
X107150D01*
Y71680D01*
D02*
G37*
G36*
X91106Y78575D02*
X90882D01*
X90666Y78517D01*
X90472Y78405D01*
X90313Y78247D01*
X90201Y78052D01*
X90143Y77836D01*
Y77612D01*
X90201Y77396D01*
X90313Y77201D01*
X90472Y77043D01*
X90553Y76996D01*
Y70402D01*
X90402Y70341D01*
X90297Y70445D01*
X90104Y70525D01*
X90100D01*
Y70000D01*
Y69475D01*
X90104D01*
X90297Y69555D01*
X90402Y69659D01*
X90553Y69598D01*
Y59013D01*
X90350Y58959D01*
X90155Y58847D01*
X89997Y58689D01*
X89885Y58494D01*
X89873Y58449D01*
X85240D01*
Y60217D01*
X82908D01*
Y56115D01*
X85240D01*
Y57883D01*
X89873D01*
X89885Y57838D01*
X89997Y57643D01*
X90155Y57485D01*
X90337Y57381D01*
Y50592D01*
X90186Y50491D01*
X90104Y50525D01*
X90100D01*
Y50000D01*
Y49475D01*
X90104D01*
X90186Y49509D01*
X90337Y49408D01*
Y43971D01*
X85876D01*
X85768Y43950D01*
X85676Y43888D01*
X83366Y41578D01*
X83304Y41486D01*
X83283Y41378D01*
Y40729D01*
X82815D01*
Y39027D01*
X83424D01*
Y37681D01*
X81482D01*
Y37730D01*
X81207D01*
Y36830D01*
Y35930D01*
X81482D01*
Y35979D01*
X83982D01*
Y35930D01*
X84257D01*
Y36830D01*
Y37730D01*
X83990D01*
Y39027D01*
X84317D01*
Y40729D01*
X83849D01*
Y41261D01*
X85993Y43405D01*
X90337D01*
Y36381D01*
X90234Y36353D01*
X90039Y36241D01*
X89881Y36083D01*
X89769Y35888D01*
X89711Y35672D01*
Y35448D01*
X89769Y35232D01*
X89881Y35037D01*
X90039Y34879D01*
X90234Y34767D01*
X90450Y34709D01*
X90674D01*
X90890Y34767D01*
X91085Y34879D01*
X91243Y35037D01*
X91355Y35232D01*
X91413Y35448D01*
Y35672D01*
X91355Y35888D01*
X91243Y36083D01*
X91085Y36241D01*
X90903Y36346D01*
Y43688D01*
Y57345D01*
X91006Y57373D01*
X91201Y57485D01*
X91359Y57643D01*
X91471Y57838D01*
X91529Y58054D01*
Y58278D01*
X91471Y58494D01*
X91359Y58689D01*
X91201Y58847D01*
X91120Y58894D01*
Y76877D01*
X91323Y76931D01*
X91517Y77043D01*
X91675Y77201D01*
X91787Y77396D01*
X91845Y77612D01*
Y77836D01*
X91787Y78052D01*
X91675Y78247D01*
X91517Y78405D01*
X91323Y78517D01*
X91106Y78575D01*
D02*
G37*
G36*
X140104Y70525D02*
X140100D01*
Y70100D01*
X140525D01*
Y70104D01*
X140445Y70297D01*
X140297Y70445D01*
X140104Y70525D01*
D02*
G37*
G36*
X139900D02*
X139896D01*
X139703Y70445D01*
X139555Y70297D01*
X139475Y70104D01*
Y70100D01*
X139900D01*
Y70525D01*
D02*
G37*
G36*
X130104D02*
X130100D01*
Y70100D01*
X130525D01*
Y70104D01*
X130445Y70297D01*
X130297Y70445D01*
X130104Y70525D01*
D02*
G37*
G36*
X129900D02*
X129896D01*
X129703Y70445D01*
X129555Y70297D01*
X129475Y70104D01*
Y70100D01*
X129900D01*
Y70525D01*
D02*
G37*
G36*
X120104D02*
X120100D01*
Y70100D01*
X120525D01*
Y70104D01*
X120445Y70297D01*
X120297Y70445D01*
X120104Y70525D01*
D02*
G37*
G36*
X119900D02*
X119896D01*
X119703Y70445D01*
X119555Y70297D01*
X119475Y70104D01*
Y70100D01*
X119900D01*
Y70525D01*
D02*
G37*
G36*
X100104D02*
X100100D01*
Y70100D01*
X100525D01*
Y70104D01*
X100445Y70297D01*
X100297Y70445D01*
X100104Y70525D01*
D02*
G37*
G36*
X99900D02*
X99896D01*
X99703Y70445D01*
X99555Y70297D01*
X99475Y70104D01*
Y70100D01*
X99900D01*
Y70525D01*
D02*
G37*
G36*
X89900D02*
X89896D01*
X89703Y70445D01*
X89555Y70297D01*
X89475Y70104D01*
Y70100D01*
X89900D01*
Y70525D01*
D02*
G37*
G36*
X80104D02*
X80100D01*
Y70100D01*
X80525D01*
Y70104D01*
X80445Y70297D01*
X80297Y70445D01*
X80104Y70525D01*
D02*
G37*
G36*
X79900D02*
X79896D01*
X79703Y70445D01*
X79555Y70297D01*
X79475Y70104D01*
Y70100D01*
X79900D01*
Y70525D01*
D02*
G37*
G36*
X60104D02*
X60100D01*
Y70100D01*
X60525D01*
Y70104D01*
X60445Y70297D01*
X60297Y70445D01*
X60104Y70525D01*
D02*
G37*
G36*
X59900D02*
X59896D01*
X59703Y70445D01*
X59555Y70297D01*
X59475Y70104D01*
Y70100D01*
X59900D01*
Y70525D01*
D02*
G37*
G36*
X50104D02*
X50100D01*
Y70100D01*
X50525D01*
Y70104D01*
X50445Y70297D01*
X50297Y70445D01*
X50104Y70525D01*
D02*
G37*
G36*
X49900D02*
X49896D01*
X49703Y70445D01*
X49555Y70297D01*
X49475Y70104D01*
Y70100D01*
X49900D01*
Y70525D01*
D02*
G37*
G36*
X40104D02*
X40100D01*
Y70100D01*
X40525D01*
Y70104D01*
X40445Y70297D01*
X40297Y70445D01*
X40104Y70525D01*
D02*
G37*
G36*
X39900D02*
X39896D01*
X39703Y70445D01*
X39555Y70297D01*
X39475Y70104D01*
Y70100D01*
X39900D01*
Y70525D01*
D02*
G37*
G36*
X30104D02*
X30100D01*
Y70100D01*
X30525D01*
Y70104D01*
X30445Y70297D01*
X30297Y70445D01*
X30104Y70525D01*
D02*
G37*
G36*
X29900D02*
X29896D01*
X29703Y70445D01*
X29555Y70297D01*
X29475Y70104D01*
Y70100D01*
X29900D01*
Y70525D01*
D02*
G37*
G36*
X20104D02*
X20100D01*
Y70100D01*
X20525D01*
Y70104D01*
X20445Y70297D01*
X20297Y70445D01*
X20104Y70525D01*
D02*
G37*
G36*
X19900D02*
X19896D01*
X19703Y70445D01*
X19555Y70297D01*
X19475Y70104D01*
Y70100D01*
X19900D01*
Y70525D01*
D02*
G37*
G36*
X10104D02*
X10100D01*
Y70100D01*
X10525D01*
Y70104D01*
X10445Y70297D01*
X10297Y70445D01*
X10104Y70525D01*
D02*
G37*
G36*
X9900D02*
X9896D01*
X9703Y70445D01*
X9555Y70297D01*
X9475Y70104D01*
Y70100D01*
X9900D01*
Y70525D01*
D02*
G37*
G36*
X107755Y70650D02*
X107350D01*
Y69820D01*
X107499D01*
X107597Y69840D01*
X107680Y69895D01*
X107736Y69978D01*
X107755Y70076D01*
Y70650D01*
D02*
G37*
G36*
X107150D02*
X106745D01*
Y70076D01*
X106765Y69978D01*
X106820Y69895D01*
X106903Y69840D01*
X107001Y69820D01*
X107150D01*
Y70650D01*
D02*
G37*
G36*
X140525Y69900D02*
X140100D01*
Y69475D01*
X140104D01*
X140297Y69555D01*
X140445Y69703D01*
X140525Y69896D01*
Y69900D01*
D02*
G37*
G36*
X139900D02*
X139475D01*
Y69896D01*
X139555Y69703D01*
X139703Y69555D01*
X139896Y69475D01*
X139900D01*
Y69900D01*
D02*
G37*
G36*
X130525D02*
X130100D01*
Y69475D01*
X130104D01*
X130297Y69555D01*
X130445Y69703D01*
X130525Y69896D01*
Y69900D01*
D02*
G37*
G36*
X129900D02*
X129475D01*
Y69896D01*
X129555Y69703D01*
X129703Y69555D01*
X129896Y69475D01*
X129900D01*
Y69900D01*
D02*
G37*
G36*
X120525D02*
X120100D01*
Y69475D01*
X120104D01*
X120297Y69555D01*
X120445Y69703D01*
X120525Y69896D01*
Y69900D01*
D02*
G37*
G36*
X119900D02*
X119475D01*
Y69896D01*
X119555Y69703D01*
X119703Y69555D01*
X119896Y69475D01*
X119900D01*
Y69900D01*
D02*
G37*
G36*
X100525D02*
X100100D01*
Y69475D01*
X100104D01*
X100297Y69555D01*
X100445Y69703D01*
X100525Y69896D01*
Y69900D01*
D02*
G37*
G36*
X99900D02*
X99475D01*
Y69896D01*
X99555Y69703D01*
X99703Y69555D01*
X99896Y69475D01*
X99900D01*
Y69900D01*
D02*
G37*
G36*
X89900D02*
X89475D01*
Y69896D01*
X89555Y69703D01*
X89703Y69555D01*
X89896Y69475D01*
X89900D01*
Y69900D01*
D02*
G37*
G36*
X80525D02*
X80100D01*
Y69475D01*
X80104D01*
X80297Y69555D01*
X80445Y69703D01*
X80525Y69896D01*
Y69900D01*
D02*
G37*
G36*
X79900D02*
X79475D01*
Y69896D01*
X79555Y69703D01*
X79703Y69555D01*
X79896Y69475D01*
X79900D01*
Y69900D01*
D02*
G37*
G36*
X60525D02*
X60100D01*
Y69475D01*
X60104D01*
X60297Y69555D01*
X60445Y69703D01*
X60525Y69896D01*
Y69900D01*
D02*
G37*
G36*
X59900D02*
X59475D01*
Y69896D01*
X59555Y69703D01*
X59703Y69555D01*
X59896Y69475D01*
X59900D01*
Y69900D01*
D02*
G37*
G36*
X50525D02*
X50100D01*
Y69475D01*
X50104D01*
X50297Y69555D01*
X50445Y69703D01*
X50525Y69896D01*
Y69900D01*
D02*
G37*
G36*
X49900D02*
X49475D01*
Y69896D01*
X49555Y69703D01*
X49703Y69555D01*
X49896Y69475D01*
X49900D01*
Y69900D01*
D02*
G37*
G36*
X40525D02*
X40100D01*
Y69475D01*
X40104D01*
X40297Y69555D01*
X40445Y69703D01*
X40525Y69896D01*
Y69900D01*
D02*
G37*
G36*
X39900D02*
X39475D01*
Y69896D01*
X39555Y69703D01*
X39703Y69555D01*
X39896Y69475D01*
X39900D01*
Y69900D01*
D02*
G37*
G36*
X30525D02*
X30100D01*
Y69475D01*
X30104D01*
X30297Y69555D01*
X30445Y69703D01*
X30525Y69896D01*
Y69900D01*
D02*
G37*
G36*
X29900D02*
X29475D01*
Y69896D01*
X29555Y69703D01*
X29703Y69555D01*
X29896Y69475D01*
X29900D01*
Y69900D01*
D02*
G37*
G36*
X20525D02*
X20100D01*
Y69475D01*
X20104D01*
X20297Y69555D01*
X20445Y69703D01*
X20525Y69896D01*
Y69900D01*
D02*
G37*
G36*
X19900D02*
X19475D01*
Y69896D01*
X19555Y69703D01*
X19703Y69555D01*
X19896Y69475D01*
X19900D01*
Y69900D01*
D02*
G37*
G36*
X10525D02*
X10100D01*
Y69475D01*
X10104D01*
X10297Y69555D01*
X10445Y69703D01*
X10525Y69896D01*
Y69900D01*
D02*
G37*
G36*
X9900D02*
X9475D01*
Y69896D01*
X9555Y69703D01*
X9703Y69555D01*
X9896Y69475D01*
X9900D01*
Y69900D01*
D02*
G37*
G36*
X107355Y68851D02*
X107350D01*
Y68426D01*
X107775D01*
Y68430D01*
X107695Y68623D01*
X107548Y68771D01*
X107355Y68851D01*
D02*
G37*
G36*
X107150D02*
X107146D01*
X106953Y68771D01*
X106805Y68623D01*
X106725Y68430D01*
Y68426D01*
X107150D01*
Y68851D01*
D02*
G37*
G36*
X150033Y70576D02*
X149687D01*
X149353Y70486D01*
X149053Y70313D01*
X148809Y70069D01*
X148636Y69769D01*
X148547Y69435D01*
Y69089D01*
X148636Y68755D01*
X148809Y68455D01*
X149053Y68211D01*
X149353Y68038D01*
X149687Y67949D01*
X150033D01*
X150367Y68038D01*
X150667Y68211D01*
X150911Y68455D01*
X151084Y68755D01*
X151174Y69089D01*
Y69435D01*
X151084Y69769D01*
X150911Y70069D01*
X150667Y70313D01*
X150367Y70486D01*
X150033Y70576D01*
D02*
G37*
G36*
X107775Y68226D02*
X107350D01*
Y67801D01*
X107355D01*
X107548Y67881D01*
X107695Y68029D01*
X107775Y68222D01*
Y68226D01*
D02*
G37*
G36*
X107150D02*
X106725D01*
Y68222D01*
X106805Y68029D01*
X106953Y67881D01*
X107146Y67801D01*
X107150D01*
Y68226D01*
D02*
G37*
G36*
X145104Y60525D02*
X145100D01*
Y60100D01*
X145525D01*
Y60104D01*
X145445Y60297D01*
X145297Y60445D01*
X145104Y60525D01*
D02*
G37*
G36*
X144900D02*
X144896D01*
X144703Y60445D01*
X144555Y60297D01*
X144475Y60104D01*
Y60100D01*
X144900D01*
Y60525D01*
D02*
G37*
G36*
X115104D02*
X115100D01*
Y60100D01*
X115525D01*
Y60104D01*
X115445Y60297D01*
X115297Y60445D01*
X115104Y60525D01*
D02*
G37*
G36*
X114900D02*
X114896D01*
X114703Y60445D01*
X114555Y60297D01*
X114475Y60104D01*
Y60100D01*
X114900D01*
Y60525D01*
D02*
G37*
G36*
X95104D02*
X95100D01*
Y60100D01*
X95525D01*
Y60104D01*
X95445Y60297D01*
X95297Y60445D01*
X95104Y60525D01*
D02*
G37*
G36*
X94900D02*
X94896D01*
X94703Y60445D01*
X94555Y60297D01*
X94475Y60104D01*
Y60100D01*
X94900D01*
Y60525D01*
D02*
G37*
G36*
X75104D02*
X75100D01*
Y60100D01*
X75525D01*
Y60104D01*
X75445Y60297D01*
X75297Y60445D01*
X75104Y60525D01*
D02*
G37*
G36*
X74900D02*
X74896D01*
X74703Y60445D01*
X74555Y60297D01*
X74475Y60104D01*
Y60100D01*
X74900D01*
Y60525D01*
D02*
G37*
G36*
X65104D02*
X65100D01*
Y60100D01*
X65525D01*
Y60104D01*
X65445Y60297D01*
X65297Y60445D01*
X65104Y60525D01*
D02*
G37*
G36*
X35104D02*
X35100D01*
Y60100D01*
X35525D01*
Y60104D01*
X35445Y60297D01*
X35297Y60445D01*
X35104Y60525D01*
D02*
G37*
G36*
X34900D02*
X34896D01*
X34703Y60445D01*
X34555Y60297D01*
X34475Y60104D01*
Y60100D01*
X34900D01*
Y60525D01*
D02*
G37*
G36*
X24900D02*
X24896D01*
X24703Y60445D01*
X24555Y60297D01*
X24475Y60104D01*
Y60100D01*
X24900D01*
Y60525D01*
D02*
G37*
G36*
X15104D02*
X15100D01*
Y60100D01*
X15525D01*
Y60104D01*
X15445Y60297D01*
X15297Y60445D01*
X15104Y60525D01*
D02*
G37*
G36*
X14900D02*
X14896D01*
X14703Y60445D01*
X14555Y60297D01*
X14475Y60104D01*
Y60100D01*
X14900D01*
Y60525D01*
D02*
G37*
G36*
X145525Y59900D02*
X145100D01*
Y59475D01*
X145104D01*
X145297Y59555D01*
X145445Y59703D01*
X145525Y59896D01*
Y59900D01*
D02*
G37*
G36*
X144900D02*
X144475D01*
Y59896D01*
X144555Y59703D01*
X144703Y59555D01*
X144896Y59475D01*
X144900D01*
Y59900D01*
D02*
G37*
G36*
X115525D02*
X115100D01*
Y59475D01*
X115104D01*
X115297Y59555D01*
X115445Y59703D01*
X115525Y59896D01*
Y59900D01*
D02*
G37*
G36*
X114900D02*
X114475D01*
Y59896D01*
X114555Y59703D01*
X114703Y59555D01*
X114896Y59475D01*
X114900D01*
Y59900D01*
D02*
G37*
G36*
X95525D02*
X95100D01*
Y59475D01*
X95104D01*
X95297Y59555D01*
X95445Y59703D01*
X95525Y59896D01*
Y59900D01*
D02*
G37*
G36*
X94900D02*
X94475D01*
Y59896D01*
X94555Y59703D01*
X94703Y59555D01*
X94896Y59475D01*
X94900D01*
Y59900D01*
D02*
G37*
G36*
X75525D02*
X75100D01*
Y59475D01*
X75104D01*
X75297Y59555D01*
X75445Y59703D01*
X75525Y59896D01*
Y59900D01*
D02*
G37*
G36*
X74900D02*
X74475D01*
Y59896D01*
X74555Y59703D01*
X74703Y59555D01*
X74896Y59475D01*
X74900D01*
Y59900D01*
D02*
G37*
G36*
X65525D02*
X65100D01*
Y59475D01*
X65104D01*
X65297Y59555D01*
X65445Y59703D01*
X65525Y59896D01*
Y59900D01*
D02*
G37*
G36*
X39218Y87097D02*
X39031D01*
X38850Y87049D01*
X38688Y86955D01*
X38555Y86823D01*
X38462Y86660D01*
X38413Y86480D01*
Y86292D01*
X38462Y86112D01*
X38555Y85949D01*
X38688Y85817D01*
X38850Y85723D01*
X39031Y85675D01*
X39218D01*
X39399Y85723D01*
X39561Y85817D01*
X39693Y85949D01*
X39767Y86077D01*
X41539D01*
X63979Y63637D01*
Y35655D01*
X63914Y35638D01*
X63709Y35519D01*
X63541Y35351D01*
X63422Y35146D01*
X63361Y34917D01*
Y34679D01*
X63422Y34450D01*
X63541Y34245D01*
X63709Y34077D01*
X63914Y33958D01*
X64143Y33897D01*
X64381D01*
X64610Y33958D01*
X64815Y34077D01*
X64983Y34245D01*
X65102Y34450D01*
X65163Y34679D01*
Y34917D01*
X65102Y35146D01*
X64983Y35351D01*
X64815Y35519D01*
X64610Y35638D01*
X64545Y35655D01*
Y59499D01*
X64696Y59561D01*
X64703Y59555D01*
X64896Y59475D01*
X64900D01*
Y60000D01*
Y60525D01*
X64896D01*
X64703Y60445D01*
X64696Y60439D01*
X64545Y60501D01*
Y63754D01*
X64524Y63862D01*
X64462Y63954D01*
X41856Y86560D01*
X41764Y86622D01*
X41656Y86643D01*
X39791D01*
X39787Y86660D01*
X39693Y86823D01*
X39561Y86955D01*
X39399Y87049D01*
X39218Y87097D01*
D02*
G37*
G36*
X35525Y59900D02*
X35100D01*
Y59475D01*
X35104D01*
X35297Y59555D01*
X35445Y59703D01*
X35525Y59896D01*
Y59900D01*
D02*
G37*
G36*
X34900D02*
X34475D01*
Y59896D01*
X34555Y59703D01*
X34703Y59555D01*
X34896Y59475D01*
X34900D01*
Y59900D01*
D02*
G37*
G36*
X24900D02*
X24475D01*
Y59896D01*
X24555Y59703D01*
X24703Y59555D01*
X24896Y59475D01*
X24900D01*
Y59900D01*
D02*
G37*
G36*
X15525D02*
X15100D01*
Y59475D01*
X15104D01*
X15297Y59555D01*
X15445Y59703D01*
X15525Y59896D01*
Y59900D01*
D02*
G37*
G36*
X14900D02*
X14475D01*
Y59896D01*
X14555Y59703D01*
X14703Y59555D01*
X14896Y59475D01*
X14900D01*
Y59900D01*
D02*
G37*
G36*
X108769Y71630D02*
X108271D01*
X108193Y71614D01*
X108126Y71570D01*
X108081Y71503D01*
X108065Y71424D01*
Y70076D01*
X108081Y69997D01*
X108126Y69930D01*
X108193Y69886D01*
X108237Y69877D01*
Y63234D01*
X103452Y58449D01*
X101643D01*
X101631Y58494D01*
X101519Y58689D01*
X101361Y58847D01*
X101166Y58959D01*
X100950Y59017D01*
X100726D01*
X100510Y58959D01*
X100315Y58847D01*
X100157Y58689D01*
X100045Y58494D01*
X99987Y58278D01*
Y58054D01*
X100045Y57838D01*
X100157Y57643D01*
X100315Y57485D01*
X100510Y57373D01*
X100726Y57315D01*
X100950D01*
X101166Y57373D01*
X101361Y57485D01*
X101519Y57643D01*
X101631Y57838D01*
X101643Y57883D01*
X103349D01*
Y55415D01*
X103304Y55403D01*
X103109Y55291D01*
X102951Y55133D01*
X102839Y54938D01*
X102781Y54722D01*
Y54498D01*
X102839Y54282D01*
X102951Y54087D01*
X103109Y53929D01*
X103304Y53817D01*
X103349Y53805D01*
Y50589D01*
X103304Y50577D01*
X103109Y50465D01*
X102951Y50307D01*
X102839Y50112D01*
X102781Y49896D01*
Y49672D01*
X102839Y49456D01*
X102951Y49261D01*
X103109Y49103D01*
X103304Y48991D01*
X103520Y48933D01*
X103744D01*
X103960Y48991D01*
X104155Y49103D01*
X104313Y49261D01*
X104425Y49456D01*
X104483Y49672D01*
Y49896D01*
X104425Y50112D01*
X104313Y50307D01*
X104155Y50465D01*
X103960Y50577D01*
X103915Y50589D01*
Y53805D01*
X103960Y53817D01*
X104155Y53929D01*
X104313Y54087D01*
X104425Y54282D01*
X104483Y54498D01*
Y54722D01*
X104425Y54938D01*
X104313Y55133D01*
X104155Y55291D01*
X103960Y55403D01*
X103915Y55415D01*
Y58111D01*
X108721Y62916D01*
X108782Y63008D01*
X108804Y63117D01*
Y69877D01*
X108848Y69886D01*
X108915Y69930D01*
X108960Y69997D01*
X108975Y70076D01*
Y71424D01*
X108960Y71503D01*
X108915Y71570D01*
X108848Y71614D01*
X108769Y71630D01*
D02*
G37*
G36*
X110039D02*
X109541D01*
X109463Y71614D01*
X109396Y71570D01*
X109351Y71503D01*
X109335Y71424D01*
Y70076D01*
X109351Y69997D01*
X109396Y69930D01*
X109463Y69886D01*
X109507Y69877D01*
Y62422D01*
X109528Y62313D01*
X109590Y62221D01*
X113509Y58303D01*
Y55415D01*
X113464Y55403D01*
X113269Y55291D01*
X113111Y55133D01*
X112999Y54938D01*
X112941Y54722D01*
Y54498D01*
X112999Y54282D01*
X113111Y54087D01*
X113269Y53929D01*
X113464Y53817D01*
X113509Y53805D01*
Y50589D01*
X113464Y50577D01*
X113269Y50465D01*
X113111Y50307D01*
X112999Y50112D01*
X112941Y49896D01*
Y49672D01*
X112999Y49456D01*
X113111Y49261D01*
X113269Y49103D01*
X113464Y48991D01*
X113680Y48933D01*
X113904D01*
X114120Y48991D01*
X114315Y49103D01*
X114473Y49261D01*
X114585Y49456D01*
X114643Y49672D01*
Y49896D01*
X114585Y50112D01*
X114473Y50307D01*
X114315Y50465D01*
X114120Y50577D01*
X114075Y50589D01*
Y53805D01*
X114120Y53817D01*
X114315Y53929D01*
X114473Y54087D01*
X114585Y54282D01*
X114643Y54498D01*
Y54722D01*
X114585Y54938D01*
X114473Y55133D01*
X114315Y55291D01*
X114120Y55403D01*
X114075Y55415D01*
Y58137D01*
X117559D01*
X117571Y58092D01*
X117683Y57897D01*
X117841Y57739D01*
X118036Y57627D01*
X118252Y57569D01*
X118476D01*
X118692Y57627D01*
X118887Y57739D01*
X119045Y57897D01*
X119157Y58092D01*
X119215Y58308D01*
Y58532D01*
X119157Y58748D01*
X119045Y58943D01*
X118887Y59101D01*
X118692Y59213D01*
X118476Y59271D01*
X118252D01*
X118036Y59213D01*
X117841Y59101D01*
X117683Y58943D01*
X117571Y58748D01*
X117559Y58703D01*
X113909D01*
X110074Y62539D01*
Y69877D01*
X110118Y69886D01*
X110185Y69930D01*
X110230Y69997D01*
X110245Y70076D01*
Y71424D01*
X110230Y71503D01*
X110185Y71570D01*
X110118Y71614D01*
X110039Y71630D01*
D02*
G37*
G36*
X150033Y58210D02*
X149687D01*
X149353Y58120D01*
X149053Y57947D01*
X148809Y57703D01*
X148636Y57403D01*
X148547Y57069D01*
Y56723D01*
X148636Y56389D01*
X148809Y56090D01*
X149053Y55845D01*
X149353Y55672D01*
X149687Y55583D01*
X150033D01*
X150367Y55672D01*
X150667Y55845D01*
X150911Y56090D01*
X151084Y56389D01*
X151174Y56723D01*
Y57069D01*
X151084Y57403D01*
X150911Y57703D01*
X150667Y57947D01*
X150367Y58120D01*
X150033Y58210D01*
D02*
G37*
G36*
X140104Y50525D02*
X140100D01*
Y50100D01*
X140525D01*
Y50104D01*
X140445Y50297D01*
X140297Y50445D01*
X140104Y50525D01*
D02*
G37*
G36*
X139900D02*
X139896D01*
X139703Y50445D01*
X139555Y50297D01*
X139475Y50104D01*
Y50100D01*
X139900D01*
Y50525D01*
D02*
G37*
G36*
X130104D02*
X130100D01*
Y50100D01*
X130525D01*
Y50104D01*
X130445Y50297D01*
X130297Y50445D01*
X130104Y50525D01*
D02*
G37*
G36*
X129900D02*
X129896D01*
X129703Y50445D01*
X129555Y50297D01*
X129475Y50104D01*
Y50100D01*
X129900D01*
Y50525D01*
D02*
G37*
G36*
X120104D02*
X120100D01*
Y50100D01*
X120525D01*
Y50104D01*
X120445Y50297D01*
X120297Y50445D01*
X120104Y50525D01*
D02*
G37*
G36*
X119900D02*
X119896D01*
X119703Y50445D01*
X119555Y50297D01*
X119475Y50104D01*
Y50100D01*
X119900D01*
Y50525D01*
D02*
G37*
G36*
X110104D02*
X110100D01*
Y50100D01*
X110525D01*
Y50104D01*
X110445Y50297D01*
X110297Y50445D01*
X110104Y50525D01*
D02*
G37*
G36*
X109900D02*
X109896D01*
X109703Y50445D01*
X109555Y50297D01*
X109475Y50104D01*
Y50100D01*
X109900D01*
Y50525D01*
D02*
G37*
G36*
X100104D02*
X100100D01*
Y50100D01*
X100525D01*
Y50104D01*
X100445Y50297D01*
X100297Y50445D01*
X100104Y50525D01*
D02*
G37*
G36*
X99900D02*
X99896D01*
X99703Y50445D01*
X99555Y50297D01*
X99475Y50104D01*
Y50100D01*
X99900D01*
Y50525D01*
D02*
G37*
G36*
X89900D02*
X89896D01*
X89703Y50445D01*
X89555Y50297D01*
X89475Y50104D01*
Y50100D01*
X89900D01*
Y50525D01*
D02*
G37*
G36*
X70104D02*
X70100D01*
Y50100D01*
X70525D01*
Y50104D01*
X70445Y50297D01*
X70297Y50445D01*
X70104Y50525D01*
D02*
G37*
G36*
X69900D02*
X69896D01*
X69703Y50445D01*
X69555Y50297D01*
X69475Y50104D01*
Y50100D01*
X69900D01*
Y50525D01*
D02*
G37*
G36*
X60104D02*
X60100D01*
Y50100D01*
X60525D01*
Y50104D01*
X60445Y50297D01*
X60297Y50445D01*
X60104Y50525D01*
D02*
G37*
G36*
X59900D02*
X59896D01*
X59703Y50445D01*
X59555Y50297D01*
X59475Y50104D01*
Y50100D01*
X59900D01*
Y50525D01*
D02*
G37*
G36*
X50104D02*
X50100D01*
Y50100D01*
X50525D01*
Y50104D01*
X50445Y50297D01*
X50297Y50445D01*
X50104Y50525D01*
D02*
G37*
G36*
X49900D02*
X49896D01*
X49703Y50445D01*
X49555Y50297D01*
X49475Y50104D01*
Y50100D01*
X49900D01*
Y50525D01*
D02*
G37*
G36*
X40104D02*
X40100D01*
Y50100D01*
X40525D01*
Y50104D01*
X40445Y50297D01*
X40297Y50445D01*
X40104Y50525D01*
D02*
G37*
G36*
X39900D02*
X39896D01*
X39703Y50445D01*
X39555Y50297D01*
X39475Y50104D01*
Y50100D01*
X39900D01*
Y50525D01*
D02*
G37*
G36*
X30104D02*
X30100D01*
Y50100D01*
X30525D01*
Y50104D01*
X30445Y50297D01*
X30297Y50445D01*
X30104Y50525D01*
D02*
G37*
G36*
X29900D02*
X29896D01*
X29703Y50445D01*
X29555Y50297D01*
X29475Y50104D01*
Y50100D01*
X29900D01*
Y50525D01*
D02*
G37*
G36*
X20104D02*
X20100D01*
Y50100D01*
X20525D01*
Y50104D01*
X20445Y50297D01*
X20297Y50445D01*
X20104Y50525D01*
D02*
G37*
G36*
X19900D02*
X19896D01*
X19703Y50445D01*
X19555Y50297D01*
X19475Y50104D01*
Y50100D01*
X19900D01*
Y50525D01*
D02*
G37*
G36*
X10104D02*
X10100D01*
Y50100D01*
X10525D01*
Y50104D01*
X10445Y50297D01*
X10297Y50445D01*
X10104Y50525D01*
D02*
G37*
G36*
X9900D02*
X9896D01*
X9703Y50445D01*
X9555Y50297D01*
X9475Y50104D01*
Y50100D01*
X9900D01*
Y50525D01*
D02*
G37*
G36*
X140525Y49900D02*
X140100D01*
Y49475D01*
X140104D01*
X140297Y49555D01*
X140445Y49703D01*
X140525Y49896D01*
Y49900D01*
D02*
G37*
G36*
X139900D02*
X139475D01*
Y49896D01*
X139555Y49703D01*
X139703Y49555D01*
X139896Y49475D01*
X139900D01*
Y49900D01*
D02*
G37*
G36*
X130525D02*
X130100D01*
Y49475D01*
X130104D01*
X130297Y49555D01*
X130445Y49703D01*
X130525Y49896D01*
Y49900D01*
D02*
G37*
G36*
X129900D02*
X129475D01*
Y49896D01*
X129555Y49703D01*
X129703Y49555D01*
X129896Y49475D01*
X129900D01*
Y49900D01*
D02*
G37*
G36*
X120525D02*
X120100D01*
Y49475D01*
X120104D01*
X120297Y49555D01*
X120445Y49703D01*
X120525Y49896D01*
Y49900D01*
D02*
G37*
G36*
X119900D02*
X119475D01*
Y49896D01*
X119555Y49703D01*
X119703Y49555D01*
X119896Y49475D01*
X119900D01*
Y49900D01*
D02*
G37*
G36*
X110525D02*
X110100D01*
Y49475D01*
X110104D01*
X110297Y49555D01*
X110445Y49703D01*
X110525Y49896D01*
Y49900D01*
D02*
G37*
G36*
X109900D02*
X109475D01*
Y49896D01*
X109555Y49703D01*
X109703Y49555D01*
X109896Y49475D01*
X109900D01*
Y49900D01*
D02*
G37*
G36*
X100525D02*
X100100D01*
Y49475D01*
X100104D01*
X100297Y49555D01*
X100445Y49703D01*
X100525Y49896D01*
Y49900D01*
D02*
G37*
G36*
X99900D02*
X99475D01*
Y49896D01*
X99555Y49703D01*
X99703Y49555D01*
X99896Y49475D01*
X99900D01*
Y49900D01*
D02*
G37*
G36*
X89900D02*
X89475D01*
Y49896D01*
X89555Y49703D01*
X89703Y49555D01*
X89896Y49475D01*
X89900D01*
Y49900D01*
D02*
G37*
G36*
X70525D02*
X70100D01*
Y49475D01*
X70104D01*
X70297Y49555D01*
X70445Y49703D01*
X70525Y49896D01*
Y49900D01*
D02*
G37*
G36*
X69900D02*
X69475D01*
Y49896D01*
X69555Y49703D01*
X69703Y49555D01*
X69896Y49475D01*
X69900D01*
Y49900D01*
D02*
G37*
G36*
X60525D02*
X60100D01*
Y49475D01*
X60104D01*
X60297Y49555D01*
X60445Y49703D01*
X60525Y49896D01*
Y49900D01*
D02*
G37*
G36*
X59900D02*
X59475D01*
Y49896D01*
X59555Y49703D01*
X59703Y49555D01*
X59896Y49475D01*
X59900D01*
Y49900D01*
D02*
G37*
G36*
X50525D02*
X50100D01*
Y49475D01*
X50104D01*
X50297Y49555D01*
X50445Y49703D01*
X50525Y49896D01*
Y49900D01*
D02*
G37*
G36*
X49900D02*
X49475D01*
Y49896D01*
X49555Y49703D01*
X49703Y49555D01*
X49896Y49475D01*
X49900D01*
Y49900D01*
D02*
G37*
G36*
X40525D02*
X40100D01*
Y49475D01*
X40104D01*
X40297Y49555D01*
X40445Y49703D01*
X40525Y49896D01*
Y49900D01*
D02*
G37*
G36*
X39900D02*
X39475D01*
Y49896D01*
X39555Y49703D01*
X39703Y49555D01*
X39896Y49475D01*
X39900D01*
Y49900D01*
D02*
G37*
G36*
X30525D02*
X30100D01*
Y49475D01*
X30104D01*
X30297Y49555D01*
X30445Y49703D01*
X30525Y49896D01*
Y49900D01*
D02*
G37*
G36*
X29900D02*
X29475D01*
Y49896D01*
X29555Y49703D01*
X29703Y49555D01*
X29896Y49475D01*
X29900D01*
Y49900D01*
D02*
G37*
G36*
X20525D02*
X20100D01*
Y49475D01*
X20104D01*
X20297Y49555D01*
X20445Y49703D01*
X20525Y49896D01*
Y49900D01*
D02*
G37*
G36*
X19900D02*
X19475D01*
Y49896D01*
X19555Y49703D01*
X19703Y49555D01*
X19896Y49475D01*
X19900D01*
Y49900D01*
D02*
G37*
G36*
X10525D02*
X10100D01*
Y49475D01*
X10104D01*
X10297Y49555D01*
X10445Y49703D01*
X10525Y49896D01*
Y49900D01*
D02*
G37*
G36*
X9900D02*
X9475D01*
Y49896D01*
X9555Y49703D01*
X9703Y49555D01*
X9896Y49475D01*
X9900D01*
Y49900D01*
D02*
G37*
G36*
X144168Y56407D02*
X141836D01*
Y52305D01*
X142788D01*
Y46268D01*
X141313D01*
Y46736D01*
X139611D01*
Y45234D01*
X141313D01*
Y45702D01*
X142788D01*
Y45540D01*
X142397D01*
X142318Y45524D01*
X142251Y45480D01*
X142207Y45413D01*
X142191Y45334D01*
Y44836D01*
X142207Y44757D01*
X142251Y44690D01*
X142318Y44646D01*
X142397Y44630D01*
X143745D01*
X143824Y44646D01*
X143891Y44690D01*
X143935Y44757D01*
X143951Y44836D01*
Y45334D01*
X143935Y45413D01*
X143891Y45480D01*
X143824Y45524D01*
X143745Y45540D01*
X143354D01*
Y45974D01*
Y52305D01*
X144168D01*
Y56407D01*
D02*
G37*
G36*
X72121Y84063D02*
X70419D01*
Y82561D01*
X72121D01*
Y82841D01*
X73224D01*
Y82673D01*
X73667D01*
Y81752D01*
X73688Y81644D01*
X73750Y81552D01*
X74697Y80604D01*
X74701Y80498D01*
X74687Y80429D01*
X74555Y80297D01*
X74475Y80104D01*
Y80100D01*
X75525D01*
Y80104D01*
X75445Y80297D01*
X75373Y80370D01*
X75435Y80521D01*
X77574D01*
X81949Y76147D01*
Y46618D01*
X81828Y46498D01*
X81756Y46323D01*
Y46133D01*
X81828Y45958D01*
X81962Y45824D01*
X82137Y45752D01*
X82327D01*
X82502Y45824D01*
X82636Y45958D01*
X82708Y46133D01*
Y46323D01*
X82636Y46498D01*
X82515Y46618D01*
Y76264D01*
X82494Y76372D01*
X82432Y76464D01*
X77892Y81005D01*
X77800Y81066D01*
X77692Y81088D01*
X75015D01*
X74233Y81869D01*
Y82673D01*
X74676D01*
Y83575D01*
X73224D01*
Y83407D01*
X72121D01*
Y84063D01*
D02*
G37*
G36*
X146907Y45561D02*
X146717D01*
X146542Y45489D01*
X146408Y45355D01*
X146336Y45180D01*
Y44990D01*
X146408Y44815D01*
X146542Y44681D01*
X146717Y44609D01*
X146907D01*
X147069Y44676D01*
X147723D01*
X147768Y44646D01*
X147847Y44630D01*
X149195D01*
X149274Y44646D01*
X149341Y44690D01*
X149385Y44757D01*
X149401Y44836D01*
Y45334D01*
X149385Y45413D01*
X149341Y45480D01*
X149274Y45524D01*
X149195Y45540D01*
X147847D01*
X147768Y45524D01*
X147723Y45494D01*
X147069D01*
X146907Y45561D01*
D02*
G37*
G36*
X141313Y44936D02*
X139611D01*
Y43434D01*
X141313D01*
Y43902D01*
X141624D01*
X141911Y43615D01*
X142003Y43553D01*
X142111Y43532D01*
X142198D01*
X142207Y43487D01*
X142251Y43420D01*
X142318Y43376D01*
X142397Y43360D01*
X143745D01*
X143824Y43376D01*
X143891Y43420D01*
X143935Y43487D01*
X143944Y43532D01*
X144390D01*
X144510Y43411D01*
X144685Y43339D01*
X144875D01*
X145050Y43411D01*
X145184Y43545D01*
X145256Y43720D01*
Y43910D01*
X145184Y44085D01*
X145050Y44219D01*
X144875Y44291D01*
X144685D01*
X144510Y44219D01*
X144390Y44098D01*
X143944D01*
X143935Y44143D01*
X143891Y44210D01*
X143824Y44254D01*
X143745Y44270D01*
X142397D01*
X142318Y44254D01*
X142251Y44210D01*
X142089Y44238D01*
X141941Y44385D01*
X141849Y44447D01*
X141741Y44468D01*
X141313D01*
Y44936D01*
D02*
G37*
G36*
X143745Y43050D02*
X143171D01*
Y42645D01*
X144001D01*
Y42794D01*
X143981Y42892D01*
X143926Y42975D01*
X143843Y43030D01*
X143745Y43050D01*
D02*
G37*
G36*
X142971D02*
X142397D01*
X142299Y43030D01*
X142216Y42975D01*
X142161Y42892D01*
X142141Y42794D01*
Y42645D01*
X142971D01*
Y43050D01*
D02*
G37*
G36*
X141362Y43146D02*
X140562D01*
Y42496D01*
X141362D01*
Y43146D01*
D02*
G37*
G36*
X140362D02*
X139562D01*
Y42496D01*
X140362D01*
Y43146D01*
D02*
G37*
G36*
X144001Y42445D02*
X143171D01*
Y42040D01*
X143745D01*
X143843Y42060D01*
X143926Y42115D01*
X143981Y42198D01*
X144001Y42296D01*
Y42445D01*
D02*
G37*
G36*
X142971D02*
X142141D01*
Y42296D01*
X142161Y42198D01*
X142216Y42115D01*
X142299Y42060D01*
X142397Y42040D01*
X142971D01*
Y42445D01*
D02*
G37*
G36*
X149195Y41780D02*
X148621D01*
Y41375D01*
X149451D01*
Y41524D01*
X149431Y41622D01*
X149376Y41705D01*
X149293Y41760D01*
X149195Y41780D01*
D02*
G37*
G36*
X148421D02*
X147847D01*
X147749Y41760D01*
X147666Y41705D01*
X147611Y41622D01*
X147591Y41524D01*
Y41375D01*
X148421D01*
Y41780D01*
D02*
G37*
G36*
X141362Y42296D02*
X139562D01*
Y41728D01*
X139562Y41646D01*
X139611Y41515D01*
Y41412D01*
X139504Y41305D01*
X132083D01*
X131921Y41372D01*
X131731D01*
X131556Y41300D01*
X131422Y41166D01*
X131350Y40991D01*
Y40801D01*
X131422Y40626D01*
X131556Y40492D01*
X131731Y40420D01*
X131921D01*
X132083Y40487D01*
X134531D01*
X134594Y40336D01*
X134555Y40297D01*
X134475Y40104D01*
Y40100D01*
X135525D01*
Y40104D01*
X135445Y40297D01*
X135406Y40336D01*
X135469Y40487D01*
X139611D01*
Y40195D01*
X141313D01*
Y40487D01*
X141732D01*
X141888Y40518D01*
X142021Y40607D01*
X142277Y40863D01*
X142318Y40836D01*
X142397Y40820D01*
X143745D01*
X143824Y40836D01*
X143891Y40880D01*
X143935Y40947D01*
X143951Y41026D01*
Y41524D01*
X143935Y41603D01*
X143891Y41670D01*
X143824Y41714D01*
X143745Y41730D01*
X142397D01*
X142318Y41714D01*
X142273Y41684D01*
X142111D01*
X141955Y41653D01*
X141822Y41564D01*
X141568Y41311D01*
X141414D01*
X141313Y41412D01*
Y41515D01*
X141362Y41646D01*
X141362Y41728D01*
Y42296D01*
D02*
G37*
G36*
X149451Y41175D02*
X148621D01*
Y40770D01*
X149195D01*
X149293Y40790D01*
X149376Y40845D01*
X149431Y40928D01*
X149451Y41026D01*
Y41175D01*
D02*
G37*
G36*
X148421D02*
X147591D01*
Y41026D01*
X147611Y40928D01*
X147666Y40845D01*
X147749Y40790D01*
X147847Y40770D01*
X148421D01*
Y41175D01*
D02*
G37*
G36*
X89757Y43148D02*
X89567D01*
X89392Y43076D01*
X89258Y42942D01*
X89186Y42767D01*
Y42577D01*
X89253Y42415D01*
Y41825D01*
X87651Y40223D01*
X87125D01*
X86963Y40290D01*
X86773D01*
X86766Y40287D01*
X86117D01*
Y40729D01*
X84615D01*
Y39027D01*
X86117D01*
Y39469D01*
X86540D01*
X86598Y39410D01*
X86773Y39338D01*
X86963D01*
X87125Y39405D01*
X87820D01*
X87976Y39436D01*
X88109Y39525D01*
X89951Y41367D01*
X90040Y41500D01*
X90071Y41656D01*
Y42415D01*
X90138Y42577D01*
Y42767D01*
X90066Y42942D01*
X89932Y43076D01*
X89757Y43148D01*
D02*
G37*
G36*
X125104Y40525D02*
X125100D01*
Y40100D01*
X125525D01*
Y40104D01*
X125445Y40297D01*
X125297Y40445D01*
X125104Y40525D01*
D02*
G37*
G36*
X124900D02*
X124896D01*
X124703Y40445D01*
X124555Y40297D01*
X124475Y40104D01*
Y40100D01*
X124900D01*
Y40525D01*
D02*
G37*
G36*
X115104D02*
X115100D01*
Y40100D01*
X115525D01*
Y40104D01*
X115445Y40297D01*
X115297Y40445D01*
X115104Y40525D01*
D02*
G37*
G36*
X114900D02*
X114896D01*
X114703Y40445D01*
X114555Y40297D01*
X114475Y40104D01*
Y40100D01*
X114900D01*
Y40525D01*
D02*
G37*
G36*
X105104D02*
X105100D01*
Y40100D01*
X105525D01*
Y40104D01*
X105445Y40297D01*
X105297Y40445D01*
X105104Y40525D01*
D02*
G37*
G36*
X104900D02*
X104896D01*
X104703Y40445D01*
X104555Y40297D01*
X104475Y40104D01*
Y40100D01*
X104900D01*
Y40525D01*
D02*
G37*
G36*
X95104D02*
X95100D01*
Y40100D01*
X95525D01*
Y40104D01*
X95445Y40297D01*
X95297Y40445D01*
X95104Y40525D01*
D02*
G37*
G36*
X94900D02*
X94896D01*
X94703Y40445D01*
X94555Y40297D01*
X94475Y40104D01*
Y40100D01*
X94900D01*
Y40525D01*
D02*
G37*
G36*
X75104D02*
X75100D01*
Y40100D01*
X75525D01*
Y40104D01*
X75445Y40297D01*
X75297Y40445D01*
X75104Y40525D01*
D02*
G37*
G36*
X74900D02*
X74896D01*
X74703Y40445D01*
X74555Y40297D01*
X74475Y40104D01*
Y40100D01*
X74900D01*
Y40525D01*
D02*
G37*
G36*
X35104D02*
X35100D01*
Y40100D01*
X35525D01*
Y40104D01*
X35445Y40297D01*
X35297Y40445D01*
X35104Y40525D01*
D02*
G37*
G36*
X34900D02*
X34896D01*
X34703Y40445D01*
X34555Y40297D01*
X34475Y40104D01*
Y40100D01*
X34900D01*
Y40525D01*
D02*
G37*
G36*
X25104D02*
X25100D01*
Y40100D01*
X25525D01*
Y40104D01*
X25445Y40297D01*
X25297Y40445D01*
X25104Y40525D01*
D02*
G37*
G36*
X24900D02*
X24896D01*
X24703Y40445D01*
X24555Y40297D01*
X24475Y40104D01*
Y40100D01*
X24900D01*
Y40525D01*
D02*
G37*
G36*
X15104D02*
X15100D01*
Y40100D01*
X15525D01*
Y40104D01*
X15445Y40297D01*
X15297Y40445D01*
X15104Y40525D01*
D02*
G37*
G36*
X14900D02*
X14896D01*
X14703Y40445D01*
X14555Y40297D01*
X14475Y40104D01*
Y40100D01*
X14900D01*
Y40525D01*
D02*
G37*
G36*
X135525Y39900D02*
X135100D01*
Y39475D01*
X135104D01*
X135297Y39555D01*
X135445Y39703D01*
X135525Y39896D01*
Y39900D01*
D02*
G37*
G36*
X134900D02*
X134475D01*
Y39896D01*
X134555Y39703D01*
X134703Y39555D01*
X134896Y39475D01*
X134900D01*
Y39900D01*
D02*
G37*
G36*
X125525D02*
X125100D01*
Y39475D01*
X125104D01*
X125297Y39555D01*
X125445Y39703D01*
X125525Y39896D01*
Y39900D01*
D02*
G37*
G36*
X124900D02*
X124475D01*
Y39896D01*
X124555Y39703D01*
X124703Y39555D01*
X124896Y39475D01*
X124900D01*
Y39900D01*
D02*
G37*
G36*
X115525D02*
X115100D01*
Y39475D01*
X115104D01*
X115297Y39555D01*
X115445Y39703D01*
X115525Y39896D01*
Y39900D01*
D02*
G37*
G36*
X114900D02*
X114475D01*
Y39896D01*
X114555Y39703D01*
X114703Y39555D01*
X114896Y39475D01*
X114900D01*
Y39900D01*
D02*
G37*
G36*
X105525D02*
X105100D01*
Y39475D01*
X105104D01*
X105297Y39555D01*
X105445Y39703D01*
X105525Y39896D01*
Y39900D01*
D02*
G37*
G36*
X104900D02*
X104475D01*
Y39896D01*
X104555Y39703D01*
X104703Y39555D01*
X104896Y39475D01*
X104900D01*
Y39900D01*
D02*
G37*
G36*
X95525D02*
X95100D01*
Y39475D01*
X95104D01*
X95297Y39555D01*
X95445Y39703D01*
X95525Y39896D01*
Y39900D01*
D02*
G37*
G36*
X94900D02*
X94475D01*
Y39896D01*
X94555Y39703D01*
X94703Y39555D01*
X94896Y39475D01*
X94900D01*
Y39900D01*
D02*
G37*
G36*
X75525D02*
X75100D01*
Y39475D01*
X75104D01*
X75297Y39555D01*
X75445Y39703D01*
X75525Y39896D01*
Y39900D01*
D02*
G37*
G36*
X74900D02*
X74475D01*
Y39896D01*
X74555Y39703D01*
X74703Y39555D01*
X74896Y39475D01*
X74900D01*
Y39900D01*
D02*
G37*
G36*
X35525D02*
X35100D01*
Y39475D01*
X35104D01*
X35297Y39555D01*
X35445Y39703D01*
X35525Y39896D01*
Y39900D01*
D02*
G37*
G36*
X34900D02*
X34475D01*
Y39896D01*
X34555Y39703D01*
X34703Y39555D01*
X34896Y39475D01*
X34900D01*
Y39900D01*
D02*
G37*
G36*
X25525D02*
X25100D01*
Y39475D01*
X25104D01*
X25297Y39555D01*
X25445Y39703D01*
X25525Y39896D01*
Y39900D01*
D02*
G37*
G36*
X24900D02*
X24475D01*
Y39896D01*
X24555Y39703D01*
X24703Y39555D01*
X24896Y39475D01*
X24900D01*
Y39900D01*
D02*
G37*
G36*
X15525D02*
X15100D01*
Y39475D01*
X15104D01*
X15297Y39555D01*
X15445Y39703D01*
X15525Y39896D01*
Y39900D01*
D02*
G37*
G36*
X14900D02*
X14475D01*
Y39896D01*
X14555Y39703D01*
X14703Y39555D01*
X14896Y39475D01*
X14900D01*
Y39900D01*
D02*
G37*
G36*
X144946Y40016D02*
X144296D01*
Y39216D01*
X144946D01*
Y40016D01*
D02*
G37*
G36*
X145796Y40016D02*
Y40016D01*
X145146D01*
Y39116D01*
Y38216D01*
X145188D01*
X145245Y38076D01*
X144916Y37747D01*
X134877D01*
X134715Y37814D01*
X134525D01*
X134350Y37742D01*
X134216Y37608D01*
X134144Y37433D01*
Y37243D01*
X134216Y37068D01*
X134350Y36934D01*
X134525Y36862D01*
X134715D01*
X134877Y36929D01*
X145085D01*
X145242Y36960D01*
X145374Y37049D01*
X146535Y38210D01*
X146572Y38265D01*
X147247D01*
Y38707D01*
X147571D01*
X147733Y38640D01*
X147923D01*
X148098Y38712D01*
X148232Y38846D01*
X148304Y39021D01*
Y39211D01*
X148232Y39386D01*
X148098Y39520D01*
X147923Y39592D01*
X147733D01*
X147571Y39525D01*
X147247D01*
Y39967D01*
X145927D01*
X145796Y40016D01*
X145796Y40016D01*
D02*
G37*
G36*
X144946Y39016D02*
X144296D01*
Y38216D01*
X144946D01*
Y39016D01*
D02*
G37*
G36*
X81007Y37730D02*
X80732D01*
Y36930D01*
X81007D01*
Y37730D01*
D02*
G37*
G36*
X86032D02*
X85757D01*
Y36930D01*
X86032D01*
Y37730D01*
D02*
G37*
G36*
Y36730D02*
X85757D01*
Y35930D01*
X86032D01*
Y36730D01*
D02*
G37*
G36*
X85557Y37730D02*
X85107D01*
Y36830D01*
Y35930D01*
X85557D01*
Y36830D01*
Y37730D01*
D02*
G37*
G36*
X84907D02*
X84457D01*
Y36830D01*
Y35930D01*
X84907D01*
Y36830D01*
Y37730D01*
D02*
G37*
G36*
X81007Y36730D02*
X80732D01*
Y35930D01*
X81007D01*
Y36730D01*
D02*
G37*
G36*
X69467Y35748D02*
X69442D01*
Y34898D01*
X70292D01*
Y34923D01*
X70227Y35165D01*
X70102Y35381D01*
X69925Y35558D01*
X69709Y35683D01*
X69467Y35748D01*
D02*
G37*
G36*
X69242D02*
X69217D01*
X68975Y35683D01*
X68759Y35558D01*
X68582Y35381D01*
X68457Y35165D01*
X68392Y34923D01*
Y34898D01*
X69242D01*
Y35748D01*
D02*
G37*
G36*
X100834Y36411D02*
X100610D01*
X100394Y36353D01*
X100199Y36241D01*
X100041Y36083D01*
X99929Y35888D01*
X99917Y35843D01*
X97028D01*
X96920Y35822D01*
X96828Y35760D01*
X90793Y29726D01*
X90752Y29749D01*
X90536Y29807D01*
X90312D01*
X90096Y29749D01*
X89901Y29637D01*
X89743Y29479D01*
X89631Y29284D01*
X89573Y29068D01*
Y28844D01*
X89631Y28628D01*
X89743Y28433D01*
X89901Y28275D01*
X90096Y28163D01*
X90312Y28105D01*
X90536D01*
X90752Y28163D01*
X90947Y28275D01*
X91105Y28433D01*
X91217Y28628D01*
X91275Y28844D01*
Y29068D01*
X91217Y29284D01*
X91194Y29325D01*
X97145Y35277D01*
X99917D01*
X99929Y35232D01*
X100041Y35037D01*
X100199Y34879D01*
X100394Y34767D01*
X100610Y34709D01*
X100834D01*
X101050Y34767D01*
X101245Y34879D01*
X101403Y35037D01*
X101515Y35232D01*
X101573Y35448D01*
Y35672D01*
X101515Y35888D01*
X101403Y36083D01*
X101245Y36241D01*
X101050Y36353D01*
X100834Y36411D01*
D02*
G37*
G36*
X66921Y35699D02*
X66683D01*
X66454Y35638D01*
X66249Y35519D01*
X66081Y35351D01*
X65962Y35146D01*
X65901Y34917D01*
Y34679D01*
X65962Y34450D01*
X66081Y34245D01*
X66249Y34077D01*
X66454Y33958D01*
X66683Y33897D01*
X66921D01*
X67150Y33958D01*
X67355Y34077D01*
X67523Y34245D01*
X67642Y34450D01*
X67703Y34679D01*
Y34917D01*
X67642Y35146D01*
X67523Y35351D01*
X67355Y35519D01*
X67150Y35638D01*
X66921Y35699D01*
D02*
G37*
G36*
X51681D02*
X51443D01*
X51214Y35638D01*
X51009Y35519D01*
X50841Y35351D01*
X50722Y35146D01*
X50661Y34917D01*
Y34679D01*
X50722Y34450D01*
X50841Y34245D01*
X51009Y34077D01*
X51214Y33958D01*
X51443Y33897D01*
X51681D01*
X51910Y33958D01*
X52115Y34077D01*
X52283Y34245D01*
X52402Y34450D01*
X52463Y34679D01*
Y34917D01*
X52402Y35146D01*
X52283Y35351D01*
X52115Y35519D01*
X51910Y35638D01*
X51681Y35699D01*
D02*
G37*
G36*
X49141D02*
X48903D01*
X48674Y35638D01*
X48469Y35519D01*
X48301Y35351D01*
X48182Y35146D01*
X48121Y34917D01*
Y34679D01*
X48182Y34450D01*
X48301Y34245D01*
X48469Y34077D01*
X48674Y33958D01*
X48903Y33897D01*
X49141D01*
X49370Y33958D01*
X49575Y34077D01*
X49743Y34245D01*
X49862Y34450D01*
X49923Y34679D01*
Y34917D01*
X49862Y35146D01*
X49743Y35351D01*
X49575Y35519D01*
X49370Y35638D01*
X49141Y35699D01*
D02*
G37*
G36*
X41521D02*
X41283D01*
X41054Y35638D01*
X40849Y35519D01*
X40681Y35351D01*
X40562Y35146D01*
X40501Y34917D01*
Y34679D01*
X40562Y34450D01*
X40681Y34245D01*
X40849Y34077D01*
X41054Y33958D01*
X41283Y33897D01*
X41521D01*
X41750Y33958D01*
X41955Y34077D01*
X42123Y34245D01*
X42242Y34450D01*
X42303Y34679D01*
Y34917D01*
X42242Y35146D01*
X42123Y35351D01*
X41955Y35519D01*
X41750Y35638D01*
X41521Y35699D01*
D02*
G37*
G36*
X38981D02*
X38743D01*
X38514Y35638D01*
X38309Y35519D01*
X38141Y35351D01*
X38022Y35146D01*
X37961Y34917D01*
Y34679D01*
X38022Y34450D01*
X38141Y34245D01*
X38309Y34077D01*
X38514Y33958D01*
X38743Y33897D01*
X38981D01*
X39210Y33958D01*
X39415Y34077D01*
X39583Y34245D01*
X39702Y34450D01*
X39763Y34679D01*
Y34917D01*
X39702Y35146D01*
X39583Y35351D01*
X39415Y35519D01*
X39210Y35638D01*
X38981Y35699D01*
D02*
G37*
G36*
X36441D02*
X36203D01*
X35974Y35638D01*
X35769Y35519D01*
X35601Y35351D01*
X35482Y35146D01*
X35421Y34917D01*
Y34679D01*
X35482Y34450D01*
X35601Y34245D01*
X35769Y34077D01*
X35974Y33958D01*
X36203Y33897D01*
X36441D01*
X36670Y33958D01*
X36875Y34077D01*
X37043Y34245D01*
X37162Y34450D01*
X37223Y34679D01*
Y34917D01*
X37162Y35146D01*
X37043Y35351D01*
X36875Y35519D01*
X36670Y35638D01*
X36441Y35699D01*
D02*
G37*
G36*
X31361D02*
X31123D01*
X30894Y35638D01*
X30689Y35519D01*
X30521Y35351D01*
X30402Y35146D01*
X30341Y34917D01*
Y34679D01*
X30402Y34450D01*
X30521Y34245D01*
X30689Y34077D01*
X30894Y33958D01*
X31123Y33897D01*
X31361D01*
X31590Y33958D01*
X31795Y34077D01*
X31963Y34245D01*
X32082Y34450D01*
X32143Y34679D01*
Y34917D01*
X32082Y35146D01*
X31963Y35351D01*
X31795Y35519D01*
X31590Y35638D01*
X31361Y35699D01*
D02*
G37*
G36*
X70292Y34698D02*
X69442D01*
Y33848D01*
X69467D01*
X69709Y33913D01*
X69925Y34038D01*
X70102Y34215D01*
X70227Y34431D01*
X70292Y34673D01*
Y34698D01*
D02*
G37*
G36*
X69242D02*
X68392D01*
Y34673D01*
X68457Y34431D01*
X68582Y34215D01*
X68759Y34038D01*
X68975Y33913D01*
X69217Y33848D01*
X69242D01*
Y34698D01*
D02*
G37*
G36*
X145509Y35649D02*
X144007D01*
Y33947D01*
X144497D01*
Y33664D01*
X144376Y33544D01*
X144304Y33369D01*
Y33179D01*
X144376Y33004D01*
X144510Y32870D01*
X144685Y32798D01*
X144875D01*
X145050Y32870D01*
X145184Y33004D01*
X145256Y33179D01*
Y33369D01*
X145184Y33544D01*
X145063Y33664D01*
Y33947D01*
X145509D01*
Y35649D01*
D02*
G37*
G36*
X76090Y38949D02*
X75594D01*
X75104Y38871D01*
X74632Y38718D01*
X74191Y38493D01*
X73789Y38201D01*
X73439Y37851D01*
X73147Y37449D01*
X72922Y37008D01*
X72769Y36536D01*
X72691Y36046D01*
Y35550D01*
X72769Y35060D01*
X72922Y34588D01*
X73147Y34147D01*
X73439Y33745D01*
X73789Y33395D01*
X74191Y33103D01*
X74632Y32878D01*
X75104Y32725D01*
X75594Y32647D01*
X76090D01*
X76580Y32725D01*
X77052Y32878D01*
X77493Y33103D01*
X77895Y33395D01*
X78245Y33745D01*
X78537Y34147D01*
X78762Y34588D01*
X78915Y35060D01*
X78993Y35550D01*
Y36046D01*
X78915Y36536D01*
X78762Y37008D01*
X78537Y37449D01*
X78245Y37851D01*
X77895Y38201D01*
X77493Y38493D01*
X77052Y38718D01*
X76580Y38871D01*
X76090Y38949D01*
D02*
G37*
G36*
X6090D02*
X5594D01*
X5104Y38871D01*
X4632Y38718D01*
X4191Y38493D01*
X3789Y38201D01*
X3439Y37851D01*
X3147Y37449D01*
X2922Y37008D01*
X2769Y36536D01*
X2691Y36046D01*
Y35550D01*
X2769Y35060D01*
X2922Y34588D01*
X3147Y34147D01*
X3439Y33745D01*
X3789Y33395D01*
X4191Y33103D01*
X4632Y32878D01*
X5104Y32725D01*
X5594Y32647D01*
X6090D01*
X6580Y32725D01*
X7052Y32878D01*
X7493Y33103D01*
X7895Y33395D01*
X8245Y33745D01*
X8537Y34147D01*
X8762Y34588D01*
X8915Y35060D01*
X8993Y35550D01*
Y36046D01*
X8915Y36536D01*
X8762Y37008D01*
X8537Y37449D01*
X8245Y37851D01*
X7895Y38201D01*
X7493Y38493D01*
X7052Y38718D01*
X6580Y38871D01*
X6090Y38949D01*
D02*
G37*
G36*
X69183Y31464D02*
X68993D01*
X68831Y31397D01*
X64773D01*
X64611Y31464D01*
X64421D01*
X64246Y31392D01*
X64112Y31258D01*
X64040Y31083D01*
Y30893D01*
X64112Y30718D01*
X64246Y30584D01*
X64421Y30512D01*
X64611D01*
X64773Y30579D01*
X68831D01*
X68993Y30512D01*
X69183D01*
X69358Y30584D01*
X69492Y30718D01*
X69564Y30893D01*
Y31083D01*
X69492Y31258D01*
X69358Y31392D01*
X69183Y31464D01*
D02*
G37*
G36*
X114412Y38951D02*
X114188D01*
X113972Y38893D01*
X113777Y38781D01*
X113619Y38623D01*
X113507Y38428D01*
X113449Y38212D01*
Y37988D01*
X113507Y37772D01*
X113619Y37577D01*
X113777Y37419D01*
X113972Y37307D01*
X114017Y37295D01*
Y32121D01*
X112844Y30948D01*
X112596D01*
Y31339D01*
X112580Y31418D01*
X112536Y31485D01*
X112469Y31529D01*
X112390Y31545D01*
X111892D01*
X111813Y31529D01*
X111746Y31485D01*
X111702Y31418D01*
X111686Y31339D01*
Y29991D01*
X111702Y29912D01*
X111746Y29845D01*
X111813Y29801D01*
X111892Y29785D01*
X112390D01*
X112469Y29801D01*
X112536Y29845D01*
X112580Y29912D01*
X112596Y29991D01*
Y30382D01*
X112961D01*
X113069Y30403D01*
X113161Y30465D01*
X114417Y31721D01*
X117559D01*
X117571Y31676D01*
X117683Y31481D01*
X117841Y31323D01*
X118036Y31211D01*
X118252Y31153D01*
X118476D01*
X118692Y31211D01*
X118887Y31323D01*
X119045Y31481D01*
X119157Y31676D01*
X119215Y31892D01*
Y32116D01*
X119157Y32332D01*
X119045Y32527D01*
X118887Y32685D01*
X118692Y32797D01*
X118476Y32855D01*
X118252D01*
X118036Y32797D01*
X117841Y32685D01*
X117683Y32527D01*
X117571Y32332D01*
X117559Y32287D01*
X114583D01*
Y37295D01*
X114628Y37307D01*
X114823Y37419D01*
X114981Y37577D01*
X115093Y37772D01*
X115151Y37988D01*
Y38212D01*
X115093Y38428D01*
X114981Y38623D01*
X114823Y38781D01*
X114628Y38893D01*
X114412Y38951D01*
D02*
G37*
G36*
X109850Y31595D02*
X109701D01*
Y30765D01*
X110106D01*
Y31339D01*
X110086Y31437D01*
X110031Y31520D01*
X109948Y31575D01*
X109850Y31595D01*
D02*
G37*
G36*
X109501D02*
X109352D01*
X109254Y31575D01*
X109171Y31520D01*
X109116Y31437D01*
X109096Y31339D01*
Y30765D01*
X109501D01*
Y31595D01*
D02*
G37*
G36*
X53689Y31464D02*
X53499D01*
X53337Y31397D01*
X49022D01*
X48866Y31366D01*
X48733Y31277D01*
X46701Y29245D01*
X46612Y29112D01*
X46581Y28956D01*
Y21707D01*
X46514Y21545D01*
Y21355D01*
X46586Y21180D01*
X46720Y21046D01*
X46895Y20974D01*
X47085D01*
X47260Y21046D01*
X47394Y21180D01*
X47466Y21355D01*
Y21545D01*
X47399Y21707D01*
Y28787D01*
X49191Y30579D01*
X49639D01*
X49673Y30508D01*
X49686Y30428D01*
X49555Y30297D01*
X49475Y30104D01*
Y30100D01*
X50525D01*
Y30104D01*
X50445Y30297D01*
X50314Y30428D01*
X50327Y30508D01*
X50361Y30579D01*
X53337D01*
X53499Y30512D01*
X53689D01*
X53864Y30584D01*
X53998Y30718D01*
X54070Y30893D01*
Y31083D01*
X53998Y31258D01*
X53864Y31392D01*
X53689Y31464D01*
D02*
G37*
G36*
X140104Y30525D02*
X140100D01*
Y30100D01*
X140525D01*
Y30104D01*
X140445Y30297D01*
X140297Y30445D01*
X140104Y30525D01*
D02*
G37*
G36*
X139900D02*
X139896D01*
X139703Y30445D01*
X139555Y30297D01*
X139475Y30104D01*
Y30100D01*
X139900D01*
Y30525D01*
D02*
G37*
G36*
X130104D02*
X130100D01*
Y30100D01*
X130525D01*
Y30104D01*
X130445Y30297D01*
X130297Y30445D01*
X130104Y30525D01*
D02*
G37*
G36*
X129900D02*
X129896D01*
X129703Y30445D01*
X129555Y30297D01*
X129475Y30104D01*
Y30100D01*
X129900D01*
Y30525D01*
D02*
G37*
G36*
X99900D02*
X99896D01*
X99703Y30445D01*
X99555Y30297D01*
X99475Y30104D01*
Y30100D01*
X99900D01*
Y30525D01*
D02*
G37*
G36*
X40104D02*
X40100D01*
Y30100D01*
X40525D01*
Y30104D01*
X40445Y30297D01*
X40297Y30445D01*
X40104Y30525D01*
D02*
G37*
G36*
X39900D02*
X39896D01*
X39703Y30445D01*
X39555Y30297D01*
X39475Y30104D01*
Y30100D01*
X39900D01*
Y30525D01*
D02*
G37*
G36*
X30104D02*
X30100D01*
Y30100D01*
X30525D01*
Y30104D01*
X30445Y30297D01*
X30297Y30445D01*
X30104Y30525D01*
D02*
G37*
G36*
X29900D02*
X29896D01*
X29703Y30445D01*
X29555Y30297D01*
X29475Y30104D01*
Y30100D01*
X29900D01*
Y30525D01*
D02*
G37*
G36*
X20104D02*
X20100D01*
Y30100D01*
X20525D01*
Y30104D01*
X20445Y30297D01*
X20297Y30445D01*
X20104Y30525D01*
D02*
G37*
G36*
X19900D02*
X19896D01*
X19703Y30445D01*
X19555Y30297D01*
X19475Y30104D01*
Y30100D01*
X19900D01*
Y30525D01*
D02*
G37*
G36*
X10104D02*
X10100D01*
Y30100D01*
X10525D01*
Y30104D01*
X10445Y30297D01*
X10297Y30445D01*
X10104Y30525D01*
D02*
G37*
G36*
X9900D02*
X9896D01*
X9703Y30445D01*
X9555Y30297D01*
X9475Y30104D01*
Y30100D01*
X9900D01*
Y30525D01*
D02*
G37*
G36*
X104252Y38951D02*
X104028D01*
X103812Y38893D01*
X103617Y38781D01*
X103459Y38623D01*
X103347Y38428D01*
X103289Y38212D01*
Y37988D01*
X103347Y37772D01*
X103459Y37577D01*
X103617Y37419D01*
X103812Y37307D01*
X103857Y37295D01*
Y33899D01*
X100603Y30646D01*
X100541Y30554D01*
X100520Y30445D01*
Y30436D01*
X100369Y30374D01*
X100297Y30445D01*
X100104Y30525D01*
X100100D01*
Y30000D01*
X100000D01*
Y29900D01*
X99475D01*
Y29896D01*
X99555Y29703D01*
X99703Y29555D01*
X99759Y29531D01*
X99824Y29341D01*
X99791Y29284D01*
X99733Y29068D01*
Y28844D01*
X99791Y28628D01*
X99903Y28433D01*
X100061Y28275D01*
X100256Y28163D01*
X100472Y28105D01*
X100696D01*
X100912Y28163D01*
X101107Y28275D01*
X101265Y28433D01*
X101377Y28628D01*
X101435Y28844D01*
Y29068D01*
X101377Y29284D01*
X101265Y29479D01*
X101107Y29637D01*
X101087Y29648D01*
Y30328D01*
X104257Y33499D01*
X108595D01*
X110447Y31646D01*
X110476Y31485D01*
X110432Y31418D01*
X110416Y31339D01*
Y29991D01*
X110432Y29912D01*
X110476Y29845D01*
X110543Y29801D01*
X110622Y29785D01*
X111120D01*
X111199Y29801D01*
X111266Y29845D01*
X111310Y29912D01*
X111326Y29991D01*
Y31339D01*
X111310Y31418D01*
X111266Y31485D01*
X111199Y31529D01*
X111154Y31538D01*
Y31623D01*
X111133Y31731D01*
X111071Y31823D01*
X108912Y33982D01*
X108820Y34044D01*
X108712Y34065D01*
X104423D01*
Y37295D01*
X104468Y37307D01*
X104663Y37419D01*
X104821Y37577D01*
X104933Y37772D01*
X104991Y37988D01*
Y38212D01*
X104933Y38428D01*
X104821Y38623D01*
X104663Y38781D01*
X104468Y38893D01*
X104252Y38951D01*
D02*
G37*
G36*
X85102Y33084D02*
X84912D01*
X84737Y33012D01*
X84603Y32878D01*
X84531Y32703D01*
Y32513D01*
X84603Y32338D01*
X84724Y32218D01*
Y31931D01*
X80781D01*
Y30229D01*
X83424D01*
Y29747D01*
X80400D01*
X80280Y29868D01*
X80105Y29940D01*
X79915D01*
X79740Y29868D01*
X79606Y29734D01*
X79534Y29559D01*
Y29369D01*
X79606Y29194D01*
X79740Y29060D01*
X79915Y28988D01*
X80105D01*
X80280Y29060D01*
X80400Y29181D01*
X83558D01*
X83574Y29184D01*
X83649Y29045D01*
X83112Y28507D01*
X83050Y28415D01*
X83029Y28307D01*
Y27781D01*
X82908Y27661D01*
X82836Y27486D01*
Y27296D01*
X82867Y27222D01*
X82766Y27071D01*
X80187D01*
X80078Y27050D01*
X79986Y26988D01*
X78851Y25853D01*
X78816Y25860D01*
X78640Y25825D01*
X78513Y25740D01*
X78435Y25725D01*
X78397D01*
X78319Y25740D01*
X78192Y25825D01*
X78016Y25860D01*
X77840Y25825D01*
X77691Y25725D01*
X77546Y25781D01*
X77411Y25871D01*
X77316Y25890D01*
Y24750D01*
Y23610D01*
X77411Y23629D01*
X77546Y23719D01*
X77691Y23775D01*
X77840Y23675D01*
X78016Y23640D01*
X78192Y23675D01*
X78319Y23760D01*
X78397Y23775D01*
X78435D01*
X78513Y23760D01*
X78640Y23675D01*
X78816Y23640D01*
X78992Y23675D01*
X79119Y23760D01*
X79197Y23775D01*
X79235D01*
X79313Y23760D01*
X79440Y23675D01*
X79616Y23640D01*
X79792Y23675D01*
X79919Y23760D01*
X79997Y23775D01*
X80035D01*
X80113Y23760D01*
X80240Y23675D01*
X80416Y23640D01*
X80592Y23675D01*
X80719Y23760D01*
X80797Y23775D01*
X80835D01*
X80913Y23760D01*
X81040Y23675D01*
X81216Y23640D01*
X81392Y23675D01*
X81541Y23775D01*
X81641Y23924D01*
X81676Y24100D01*
Y24551D01*
X81842D01*
X81962Y24430D01*
X82137Y24358D01*
X82327D01*
X82482Y24422D01*
X82633Y24364D01*
Y23510D01*
X82266D01*
X82090Y23475D01*
X81941Y23375D01*
X81841Y23226D01*
X81806Y23050D01*
X81841Y22874D01*
X81926Y22747D01*
X81940Y22673D01*
X81939Y22667D01*
X81807Y22533D01*
X81606D01*
X81486Y22654D01*
X81311Y22726D01*
X81121D01*
X80946Y22654D01*
X80812Y22520D01*
X80740Y22345D01*
Y22155D01*
X80812Y21980D01*
X80946Y21846D01*
X81121Y21774D01*
X81311D01*
X81486Y21846D01*
X81606Y21967D01*
X81909D01*
X81940Y21827D01*
X81926Y21753D01*
X81841Y21626D01*
X81806Y21450D01*
X81841Y21274D01*
X81926Y21147D01*
X81940Y21073D01*
X81939Y21067D01*
X81807Y20933D01*
X81602D01*
X80293Y22242D01*
Y22470D01*
X80414Y22590D01*
X80486Y22765D01*
Y22955D01*
X80414Y23130D01*
X80280Y23264D01*
X80105Y23336D01*
X79915D01*
X79740Y23264D01*
X79606Y23130D01*
X79534Y22955D01*
Y22765D01*
X79606Y22590D01*
X79727Y22470D01*
Y22125D01*
X79748Y22016D01*
X79810Y21924D01*
X81207Y20527D01*
X81144Y20376D01*
X81121D01*
X80946Y20304D01*
X80812Y20170D01*
X80740Y19995D01*
Y19805D01*
X80812Y19630D01*
X80946Y19496D01*
X81121Y19424D01*
X81311D01*
X81412Y19466D01*
X81761D01*
X81842Y19315D01*
X81795Y19245D01*
X81776Y19150D01*
X82916D01*
X84056D01*
X84037Y19245D01*
X84007Y19290D01*
X84088Y19441D01*
X85509D01*
Y19181D01*
X85460Y19050D01*
X85460Y18968D01*
Y18400D01*
X87260D01*
Y18968D01*
X87260Y19050D01*
X87211Y19181D01*
Y20501D01*
X86769D01*
Y21333D01*
X86836Y21495D01*
Y21685D01*
X86764Y21860D01*
X86630Y21994D01*
X86455Y22066D01*
X86265D01*
X86090Y21994D01*
X85956Y21860D01*
X85884Y21685D01*
Y21495D01*
X85951Y21333D01*
Y20501D01*
X85509D01*
Y20259D01*
X84029D01*
X83948Y20410D01*
X83991Y20474D01*
X84026Y20650D01*
X83991Y20826D01*
X83906Y20953D01*
X83891Y21031D01*
Y21069D01*
X83906Y21147D01*
X83991Y21274D01*
X84026Y21450D01*
X83991Y21626D01*
X83906Y21753D01*
X83891Y21831D01*
Y21869D01*
X83906Y21947D01*
X83991Y22074D01*
X84026Y22250D01*
X83991Y22426D01*
X83906Y22553D01*
X83891Y22631D01*
Y22669D01*
X83906Y22747D01*
X83991Y22874D01*
X84026Y23050D01*
X83991Y23226D01*
X83891Y23375D01*
X83742Y23475D01*
X83566Y23510D01*
X83199D01*
Y24378D01*
X83327Y24430D01*
X83461Y24564D01*
X83533Y24739D01*
Y24929D01*
X83461Y25104D01*
X83327Y25238D01*
X83152Y25310D01*
X82962D01*
X82787Y25238D01*
X82743Y25193D01*
X82645Y25111D01*
X82546Y25193D01*
X82502Y25238D01*
X82327Y25310D01*
X82137D01*
X81962Y25238D01*
X81842Y25117D01*
X81676D01*
Y25400D01*
X81647Y25544D01*
X81729Y25695D01*
X100055D01*
X105074Y20676D01*
X105012Y20525D01*
X104896D01*
X104703Y20445D01*
X104555Y20297D01*
X104475Y20104D01*
Y20100D01*
X105000D01*
Y20000D01*
X105100D01*
Y19475D01*
X105104D01*
X105297Y19555D01*
X105299Y19556D01*
X105450Y19494D01*
Y12251D01*
X105471Y12142D01*
X105533Y12050D01*
X106397Y11187D01*
Y7473D01*
X106332Y7456D01*
X106127Y7337D01*
X105959Y7169D01*
X105840Y6964D01*
X105779Y6735D01*
Y6497D01*
X105840Y6268D01*
X105959Y6063D01*
X106127Y5895D01*
X106332Y5776D01*
X106561Y5715D01*
X106799D01*
X107028Y5776D01*
X107233Y5895D01*
X107401Y6063D01*
X107520Y6268D01*
X107581Y6497D01*
Y6735D01*
X107520Y6964D01*
X107401Y7169D01*
X107233Y7337D01*
X107028Y7456D01*
X106963Y7473D01*
Y11021D01*
X109639D01*
Y10553D01*
X111341D01*
Y12055D01*
X109639D01*
Y11587D01*
X106797D01*
X106554Y11830D01*
X106597Y12002D01*
X106696Y12042D01*
X106830Y12176D01*
X106884Y12307D01*
X107042D01*
X107096Y12176D01*
X107230Y12042D01*
X107405Y11970D01*
X107594D01*
X107769Y12042D01*
X107903Y12176D01*
X107975Y12351D01*
Y12541D01*
X107903Y12716D01*
X107783Y12836D01*
Y20009D01*
X107761Y20117D01*
X107700Y20209D01*
X100920Y26988D01*
X100828Y27050D01*
X100720Y27071D01*
X87060D01*
Y27745D01*
X86310D01*
Y27845D01*
X86210D01*
Y28745D01*
X85666D01*
X85604Y28896D01*
X85765Y29057D01*
X85927Y29124D01*
X86061Y29258D01*
X86133Y29433D01*
Y29622D01*
X86066Y29784D01*
Y31080D01*
X86035Y31236D01*
X85983Y31314D01*
Y31931D01*
X85290D01*
Y32218D01*
X85411Y32338D01*
X85483Y32513D01*
Y32703D01*
X85411Y32878D01*
X85277Y33012D01*
X85102Y33084D01*
D02*
G37*
G36*
X110106Y30565D02*
X109701D01*
Y29735D01*
X109850D01*
X109948Y29755D01*
X110031Y29810D01*
X110086Y29893D01*
X110106Y29991D01*
Y30565D01*
D02*
G37*
G36*
X109501D02*
X109096D01*
Y29991D01*
X109116Y29893D01*
X109171Y29810D01*
X109254Y29755D01*
X109352Y29735D01*
X109501D01*
Y30565D01*
D02*
G37*
G36*
X140525Y29900D02*
X140100D01*
Y29475D01*
X140104D01*
X140297Y29555D01*
X140445Y29703D01*
X140525Y29896D01*
Y29900D01*
D02*
G37*
G36*
X139900D02*
X139475D01*
Y29896D01*
X139555Y29703D01*
X139703Y29555D01*
X139896Y29475D01*
X139900D01*
Y29900D01*
D02*
G37*
G36*
X130525D02*
X130100D01*
Y29475D01*
X130104D01*
X130297Y29555D01*
X130445Y29703D01*
X130525Y29896D01*
Y29900D01*
D02*
G37*
G36*
X129900D02*
X129475D01*
Y29896D01*
X129555Y29703D01*
X129703Y29555D01*
X129896Y29475D01*
X129900D01*
Y29900D01*
D02*
G37*
G36*
X40525D02*
X40100D01*
Y29475D01*
X40104D01*
X40297Y29555D01*
X40445Y29703D01*
X40525Y29896D01*
Y29900D01*
D02*
G37*
G36*
X39900D02*
X39475D01*
Y29896D01*
X39555Y29703D01*
X39703Y29555D01*
X39896Y29475D01*
X39900D01*
Y29900D01*
D02*
G37*
G36*
X30525D02*
X30100D01*
Y29475D01*
X30104D01*
X30297Y29555D01*
X30445Y29703D01*
X30525Y29896D01*
Y29900D01*
D02*
G37*
G36*
X29900D02*
X29475D01*
Y29896D01*
X29555Y29703D01*
X29703Y29555D01*
X29896Y29475D01*
X29900D01*
Y29900D01*
D02*
G37*
G36*
X20525D02*
X20100D01*
Y29475D01*
X20104D01*
X20297Y29555D01*
X20445Y29703D01*
X20525Y29896D01*
Y29900D01*
D02*
G37*
G36*
X19900D02*
X19475D01*
Y29896D01*
X19555Y29703D01*
X19703Y29555D01*
X19896Y29475D01*
X19900D01*
Y29900D01*
D02*
G37*
G36*
X10525D02*
X10100D01*
Y29475D01*
X10104D01*
X10297Y29555D01*
X10445Y29703D01*
X10525Y29896D01*
Y29900D01*
D02*
G37*
G36*
X9900D02*
X9475D01*
Y29896D01*
X9555Y29703D01*
X9703Y29555D01*
X9896Y29475D01*
X9900D01*
Y29900D01*
D02*
G37*
G36*
X55869Y29553D02*
X54367D01*
Y28985D01*
X52589D01*
Y29553D01*
X51087D01*
Y27851D01*
X52589D01*
Y28419D01*
X54367D01*
Y27851D01*
X55869D01*
Y29553D01*
D02*
G37*
G36*
X108426Y32734D02*
X108236D01*
X108061Y32662D01*
X107927Y32528D01*
X107855Y32353D01*
Y32163D01*
X107922Y32001D01*
Y31463D01*
X107892Y31418D01*
X107876Y31339D01*
Y29991D01*
X107892Y29912D01*
X107922Y29867D01*
Y29506D01*
X107330Y28914D01*
X106515D01*
Y29137D01*
X104813D01*
Y27817D01*
X104764Y27686D01*
X104764Y27604D01*
Y27036D01*
X105664D01*
X106564D01*
Y27604D01*
X106564Y27686D01*
X106515Y27817D01*
Y28096D01*
X107499D01*
X107656Y28127D01*
X107788Y28216D01*
X108620Y29048D01*
X108709Y29181D01*
X108740Y29337D01*
Y29867D01*
X108770Y29912D01*
X108786Y29991D01*
Y31339D01*
X108770Y31418D01*
X108740Y31463D01*
Y32001D01*
X108807Y32163D01*
Y32353D01*
X108735Y32528D01*
X108601Y32662D01*
X108426Y32734D01*
D02*
G37*
G36*
X50525Y29900D02*
X49475D01*
Y29896D01*
X49534Y29753D01*
X49458Y29602D01*
X49238D01*
Y28802D01*
X50038D01*
X50838D01*
Y29602D01*
X50542D01*
X50466Y29753D01*
X50525Y29896D01*
Y29900D01*
D02*
G37*
G36*
X115454Y29186D02*
X114654D01*
Y28536D01*
X115454D01*
Y29186D01*
D02*
G37*
G36*
X114454D02*
X113654D01*
Y28536D01*
X114454D01*
Y29186D01*
D02*
G37*
G36*
X77632Y29094D02*
Y28294D01*
X78282D01*
Y29094D01*
X77632D01*
D02*
G37*
G36*
X87060Y28745D02*
X86410D01*
Y27945D01*
X87060D01*
Y28745D01*
D02*
G37*
G36*
X78282Y28094D02*
X77632D01*
Y27294D01*
X78282D01*
Y28094D01*
D02*
G37*
G36*
X55905Y27663D02*
X54403D01*
Y27095D01*
X52589D01*
Y27663D01*
X51087D01*
Y25961D01*
X52589D01*
Y26529D01*
X54403D01*
Y25961D01*
X55905D01*
Y27663D01*
D02*
G37*
G36*
X50838Y28602D02*
X50038D01*
X49238D01*
Y27863D01*
X49238Y27712D01*
X49238Y27651D01*
Y26912D01*
X50038D01*
X50838D01*
Y27651D01*
X50838Y27802D01*
X50838Y27863D01*
Y28602D01*
D02*
G37*
G36*
X106564Y26836D02*
X105764D01*
Y26186D01*
X106564D01*
Y26836D01*
D02*
G37*
G36*
X105564D02*
X104764D01*
Y26186D01*
X105564D01*
Y26836D01*
D02*
G37*
G36*
X138779Y26130D02*
X138589D01*
X138414Y26058D01*
X138294Y25937D01*
X136026D01*
X135906Y26058D01*
X135731Y26130D01*
X135541D01*
X135366Y26058D01*
X135232Y25924D01*
X135160Y25749D01*
Y25559D01*
X135232Y25384D01*
X135366Y25250D01*
X135541Y25178D01*
X135731D01*
X135906Y25250D01*
X136026Y25371D01*
X138294D01*
X138414Y25250D01*
X138589Y25178D01*
X138779D01*
X138954Y25250D01*
X139088Y25384D01*
X139160Y25559D01*
Y25749D01*
X139088Y25924D01*
X138954Y26058D01*
X138779Y26130D01*
D02*
G37*
G36*
X50838Y26712D02*
X50138D01*
Y25912D01*
X50838D01*
Y26712D01*
D02*
G37*
G36*
X49938D02*
X49238D01*
Y25912D01*
X49938D01*
Y26712D01*
D02*
G37*
G36*
X12535Y26092D02*
X10833D01*
Y25704D01*
X10249D01*
Y25996D01*
X8547D01*
Y25704D01*
X8131D01*
X7969Y25771D01*
X7779D01*
X7604Y25699D01*
X7470Y25565D01*
X7398Y25390D01*
Y25200D01*
X7470Y25025D01*
X7604Y24891D01*
X7779Y24819D01*
X7969D01*
X8131Y24886D01*
X8440D01*
X8547Y24779D01*
Y24676D01*
X8498Y24545D01*
X8498Y24463D01*
Y23895D01*
X10298D01*
Y24463D01*
X10298Y24545D01*
X10249Y24676D01*
Y24779D01*
X10356Y24886D01*
X10833D01*
Y24590D01*
X12535D01*
Y24932D01*
X16641D01*
X17823Y23750D01*
X17749Y23611D01*
X17704Y23620D01*
X16104D01*
X15928Y23585D01*
X15779Y23485D01*
X15751Y23443D01*
X15376D01*
X15256Y23564D01*
X15081Y23636D01*
X14891D01*
X14716Y23564D01*
X14582Y23430D01*
X14510Y23255D01*
Y23065D01*
X14582Y22890D01*
X14716Y22756D01*
X14891Y22684D01*
X15081D01*
X15256Y22756D01*
X15376Y22877D01*
X15751D01*
X15779Y22835D01*
X15928Y22735D01*
X16104Y22700D01*
X17704D01*
X17880Y22735D01*
X18029Y22835D01*
X18129Y22984D01*
X18164Y23160D01*
X18155Y23205D01*
X18294Y23279D01*
X19973Y21601D01*
X20105Y21512D01*
X20262Y21481D01*
X20704D01*
X20728Y21465D01*
X20904Y21430D01*
X22504D01*
X22680Y21465D01*
X22829Y21565D01*
X22929Y21714D01*
X22964Y21890D01*
X22929Y22066D01*
X22829Y22215D01*
X22680Y22315D01*
X22504Y22350D01*
X20904D01*
X20728Y22315D01*
X20704Y22299D01*
X20431D01*
X17100Y25630D01*
X16967Y25719D01*
X16811Y25750D01*
X12535D01*
Y26092D01*
D02*
G37*
G36*
X137763Y24860D02*
X137573D01*
X137398Y24788D01*
X137278Y24667D01*
X136026D01*
X135906Y24788D01*
X135731Y24860D01*
X135541D01*
X135366Y24788D01*
X135232Y24654D01*
X135160Y24479D01*
Y24289D01*
X135232Y24114D01*
X135366Y23980D01*
X135541Y23908D01*
X135731D01*
X135906Y23980D01*
X136026Y24101D01*
X137278D01*
X137398Y23980D01*
X137573Y23908D01*
X137763D01*
X137938Y23980D01*
X138072Y24114D01*
X138144Y24289D01*
Y24479D01*
X138072Y24654D01*
X137938Y24788D01*
X137763Y24860D01*
D02*
G37*
G36*
X111120Y26095D02*
X110622D01*
X110543Y26079D01*
X110476Y26035D01*
X110432Y25968D01*
X110416Y25889D01*
Y24541D01*
X110432Y24462D01*
X110476Y24395D01*
X110543Y24351D01*
X110622Y24335D01*
X111120D01*
X111199Y24351D01*
X111266Y24395D01*
X111310Y24462D01*
X111326Y24541D01*
Y25889D01*
X111310Y25968D01*
X111266Y26035D01*
X111199Y26079D01*
X111120Y26095D01*
D02*
G37*
G36*
X109850D02*
X109352D01*
X109273Y26079D01*
X109206Y26035D01*
X109162Y25968D01*
X109146Y25889D01*
Y24541D01*
X109162Y24462D01*
X109206Y24395D01*
X109273Y24351D01*
X109352Y24335D01*
X109850D01*
X109929Y24351D01*
X109996Y24395D01*
X110040Y24462D01*
X110056Y24541D01*
Y25889D01*
X110040Y25968D01*
X109996Y26035D01*
X109929Y26079D01*
X109850Y26095D01*
D02*
G37*
G36*
X108580D02*
X108082D01*
X108003Y26079D01*
X107936Y26035D01*
X107892Y25968D01*
X107876Y25889D01*
Y24541D01*
X107892Y24462D01*
X107936Y24395D01*
X108003Y24351D01*
X108082Y24335D01*
X108580D01*
X108659Y24351D01*
X108726Y24395D01*
X108770Y24462D01*
X108786Y24541D01*
Y25889D01*
X108770Y25968D01*
X108726Y26035D01*
X108659Y26079D01*
X108580Y26095D01*
D02*
G37*
G36*
X30182Y27793D02*
X27730D01*
Y23443D01*
X25727D01*
X25620Y23550D01*
X25620Y23959D01*
X25620Y24012D01*
Y25361D01*
X23918D01*
Y24943D01*
X23250D01*
X23130Y25063D01*
X22955Y25136D01*
X22765D01*
X22590Y25063D01*
X22456Y24930D01*
X22384Y24755D01*
Y24565D01*
X22456Y24390D01*
X22590Y24256D01*
X22765Y24184D01*
X22955D01*
X23130Y24256D01*
X23250Y24377D01*
X23811D01*
X23918Y24270D01*
X23918Y23861D01*
X23918Y23808D01*
Y23443D01*
X22857D01*
X22829Y23485D01*
X22680Y23585D01*
X22504Y23620D01*
X20904D01*
X20728Y23585D01*
X20579Y23485D01*
X20479Y23336D01*
X20444Y23160D01*
X20479Y22984D01*
X20579Y22835D01*
X20728Y22735D01*
X20904Y22700D01*
X22504D01*
X22680Y22735D01*
X22829Y22835D01*
X22857Y22877D01*
X23918D01*
Y22459D01*
X24779D01*
Y19744D01*
X24491D01*
Y18702D01*
X24779D01*
Y16401D01*
X21615D01*
X18466Y19550D01*
X18374Y19612D01*
X18266Y19633D01*
X18057D01*
X18029Y19675D01*
X17880Y19775D01*
X17704Y19810D01*
X16104D01*
X15928Y19775D01*
X15779Y19675D01*
X15679Y19526D01*
X15644Y19350D01*
X15679Y19174D01*
X15779Y19025D01*
X15928Y18925D01*
X16104Y18890D01*
X17704D01*
X17880Y18925D01*
X18029Y19025D01*
X18191Y19024D01*
X21298Y15918D01*
X21390Y15856D01*
X21498Y15835D01*
X30137D01*
Y15367D01*
X31839D01*
Y15835D01*
X32423D01*
Y15367D01*
X34125D01*
Y16869D01*
X32423D01*
Y16401D01*
X31839D01*
Y16869D01*
X30137D01*
Y16401D01*
X25345D01*
Y18702D01*
X25633D01*
Y19744D01*
X25345D01*
Y22459D01*
X25620D01*
Y22877D01*
X27730D01*
Y21991D01*
X30182D01*
Y27793D01*
D02*
G37*
G36*
X10298Y23695D02*
X9498D01*
Y23045D01*
X10298D01*
Y23695D01*
D02*
G37*
G36*
X9298D02*
X8498D01*
Y23045D01*
X9298D01*
Y23695D01*
D02*
G37*
G36*
X12535Y24292D02*
X10833D01*
Y22790D01*
X11401D01*
Y21382D01*
X10833D01*
Y21099D01*
X10684Y21035D01*
X10509Y21107D01*
X10319D01*
X10144Y21035D01*
X10010Y20901D01*
X9938Y20726D01*
Y20536D01*
X10010Y20361D01*
X10144Y20227D01*
X10319Y20155D01*
X10509D01*
X10684Y20227D01*
X10833Y20163D01*
Y19880D01*
X12471Y19880D01*
X12572Y19758D01*
X12562Y19731D01*
X12462Y19631D01*
X11784D01*
Y18831D01*
Y18031D01*
X12584D01*
Y18231D01*
X13362D01*
Y18981D01*
X13462D01*
Y19081D01*
X14362D01*
Y19649D01*
X14362Y19731D01*
X14313Y19862D01*
Y20198D01*
X14695D01*
X14804Y20219D01*
X14895Y20281D01*
X15459Y20845D01*
X15624Y20811D01*
X15630Y20802D01*
X15614Y20720D01*
X16804D01*
Y21130D01*
X16104D01*
X15922Y21094D01*
X15913Y21100D01*
X15879Y21265D01*
X16055Y21440D01*
X16104Y21430D01*
X17704D01*
X17880Y21465D01*
X18029Y21565D01*
X18129Y21714D01*
X18164Y21890D01*
X18129Y22066D01*
X18029Y22215D01*
X17880Y22315D01*
X17704Y22350D01*
X16104D01*
X15928Y22315D01*
X15779Y22215D01*
X15679Y22066D01*
X15644Y21890D01*
X15654Y21841D01*
X14578Y20764D01*
X14313D01*
Y21182D01*
X12686D01*
X12611Y21182D01*
X12535Y21302D01*
Y21382D01*
X11967D01*
Y22790D01*
X12535D01*
Y24292D01*
D02*
G37*
G36*
X22504Y21130D02*
X21804D01*
Y20720D01*
X22994D01*
X22975Y20815D01*
X22864Y20980D01*
X22699Y21091D01*
X22504Y21130D01*
D02*
G37*
G36*
X17704D02*
X17004D01*
Y20720D01*
X18194D01*
X18175Y20815D01*
X18064Y20980D01*
X17899Y21091D01*
X17704Y21130D01*
D02*
G37*
G36*
X21604D02*
X20904D01*
X20709Y21091D01*
X20544Y20980D01*
X20433Y20815D01*
X20414Y20720D01*
X21604D01*
Y21130D01*
D02*
G37*
G36*
X31674Y20966D02*
X31024D01*
Y20166D01*
X31674D01*
Y20966D01*
D02*
G37*
G36*
X22994Y20520D02*
X21804D01*
Y20110D01*
X22504D01*
X22699Y20149D01*
X22864Y20260D01*
X22975Y20425D01*
X22994Y20520D01*
D02*
G37*
G36*
X21604D02*
X20414D01*
X20433Y20425D01*
X20544Y20260D01*
X20709Y20149D01*
X20904Y20110D01*
X21604D01*
Y20520D01*
D02*
G37*
G36*
X18194D02*
X17004D01*
Y20110D01*
X17704D01*
X17899Y20149D01*
X18064Y20260D01*
X18175Y20425D01*
X18194Y20520D01*
D02*
G37*
G36*
X16804D02*
X15614D01*
X15633Y20425D01*
X15744Y20260D01*
X15909Y20149D01*
X16104Y20110D01*
X16804D01*
Y20520D01*
D02*
G37*
G36*
X145104Y20525D02*
X145100D01*
Y20100D01*
X145525D01*
Y20104D01*
X145445Y20297D01*
X145297Y20445D01*
X145104Y20525D01*
D02*
G37*
G36*
X144900D02*
X144896D01*
X144703Y20445D01*
X144555Y20297D01*
X144475Y20104D01*
Y20100D01*
X144900D01*
Y20525D01*
D02*
G37*
G36*
X135104D02*
X135100D01*
Y20100D01*
X135525D01*
Y20104D01*
X135445Y20297D01*
X135297Y20445D01*
X135104Y20525D01*
D02*
G37*
G36*
X134900D02*
X134896D01*
X134703Y20445D01*
X134555Y20297D01*
X134475Y20104D01*
Y20100D01*
X134900D01*
Y20525D01*
D02*
G37*
G36*
X125104D02*
X125100D01*
Y20100D01*
X125525D01*
Y20104D01*
X125445Y20297D01*
X125297Y20445D01*
X125104Y20525D01*
D02*
G37*
G36*
X124900D02*
X124896D01*
X124703Y20445D01*
X124555Y20297D01*
X124475Y20104D01*
Y20100D01*
X124900D01*
Y20525D01*
D02*
G37*
G36*
X115104D02*
X115100D01*
Y20100D01*
X115525D01*
Y20104D01*
X115445Y20297D01*
X115297Y20445D01*
X115104Y20525D01*
D02*
G37*
G36*
X114900D02*
X114896D01*
X114703Y20445D01*
X114555Y20297D01*
X114475Y20104D01*
Y20100D01*
X114900D01*
Y20525D01*
D02*
G37*
G36*
X94900D02*
X94896D01*
X94703Y20445D01*
X94555Y20297D01*
X94475Y20104D01*
Y20100D01*
X94900D01*
Y20525D01*
D02*
G37*
G36*
X65104D02*
X65100D01*
Y20100D01*
X65525D01*
Y20104D01*
X65445Y20297D01*
X65297Y20445D01*
X65104Y20525D01*
D02*
G37*
G36*
X64900D02*
X64896D01*
X64703Y20445D01*
X64555Y20297D01*
X64475Y20104D01*
Y20100D01*
X64900D01*
Y20525D01*
D02*
G37*
G36*
X55104D02*
X55100D01*
Y20100D01*
X55525D01*
Y20104D01*
X55445Y20297D01*
X55297Y20445D01*
X55104Y20525D01*
D02*
G37*
G36*
X54900D02*
X54896D01*
X54703Y20445D01*
X54555Y20297D01*
X54475Y20104D01*
Y20100D01*
X54900D01*
Y20525D01*
D02*
G37*
G36*
X45104D02*
X45100D01*
Y20100D01*
X45525D01*
Y20104D01*
X45445Y20297D01*
X45297Y20445D01*
X45104Y20525D01*
D02*
G37*
G36*
X44900D02*
X44896D01*
X44703Y20445D01*
X44555Y20297D01*
X44475Y20104D01*
Y20100D01*
X44900D01*
Y20525D01*
D02*
G37*
G36*
X35104D02*
X35100D01*
Y20100D01*
X35525D01*
Y20104D01*
X35445Y20297D01*
X35297Y20445D01*
X35104Y20525D01*
D02*
G37*
G36*
X34900D02*
X34896D01*
X34703Y20445D01*
X34555Y20297D01*
X34475Y20104D01*
Y20100D01*
X34900D01*
Y20525D01*
D02*
G37*
G36*
X67210Y20284D02*
X66410D01*
Y19634D01*
X67210D01*
Y20284D01*
D02*
G37*
G36*
X145525Y19900D02*
X145100D01*
Y19475D01*
X145104D01*
X145297Y19555D01*
X145445Y19703D01*
X145525Y19896D01*
Y19900D01*
D02*
G37*
G36*
X144900D02*
X144475D01*
Y19896D01*
X144555Y19703D01*
X144703Y19555D01*
X144896Y19475D01*
X144900D01*
Y19900D01*
D02*
G37*
G36*
X135525D02*
X135100D01*
Y19475D01*
X135104D01*
X135297Y19555D01*
X135445Y19703D01*
X135525Y19896D01*
Y19900D01*
D02*
G37*
G36*
X134900D02*
X134475D01*
Y19896D01*
X134555Y19703D01*
X134703Y19555D01*
X134896Y19475D01*
X134900D01*
Y19900D01*
D02*
G37*
G36*
X125525D02*
X125100D01*
Y19475D01*
X125104D01*
X125297Y19555D01*
X125445Y19703D01*
X125525Y19896D01*
Y19900D01*
D02*
G37*
G36*
X124900D02*
X124475D01*
Y19896D01*
X124555Y19703D01*
X124703Y19555D01*
X124896Y19475D01*
X124900D01*
Y19900D01*
D02*
G37*
G36*
X115525D02*
X115100D01*
Y19475D01*
X115104D01*
X115297Y19555D01*
X115445Y19703D01*
X115525Y19896D01*
Y19900D01*
D02*
G37*
G36*
X114900D02*
X114475D01*
Y19896D01*
X114555Y19703D01*
X114703Y19555D01*
X114896Y19475D01*
X114900D01*
Y19900D01*
D02*
G37*
G36*
X104900D02*
X104475D01*
Y19896D01*
X104555Y19703D01*
X104703Y19555D01*
X104896Y19475D01*
X104900D01*
Y19900D01*
D02*
G37*
G36*
X94900D02*
X94475D01*
Y19896D01*
X94555Y19703D01*
X94703Y19555D01*
X94896Y19475D01*
X94900D01*
Y19900D01*
D02*
G37*
G36*
X65525D02*
X65100D01*
Y19475D01*
X65104D01*
X65297Y19555D01*
X65445Y19703D01*
X65525Y19896D01*
Y19900D01*
D02*
G37*
G36*
X64900D02*
X64475D01*
Y19896D01*
X64555Y19703D01*
X64703Y19555D01*
X64896Y19475D01*
X64900D01*
Y19900D01*
D02*
G37*
G36*
X45525D02*
X45100D01*
Y19475D01*
X45104D01*
X45297Y19555D01*
X45445Y19703D01*
X45525Y19896D01*
Y19900D01*
D02*
G37*
G36*
X44900D02*
X44475D01*
Y19896D01*
X44555Y19703D01*
X44703Y19555D01*
X44896Y19475D01*
X44900D01*
Y19900D01*
D02*
G37*
G36*
X35525D02*
X35100D01*
Y19475D01*
X35104D01*
X35297Y19555D01*
X35445Y19703D01*
X35525Y19896D01*
Y19900D01*
D02*
G37*
G36*
X34900D02*
X34475D01*
Y19896D01*
X34555Y19703D01*
X34703Y19555D01*
X34896Y19475D01*
X34900D01*
Y19900D01*
D02*
G37*
G36*
X27882Y19793D02*
X27362D01*
Y19323D01*
X27882D01*
Y19793D01*
D02*
G37*
G36*
X27162D02*
X26642D01*
Y19323D01*
X27162D01*
Y19793D01*
D02*
G37*
G36*
X31674Y19966D02*
X31024D01*
Y19166D01*
X31674D01*
Y19966D01*
D02*
G37*
G36*
X11584Y19631D02*
X10784D01*
Y18931D01*
X11584D01*
Y19631D01*
D02*
G37*
G36*
X27882Y19123D02*
X27362D01*
Y18653D01*
X27882D01*
Y19123D01*
D02*
G37*
G36*
X27162D02*
X26642D01*
Y18653D01*
X27162D01*
Y19123D01*
D02*
G37*
G36*
X14362Y18881D02*
X13562D01*
Y18231D01*
X14362D01*
Y18881D01*
D02*
G37*
G36*
X97860Y20134D02*
X96745D01*
Y18134D01*
X97860D01*
Y20134D01*
D02*
G37*
G36*
X95104Y20525D02*
X95100D01*
Y20000D01*
Y19475D01*
X95104D01*
X95279Y19547D01*
X95430Y19490D01*
Y18134D01*
X96545D01*
Y20134D01*
X95513D01*
X95445Y20297D01*
X95297Y20445D01*
X95104Y20525D01*
D02*
G37*
G36*
X11584Y18731D02*
X10784D01*
Y18031D01*
X11584D01*
Y18731D01*
D02*
G37*
G36*
X31888Y18718D02*
X31088D01*
Y18018D01*
X31888D01*
Y18718D01*
D02*
G37*
G36*
X30888D02*
X30088D01*
Y18018D01*
X30888D01*
Y18718D01*
D02*
G37*
G36*
X22504Y19810D02*
X20904D01*
X20728Y19775D01*
X20579Y19675D01*
X20479Y19526D01*
X20444Y19350D01*
X20479Y19174D01*
X20579Y19025D01*
X20728Y18925D01*
X20904Y18890D01*
X21561D01*
Y18678D01*
X21440Y18558D01*
X21368Y18383D01*
Y18193D01*
X21440Y18018D01*
X21574Y17884D01*
X21749Y17812D01*
X21939D01*
X22114Y17884D01*
X22248Y18018D01*
X22320Y18193D01*
Y18383D01*
X22248Y18558D01*
X22127Y18678D01*
Y18890D01*
X22504D01*
X22680Y18925D01*
X22829Y19025D01*
X22929Y19174D01*
X22964Y19350D01*
X22929Y19526D01*
X22829Y19675D01*
X22680Y19775D01*
X22504Y19810D01*
D02*
G37*
G36*
X87260Y18200D02*
X86460D01*
Y17550D01*
X87260D01*
Y18200D01*
D02*
G37*
G36*
X86260D02*
X85460D01*
Y17550D01*
X86260D01*
Y18200D01*
D02*
G37*
G36*
X127597Y17759D02*
X125895D01*
Y17291D01*
X123072D01*
X122952Y17412D01*
X122777Y17484D01*
X122587D01*
X122412Y17412D01*
X122278Y17278D01*
X122206Y17103D01*
Y16913D01*
X122278Y16738D01*
X122412Y16604D01*
X122587Y16532D01*
X122777D01*
X122952Y16604D01*
X123072Y16725D01*
X125895D01*
Y16257D01*
X126571D01*
Y15772D01*
X124695D01*
Y13440D01*
X126571D01*
Y13090D01*
X126450Y12970D01*
X126378Y12795D01*
Y12605D01*
X126450Y12430D01*
X126584Y12296D01*
X126759Y12224D01*
X126949D01*
X127124Y12296D01*
X127258Y12430D01*
X127330Y12605D01*
Y12795D01*
X127258Y12970D01*
X127137Y13090D01*
Y13440D01*
X128797D01*
Y15772D01*
X127137D01*
Y16257D01*
X127597D01*
Y17759D01*
D02*
G37*
G36*
X31888Y17818D02*
X31088D01*
Y17118D01*
X31888D01*
Y17818D01*
D02*
G37*
G36*
X30888D02*
X30088D01*
Y17118D01*
X30888D01*
Y17818D01*
D02*
G37*
G36*
X88741Y22828D02*
X88551D01*
X88376Y22756D01*
X88242Y22622D01*
X88170Y22447D01*
Y22257D01*
X88242Y22082D01*
X88363Y21962D01*
Y17389D01*
X86307Y15333D01*
X83923D01*
X83892Y15473D01*
X83906Y15547D01*
X83991Y15674D01*
X84026Y15850D01*
X83991Y16026D01*
X83906Y16153D01*
X83892Y16227D01*
X83893Y16233D01*
X84025Y16367D01*
X84617D01*
X84737Y16246D01*
X84912Y16174D01*
X85102D01*
X85277Y16246D01*
X85411Y16380D01*
X85483Y16555D01*
Y16745D01*
X85411Y16920D01*
X85277Y17054D01*
X85102Y17126D01*
X84912D01*
X84737Y17054D01*
X84617Y16933D01*
X83923D01*
X83892Y17073D01*
X83906Y17147D01*
X83991Y17274D01*
X84026Y17450D01*
X83991Y17626D01*
X83906Y17753D01*
X83891Y17831D01*
Y17869D01*
X83906Y17947D01*
X83991Y18074D01*
X84026Y18250D01*
X83991Y18426D01*
X83891Y18575D01*
X83947Y18720D01*
X84037Y18855D01*
X84056Y18950D01*
X82916D01*
X81776D01*
X81795Y18855D01*
X81885Y18720D01*
X81905Y18669D01*
X81838Y18533D01*
X81497D01*
X81377Y18654D01*
X81202Y18726D01*
X81012D01*
X80837Y18654D01*
X80703Y18520D01*
X80631Y18345D01*
Y18281D01*
X80480Y18219D01*
X79724Y18975D01*
Y19145D01*
X79652Y19320D01*
X79518Y19454D01*
X79343Y19526D01*
X79153D01*
X78978Y19454D01*
X78844Y19320D01*
X78772Y19145D01*
Y18955D01*
X78844Y18780D01*
X78978Y18646D01*
X79153Y18574D01*
X79323D01*
X80648Y17250D01*
X80740Y17188D01*
X80848Y17167D01*
X81909D01*
X81940Y17027D01*
X81926Y16953D01*
X81841Y16826D01*
X81806Y16650D01*
X81841Y16474D01*
X81926Y16347D01*
X81941Y16269D01*
Y16231D01*
X81926Y16153D01*
X81841Y16026D01*
X81806Y15850D01*
X81841Y15674D01*
X81926Y15547D01*
X81941Y15469D01*
Y15431D01*
X81926Y15353D01*
X81841Y15226D01*
X81806Y15050D01*
X81841Y14874D01*
X81941Y14725D01*
X82090Y14625D01*
X82266Y14590D01*
X83566D01*
X83742Y14625D01*
X83891Y14725D01*
X83919Y14767D01*
X86424D01*
X86532Y14788D01*
X86624Y14850D01*
X88846Y17072D01*
X88908Y17164D01*
X88929Y17272D01*
Y21962D01*
X89050Y22082D01*
X89122Y22257D01*
Y22447D01*
X89050Y22622D01*
X88916Y22756D01*
X88741Y22828D01*
D02*
G37*
G36*
X57493Y16615D02*
X55791D01*
Y16147D01*
X55461D01*
Y16615D01*
X53759D01*
Y15113D01*
X55461D01*
Y15581D01*
X55791D01*
Y15113D01*
X56359D01*
Y14313D01*
X56011D01*
X55880Y14362D01*
X55798Y14362D01*
X55230D01*
Y13462D01*
Y12562D01*
X55798D01*
X55880Y12562D01*
X56011Y12611D01*
X57331D01*
Y13029D01*
X58199D01*
X59371Y11857D01*
Y11505D01*
X58853D01*
Y9653D01*
X59371D01*
Y3555D01*
X58853D01*
Y1703D01*
X60455D01*
Y3555D01*
X59937D01*
Y9653D01*
X60455D01*
Y11505D01*
X59937D01*
Y11974D01*
X59916Y12083D01*
X59854Y12174D01*
X58516Y13512D01*
X58424Y13574D01*
X58316Y13595D01*
X57331D01*
Y14313D01*
X56925D01*
Y15113D01*
X57493D01*
Y16615D01*
D02*
G37*
G36*
X97860Y17934D02*
X96745D01*
Y15934D01*
X97860D01*
Y17934D01*
D02*
G37*
G36*
X96545D02*
X95430D01*
Y15934D01*
X96545D01*
Y17934D01*
D02*
G37*
G36*
X55030Y14362D02*
X54380D01*
Y13562D01*
X55030D01*
Y14362D01*
D02*
G37*
G36*
Y13362D02*
X54380D01*
Y12562D01*
X55030D01*
Y13362D01*
D02*
G37*
G36*
X91986Y22066D02*
X91796D01*
X91621Y21994D01*
X91487Y21860D01*
X91415Y21685D01*
Y21495D01*
X91487Y21320D01*
X91539Y21269D01*
Y20085D01*
X90782D01*
Y15983D01*
X91539D01*
Y13774D01*
X91047D01*
Y11972D01*
X92849D01*
Y13774D01*
X92357D01*
Y15983D01*
X93114D01*
Y20085D01*
X92357D01*
Y21471D01*
X92367Y21495D01*
Y21685D01*
X92295Y21860D01*
X92161Y21994D01*
X91986Y22066D01*
D02*
G37*
G36*
X101441Y23590D02*
X101251D01*
X101076Y23518D01*
X100942Y23384D01*
X100870Y23209D01*
Y23019D01*
X100937Y22857D01*
Y20351D01*
X100180D01*
Y16249D01*
X100937D01*
Y13774D01*
X100445D01*
Y11972D01*
X102247D01*
Y13774D01*
X101755D01*
Y16249D01*
X102512D01*
Y20351D01*
X101755D01*
Y22857D01*
X101822Y23019D01*
Y23209D01*
X101750Y23384D01*
X101616Y23518D01*
X101441Y23590D01*
D02*
G37*
G36*
X78116Y14490D02*
Y13350D01*
Y12210D01*
X78211Y12229D01*
X78346Y12319D01*
X78397Y12339D01*
X78533Y12272D01*
Y9270D01*
X77679Y8417D01*
X75951D01*
Y9101D01*
X70149D01*
Y6799D01*
X72615D01*
Y4357D01*
X72247D01*
Y2755D01*
X73549D01*
Y4357D01*
X73181D01*
Y6799D01*
X75951D01*
Y7850D01*
X77796D01*
X77905Y7871D01*
X77997Y7933D01*
X79016Y8953D01*
X79078Y9045D01*
X79099Y9153D01*
Y12255D01*
X79250Y12320D01*
X79333Y12241D01*
Y9162D01*
X79354Y9053D01*
X79416Y8961D01*
X79649Y8728D01*
Y6799D01*
X82013D01*
Y4357D01*
X81645D01*
Y2755D01*
X82947D01*
Y4357D01*
X82579D01*
Y6799D01*
X85451D01*
Y9101D01*
X80077D01*
X79899Y9279D01*
Y12343D01*
X80039Y12374D01*
X80113Y12360D01*
X80240Y12275D01*
X80416Y12240D01*
X80592Y12275D01*
X80719Y12360D01*
X80797Y12375D01*
X80835D01*
X80913Y12360D01*
X81040Y12275D01*
X81216Y12240D01*
X81392Y12275D01*
X81541Y12375D01*
X81641Y12524D01*
X81676Y12700D01*
Y13067D01*
X82013D01*
Y12836D01*
X81892Y12716D01*
X81820Y12541D01*
Y12351D01*
X81892Y12176D01*
X82026Y12042D01*
X82201Y11970D01*
X82391D01*
X82566Y12042D01*
X82700Y12176D01*
X82772Y12351D01*
Y12541D01*
X82700Y12716D01*
X82579Y12836D01*
Y13201D01*
X82558Y13310D01*
X82496Y13402D01*
X82348Y13550D01*
X82256Y13612D01*
X82147Y13633D01*
X81676D01*
Y14000D01*
X81641Y14176D01*
X81541Y14325D01*
X81392Y14425D01*
X81216Y14460D01*
X81040Y14425D01*
X80913Y14340D01*
X80835Y14325D01*
X80797D01*
X80719Y14340D01*
X80592Y14425D01*
X80416Y14460D01*
X80240Y14425D01*
X80113Y14340D01*
X80035Y14325D01*
X79997D01*
X79919Y14340D01*
X79792Y14425D01*
X79616Y14460D01*
X79440Y14425D01*
X79313Y14340D01*
X79235Y14325D01*
X79197D01*
X79119Y14340D01*
X78992Y14425D01*
X78816Y14460D01*
X78640Y14425D01*
X78491Y14325D01*
X78346Y14381D01*
X78211Y14471D01*
X78116Y14490D01*
D02*
G37*
G36*
X48836Y12726D02*
X46836D01*
Y11611D01*
X48836D01*
Y12726D01*
D02*
G37*
G36*
X46636D02*
X44636D01*
Y11611D01*
X46636D01*
Y12726D01*
D02*
G37*
G36*
X64641Y11872D02*
X64616D01*
Y11022D01*
X65466D01*
Y11047D01*
X65401Y11289D01*
X65276Y11505D01*
X65099Y11682D01*
X64883Y11807D01*
X64641Y11872D01*
D02*
G37*
G36*
X64416D02*
X64391D01*
X64149Y11807D01*
X63933Y11682D01*
X63756Y11505D01*
X63631Y11289D01*
X63566Y11047D01*
Y11022D01*
X64416D01*
Y11872D01*
D02*
G37*
G36*
X56004Y11554D02*
X55254D01*
Y10679D01*
X56004D01*
Y11554D01*
D02*
G37*
G36*
X55054D02*
X54304D01*
Y10679D01*
X55054D01*
Y11554D01*
D02*
G37*
G36*
X101465Y11234D02*
X101227D01*
X100998Y11173D01*
X100793Y11054D01*
X100625Y10886D01*
X100506Y10681D01*
X100458Y10498D01*
X100306Y10436D01*
X100297Y10445D01*
X100104Y10525D01*
X100100D01*
Y10000D01*
Y9475D01*
X100104D01*
X100297Y9555D01*
X100445Y9703D01*
X100466Y9753D01*
X100576Y9772D01*
X100636Y9769D01*
X100793Y9612D01*
X100937Y9529D01*
Y3614D01*
X100445D01*
Y1812D01*
X102247D01*
Y3614D01*
X101755D01*
Y9529D01*
X101899Y9612D01*
X102067Y9780D01*
X102186Y9985D01*
X102247Y10214D01*
Y10452D01*
X102186Y10681D01*
X102067Y10886D01*
X101899Y11054D01*
X101694Y11173D01*
X101465Y11234D01*
D02*
G37*
G36*
X48836Y11411D02*
X46836D01*
Y10296D01*
X48836D01*
Y11411D01*
D02*
G37*
G36*
X46636D02*
X44636D01*
Y10296D01*
X46636D01*
Y11411D01*
D02*
G37*
G36*
X120104Y10525D02*
X120100D01*
Y10100D01*
X120525D01*
Y10104D01*
X120445Y10297D01*
X120297Y10445D01*
X120104Y10525D01*
D02*
G37*
G36*
X119900D02*
X119896D01*
X119703Y10445D01*
X119555Y10297D01*
X119475Y10104D01*
Y10100D01*
X119900D01*
Y10525D01*
D02*
G37*
G36*
X99900D02*
X99896D01*
X99703Y10445D01*
X99555Y10297D01*
X99475Y10104D01*
Y10100D01*
X99900D01*
Y10525D01*
D02*
G37*
G36*
X50104D02*
X50100D01*
Y10100D01*
X50525D01*
Y10104D01*
X50445Y10297D01*
X50297Y10445D01*
X50104Y10525D01*
D02*
G37*
G36*
X49900D02*
X49896D01*
X49703Y10445D01*
X49555Y10297D01*
X49475Y10104D01*
Y10100D01*
X49900D01*
Y10525D01*
D02*
G37*
G36*
X10104D02*
X10100D01*
Y10100D01*
X10525D01*
Y10104D01*
X10445Y10297D01*
X10297Y10445D01*
X10104Y10525D01*
D02*
G37*
G36*
X9900D02*
X9896D01*
X9703Y10445D01*
X9555Y10297D01*
X9475Y10104D01*
Y10100D01*
X9900D01*
Y10525D01*
D02*
G37*
G36*
X14821Y10322D02*
X13119D01*
Y9980D01*
X12535D01*
Y10272D01*
X10833D01*
Y8952D01*
X10784Y8821D01*
X10784Y8739D01*
Y8171D01*
X12584D01*
Y8739D01*
X12584Y8821D01*
X12535Y8952D01*
Y9055D01*
X12642Y9162D01*
X13119D01*
Y8820D01*
X14821D01*
Y9243D01*
X15999D01*
X16161Y9176D01*
X16351D01*
X16526Y9248D01*
X16660Y9382D01*
X16732Y9557D01*
Y9747D01*
X16660Y9922D01*
X16526Y10056D01*
X16351Y10128D01*
X16161D01*
X15999Y10061D01*
X14821D01*
Y10322D01*
D02*
G37*
G36*
X65466Y10822D02*
X64616D01*
Y9972D01*
X64641D01*
X64883Y10037D01*
X65099Y10162D01*
X65276Y10339D01*
X65401Y10555D01*
X65466Y10797D01*
Y10822D01*
D02*
G37*
G36*
X64416D02*
X63566D01*
Y10797D01*
X63631Y10555D01*
X63756Y10339D01*
X63933Y10162D01*
X64149Y10037D01*
X64391Y9972D01*
X64416D01*
Y10822D01*
D02*
G37*
G36*
X56004Y10479D02*
X55254D01*
Y9604D01*
X56004D01*
Y10479D01*
D02*
G37*
G36*
X55054D02*
X54304D01*
Y9604D01*
X55054D01*
Y10479D01*
D02*
G37*
G36*
X120525Y9900D02*
X120100D01*
Y9475D01*
X120104D01*
X120297Y9555D01*
X120445Y9703D01*
X120525Y9896D01*
Y9900D01*
D02*
G37*
G36*
X119900D02*
X119475D01*
Y9896D01*
X119555Y9703D01*
X119703Y9555D01*
X119896Y9475D01*
X119900D01*
Y9900D01*
D02*
G37*
G36*
X99900D02*
X99475D01*
Y9896D01*
X99555Y9703D01*
X99703Y9555D01*
X99896Y9475D01*
X99900D01*
Y9900D01*
D02*
G37*
G36*
X50525D02*
X50100D01*
Y9475D01*
X50104D01*
X50297Y9555D01*
X50445Y9703D01*
X50525Y9896D01*
Y9900D01*
D02*
G37*
G36*
X49900D02*
X49475D01*
Y9896D01*
X49555Y9703D01*
X49703Y9555D01*
X49896Y9475D01*
X49900D01*
Y9900D01*
D02*
G37*
G36*
X10525D02*
X10100D01*
Y9475D01*
X10104D01*
X10297Y9555D01*
X10445Y9703D01*
X10525Y9896D01*
Y9900D01*
D02*
G37*
G36*
X9900D02*
X9475D01*
Y9896D01*
X9555Y9703D01*
X9703Y9555D01*
X9896Y9475D01*
X9900D01*
Y9900D01*
D02*
G37*
G36*
X31666Y13742D02*
X29214D01*
Y9219D01*
X28136D01*
X28029Y9326D01*
X28029Y9735D01*
X28029Y9788D01*
Y11137D01*
X26327D01*
Y10719D01*
X23158D01*
X23049Y10698D01*
X22958Y10636D01*
X21541Y9219D01*
X20851D01*
X20823Y9261D01*
X20674Y9361D01*
X20498Y9396D01*
X18898D01*
X18722Y9361D01*
X18573Y9261D01*
X18473Y9112D01*
X18438Y8936D01*
X18473Y8760D01*
X18573Y8611D01*
X18722Y8511D01*
X18898Y8476D01*
X20498D01*
X20674Y8511D01*
X20823Y8611D01*
X20851Y8653D01*
X21658D01*
X21766Y8674D01*
X21858Y8736D01*
X23275Y10153D01*
X26220D01*
X26327Y10046D01*
X26327Y9637D01*
X26327Y9584D01*
Y9219D01*
X25651D01*
X25623Y9261D01*
X25474Y9361D01*
X25298Y9396D01*
X23698D01*
X23522Y9361D01*
X23373Y9261D01*
X23273Y9112D01*
X23238Y8936D01*
X23273Y8760D01*
X23373Y8611D01*
X23522Y8511D01*
X23698Y8476D01*
X25298D01*
X25474Y8511D01*
X25623Y8611D01*
X25651Y8653D01*
X26327D01*
Y8235D01*
X26895D01*
Y5266D01*
X26607D01*
Y4224D01*
X26895D01*
Y3738D01*
X24930D01*
X24868Y3889D01*
X24925Y3945D01*
X24997Y4120D01*
Y4310D01*
X24925Y4485D01*
X24894Y4515D01*
X24957Y4666D01*
X25298D01*
X25474Y4701D01*
X25623Y4801D01*
X25723Y4950D01*
X25758Y5126D01*
X25723Y5302D01*
X25623Y5451D01*
X25474Y5551D01*
X25298Y5586D01*
X23698D01*
X23522Y5551D01*
X23373Y5451D01*
X23273Y5302D01*
X23238Y5126D01*
X23273Y4950D01*
X23373Y4801D01*
X23522Y4701D01*
X23698Y4666D01*
X24085D01*
X24148Y4515D01*
X24117Y4485D01*
X24045Y4310D01*
Y4120D01*
X24117Y3945D01*
X24174Y3889D01*
X24112Y3738D01*
X23287D01*
X21698Y5326D01*
X21606Y5388D01*
X21498Y5409D01*
X20851D01*
X20823Y5451D01*
X20674Y5551D01*
X20498Y5586D01*
X18898D01*
X18722Y5551D01*
X18573Y5451D01*
X18473Y5302D01*
X18438Y5126D01*
X18473Y4950D01*
X18573Y4801D01*
X18722Y4701D01*
X18898Y4666D01*
X20498D01*
X20674Y4701D01*
X20823Y4801D01*
X20851Y4843D01*
X21381D01*
X22969Y3254D01*
X23061Y3192D01*
X23170Y3171D01*
X27061D01*
X28400Y1832D01*
X28492Y1770D01*
X28600Y1749D01*
X31701D01*
Y1281D01*
X33403D01*
Y1749D01*
X33733D01*
Y1281D01*
X35435D01*
Y2783D01*
X33733D01*
Y2315D01*
X33403D01*
Y2783D01*
X31701D01*
Y2315D01*
X28718D01*
X27461Y3572D01*
Y4224D01*
X27749D01*
Y5266D01*
X27461D01*
Y8235D01*
X28029D01*
Y8653D01*
X29214D01*
Y7940D01*
X31666D01*
Y13742D01*
D02*
G37*
G36*
X42303Y10807D02*
X40501D01*
Y9005D01*
X42303D01*
Y10807D01*
D02*
G37*
G36*
X35516Y13742D02*
X33064D01*
Y7940D01*
X33897D01*
Y6800D01*
X33790Y6693D01*
X33687D01*
X33556Y6742D01*
X33474Y6742D01*
X32906D01*
Y5842D01*
X32806D01*
D01*
X32906D01*
Y4942D01*
X33474D01*
X33556Y4942D01*
X33687Y4991D01*
X33790D01*
X33897Y4884D01*
Y4583D01*
X33733D01*
Y3081D01*
X35435D01*
Y3147D01*
X44685D01*
Y2390D01*
X48787D01*
Y4722D01*
X44685D01*
Y3965D01*
X35435D01*
Y4583D01*
X34715D01*
Y4991D01*
X35007D01*
Y6693D01*
X34715D01*
Y7940D01*
X35516D01*
Y9497D01*
X38058D01*
X38141Y9353D01*
X38309Y9185D01*
X38514Y9066D01*
X38743Y9005D01*
X38981D01*
X39210Y9066D01*
X39415Y9185D01*
X39583Y9353D01*
X39702Y9558D01*
X39763Y9787D01*
Y10025D01*
X39702Y10254D01*
X39583Y10459D01*
X39415Y10627D01*
X39210Y10746D01*
X38981Y10807D01*
X38743D01*
X38514Y10746D01*
X38309Y10627D01*
X38141Y10459D01*
X38058Y10315D01*
X35516D01*
Y13742D01*
D02*
G37*
G36*
X12584Y7971D02*
X11784D01*
Y7321D01*
X12584D01*
Y7971D01*
D02*
G37*
G36*
X11584D02*
X10784D01*
Y7321D01*
X11584D01*
Y7971D01*
D02*
G37*
G36*
X113373Y12055D02*
X111671D01*
Y10553D01*
X112239D01*
Y7876D01*
X111625Y7263D01*
X111551Y7337D01*
X111346Y7456D01*
X111117Y7517D01*
X110879D01*
X110650Y7456D01*
X110445Y7337D01*
X110277Y7169D01*
X110158Y6964D01*
X110097Y6735D01*
Y6497D01*
X110158Y6268D01*
X110277Y6063D01*
X110445Y5895D01*
X110650Y5776D01*
X110879Y5715D01*
X111117D01*
X111346Y5776D01*
X111551Y5895D01*
X111719Y6063D01*
X111838Y6268D01*
X111899Y6497D01*
Y6735D01*
X111896Y6745D01*
X111935Y6771D01*
X112722Y7559D01*
X112784Y7650D01*
X112805Y7759D01*
Y10553D01*
X113373D01*
Y12055D01*
D02*
G37*
G36*
X22193Y8142D02*
X22003D01*
X21828Y8070D01*
X21694Y7936D01*
X21622Y7761D01*
Y7571D01*
X21694Y7396D01*
X21828Y7262D01*
X22003Y7190D01*
X22193D01*
X22355Y7257D01*
X23498D01*
X23522Y7241D01*
X23698Y7206D01*
X25298D01*
X25474Y7241D01*
X25623Y7341D01*
X25723Y7490D01*
X25758Y7666D01*
X25723Y7842D01*
X25623Y7991D01*
X25474Y8091D01*
X25298Y8126D01*
X23698D01*
X23522Y8091D01*
X23498Y8075D01*
X22355D01*
X22193Y8142D01*
D02*
G37*
G36*
X25298Y6906D02*
X24598D01*
Y6496D01*
X25788D01*
X25769Y6591D01*
X25658Y6756D01*
X25493Y6867D01*
X25298Y6906D01*
D02*
G37*
G36*
X20498D02*
X19798D01*
Y6496D01*
X20988D01*
X20969Y6591D01*
X20858Y6756D01*
X20693Y6867D01*
X20498Y6906D01*
D02*
G37*
G36*
X24398D02*
X23698D01*
X23503Y6867D01*
X23338Y6756D01*
X23227Y6591D01*
X23208Y6496D01*
X24398D01*
Y6906D01*
D02*
G37*
G36*
X14821Y8522D02*
X13119D01*
Y7020D01*
X13687D01*
Y6766D01*
X13119D01*
Y6298D01*
X12858D01*
X12738Y6419D01*
X12563Y6491D01*
X12373D01*
X12198Y6419D01*
X12064Y6285D01*
X11992Y6110D01*
Y5920D01*
X12064Y5745D01*
X12198Y5611D01*
X12373Y5539D01*
X12563D01*
X12738Y5611D01*
X12858Y5732D01*
X13119D01*
Y5264D01*
X14821D01*
Y6766D01*
X14253D01*
Y7020D01*
X14821D01*
Y8522D01*
D02*
G37*
G36*
X20498Y8126D02*
X18898D01*
X18722Y8091D01*
X18573Y7991D01*
X18473Y7842D01*
X18438Y7666D01*
X18473Y7490D01*
X18518Y7423D01*
X17258Y6164D01*
X17107Y6218D01*
Y6543D01*
X15405D01*
Y5223D01*
X15356Y5092D01*
X15356Y5010D01*
Y4442D01*
X17156D01*
Y5010D01*
X17156Y5092D01*
X17107Y5223D01*
Y5559D01*
X17337D01*
X17445Y5580D01*
X17537Y5642D01*
X18244Y6348D01*
X18408Y6298D01*
X18427Y6201D01*
X18538Y6036D01*
X18703Y5925D01*
X18898Y5886D01*
X19598D01*
Y6396D01*
Y6906D01*
X19015D01*
X18953Y7057D01*
X19032Y7136D01*
X19079Y7206D01*
X20498D01*
X20674Y7241D01*
X20823Y7341D01*
X20923Y7490D01*
X20958Y7666D01*
X20923Y7842D01*
X20823Y7991D01*
X20674Y8091D01*
X20498Y8126D01*
D02*
G37*
G36*
X140297Y17759D02*
X138595D01*
Y16257D01*
X139163D01*
Y15772D01*
X137395D01*
Y13440D01*
X139075D01*
X139126Y13289D01*
X131839Y6002D01*
X131118D01*
Y6592D01*
X129166D01*
Y4771D01*
X129166Y4706D01*
X129015Y4644D01*
X128807Y4851D01*
Y11401D01*
X132080D01*
X132188Y11422D01*
X132280Y11484D01*
X133296Y12500D01*
X133358Y12592D01*
X133379Y12700D01*
Y13440D01*
X135147D01*
Y15772D01*
X133379D01*
Y16257D01*
X133947D01*
Y17759D01*
X132245D01*
Y16257D01*
X132813D01*
Y15772D01*
X131045D01*
Y13440D01*
X132813D01*
Y12817D01*
X131963Y11967D01*
X125933D01*
X123158Y14742D01*
Y14912D01*
X123086Y15087D01*
X122952Y15221D01*
X122777Y15293D01*
X122587D01*
X122412Y15221D01*
X122278Y15087D01*
X122206Y14912D01*
Y14723D01*
X122278Y14548D01*
X122412Y14414D01*
X122587Y14341D01*
X122757D01*
X125615Y11484D01*
X125707Y11422D01*
X125815Y11401D01*
X128241D01*
Y4734D01*
X128262Y4625D01*
X128324Y4534D01*
X129281Y3576D01*
X129233Y3493D01*
X129166Y3244D01*
Y2987D01*
X129233Y2739D01*
X129361Y2517D01*
X129543Y2335D01*
X129765Y2206D01*
X130014Y2140D01*
X130270D01*
X130519Y2206D01*
X130741Y2335D01*
X130923Y2517D01*
X131051Y2739D01*
X131118Y2987D01*
Y3244D01*
X131051Y3493D01*
X130923Y3715D01*
X130741Y3897D01*
X130519Y4025D01*
X130270Y4092D01*
X130014D01*
X129765Y4025D01*
X129682Y3977D01*
X129170Y4489D01*
X129232Y4640D01*
X129290Y4640D01*
X131118D01*
Y5435D01*
X131956D01*
X132065Y5456D01*
X132157Y5518D01*
X139646Y13008D01*
X139708Y13100D01*
X139729Y13208D01*
Y13440D01*
X141497D01*
Y15772D01*
X139729D01*
Y16257D01*
X140297D01*
Y17759D01*
D02*
G37*
G36*
X32706Y6742D02*
X32056D01*
Y5942D01*
X32706D01*
Y6742D01*
D02*
G37*
G36*
X25788Y6296D02*
X24598D01*
Y5886D01*
X25298D01*
X25493Y5925D01*
X25658Y6036D01*
X25769Y6201D01*
X25788Y6296D01*
D02*
G37*
G36*
X24398D02*
X23208D01*
X23227Y6201D01*
X23338Y6036D01*
X23503Y5925D01*
X23698Y5886D01*
X24398D01*
Y6296D01*
D02*
G37*
G36*
X20988D02*
X19798D01*
Y5886D01*
X20498D01*
X20693Y5925D01*
X20858Y6036D01*
X20969Y6201D01*
X20988Y6296D01*
D02*
G37*
G36*
X135277Y6641D02*
X135242D01*
Y5716D01*
X136167D01*
Y5751D01*
X136097Y6012D01*
X135962Y6245D01*
X135771Y6436D01*
X135538Y6571D01*
X135277Y6641D01*
D02*
G37*
G36*
X135042D02*
X135007D01*
X134746Y6571D01*
X134513Y6436D01*
X134322Y6245D01*
X134187Y6012D01*
X134117Y5751D01*
Y5716D01*
X135042D01*
Y6641D01*
D02*
G37*
G36*
X117437Y12055D02*
X115735D01*
Y10553D01*
X116403D01*
Y9818D01*
X116424Y9710D01*
X116486Y9618D01*
X119082Y7021D01*
X119048Y6964D01*
X118987Y6735D01*
Y6497D01*
X119048Y6268D01*
X119167Y6063D01*
X119335Y5895D01*
X119540Y5776D01*
X119769Y5715D01*
X120007D01*
X120236Y5776D01*
X120441Y5895D01*
X120609Y6063D01*
X120728Y6268D01*
X120789Y6497D01*
Y6735D01*
X120728Y6964D01*
X120609Y7169D01*
X120441Y7337D01*
X120236Y7456D01*
X120007Y7517D01*
X119769D01*
X119540Y7456D01*
X119483Y7422D01*
X116969Y9935D01*
Y10553D01*
X117437D01*
Y12055D01*
D02*
G37*
G36*
X115405D02*
X113703D01*
Y10553D01*
X114271D01*
Y7378D01*
X114292Y7269D01*
X114354Y7178D01*
X114510Y7021D01*
X114476Y6964D01*
X114415Y6735D01*
Y6497D01*
X114476Y6268D01*
X114595Y6063D01*
X114763Y5895D01*
X114968Y5776D01*
X115197Y5715D01*
X115435D01*
X115664Y5776D01*
X115869Y5895D01*
X116037Y6063D01*
X116156Y6268D01*
X116217Y6497D01*
Y6735D01*
X116156Y6964D01*
X116037Y7169D01*
X115869Y7337D01*
X115664Y7456D01*
X115435Y7517D01*
X115197D01*
X114972Y7457D01*
X114952Y7468D01*
X114837Y7554D01*
Y10553D01*
X115405D01*
Y12055D01*
D02*
G37*
G36*
X32706Y5742D02*
X32056D01*
Y4942D01*
X32706D01*
Y5742D01*
D02*
G37*
G36*
X29998Y5315D02*
X29478D01*
Y4845D01*
X29998D01*
Y5315D01*
D02*
G37*
G36*
X29278D02*
X28758D01*
Y4845D01*
X29278D01*
Y5315D01*
D02*
G37*
G36*
X136167Y5516D02*
X135242D01*
Y4591D01*
X135277D01*
X135538Y4661D01*
X135771Y4796D01*
X135962Y4987D01*
X136097Y5220D01*
X136167Y5481D01*
Y5516D01*
D02*
G37*
G36*
X135042D02*
X134117D01*
Y5481D01*
X134187Y5220D01*
X134322Y4987D01*
X134513Y4796D01*
X134746Y4661D01*
X135007Y4591D01*
X135042D01*
Y5516D01*
D02*
G37*
G36*
X14870Y5015D02*
X14070D01*
Y4315D01*
X14870D01*
Y5015D01*
D02*
G37*
G36*
X13870D02*
X13070D01*
Y4315D01*
X13870D01*
Y5015D01*
D02*
G37*
G36*
X120838Y5026D02*
X119988D01*
Y4176D01*
X120838D01*
Y5026D01*
D02*
G37*
G36*
X116266D02*
X115416D01*
Y4176D01*
X116266D01*
Y5026D01*
D02*
G37*
G36*
X111948D02*
X111098D01*
Y4176D01*
X111948D01*
Y5026D01*
D02*
G37*
G36*
X107630D02*
X106780D01*
Y4176D01*
X107630D01*
Y5026D01*
D02*
G37*
G36*
X119788D02*
X118938D01*
Y4176D01*
X119788D01*
Y5026D01*
D02*
G37*
G36*
X115216D02*
X114366D01*
Y4176D01*
X115216D01*
Y5026D01*
D02*
G37*
G36*
X110898D02*
X110048D01*
Y4176D01*
X110898D01*
Y5026D01*
D02*
G37*
G36*
X106580D02*
X105730D01*
Y4176D01*
X106580D01*
Y5026D01*
D02*
G37*
G36*
X29998Y4645D02*
X29478D01*
Y4175D01*
X29998D01*
Y4645D01*
D02*
G37*
G36*
X29278D02*
X28758D01*
Y4175D01*
X29278D01*
Y4645D01*
D02*
G37*
G36*
X33452Y4632D02*
X32652D01*
Y3932D01*
X33452D01*
Y4632D01*
D02*
G37*
G36*
X32452D02*
X31652D01*
Y3932D01*
X32452D01*
Y4632D01*
D02*
G37*
G36*
X81396Y4406D02*
X80796D01*
Y3656D01*
X81396D01*
Y4406D01*
D02*
G37*
G36*
X75198D02*
X74598D01*
Y3656D01*
X75198D01*
Y4406D01*
D02*
G37*
G36*
X74398D02*
X73798D01*
Y3656D01*
X74398D01*
Y4406D01*
D02*
G37*
G36*
X80596D02*
X79996D01*
Y3656D01*
X80596D01*
Y4406D01*
D02*
G37*
G36*
X17156Y4242D02*
X16356D01*
Y3592D01*
X17156D01*
Y4242D01*
D02*
G37*
G36*
X16156D02*
X15356D01*
Y3592D01*
X16156D01*
Y4242D01*
D02*
G37*
G36*
X14870Y4115D02*
X14070D01*
Y3415D01*
X14870D01*
Y4115D01*
D02*
G37*
G36*
X13870D02*
X13070D01*
Y3415D01*
X13870D01*
Y4115D01*
D02*
G37*
G36*
X132777Y4141D02*
X132742D01*
Y3216D01*
X133667D01*
Y3251D01*
X133597Y3512D01*
X133462Y3745D01*
X133271Y3936D01*
X133038Y4071D01*
X132777Y4141D01*
D02*
G37*
G36*
X132542D02*
X132507D01*
X132246Y4071D01*
X132013Y3936D01*
X131822Y3745D01*
X131687Y3512D01*
X131617Y3251D01*
Y3216D01*
X132542D01*
Y4141D01*
D02*
G37*
G36*
X139192Y10092D02*
X138837Y10057D01*
X138496Y9953D01*
X138182Y9785D01*
X137907Y9559D01*
X137681Y9284D01*
X137513Y8970D01*
X137409Y8629D01*
X137374Y8274D01*
Y4958D01*
X137409Y4603D01*
X137513Y4262D01*
X137681Y3948D01*
X137907Y3673D01*
X138182Y3447D01*
X138496Y3279D01*
X138837Y3175D01*
X139192Y3140D01*
X139547Y3175D01*
X139888Y3279D01*
X140202Y3447D01*
X140477Y3673D01*
X140703Y3948D01*
X140871Y4262D01*
X140975Y4603D01*
X141010Y4958D01*
Y8274D01*
X140975Y8629D01*
X140871Y8970D01*
X140703Y9284D01*
X140477Y9559D01*
X140202Y9785D01*
X139888Y9953D01*
X139547Y10057D01*
X139192Y10092D01*
D02*
G37*
G36*
X126092D02*
X125737Y10057D01*
X125396Y9953D01*
X125082Y9785D01*
X124807Y9559D01*
X124581Y9284D01*
X124413Y8970D01*
X124309Y8629D01*
X124274Y8274D01*
Y4958D01*
X124309Y4603D01*
X124413Y4262D01*
X124581Y3948D01*
X124807Y3673D01*
X125082Y3447D01*
X125396Y3279D01*
X125737Y3175D01*
X126092Y3140D01*
X126447Y3175D01*
X126788Y3279D01*
X127102Y3447D01*
X127377Y3673D01*
X127603Y3948D01*
X127771Y4262D01*
X127875Y4603D01*
X127910Y4958D01*
Y8274D01*
X127875Y8629D01*
X127771Y8970D01*
X127603Y9284D01*
X127377Y9559D01*
X127102Y9785D01*
X126788Y9953D01*
X126447Y10057D01*
X126092Y10092D01*
D02*
G37*
G36*
X120838Y3976D02*
X119988D01*
Y3126D01*
X120838D01*
Y3976D01*
D02*
G37*
G36*
X119788D02*
X118938D01*
Y3126D01*
X119788D01*
Y3976D01*
D02*
G37*
G36*
X116266D02*
X115416D01*
Y3126D01*
X116266D01*
Y3976D01*
D02*
G37*
G36*
X115216D02*
X114366D01*
Y3126D01*
X115216D01*
Y3976D01*
D02*
G37*
G36*
X111948D02*
X111098D01*
Y3126D01*
X111948D01*
Y3976D01*
D02*
G37*
G36*
X110898D02*
X110048D01*
Y3126D01*
X110898D01*
Y3976D01*
D02*
G37*
G36*
X107630D02*
X106780D01*
Y3126D01*
X107630D01*
Y3976D01*
D02*
G37*
G36*
X106580D02*
X105730D01*
Y3126D01*
X106580D01*
Y3976D01*
D02*
G37*
G36*
X33452Y3732D02*
X32652D01*
Y3032D01*
X33452D01*
Y3732D01*
D02*
G37*
G36*
X32452D02*
X31652D01*
Y3032D01*
X32452D01*
Y3732D01*
D02*
G37*
G36*
X97724Y3675D02*
X96874D01*
Y2825D01*
X97724D01*
Y3675D01*
D02*
G37*
G36*
X96674D02*
X95824D01*
Y2825D01*
X96674D01*
Y3675D01*
D02*
G37*
G36*
X56004Y3604D02*
X55254D01*
Y2729D01*
X56004D01*
Y3604D01*
D02*
G37*
G36*
X55054D02*
X54304D01*
Y2729D01*
X55054D01*
Y3604D01*
D02*
G37*
G36*
X81396Y3456D02*
X80796D01*
Y2706D01*
X81396D01*
Y3456D01*
D02*
G37*
G36*
X80596D02*
X79996D01*
Y2706D01*
X80596D01*
Y3456D01*
D02*
G37*
G36*
X75198D02*
X74598D01*
Y2706D01*
X75198D01*
Y3456D01*
D02*
G37*
G36*
X74398D02*
X73798D01*
Y2706D01*
X74398D01*
Y3456D01*
D02*
G37*
G36*
X64635Y4203D02*
X64397D01*
X64168Y4142D01*
X63963Y4023D01*
X63795Y3855D01*
X63676Y3650D01*
X63615Y3421D01*
Y3183D01*
X63676Y2954D01*
X63795Y2749D01*
X63963Y2581D01*
X64168Y2462D01*
X64397Y2401D01*
X64635D01*
X64864Y2462D01*
X65069Y2581D01*
X65237Y2749D01*
X65356Y2954D01*
X65417Y3183D01*
Y3421D01*
X65356Y3650D01*
X65237Y3855D01*
X65069Y4023D01*
X64864Y4142D01*
X64635Y4203D01*
D02*
G37*
G36*
X135270Y4092D02*
X135014D01*
X134765Y4025D01*
X134543Y3897D01*
X134361Y3715D01*
X134233Y3493D01*
X134166Y3244D01*
Y2987D01*
X134233Y2739D01*
X134361Y2517D01*
X134543Y2335D01*
X134765Y2206D01*
X135014Y2140D01*
X135270D01*
X135519Y2206D01*
X135741Y2335D01*
X135923Y2517D01*
X136051Y2739D01*
X136118Y2987D01*
Y3244D01*
X136051Y3493D01*
X135923Y3715D01*
X135741Y3897D01*
X135519Y4025D01*
X135270Y4092D01*
D02*
G37*
G36*
X133667Y3016D02*
X132742D01*
Y2091D01*
X132777D01*
X133038Y2161D01*
X133271Y2296D01*
X133462Y2487D01*
X133597Y2720D01*
X133667Y2981D01*
Y3016D01*
D02*
G37*
G36*
X132542D02*
X131617D01*
Y2981D01*
X131687Y2720D01*
X131822Y2487D01*
X132013Y2296D01*
X132246Y2161D01*
X132507Y2091D01*
X132542D01*
Y3016D01*
D02*
G37*
G36*
X92067Y11234D02*
X91829D01*
X91600Y11173D01*
X91395Y11054D01*
X91227Y10886D01*
X91108Y10681D01*
X91047Y10452D01*
Y10214D01*
X91108Y9985D01*
X91227Y9780D01*
X91395Y9612D01*
X91539Y9529D01*
Y3614D01*
X91047D01*
Y1812D01*
X92849D01*
Y3614D01*
X92357D01*
Y9529D01*
X92501Y9612D01*
X92669Y9780D01*
X92788Y9985D01*
X92849Y10214D01*
Y10452D01*
X92788Y10681D01*
X92669Y10886D01*
X92501Y11054D01*
X92296Y11173D01*
X92067Y11234D01*
D02*
G37*
G36*
X97724Y2625D02*
X96874D01*
Y1775D01*
X97724D01*
Y2625D01*
D02*
G37*
G36*
X96674D02*
X95824D01*
Y1775D01*
X96674D01*
Y2625D01*
D02*
G37*
G36*
X56004Y2529D02*
X55254D01*
Y1654D01*
X56004D01*
Y2529D01*
D02*
G37*
G36*
X55054D02*
X54304D01*
Y1654D01*
X55054D01*
Y2529D01*
D02*
G37*
%LPD*%
G36*
X55921Y34245D02*
X56089Y34077D01*
X56294Y33958D01*
X56523Y33897D01*
X56761D01*
X56990Y33958D01*
X57047Y33992D01*
X61627Y29412D01*
X61719Y29351D01*
X61827Y29329D01*
X69600D01*
X69634Y29285D01*
X69595Y29106D01*
X69461Y28972D01*
X69389Y28797D01*
Y28607D01*
X69456Y28445D01*
Y28194D01*
X69349Y28087D01*
X69051Y28087D01*
X68998Y28087D01*
X67649D01*
Y26385D01*
X67649D01*
Y26251D01*
X67649D01*
Y24549D01*
X68998D01*
X69149Y24549D01*
X69202Y24549D01*
X70551D01*
Y26251D01*
X70551D01*
X70551Y26385D01*
X70551D01*
Y28087D01*
X70274D01*
Y28445D01*
X70315Y28544D01*
X70480Y28591D01*
X72933Y26139D01*
Y25753D01*
X72891Y25725D01*
X72791Y25576D01*
X72756Y25400D01*
Y24100D01*
X72791Y23924D01*
X72891Y23775D01*
X72999Y23703D01*
X73002Y23558D01*
X72995Y23538D01*
X72946Y23518D01*
X72812Y23384D01*
X72746Y23222D01*
X72735Y23219D01*
X72591Y23226D01*
X72491Y23375D01*
X72342Y23475D01*
X72166Y23510D01*
X71799D01*
Y23740D01*
X71920Y23860D01*
X71992Y24035D01*
Y24225D01*
X71920Y24400D01*
X71786Y24534D01*
X71611Y24606D01*
X71421D01*
X71246Y24534D01*
X71112Y24400D01*
X71040Y24225D01*
Y24035D01*
X71112Y23860D01*
X71233Y23740D01*
Y23510D01*
X70866D01*
X70690Y23475D01*
X70541Y23375D01*
X70441Y23226D01*
X70406Y23050D01*
X70441Y22874D01*
X70526Y22747D01*
X70541Y22669D01*
Y22631D01*
X70526Y22553D01*
X70441Y22426D01*
X70406Y22250D01*
X70441Y22074D01*
X70526Y21947D01*
X70540Y21873D01*
X70539Y21867D01*
X70407Y21733D01*
X68063D01*
X55655Y34141D01*
Y34415D01*
X55802Y34450D01*
X55921Y34245D01*
D02*
G37*
G36*
X70486Y18616D02*
X70407Y18533D01*
X70142D01*
X70034Y18512D01*
X69942Y18450D01*
X67777Y16285D01*
X67054D01*
X66975Y16436D01*
X67024Y16555D01*
Y16745D01*
X66952Y16920D01*
X66818Y17054D01*
X66643Y17126D01*
X66512D01*
X66469Y17186D01*
X66504Y17272D01*
X66574Y17333D01*
X66602Y17333D01*
X68161D01*
Y17751D01*
X68820D01*
X68928Y17772D01*
X69020Y17834D01*
X69953Y18767D01*
X70421D01*
X70486Y18616D01*
D02*
G37*
G36*
X73727Y22555D02*
X75562Y20720D01*
X75629Y20558D01*
X75763Y20424D01*
X75925Y20357D01*
X76807Y19475D01*
Y14463D01*
X76656Y14382D01*
X76592Y14425D01*
X76416Y14460D01*
X76240Y14425D01*
X76113Y14340D01*
X76035Y14325D01*
X75997D01*
X75919Y14340D01*
X75792Y14425D01*
X75616Y14460D01*
X75440Y14425D01*
X75313Y14340D01*
X75235Y14325D01*
X75197D01*
X75119Y14340D01*
X74992Y14425D01*
X74816Y14460D01*
X74640Y14425D01*
X74513Y14340D01*
X74439Y14326D01*
X74433Y14327D01*
X74299Y14459D01*
Y20802D01*
X74278Y20910D01*
X74216Y21002D01*
X73499Y21719D01*
Y22553D01*
X73530Y22578D01*
X73727Y22555D01*
D02*
G37*
%LPC*%
G36*
X75104Y20525D02*
X75100D01*
Y20100D01*
X75525D01*
Y20104D01*
X75445Y20297D01*
X75297Y20445D01*
X75104Y20525D01*
D02*
G37*
G36*
X74900D02*
X74896D01*
X74703Y20445D01*
X74555Y20297D01*
X74475Y20104D01*
Y20100D01*
X74900D01*
Y20525D01*
D02*
G37*
G36*
X75525Y19900D02*
X75100D01*
Y19475D01*
X75104D01*
X75297Y19555D01*
X75445Y19703D01*
X75525Y19896D01*
Y19900D01*
D02*
G37*
G36*
X74900D02*
X74475D01*
Y19896D01*
X74555Y19703D01*
X74703Y19555D01*
X74896Y19475D01*
X74900D01*
Y19900D01*
D02*
G37*
%LPD*%
G36*
X107216Y19891D02*
Y12836D01*
X107096Y12716D01*
X107042Y12585D01*
X106884D01*
X106830Y12716D01*
X106709Y12836D01*
Y20200D01*
X106849Y20258D01*
X107216Y19891D01*
D02*
G37*
D10*
X30226Y85772D02*
D03*
X31176Y83522D02*
D03*
X29276D02*
D03*
X24892Y83457D02*
D03*
X23942Y85707D02*
D03*
X25842D02*
D03*
X20574Y86759D02*
D03*
X19624Y89009D02*
D03*
X21524D02*
D03*
D11*
X46736Y11511D02*
D03*
X139446Y14606D02*
D03*
X133096D02*
D03*
X126746D02*
D03*
X46736Y3556D02*
D03*
Y7366D02*
D03*
D12*
X66294Y84328D02*
D03*
X64044Y83378D02*
D03*
Y85278D02*
D03*
X76200Y84074D02*
D03*
X73950Y83124D02*
D03*
Y85024D02*
D03*
D13*
X29378Y4745D02*
D03*
X27178D02*
D03*
X27262Y19223D02*
D03*
X25062D02*
D03*
D14*
X79906Y86422D02*
D03*
Y82742D02*
D03*
D15*
X73050Y7950D02*
D03*
X82550D02*
D03*
D16*
X85657Y36830D02*
D03*
X85007D02*
D03*
X84357D02*
D03*
X83707D02*
D03*
X83057D02*
D03*
X82407D02*
D03*
X81757D02*
D03*
X81107D02*
D03*
Y31080D02*
D03*
X81757D02*
D03*
X82407D02*
D03*
X83057D02*
D03*
X83707D02*
D03*
X84357D02*
D03*
X85007D02*
D03*
X85657D02*
D03*
D17*
X86360Y19800D02*
D03*
Y18300D02*
D03*
X16256Y5842D02*
D03*
Y4342D02*
D03*
X27178Y10436D02*
D03*
Y8936D02*
D03*
X140462Y42396D02*
D03*
Y40896D02*
D03*
X113854Y74410D02*
D03*
Y72910D02*
D03*
X104456Y72898D02*
D03*
Y74398D02*
D03*
X114554Y26936D02*
D03*
Y28436D02*
D03*
X105664Y26936D02*
D03*
Y28436D02*
D03*
X67310Y19534D02*
D03*
Y18034D02*
D03*
X11684Y8071D02*
D03*
Y9571D02*
D03*
X13462Y20481D02*
D03*
Y18981D02*
D03*
X9398Y23795D02*
D03*
Y25295D02*
D03*
X24769Y24660D02*
D03*
Y23160D02*
D03*
D18*
X101346Y18300D02*
D03*
X96645Y18034D02*
D03*
X91948D02*
D03*
X143002Y54356D02*
D03*
X134874Y77978D02*
D03*
X84074Y58166D02*
D03*
X60452Y23368D02*
D03*
X134620Y32004D02*
D03*
Y58420D02*
D03*
D19*
X33274Y17918D02*
D03*
Y16118D02*
D03*
X30988D02*
D03*
Y17918D02*
D03*
X34584Y2032D02*
D03*
Y3832D02*
D03*
X32552Y2032D02*
D03*
Y3832D02*
D03*
X13970Y9571D02*
D03*
Y7771D02*
D03*
X150876Y44196D02*
D03*
Y42396D02*
D03*
X140462Y45985D02*
D03*
Y44185D02*
D03*
X139446Y17008D02*
D03*
Y18808D02*
D03*
X133096Y17008D02*
D03*
Y18808D02*
D03*
X126746Y17008D02*
D03*
Y18808D02*
D03*
X116586Y11304D02*
D03*
Y13104D02*
D03*
X114554Y11304D02*
D03*
Y13104D02*
D03*
X110490Y11304D02*
D03*
Y13104D02*
D03*
X34798Y87238D02*
D03*
Y89038D02*
D03*
X20574Y84350D02*
D03*
Y82550D02*
D03*
X56642Y15864D02*
D03*
Y17664D02*
D03*
X54610Y15864D02*
D03*
Y17664D02*
D03*
X13970Y6015D02*
D03*
Y4215D02*
D03*
X11684Y20631D02*
D03*
Y18831D02*
D03*
Y25341D02*
D03*
Y23541D02*
D03*
X71270Y85112D02*
D03*
Y83312D02*
D03*
X60452Y85228D02*
D03*
Y83428D02*
D03*
X112522Y11304D02*
D03*
Y13104D02*
D03*
D20*
X31774Y20066D02*
D03*
X33274D02*
D03*
X32806Y5842D02*
D03*
X34306D02*
D03*
X145046Y39116D02*
D03*
X146546D02*
D03*
X77532Y28194D02*
D03*
X76032D02*
D03*
X69850Y25400D02*
D03*
X68350D02*
D03*
X69850Y27236D02*
D03*
X68350D02*
D03*
X55130Y13462D02*
D03*
X56630D02*
D03*
X86310Y27845D02*
D03*
X84810D02*
D03*
D21*
X148521Y41275D02*
D03*
Y42545D02*
D03*
Y43815D02*
D03*
Y45085D02*
D03*
X143071Y41275D02*
D03*
Y42545D02*
D03*
Y43815D02*
D03*
Y45085D02*
D03*
D22*
X144758Y34798D02*
D03*
X146558D02*
D03*
X34776Y84074D02*
D03*
X36576D02*
D03*
X30226Y89408D02*
D03*
X28426D02*
D03*
X55154Y26812D02*
D03*
X56954D02*
D03*
X55118Y28702D02*
D03*
X56918D02*
D03*
X51838Y26812D02*
D03*
X50038D02*
D03*
X51838Y28702D02*
D03*
X50038D02*
D03*
X85366Y39878D02*
D03*
X83566D02*
D03*
D23*
X107250Y70750D02*
D03*
X108520D02*
D03*
X109790D02*
D03*
X111060D02*
D03*
X107250Y76200D02*
D03*
X108520D02*
D03*
X109790D02*
D03*
X111060D02*
D03*
X108331Y25215D02*
D03*
X109601D02*
D03*
X110871D02*
D03*
X112141D02*
D03*
X108331Y30665D02*
D03*
X109601D02*
D03*
X110871D02*
D03*
X112141D02*
D03*
D24*
X81216Y24750D02*
D03*
X80416D02*
D03*
X79616D02*
D03*
X78816D02*
D03*
X78016D02*
D03*
X77216D02*
D03*
X76416D02*
D03*
X75616D02*
D03*
X74816D02*
D03*
X74016D02*
D03*
X73216D02*
D03*
Y13350D02*
D03*
X74016D02*
D03*
X74816D02*
D03*
X75616D02*
D03*
X76416D02*
D03*
X77216D02*
D03*
X78016D02*
D03*
X78816D02*
D03*
X79616D02*
D03*
X80416D02*
D03*
X81216D02*
D03*
D25*
X71516Y23050D02*
D03*
Y22250D02*
D03*
Y21450D02*
D03*
Y20650D02*
D03*
Y19850D02*
D03*
Y19050D02*
D03*
Y18250D02*
D03*
Y17450D02*
D03*
Y16650D02*
D03*
Y15850D02*
D03*
Y15050D02*
D03*
X82916D02*
D03*
Y15850D02*
D03*
Y16650D02*
D03*
Y17450D02*
D03*
Y18250D02*
D03*
Y19050D02*
D03*
Y19850D02*
D03*
Y20650D02*
D03*
Y21450D02*
D03*
Y22250D02*
D03*
Y23050D02*
D03*
D26*
X19698Y8936D02*
D03*
Y7666D02*
D03*
Y6396D02*
D03*
Y5126D02*
D03*
X24498Y8936D02*
D03*
Y7666D02*
D03*
Y6396D02*
D03*
Y5126D02*
D03*
X21704Y19350D02*
D03*
Y20620D02*
D03*
Y21890D02*
D03*
Y23160D02*
D03*
X16904Y19350D02*
D03*
Y20620D02*
D03*
Y21890D02*
D03*
Y23160D02*
D03*
D27*
X34290Y10841D02*
D03*
X30440D02*
D03*
X28956Y24892D02*
D03*
X32806D02*
D03*
D28*
X72898Y3556D02*
D03*
X74498D02*
D03*
X82296D02*
D03*
X80696D02*
D03*
D29*
X59654Y10579D02*
D03*
X55154D02*
D03*
X59654Y2629D02*
D03*
X55154D02*
D03*
D30*
X73531Y88521D02*
X76200Y85852D01*
Y84074D02*
Y85852D01*
Y84074D02*
X78259D01*
X73486Y89916D02*
X73531Y89871D01*
Y88521D02*
Y89871D01*
X64077Y83345D02*
X66261D01*
X64044Y83378D02*
X64077Y83345D01*
X66261D02*
X66294Y83312D01*
X79529Y82804D02*
X79844D01*
X78259Y84074D02*
X79529Y82804D01*
X71458Y83124D02*
X73950D01*
X71270Y83312D02*
X71458Y83124D01*
X73950Y81752D02*
X74898Y80804D01*
X73950Y81752D02*
Y83124D01*
X71270Y85112D02*
X71358Y85024D01*
X61040Y89916D02*
X61468D01*
X66294Y84328D02*
Y85090D01*
X61468Y89916D02*
X66294Y85090D01*
X60452Y83428D02*
X60502Y83378D01*
X64044D01*
X83312Y27391D02*
Y28307D01*
X84357Y29352D02*
Y31080D01*
X83312Y28307D02*
X84357Y29352D01*
X82916Y24586D02*
X83057Y24727D01*
X82916Y23050D02*
Y24586D01*
X83057Y24727D02*
Y24834D01*
X30226Y81534D02*
Y85772D01*
X30226Y81534D02*
X30226Y81534D01*
Y85772D02*
X30226Y85772D01*
X31349Y83846D02*
X34548D01*
X34776Y84074D02*
Y87216D01*
X34548Y83846D02*
X34776Y84074D01*
X31176Y83522D02*
Y83673D01*
X31349Y83846D01*
X34776Y87216D02*
X34798Y87238D01*
X73216Y21602D02*
Y23114D01*
Y21602D02*
X74016Y20802D01*
Y13350D02*
Y20802D01*
X122682Y14817D02*
X125815Y11684D01*
X128524D01*
X91948Y2713D02*
X91948Y2713D01*
X116686Y9818D02*
Y11304D01*
X73050Y7950D02*
X73233Y8133D01*
X72898Y7798D02*
X73050Y7950D01*
X59654Y10704D02*
Y11974D01*
Y10579D02*
Y10704D01*
Y2629D02*
Y10579D01*
X103632Y58228D02*
X108520Y63117D01*
X103570Y58166D02*
X103632Y58228D01*
X20574Y82550D02*
X24260D01*
X19050D02*
X20574D01*
X139446Y14606D02*
Y17008D01*
Y13208D02*
Y14606D01*
X80977Y25978D02*
X100173D01*
X105733Y20418D01*
Y12251D02*
Y20418D01*
X100444Y26383D02*
X106426Y20401D01*
X100720Y26788D02*
X107499Y20009D01*
X80582Y26383D02*
X100444D01*
X107499Y12446D02*
Y20009D01*
X80187Y26788D02*
X100720D01*
X106426Y12446D02*
Y20401D01*
X24498Y5126D02*
X24521Y5103D01*
Y4215D02*
Y5103D01*
X126854Y12700D02*
Y14498D01*
X126746Y14606D02*
X126854Y14498D01*
X122682Y17008D02*
X126746D01*
X128524Y4734D02*
X130142Y3116D01*
X132080Y11684D02*
X133096Y12700D01*
X128524Y4734D02*
Y11684D01*
X132080D01*
X133096Y14606D02*
X133096Y14606D01*
X133096Y12700D02*
Y14606D01*
X131956Y5718D02*
X139446Y13208D01*
X130244Y5718D02*
X131956D01*
X130142Y5616D02*
X130244Y5718D01*
X133096Y14606D02*
Y17008D01*
X126746D02*
X126854Y16900D01*
Y14714D02*
Y16900D01*
X126746Y14606D02*
X126854Y14714D01*
X85876Y43688D02*
X90620D01*
X83566Y41378D02*
X85876Y43688D01*
X55372Y34024D02*
X67946Y21450D01*
X71516D01*
X55372Y34024D02*
Y71628D01*
X74898Y80804D02*
X77692D01*
X82232Y46228D02*
Y76264D01*
X77692Y80804D02*
X82232Y76264D01*
X86424Y15050D02*
X88646Y17272D01*
X82916Y15050D02*
X86424D01*
X88646Y17272D02*
Y22352D01*
X61722Y32258D02*
X69596D01*
X74816Y27038D01*
Y24750D02*
Y27038D01*
X75616Y24750D02*
Y26895D01*
X69745Y32766D02*
X75616Y26895D01*
X63754Y32766D02*
X69745D01*
X69860Y29613D02*
X73216Y26257D01*
X56642Y34798D02*
X61827Y29613D01*
X69860D01*
X59182Y34798D02*
X61722Y32258D01*
X61722Y34798D02*
X63754Y32766D01*
X80848Y17450D02*
X82916D01*
X79248Y19050D02*
X80848Y17450D01*
X81216Y24750D02*
X81300Y24834D01*
X82232D01*
X85007Y31080D02*
Y32608D01*
X83707Y29613D02*
Y31080D01*
X83558Y29464D02*
X83707Y29613D01*
X80010Y29464D02*
X83558D01*
X71516Y23050D02*
Y24130D01*
X82296Y12446D02*
Y13201D01*
X82147Y13350D02*
X82296Y13201D01*
X81216Y13350D02*
X82147D01*
X76416Y11684D02*
Y13350D01*
X80010Y22125D02*
X81485Y20650D01*
X82916D01*
X80010Y22125D02*
Y22860D01*
X90620Y35618D02*
Y43688D01*
Y58108D01*
X81107Y18250D02*
X82916D01*
Y16650D02*
X85007D01*
X37049Y84647D02*
X37149D01*
X37592Y85090D01*
X36576Y84174D02*
X37049Y84647D01*
X37592Y85090D02*
X41910D01*
X36576Y84074D02*
Y84174D01*
X47901Y79099D02*
X55372Y71628D01*
X47826Y79174D02*
X47901Y79099D01*
X41910Y85090D02*
X47826Y79174D01*
X58420Y23368D02*
X60452D01*
X56954Y24834D02*
Y26812D01*
Y24834D02*
X58420Y23368D01*
X56918Y28702D02*
X59806D01*
X67858Y20650D02*
X71516D01*
X59806Y28702D02*
X67858Y20650D01*
X73216Y24750D02*
Y26257D01*
X78816Y25417D02*
X80187Y26788D01*
X78816Y24750D02*
Y25417D01*
X79616D02*
X80582Y26383D01*
X79616Y24750D02*
Y25417D01*
X80416D02*
X80977Y25978D01*
X106680Y11304D02*
X110490D01*
X106680Y11304D02*
X106680Y11304D01*
X105733Y12251D02*
X106680Y11304D01*
Y6616D02*
Y11304D01*
X80416Y24750D02*
Y25417D01*
X108712Y33782D02*
X110871Y31623D01*
X104140Y33782D02*
X108712D01*
X110871Y30665D02*
Y31623D01*
X108520Y63117D02*
Y70750D01*
X104140Y33782D02*
Y38100D01*
X100803Y30445D02*
X104140Y33782D01*
X100803Y29175D02*
Y30445D01*
X100584Y28956D02*
X100803Y29175D01*
X73216Y10936D02*
Y13350D01*
X71516Y13934D02*
Y15050D01*
X73164Y15838D02*
X73177Y15825D01*
X71528Y15838D02*
X73164D01*
X71516Y15850D02*
X71528Y15838D01*
X60452Y21158D02*
Y23368D01*
X62076Y19534D02*
X63664D01*
X66548Y16650D01*
X60452Y21158D02*
X62076Y19534D01*
X143071Y43815D02*
X144780D01*
Y33274D02*
Y34776D01*
X144758Y34798D02*
X144780Y34776D01*
X143256Y36322D02*
X148602D01*
X150876Y38596D02*
Y42396D01*
X148602Y36322D02*
X150876Y38596D01*
X150919Y44153D02*
X151808D01*
X150876Y44196D02*
X150919Y44153D01*
X152400Y39116D02*
Y43561D01*
X151808Y44153D02*
X152400Y43561D01*
X148082Y34798D02*
X152400Y39116D01*
X135636Y25654D02*
X138684D01*
X135636Y24384D02*
X137668D01*
X27178Y3454D02*
Y4745D01*
Y8936D01*
X79927Y8823D02*
X80800Y7950D01*
X79927Y8823D02*
Y8851D01*
X79616Y9162D02*
X79927Y8851D01*
X79616Y9162D02*
Y13350D01*
X80800Y7950D02*
X82550D01*
X73233Y8133D02*
X77796D01*
X78816Y9153D01*
Y13350D01*
X68350Y25400D02*
Y27236D01*
X140462Y45985D02*
X143060D01*
X143071Y45085D02*
Y45974D01*
Y54287D01*
X143060Y45985D02*
X143071Y45974D01*
X81216Y22250D02*
X82916D01*
X39116Y86360D02*
X41656D01*
X64262Y34798D02*
Y63754D01*
X41656Y86360D02*
X64262Y63754D01*
X21704Y19350D02*
X21844Y19210D01*
Y18288D02*
Y19210D01*
X25062Y16118D02*
Y19223D01*
X30988Y16118D02*
X33274D01*
X25062D02*
X30988D01*
X21498D02*
X25062D01*
Y19223D02*
Y22867D01*
X16904Y19350D02*
X18266D01*
X21498Y16118D01*
X10414Y20631D02*
X11684D01*
X22860Y24660D02*
X24769D01*
X14986Y23160D02*
X16904D01*
X12468Y6015D02*
X13970D01*
X114554Y7378D02*
Y11304D01*
X142111Y43815D02*
X143071D01*
X11684Y20631D02*
Y23541D01*
X128524Y32004D02*
X134620D01*
X113792Y58420D02*
X118364D01*
X103632Y49784D02*
Y54610D01*
X113792Y49784D02*
Y54610D01*
X112522Y7759D02*
Y11304D01*
X111335Y6616D02*
X111690Y6971D01*
X111734D02*
X112522Y7759D01*
X110998Y6616D02*
X111335D01*
X111690Y6971D02*
X111734D01*
X114554Y7378D02*
X115316Y6616D01*
X116686Y9818D02*
X119888Y6616D01*
X83566Y39878D02*
Y41378D01*
X90562Y35560D02*
X90620Y35618D01*
Y58108D02*
X90678Y58166D01*
X90836Y58324D01*
Y77566D02*
X90994Y77724D01*
X90836Y58324D02*
Y77566D01*
X84074Y58166D02*
X90678D01*
X79844Y82804D02*
X79906Y82742D01*
X25842Y42738D02*
X33782Y34798D01*
X25842Y42738D02*
Y85707D01*
X138938Y32004D02*
X143256Y36322D01*
X146558Y34798D02*
X148082D01*
X150495Y43815D02*
X150876Y44196D01*
X148521Y43815D02*
X150495D01*
X67310Y18034D02*
X68820D01*
X69836Y19050D01*
X71516D01*
X67894Y16002D02*
X70142Y18250D01*
X71516D01*
X64516Y16002D02*
X67894D01*
X128524Y32004D02*
Y58420D01*
X114300Y32004D02*
X118364D01*
X128524Y77256D02*
X128559Y77291D01*
Y77759D02*
X128778Y77978D01*
X128559Y77291D02*
Y77759D01*
X128524Y58420D02*
Y77256D01*
Y58420D02*
X134620D01*
Y32004D02*
X138938D01*
X90424Y28956D02*
X97028Y35560D01*
X100722D01*
X103632Y54610D02*
Y58228D01*
X100838Y58166D02*
X103570D01*
X109790Y62422D02*
Y70750D01*
Y62422D02*
X113792Y58420D01*
Y54610D02*
Y58420D01*
X103632Y77724D02*
X108691D01*
X101154D02*
X103632D01*
X103694Y77786D01*
Y86868D01*
X108691Y77724D02*
X109790Y76625D01*
Y76200D02*
Y76625D01*
X112076Y76200D02*
X113854Y77978D01*
X118618D01*
X113854D02*
Y86868D01*
X111060Y76200D02*
X112076D01*
X83566Y39878D02*
X83707Y39737D01*
Y36830D02*
Y39737D01*
X141741Y44185D02*
X142111Y43815D01*
X140462Y44185D02*
X141741D01*
X143002Y54356D02*
X143071Y54287D01*
X148521Y42545D02*
X150727D01*
X150876Y42396D01*
X128778Y77978D02*
X134874D01*
X112141Y30665D02*
X112961D01*
X114300Y32004D01*
Y38100D01*
X67564Y11430D02*
Y14872D01*
X64516Y8382D02*
X67564Y11430D01*
Y14872D02*
X70142Y17450D01*
X70244Y16650D02*
X71516D01*
X68154Y9480D02*
Y14560D01*
X70244Y16650D01*
X70142Y17450D02*
X71516D01*
X64516Y5842D02*
X68154Y9480D01*
X54956Y19050D02*
X61468D01*
X54610Y18704D02*
X54956Y19050D01*
X54610Y17664D02*
Y18704D01*
X61468Y19050D02*
X64516Y16002D01*
X58316Y13312D02*
X59654Y11974D01*
X56630Y13462D02*
X56780Y13312D01*
X58316D01*
X76032Y28194D02*
X76416Y27810D01*
Y24750D02*
Y27810D01*
X56642Y13474D02*
Y15864D01*
X56630Y13462D02*
X56642Y13474D01*
X54610Y15864D02*
X56642D01*
X51838Y26812D02*
X55154D01*
X51838Y28702D02*
X55118D01*
X82296Y3556D02*
Y7696D01*
X82550Y7950D01*
X72898Y3556D02*
Y7798D01*
X23158Y10436D02*
X27178D01*
X19698Y8936D02*
X21658D01*
X23158Y10436D01*
X21498Y5126D02*
X23170Y3454D01*
X27178D01*
X28600Y2032D02*
X32552D01*
X27178Y3454D02*
X28600Y2032D01*
X32552D02*
X34584D01*
X24769Y23160D02*
X28008D01*
X28956Y24108D01*
Y24892D01*
X21704Y23160D02*
X24769D01*
X25062Y22867D01*
X30440Y9884D02*
Y10841D01*
X27178Y8936D02*
X29492D01*
X30440Y9884D01*
X24498Y8936D02*
X27178D01*
X19698Y5126D02*
X21498D01*
X13970Y6015D02*
Y7771D01*
X17337Y5842D02*
X18832Y7337D01*
Y7506D01*
X16256Y5842D02*
X17337D01*
X18832Y7506D02*
X18992Y7666D01*
X19698D01*
X14695Y20481D02*
X16104Y21890D01*
X16904D01*
X13462Y20481D02*
X14695D01*
X22606Y89408D02*
X23942D01*
X22207Y89009D02*
X22606Y89408D01*
X21524Y89009D02*
X22207D01*
X23942Y89408D02*
X28426D01*
X23942Y85707D02*
Y89408D01*
X18542Y83058D02*
Y85650D01*
Y83058D02*
X19050Y82550D01*
X18542Y85650D02*
X19624Y86732D01*
Y89009D01*
X24892Y83182D02*
Y83457D01*
X24260Y82550D02*
X24892Y83182D01*
D31*
X85048Y28918D02*
X85628Y29499D01*
X85048Y28083D02*
Y28918D01*
X84810Y27845D02*
X85048Y28083D01*
X46482Y20066D02*
X49022D01*
X78486Y89916D02*
X79906Y88496D01*
Y86422D02*
Y88496D01*
X75438Y92964D02*
X78486Y89916D01*
X23114Y92964D02*
X75438D01*
X74016Y22844D02*
Y24750D01*
Y22844D02*
X76032Y20828D01*
X77216Y19644D01*
X74016Y24750D02*
Y26602D01*
X41656Y83820D02*
X45093Y80383D01*
Y34321D02*
Y80383D01*
X49022Y30988D02*
X53594D01*
X46990Y28956D02*
X49022Y30988D01*
X46990Y21450D02*
Y28956D01*
X44450Y24638D02*
Y33678D01*
Y22098D02*
Y24638D01*
X41910D02*
X44450D01*
Y22098D02*
X46482Y20066D01*
X44450Y33678D02*
X45093Y34321D01*
X85366Y39878D02*
X86868D01*
X34306Y4110D02*
X34860Y3556D01*
X34306Y4110D02*
Y10825D01*
X34860Y3556D02*
X46736D01*
X34306Y10825D02*
X35225Y9906D01*
X34290Y10841D02*
X34306Y10825D01*
X35225Y9906D02*
X38862D01*
X33274Y24638D02*
X39624D01*
X43434Y9783D02*
Y20828D01*
X39624Y24638D02*
X43434Y20828D01*
Y9783D02*
X45851Y7366D01*
X32806Y24892D02*
X33020D01*
X33274Y24638D01*
Y17918D02*
Y20066D01*
X33060Y24638D02*
X33274Y24424D01*
Y20066D02*
Y24424D01*
X45851Y7366D02*
X46736D01*
X101346Y18300D02*
Y23114D01*
X101346Y2713D02*
Y10333D01*
X91948Y2713D02*
Y10333D01*
X152146Y64262D02*
Y74422D01*
Y54182D02*
Y64262D01*
X86310Y19850D02*
X86360Y19900D01*
X116586Y13104D02*
X116686D01*
X114554D02*
X116586D01*
X59182Y17664D02*
X60314D01*
X146246Y38499D02*
Y38816D01*
X146546Y39116D01*
X145085Y37338D02*
X146246Y38499D01*
X134620Y37338D02*
X145085D01*
X147828Y39116D02*
X147828Y39116D01*
X146546Y39116D02*
X147828D01*
X146812Y45085D02*
X148521D01*
X91948Y18034D02*
X91948Y18034D01*
Y12873D02*
Y18034D01*
X77216Y13350D02*
Y19644D01*
X101346Y12873D02*
Y18300D01*
X89662Y41656D02*
Y42672D01*
X87820Y39814D02*
X89662Y41656D01*
X86868Y39814D02*
X87820D01*
X64516Y30988D02*
X69088D01*
X56642Y17664D02*
X56670Y17636D01*
X59182D01*
X77216Y10333D02*
Y13350D01*
X85657Y29528D02*
Y31080D01*
X81216Y19900D02*
X81241Y19875D01*
X82891D02*
X82916Y19850D01*
X81241Y19875D02*
X82891D01*
X116344Y26936D02*
X126746Y37338D01*
X113792Y70750D02*
X126746Y57796D01*
Y37338D02*
Y57796D01*
X114554Y22606D02*
X114554Y22606D01*
Y25215D01*
Y26936D01*
X112141Y25215D02*
X114554D01*
Y26936D02*
X116344D01*
X91948Y18034D02*
Y21533D01*
X91891Y21590D02*
X91948Y21533D01*
X91948Y18034D02*
X91948Y18034D01*
X101346Y18300D02*
X101346Y18300D01*
X110490Y13104D02*
Y18542D01*
Y13104D02*
X110490Y13104D01*
X71916Y28702D02*
X74016Y26602D01*
X69850Y27236D02*
X69865Y27251D01*
Y28702D01*
X85366Y39878D02*
X85366Y39878D01*
X86360Y19900D02*
Y21590D01*
X102616Y74398D02*
X104456D01*
X131826Y40896D02*
X140462D01*
X108331Y30665D02*
Y32258D01*
X117159Y13577D02*
Y13677D01*
X122290Y18808D02*
X126746D01*
X116686Y13104D02*
X117159Y13577D01*
Y13677D02*
X122290Y18808D01*
X126746D02*
X133096D01*
X111060Y70750D02*
X113792D01*
X113854Y70812D01*
Y72910D01*
X139446Y18808D02*
Y24849D01*
X153162Y38565D01*
X133096Y18808D02*
X139446D01*
X149860Y48768D02*
X153162Y45466D01*
Y38565D02*
Y45466D01*
X149860Y48768D02*
Y51896D01*
X110490Y13104D02*
X112522D01*
X69850Y25400D02*
Y27236D01*
X69850Y25400D02*
X69850Y25400D01*
X7874Y25295D02*
X9398D01*
X13970Y9571D02*
X14051Y9652D01*
X16256D01*
X22098Y7666D02*
X24498D01*
X82916Y19850D02*
X86310D01*
X149860Y64262D02*
X152146D01*
X149860Y51896D02*
X152146Y54182D01*
X149860Y76708D02*
X152146Y74422D01*
X20574Y90424D02*
X23114Y92964D01*
X20574Y86759D02*
Y90424D01*
X9398Y25295D02*
X11638D01*
X106656Y74398D02*
X107250Y74992D01*
Y76200D01*
X104456Y74398D02*
X106656D01*
X105733Y28505D02*
X107499D01*
X112522Y13104D02*
X114554D01*
X140462Y40896D02*
X141732D01*
X142111Y41275D02*
X143071D01*
X141732Y40896D02*
X142111Y41275D01*
X108331Y29337D02*
Y30665D01*
X107499Y28505D02*
X108331Y29337D01*
X105664Y28436D02*
X105733Y28505D01*
X60314Y17664D02*
X64516Y13462D01*
X20262Y21890D02*
X21704D01*
X16811Y25341D02*
X20262Y21890D01*
X11684Y25341D02*
X16811D01*
X11684Y9571D02*
X13970D01*
X11638Y25295D02*
X11684Y25341D01*
X20574Y84350D02*
Y86759D01*
D32*
X139192Y6616D02*
D03*
X126092D02*
D03*
D33*
X135142Y5616D02*
D03*
X132642Y3116D02*
D03*
X135142D02*
D03*
X130142D02*
D03*
D34*
Y5616D02*
D03*
D35*
X39124Y86386D02*
D03*
X41664Y83846D02*
D03*
X44204Y86386D02*
D03*
D36*
X69342Y34798D02*
D03*
X66802D02*
D03*
X64262D02*
D03*
X61722D02*
D03*
X59182D02*
D03*
X56642D02*
D03*
X54102D02*
D03*
X51562D02*
D03*
X49022D02*
D03*
X46482D02*
D03*
X43942D02*
D03*
X41402D02*
D03*
X38862D02*
D03*
X36322D02*
D03*
X33782D02*
D03*
X31242D02*
D03*
X101346Y10333D02*
D03*
X91948Y10333D02*
D03*
X38862Y9906D02*
D03*
X39370Y24638D02*
D03*
X64516Y3302D02*
D03*
Y5842D02*
D03*
Y8382D02*
D03*
Y10922D02*
D03*
Y13462D02*
D03*
X119888Y6616D02*
D03*
X115316D02*
D03*
X110998D02*
D03*
X106680D02*
D03*
D37*
X75842Y35798D02*
D03*
Y75798D02*
D03*
X5842D02*
D03*
Y35798D02*
D03*
D38*
X91948Y2713D02*
D03*
X41402Y9906D02*
D03*
X41910Y24638D02*
D03*
X101346Y2713D02*
D03*
X96774Y2725D02*
D03*
D39*
X149860Y56896D02*
D03*
Y69262D02*
D03*
Y81708D02*
D03*
X73486Y89916D02*
D03*
X61040Y89916D02*
D03*
D40*
X149860Y51896D02*
D03*
Y64262D02*
D03*
Y76708D02*
D03*
D41*
X78486Y89916D02*
D03*
X66040Y89916D02*
D03*
D42*
X101346Y12873D02*
D03*
X91948Y12873D02*
D03*
X64516Y16002D02*
D03*
X119888Y4076D02*
D03*
X115316D02*
D03*
X110998D02*
D03*
X106680D02*
D03*
D43*
X128778Y77978D02*
D03*
X118618D02*
D03*
X113854Y86868D02*
D03*
X103694D02*
D03*
X101154Y77724D02*
D03*
X90994D02*
D03*
X118364Y32004D02*
D03*
X128524D02*
D03*
X104140Y38100D02*
D03*
X114300D02*
D03*
X100722Y35560D02*
D03*
X90562D02*
D03*
X90424Y28956D02*
D03*
X100584D02*
D03*
X128524Y58420D02*
D03*
X118364D02*
D03*
X100838Y58166D02*
D03*
X90678D02*
D03*
X113792Y54610D02*
D03*
X103632D02*
D03*
Y49784D02*
D03*
X113792D02*
D03*
D44*
X4500Y4500D02*
D03*
X150500D02*
D03*
Y90500D02*
D03*
X4500D02*
D03*
D45*
X66294Y83312D02*
D03*
X83057Y24834D02*
D03*
X83312Y27391D02*
D03*
X30226Y81534D02*
D03*
X49022Y20066D02*
D03*
X145000Y80000D02*
D03*
X140000Y70000D02*
D03*
X145000Y60000D02*
D03*
X140000Y50000D02*
D03*
Y30000D02*
D03*
X145000Y20000D02*
D03*
X130000Y70000D02*
D03*
Y50000D02*
D03*
X135000Y40000D02*
D03*
X130000Y30000D02*
D03*
X135000Y20000D02*
D03*
X125000Y80000D02*
D03*
X120000Y70000D02*
D03*
Y50000D02*
D03*
X125000Y40000D02*
D03*
Y20000D02*
D03*
X120000Y10000D02*
D03*
X115000Y80000D02*
D03*
Y60000D02*
D03*
X110000Y50000D02*
D03*
X115000Y40000D02*
D03*
Y20000D02*
D03*
X105000Y80000D02*
D03*
X100000Y70000D02*
D03*
Y50000D02*
D03*
X105000Y40000D02*
D03*
X100000Y30000D02*
D03*
X105000Y20000D02*
D03*
X100000Y10000D02*
D03*
X95000Y80000D02*
D03*
X90000Y70000D02*
D03*
X95000Y60000D02*
D03*
X90000Y50000D02*
D03*
X95000Y40000D02*
D03*
Y20000D02*
D03*
X85000Y80000D02*
D03*
X80000Y70000D02*
D03*
X75000Y80000D02*
D03*
Y60000D02*
D03*
X70000Y50000D02*
D03*
X75000Y40000D02*
D03*
Y20000D02*
D03*
X65000Y80000D02*
D03*
X60000Y70000D02*
D03*
X65000Y60000D02*
D03*
X60000Y50000D02*
D03*
X65000Y20000D02*
D03*
X55000Y80000D02*
D03*
X50000Y70000D02*
D03*
Y50000D02*
D03*
Y30000D02*
D03*
X55000Y20000D02*
D03*
X50000Y10000D02*
D03*
X40000Y70000D02*
D03*
Y50000D02*
D03*
Y30000D02*
D03*
X45000Y20000D02*
D03*
X35000Y80000D02*
D03*
X30000Y70000D02*
D03*
X35000Y60000D02*
D03*
X30000Y50000D02*
D03*
X35000Y40000D02*
D03*
X30000Y30000D02*
D03*
X35000Y20000D02*
D03*
X25000Y80000D02*
D03*
X20000Y70000D02*
D03*
X25000Y60000D02*
D03*
X20000Y50000D02*
D03*
X25000Y40000D02*
D03*
X20000Y30000D02*
D03*
X15000Y80000D02*
D03*
X10000Y70000D02*
D03*
X15000Y60000D02*
D03*
X10000Y50000D02*
D03*
X15000Y40000D02*
D03*
X10000Y30000D02*
D03*
Y10000D02*
D03*
X46990Y21450D02*
D03*
X122682Y14817D02*
D03*
X101346Y23114D02*
D03*
X24521Y4215D02*
D03*
X126854Y12700D02*
D03*
X122682Y17008D02*
D03*
X76032Y20828D02*
D03*
X53594Y30988D02*
D03*
X86868Y39814D02*
D03*
X89662Y42672D02*
D03*
X69088Y30988D02*
D03*
X64516D02*
D03*
X73216Y23114D02*
D03*
X82232Y46228D02*
D03*
X88646Y22352D02*
D03*
X59182Y17636D02*
D03*
X79248Y19050D02*
D03*
X82232Y24834D02*
D03*
X85007Y32608D02*
D03*
X85657Y29528D02*
D03*
X80010Y29464D02*
D03*
X71516Y24130D02*
D03*
X82296Y12446D02*
D03*
X76416Y11684D02*
D03*
X81216Y19900D02*
D03*
X81107Y18250D02*
D03*
X85007Y16650D02*
D03*
X114554Y22606D02*
D03*
X91891Y21590D02*
D03*
X110490Y18542D02*
D03*
X71916Y28702D02*
D03*
X69865D02*
D03*
X86360Y21590D02*
D03*
X107499Y12446D02*
D03*
X106426D02*
D03*
X102616Y74398D02*
D03*
X131826Y40896D02*
D03*
X108331Y32258D02*
D03*
X107250Y68326D02*
D03*
X73216Y10936D02*
D03*
X71516Y13934D02*
D03*
X73177Y15825D02*
D03*
X77216Y10333D02*
D03*
X66548Y16650D02*
D03*
X146812Y45085D02*
D03*
X147828Y39116D02*
D03*
X144780Y43815D02*
D03*
Y33274D02*
D03*
X126746Y37338D02*
D03*
X134620D02*
D03*
X138684Y25654D02*
D03*
X137668Y24384D02*
D03*
X135636Y25654D02*
D03*
Y24384D02*
D03*
X80010Y22860D02*
D03*
X81216Y22250D02*
D03*
X7874Y25295D02*
D03*
X21844Y18288D02*
D03*
X10414Y20631D02*
D03*
X22860Y24660D02*
D03*
X14986Y23160D02*
D03*
X12468Y6015D02*
D03*
X16256Y9652D02*
D03*
X22098Y7666D02*
D03*
%TF.MD5,d7031674b2d7622a983bcb02bc7c00f1*%
M02*
