%TF.GenerationSoftware,Altium Limited,Altium Designer,22.7.1 (60)*%
G04 Layer_Color=32768*
%FSLAX43Y43*%
%MOMM*%
%TF.SameCoordinates,798C7C01-C923-4F4B-AA1E-7D7C4C9A7158*%
%TF.FilePolarity,Positive*%
%TF.FileFunction,Other,Board_Outline_(ES)*%
%TF.Part,CustomerPanel*%
G01*
G75*
%TA.AperFunction,NonConductor*%
%ADD23C,0.254*%
D23*
X0Y0D02*
X59500D01*
X0Y54500D02*
X59500D01*
Y0D02*
Y54500D01*
X0Y0D02*
Y54500D01*
X19468Y18616D02*
G03*
X20560Y17525I1092J0D01*
G01*
X9975Y17516D02*
G03*
X11055Y18596I0J1080D01*
G01*
X19455Y22367D02*
G03*
X11055Y22367I-4200J0D01*
G01*
X20560Y17525D02*
X23510Y17516D01*
X19455Y22367D02*
X19468Y18616D01*
X11055Y18596D02*
X11064Y22367D01*
X7000Y17516D02*
X9975D01*
X23510Y7000D02*
Y17516D01*
X7000Y7000D02*
X23510D01*
X7000D02*
Y17516D01*
X25505Y18457D02*
G03*
X24413Y19549I-1092J0D01*
G01*
X34998Y19558D02*
G03*
X33918Y18478I0J-1080D01*
G01*
X25518Y14707D02*
G03*
X33918Y14707I4200J0D01*
G01*
X24413Y19549D02*
X21463Y19558D01*
X25518Y14707D02*
X25505Y18457D01*
X33918Y18478D02*
X33909Y14707D01*
X37973Y19558D02*
X34998D01*
X21463Y30074D02*
Y19558D01*
X37973Y30074D02*
X21463D01*
X37973D02*
Y19558D01*
X7000Y32131D02*
X35448D01*
X7000Y47371D02*
X35448D01*
Y32131D02*
Y47371D01*
X7000Y32131D02*
Y47371D01*
X48418Y18601D02*
G03*
X49510Y17510I1092J0D01*
G01*
X38925Y17501D02*
G03*
X40005Y18581I0J1080D01*
G01*
X48405Y22352D02*
G03*
X40005Y22352I-4200J0D01*
G01*
X49510Y17510D02*
X52460Y17501D01*
X48405Y22352D02*
X48418Y18601D01*
X40005Y18581D02*
X40014Y22352D01*
X35950Y17501D02*
X38925D01*
X52460Y6985D02*
Y17501D01*
X35950Y6985D02*
X52460D01*
X35950D02*
Y17501D01*
%TF.MD5,0dd2b0d22975ab096abff2f6329004a4*%
M02*
