M48
;Layer_Color=9474304
;FILE_FORMAT=4:3
METRIC,LZ
;TYPE=PLATED
T1F00S00C0.300
T2F00S00C0.900
T3F00S00C1.000
T4F00S00C3.200
%
T01
X0012715Y0009921
X0041665Y0009906
X0032258Y0027153
T02
X0009159Y0009413
X0019573
Y001462
X00254Y0022454
Y0027661
X0035814
X0038109Y0009398
X0048523
Y0014605
X0032654Y0041783
X0009794
T03
X0032654Y0035687
X0009794
T04
X0015255Y0022367
X0029718Y0014707
X0044205Y0022352
X0021224Y0043053
M30
