%TF.GenerationSoftware,Altium Limited,Altium Designer,22.7.1 (60)*%
G04 Layer_Color=8388736*
%FSLAX43Y43*%
%MOMM*%
%TF.SameCoordinates,798C7C01-C923-4F4B-AA1E-7D7C4C9A7158*%
%TF.FilePolarity,Negative*%
%TF.FileFunction,Soldermask,Top*%
%TF.Part,CustomerPanel*%
G01*
G75*
%TA.AperFunction,SMDPad,CuDef*%
%ADD10R,1.400X1.100*%
%ADD11R,1.100X1.400*%
%ADD12R,0.450X1.100*%
%ADD15R,1.400X1.100*%
%TA.AperFunction,ComponentPad*%
%ADD16R,1.500X1.500*%
%TA.AperFunction,ViaPad*%
%ADD17C,1.524*%
%ADD18C,0.650*%
%TA.AperFunction,ComponentPad*%
%ADD19R,1.500X1.500*%
%ADD20C,1.650*%
D10*
X12588Y12739D02*
D03*
Y14239D02*
D03*
X32385Y24335D02*
D03*
Y22835D02*
D03*
D11*
X14493Y10048D02*
D03*
X15993D02*
D03*
X30480Y27026D02*
D03*
X28980D02*
D03*
X43443Y10033D02*
D03*
X44943D02*
D03*
D12*
X14590Y14615D02*
D03*
X15890D02*
D03*
Y12715D02*
D03*
X15240D02*
D03*
X14590D02*
D03*
X30383Y22459D02*
D03*
X29083D02*
D03*
Y24359D02*
D03*
X29733D02*
D03*
X30383D02*
D03*
X43540Y14600D02*
D03*
X44840D02*
D03*
Y12700D02*
D03*
X44190D02*
D03*
X43540D02*
D03*
D15*
X41538Y12724D02*
D03*
Y14224D02*
D03*
D16*
X9159Y9413D02*
D03*
X19573Y14620D02*
D03*
Y9413D02*
D03*
X35814Y27661D02*
D03*
X25400Y22454D02*
D03*
Y27661D02*
D03*
D17*
X15255Y22367D02*
D03*
X29718Y14707D02*
D03*
X21224Y43053D02*
D03*
X44205Y22352D02*
D03*
D18*
X12715Y9921D02*
D03*
X32258Y27153D02*
D03*
X41665Y9906D02*
D03*
D19*
X32654Y41783D02*
D03*
X9794D02*
D03*
X38109Y9398D02*
D03*
X48523Y14605D02*
D03*
Y9398D02*
D03*
D20*
X32654Y35687D02*
D03*
X9794D02*
D03*
%TF.MD5,c4e5ba6ab67dee5430450cd7de6a9c98*%
M02*
