%TF.GenerationSoftware,Altium Limited,Altium Designer,22.7.1 (60)*%
G04 Layer_Physical_Order=1*
G04 Layer_Color=255*
%FSLAX43Y43*%
%MOMM*%
%TF.SameCoordinates,798C7C01-C923-4F4B-AA1E-7D7C4C9A7158*%
%TF.FilePolarity,Positive*%
%TF.FileFunction,Copper,L1,Top,Signal*%
%TF.Part,CustomerPanel*%
G01*
G75*
%TA.AperFunction,SMDPad,CuDef*%
%ADD10R,1.400X1.100*%
%ADD11R,1.100X1.400*%
%ADD12R,0.450X1.100*%
%TA.AperFunction,Conductor*%
%ADD13C,0.400*%
%ADD14C,0.700*%
%TA.AperFunction,SMDPad,CuDef*%
%ADD15R,1.400X1.100*%
%TA.AperFunction,ComponentPad*%
%ADD16R,1.500X1.500*%
%TA.AperFunction,ViaPad*%
%ADD17C,1.524*%
%ADD18C,0.650*%
%TA.AperFunction,ComponentPad*%
%ADD19R,1.500X1.500*%
%ADD20C,1.650*%
D10*
X12588Y12739D02*
D03*
Y14239D02*
D03*
X32385Y24335D02*
D03*
Y22835D02*
D03*
D11*
X14493Y10048D02*
D03*
X15993D02*
D03*
X30480Y27026D02*
D03*
X28980D02*
D03*
X43443Y10033D02*
D03*
X44943D02*
D03*
D12*
X14590Y14615D02*
D03*
X15890D02*
D03*
Y12715D02*
D03*
X15240D02*
D03*
X14590D02*
D03*
X30383Y22459D02*
D03*
X29083D02*
D03*
Y24359D02*
D03*
X29733D02*
D03*
X30383D02*
D03*
X43540Y14600D02*
D03*
X44840D02*
D03*
Y12700D02*
D03*
X44190D02*
D03*
X43540D02*
D03*
D13*
X14366Y9921D02*
X14493Y10048D01*
X12715Y9921D02*
X14366D01*
X15759Y8524D02*
X15993Y8758D01*
Y10048D01*
X10048Y8524D02*
X15759D01*
X15890Y10151D02*
X15993Y10048D01*
X9159Y9413D02*
X10048Y8524D01*
X12588Y14239D02*
Y15036D01*
X13823Y16271D01*
X15890D01*
Y10151D02*
Y12715D01*
X14590D02*
X15240D01*
X14566Y12739D02*
X14590Y12715D01*
X12588Y12739D02*
X14566D01*
X14590Y10145D02*
Y12715D01*
X14493Y10048D02*
X14590Y10145D01*
Y12715D02*
Y14615D01*
X15890Y16271D02*
X17922D01*
X15890Y14615D02*
Y16271D01*
X17922D02*
X19573Y14620D01*
X30607Y27153D02*
X30480Y27026D01*
X32258Y27153D02*
X30607D01*
X29214Y28550D02*
X28980Y28315D01*
Y27026D01*
X34925Y28550D02*
X29214D01*
X29083Y26923D02*
X28980Y27026D01*
X35814Y27661D02*
X34925Y28550D01*
X32385Y22835D02*
Y22038D01*
X31150Y20803D01*
X29083D01*
Y26923D02*
Y24359D01*
X30383D02*
X29733D01*
X30407Y24335D02*
X30383Y24359D01*
X32385Y24335D02*
X30407D01*
X30383Y26929D02*
Y24359D01*
X30480Y27026D02*
X30383Y26929D01*
Y24359D02*
Y22459D01*
X29083Y20803D02*
X27051D01*
X29083Y22459D02*
Y20803D01*
X27051D02*
X25400Y22454D01*
X43316Y9906D02*
X43443Y10033D01*
X41665Y9906D02*
X43316D01*
X44709Y8509D02*
X44943Y8743D01*
Y10033D01*
X38998Y8509D02*
X44709D01*
X44840Y10136D02*
X44943Y10033D01*
X38109Y9398D02*
X38998Y8509D01*
X41538Y14224D02*
Y15021D01*
X42773Y16256D01*
X44840D01*
Y10136D02*
Y12700D01*
X43540D02*
X44190D01*
X43516Y12724D02*
X43540Y12700D01*
X41538Y12724D02*
X43516D01*
X43540Y10130D02*
Y12700D01*
X43443Y10033D02*
X43540Y10130D01*
Y12700D02*
Y14600D01*
X44840Y16256D02*
X46872D01*
X44840Y14600D02*
Y16256D01*
X46872D02*
X48523Y14605D01*
D14*
X32654Y35687D02*
Y41783D01*
X9794Y35687D02*
Y41783D01*
D15*
X41538Y12724D02*
D03*
Y14224D02*
D03*
D16*
X9159Y9413D02*
D03*
X19573Y14620D02*
D03*
Y9413D02*
D03*
X35814Y27661D02*
D03*
X25400Y22454D02*
D03*
Y27661D02*
D03*
D17*
X15255Y22367D02*
D03*
X29718Y14707D02*
D03*
X21224Y43053D02*
D03*
X44205Y22352D02*
D03*
D18*
X12715Y9921D02*
D03*
X32258Y27153D02*
D03*
X41665Y9906D02*
D03*
D19*
X32654Y41783D02*
D03*
X9794D02*
D03*
X38109Y9398D02*
D03*
X48523Y14605D02*
D03*
Y9398D02*
D03*
D20*
X32654Y35687D02*
D03*
X9794D02*
D03*
%TF.MD5,1c954eeb2ac694cce9af5337d1578421*%
M02*
