%TF.GenerationSoftware,Altium Limited,Altium Designer,22.7.1 (60)*%
G04 Layer_Physical_Order=2*
G04 Layer_Color=16711680*
%FSLAX43Y43*%
%MOMM*%
%TF.SameCoordinates,798C7C01-C923-4F4B-AA1E-7D7C4C9A7158*%
%TF.FilePolarity,Positive*%
%TF.FileFunction,Copper,L2,Bot,Signal*%
%TF.Part,CustomerPanel*%
G01*
G75*
%TA.AperFunction,Conductor*%
%ADD13C,0.400*%
%TA.AperFunction,ComponentPad*%
%ADD16R,1.500X1.500*%
%TA.AperFunction,ViaPad*%
%ADD17C,1.524*%
%ADD18C,0.650*%
%TA.AperFunction,ComponentPad*%
%ADD19R,1.500X1.500*%
%ADD20C,1.650*%
D13*
X12715Y9921D02*
X19065D01*
X19573Y9413D01*
X32258Y27153D02*
X25908D01*
X25400Y27661D01*
X41665Y9906D02*
X48015D01*
X48523Y9398D01*
D16*
X9159Y9413D02*
D03*
X19573Y14620D02*
D03*
Y9413D02*
D03*
X35814Y27661D02*
D03*
X25400Y22454D02*
D03*
Y27661D02*
D03*
D17*
X15255Y22367D02*
D03*
X29718Y14707D02*
D03*
X21224Y43053D02*
D03*
X44205Y22352D02*
D03*
D18*
X12715Y9921D02*
D03*
X32258Y27153D02*
D03*
X41665Y9906D02*
D03*
D19*
X32654Y41783D02*
D03*
X9794D02*
D03*
X38109Y9398D02*
D03*
X48523Y14605D02*
D03*
Y9398D02*
D03*
D20*
X32654Y35687D02*
D03*
X9794D02*
D03*
%TF.MD5,ba2fba991ad8e1315d72d77103ad0950*%
M02*
